<?xml version="1.0" encoding="utf-8"?>
<svg xmlns="http://www.w3.org/2000/svg" xmlns:xlink="http://www.w3.org/1999/xlink" width="600" height="400" viewBox="0 0 2400 1600">
<defs>
  <clipPath id="clip870">
    <rect x="0" y="0" width="2400" height="1600"/>
  </clipPath>
</defs>
<path clip-path="url(#clip870)" d="M0 1600 L2400 1600 L2400 0 L0 0  Z" fill="#ffffff" fill-rule="evenodd" fill-opacity="1"/>
<defs>
  <clipPath id="clip871">
    <rect x="480" y="0" width="1681" height="1600"/>
  </clipPath>
</defs>
<path clip-path="url(#clip870)" d="M175.445 1423.18 L2352.76 1423.18 L2352.76 123.472 L175.445 123.472  Z" fill="#ffffff" fill-rule="evenodd" fill-opacity="1"/>
<defs>
  <clipPath id="clip872">
    <rect x="175" y="123" width="2178" height="1301"/>
  </clipPath>
</defs>
<polyline clip-path="url(#clip872)" style="stroke:#000000; stroke-linecap:round; stroke-linejoin:round; stroke-width:2; stroke-opacity:0.1; fill:none" points="184.399,1423.18 184.399,123.472 "/>
<polyline clip-path="url(#clip872)" style="stroke:#000000; stroke-linecap:round; stroke-linejoin:round; stroke-width:2; stroke-opacity:0.1; fill:none" points="711.083,1423.18 711.083,123.472 "/>
<polyline clip-path="url(#clip872)" style="stroke:#000000; stroke-linecap:round; stroke-linejoin:round; stroke-width:2; stroke-opacity:0.1; fill:none" points="1237.77,1423.18 1237.77,123.472 "/>
<polyline clip-path="url(#clip872)" style="stroke:#000000; stroke-linecap:round; stroke-linejoin:round; stroke-width:2; stroke-opacity:0.1; fill:none" points="1764.45,1423.18 1764.45,123.472 "/>
<polyline clip-path="url(#clip872)" style="stroke:#000000; stroke-linecap:round; stroke-linejoin:round; stroke-width:2; stroke-opacity:0.1; fill:none" points="2291.13,1423.18 2291.13,123.472 "/>
<polyline clip-path="url(#clip872)" style="stroke:#000000; stroke-linecap:round; stroke-linejoin:round; stroke-width:2; stroke-opacity:0.1; fill:none" points="175.445,1386.4 2352.76,1386.4 "/>
<polyline clip-path="url(#clip872)" style="stroke:#000000; stroke-linecap:round; stroke-linejoin:round; stroke-width:2; stroke-opacity:0.1; fill:none" points="175.445,1141.17 2352.76,1141.17 "/>
<polyline clip-path="url(#clip872)" style="stroke:#000000; stroke-linecap:round; stroke-linejoin:round; stroke-width:2; stroke-opacity:0.1; fill:none" points="175.445,895.94 2352.76,895.94 "/>
<polyline clip-path="url(#clip872)" style="stroke:#000000; stroke-linecap:round; stroke-linejoin:round; stroke-width:2; stroke-opacity:0.1; fill:none" points="175.445,650.712 2352.76,650.712 "/>
<polyline clip-path="url(#clip872)" style="stroke:#000000; stroke-linecap:round; stroke-linejoin:round; stroke-width:2; stroke-opacity:0.1; fill:none" points="175.445,405.484 2352.76,405.484 "/>
<polyline clip-path="url(#clip872)" style="stroke:#000000; stroke-linecap:round; stroke-linejoin:round; stroke-width:2; stroke-opacity:0.1; fill:none" points="175.445,160.256 2352.76,160.256 "/>
<polyline clip-path="url(#clip870)" style="stroke:#000000; stroke-linecap:round; stroke-linejoin:round; stroke-width:4; stroke-opacity:1; fill:none" points="175.445,1423.18 2352.76,1423.18 "/>
<polyline clip-path="url(#clip870)" style="stroke:#000000; stroke-linecap:round; stroke-linejoin:round; stroke-width:4; stroke-opacity:1; fill:none" points="184.399,1423.18 184.399,1404.28 "/>
<polyline clip-path="url(#clip870)" style="stroke:#000000; stroke-linecap:round; stroke-linejoin:round; stroke-width:4; stroke-opacity:1; fill:none" points="711.083,1423.18 711.083,1404.28 "/>
<polyline clip-path="url(#clip870)" style="stroke:#000000; stroke-linecap:round; stroke-linejoin:round; stroke-width:4; stroke-opacity:1; fill:none" points="1237.77,1423.18 1237.77,1404.28 "/>
<polyline clip-path="url(#clip870)" style="stroke:#000000; stroke-linecap:round; stroke-linejoin:round; stroke-width:4; stroke-opacity:1; fill:none" points="1764.45,1423.18 1764.45,1404.28 "/>
<polyline clip-path="url(#clip870)" style="stroke:#000000; stroke-linecap:round; stroke-linejoin:round; stroke-width:4; stroke-opacity:1; fill:none" points="2291.13,1423.18 2291.13,1404.28 "/>
<path clip-path="url(#clip870)" d="M184.399 1454.1 Q180.788 1454.1 178.959 1457.66 Q177.154 1461.2 177.154 1468.33 Q177.154 1475.44 178.959 1479.01 Q180.788 1482.55 184.399 1482.55 Q188.033 1482.55 189.839 1479.01 Q191.667 1475.44 191.667 1468.33 Q191.667 1461.2 189.839 1457.66 Q188.033 1454.1 184.399 1454.1 M184.399 1450.39 Q190.209 1450.39 193.265 1455 Q196.343 1459.58 196.343 1468.33 Q196.343 1477.06 193.265 1481.67 Q190.209 1486.25 184.399 1486.25 Q178.589 1486.25 175.51 1481.67 Q172.454 1477.06 172.454 1468.33 Q172.454 1459.58 175.51 1455 Q178.589 1450.39 184.399 1450.39 Z" fill="#000000" fill-rule="nonzero" fill-opacity="1" /><path clip-path="url(#clip870)" d="M685.77 1481.64 L693.409 1481.64 L693.409 1455.28 L685.099 1456.95 L685.099 1452.69 L693.363 1451.02 L698.039 1451.02 L698.039 1481.64 L705.678 1481.64 L705.678 1485.58 L685.77 1485.58 L685.77 1481.64 Z" fill="#000000" fill-rule="nonzero" fill-opacity="1" /><path clip-path="url(#clip870)" d="M725.122 1454.1 Q721.511 1454.1 719.682 1457.66 Q717.877 1461.2 717.877 1468.33 Q717.877 1475.44 719.682 1479.01 Q721.511 1482.55 725.122 1482.55 Q728.756 1482.55 730.562 1479.01 Q732.39 1475.44 732.39 1468.33 Q732.39 1461.2 730.562 1457.66 Q728.756 1454.1 725.122 1454.1 M725.122 1450.39 Q730.932 1450.39 733.988 1455 Q737.066 1459.58 737.066 1468.33 Q737.066 1477.06 733.988 1481.67 Q730.932 1486.25 725.122 1486.25 Q719.312 1486.25 716.233 1481.67 Q713.177 1477.06 713.177 1468.33 Q713.177 1459.58 716.233 1455 Q719.312 1450.39 725.122 1450.39 Z" fill="#000000" fill-rule="nonzero" fill-opacity="1" /><path clip-path="url(#clip870)" d="M1216.54 1481.64 L1232.86 1481.64 L1232.86 1485.58 L1210.91 1485.58 L1210.91 1481.64 Q1213.58 1478.89 1218.16 1474.26 Q1222.77 1469.61 1223.95 1468.27 Q1226.19 1465.74 1227.07 1464.01 Q1227.97 1462.25 1227.97 1460.56 Q1227.97 1457.8 1226.03 1456.07 Q1224.11 1454.33 1221.01 1454.33 Q1218.81 1454.33 1216.35 1455.09 Q1213.92 1455.86 1211.15 1457.41 L1211.15 1452.69 Q1213.97 1451.55 1216.42 1450.97 Q1218.88 1450.39 1220.91 1450.39 Q1226.28 1450.39 1229.48 1453.08 Q1232.67 1455.77 1232.67 1460.26 Q1232.67 1462.39 1231.86 1464.31 Q1231.08 1466.2 1228.97 1468.8 Q1228.39 1469.47 1225.29 1472.69 Q1222.19 1475.88 1216.54 1481.64 Z" fill="#000000" fill-rule="nonzero" fill-opacity="1" /><path clip-path="url(#clip870)" d="M1252.67 1454.1 Q1249.06 1454.1 1247.23 1457.66 Q1245.43 1461.2 1245.43 1468.33 Q1245.43 1475.44 1247.23 1479.01 Q1249.06 1482.55 1252.67 1482.55 Q1256.31 1482.55 1258.11 1479.01 Q1259.94 1475.44 1259.94 1468.33 Q1259.94 1461.2 1258.11 1457.66 Q1256.31 1454.1 1252.67 1454.1 M1252.67 1450.39 Q1258.48 1450.39 1261.54 1455 Q1264.62 1459.58 1264.62 1468.33 Q1264.62 1477.06 1261.54 1481.67 Q1258.48 1486.25 1252.67 1486.25 Q1246.86 1486.25 1243.78 1481.67 Q1240.73 1477.06 1240.73 1468.33 Q1240.73 1459.58 1243.78 1455 Q1246.86 1450.39 1252.67 1450.39 Z" fill="#000000" fill-rule="nonzero" fill-opacity="1" /><path clip-path="url(#clip870)" d="M1753.29 1466.95 Q1756.65 1467.66 1758.52 1469.93 Q1760.42 1472.2 1760.42 1475.53 Q1760.42 1480.65 1756.9 1483.45 Q1753.39 1486.25 1746.9 1486.25 Q1744.73 1486.25 1742.41 1485.81 Q1740.12 1485.39 1737.67 1484.54 L1737.67 1480.02 Q1739.61 1481.16 1741.93 1481.74 Q1744.24 1482.32 1746.77 1482.32 Q1751.16 1482.32 1753.45 1480.58 Q1755.77 1478.84 1755.77 1475.53 Q1755.77 1472.48 1753.62 1470.77 Q1751.49 1469.03 1747.67 1469.03 L1743.64 1469.03 L1743.64 1465.19 L1747.85 1465.19 Q1751.3 1465.19 1753.13 1463.82 Q1754.96 1462.43 1754.96 1459.84 Q1754.96 1457.18 1753.06 1455.77 Q1751.19 1454.33 1747.67 1454.33 Q1745.75 1454.33 1743.55 1454.75 Q1741.35 1455.16 1738.71 1456.04 L1738.71 1451.88 Q1741.37 1451.14 1743.69 1450.77 Q1746.02 1450.39 1748.08 1450.39 Q1753.41 1450.39 1756.51 1452.83 Q1759.61 1455.23 1759.61 1459.35 Q1759.61 1462.22 1757.97 1464.21 Q1756.33 1466.18 1753.29 1466.95 Z" fill="#000000" fill-rule="nonzero" fill-opacity="1" /><path clip-path="url(#clip870)" d="M1779.29 1454.1 Q1775.68 1454.1 1773.85 1457.66 Q1772.04 1461.2 1772.04 1468.33 Q1772.04 1475.44 1773.85 1479.01 Q1775.68 1482.55 1779.29 1482.55 Q1782.92 1482.55 1784.73 1479.01 Q1786.56 1475.44 1786.56 1468.33 Q1786.56 1461.2 1784.73 1457.66 Q1782.92 1454.1 1779.29 1454.1 M1779.29 1450.39 Q1785.1 1450.39 1788.15 1455 Q1791.23 1459.58 1791.23 1468.33 Q1791.23 1477.06 1788.15 1481.67 Q1785.1 1486.25 1779.29 1486.25 Q1773.48 1486.25 1770.4 1481.67 Q1767.34 1477.06 1767.34 1468.33 Q1767.34 1459.58 1770.4 1455 Q1773.48 1450.39 1779.29 1450.39 Z" fill="#000000" fill-rule="nonzero" fill-opacity="1" /><path clip-path="url(#clip870)" d="M2279.31 1455.09 L2267.5 1473.54 L2279.31 1473.54 L2279.31 1455.09 M2278.08 1451.02 L2283.96 1451.02 L2283.96 1473.54 L2288.89 1473.54 L2288.89 1477.43 L2283.96 1477.43 L2283.96 1485.58 L2279.31 1485.58 L2279.31 1477.43 L2263.7 1477.43 L2263.7 1472.92 L2278.08 1451.02 Z" fill="#000000" fill-rule="nonzero" fill-opacity="1" /><path clip-path="url(#clip870)" d="M2306.62 1454.1 Q2303.01 1454.1 2301.18 1457.66 Q2299.37 1461.2 2299.37 1468.33 Q2299.37 1475.44 2301.18 1479.01 Q2303.01 1482.55 2306.62 1482.55 Q2310.25 1482.55 2312.06 1479.01 Q2313.89 1475.44 2313.89 1468.33 Q2313.89 1461.2 2312.06 1457.66 Q2310.25 1454.1 2306.62 1454.1 M2306.62 1450.39 Q2312.43 1450.39 2315.49 1455 Q2318.56 1459.58 2318.56 1468.33 Q2318.56 1477.06 2315.49 1481.67 Q2312.43 1486.25 2306.62 1486.25 Q2300.81 1486.25 2297.73 1481.67 Q2294.68 1477.06 2294.68 1468.33 Q2294.68 1459.58 2297.73 1455 Q2300.81 1450.39 2306.62 1450.39 Z" fill="#000000" fill-rule="nonzero" fill-opacity="1" /><path clip-path="url(#clip870)" d="M1210.34 1525.81 L1210.34 1562.76 L1218.11 1562.76 Q1227.94 1562.76 1232.49 1558.3 Q1237.08 1553.85 1237.08 1544.24 Q1237.08 1534.69 1232.49 1530.26 Q1227.94 1525.81 1218.11 1525.81 L1210.34 1525.81 M1203.91 1520.52 L1217.12 1520.52 Q1230.94 1520.52 1237.4 1526.28 Q1243.86 1532.01 1243.86 1544.24 Q1243.86 1556.52 1237.36 1562.28 Q1230.87 1568.04 1217.12 1568.04 L1203.91 1568.04 L1203.91 1520.52 Z" fill="#000000" fill-rule="nonzero" fill-opacity="1" /><path clip-path="url(#clip870)" d="M1270.05 1550.12 Q1262.95 1550.12 1260.22 1551.75 Q1257.48 1553.37 1257.48 1557.29 Q1257.48 1560.4 1259.52 1562.25 Q1261.59 1564.07 1265.12 1564.07 Q1269.99 1564.07 1272.92 1560.63 Q1275.88 1557.16 1275.88 1551.43 L1275.88 1550.12 L1270.05 1550.12 M1281.73 1547.71 L1281.73 1568.04 L1275.88 1568.04 L1275.88 1562.63 Q1273.87 1565.88 1270.88 1567.44 Q1267.89 1568.97 1263.56 1568.97 Q1258.08 1568.97 1254.84 1565.91 Q1251.62 1562.82 1251.62 1557.67 Q1251.62 1551.65 1255.63 1548.6 Q1259.68 1545.54 1267.67 1545.54 L1275.88 1545.54 L1275.88 1544.97 Q1275.88 1540.93 1273.2 1538.73 Q1270.56 1536.5 1265.76 1536.5 Q1262.7 1536.5 1259.8 1537.23 Q1256.91 1537.97 1254.23 1539.43 L1254.23 1534.02 Q1257.45 1532.78 1260.47 1532.17 Q1263.5 1531.54 1266.36 1531.54 Q1274.09 1531.54 1277.91 1535.55 Q1281.73 1539.56 1281.73 1547.71 Z" fill="#000000" fill-rule="nonzero" fill-opacity="1" /><path clip-path="url(#clip870)" d="M1308.63 1571.35 Q1306.15 1577.72 1303.79 1579.66 Q1301.44 1581.6 1297.49 1581.6 L1292.81 1581.6 L1292.81 1576.7 L1296.25 1576.7 Q1298.67 1576.7 1300 1575.56 Q1301.34 1574.41 1302.96 1570.14 L1304.01 1567.47 L1289.6 1532.4 L1295.8 1532.4 L1306.94 1560.28 L1318.08 1532.4 L1324.29 1532.4 L1308.63 1571.35 Z" fill="#000000" fill-rule="nonzero" fill-opacity="1" /><polyline clip-path="url(#clip870)" style="stroke:#000000; stroke-linecap:round; stroke-linejoin:round; stroke-width:4; stroke-opacity:1; fill:none" points="175.445,1423.18 175.445,123.472 "/>
<polyline clip-path="url(#clip870)" style="stroke:#000000; stroke-linecap:round; stroke-linejoin:round; stroke-width:4; stroke-opacity:1; fill:none" points="175.445,1386.4 194.343,1386.4 "/>
<polyline clip-path="url(#clip870)" style="stroke:#000000; stroke-linecap:round; stroke-linejoin:round; stroke-width:4; stroke-opacity:1; fill:none" points="175.445,1141.17 194.343,1141.17 "/>
<polyline clip-path="url(#clip870)" style="stroke:#000000; stroke-linecap:round; stroke-linejoin:round; stroke-width:4; stroke-opacity:1; fill:none" points="175.445,895.94 194.343,895.94 "/>
<polyline clip-path="url(#clip870)" style="stroke:#000000; stroke-linecap:round; stroke-linejoin:round; stroke-width:4; stroke-opacity:1; fill:none" points="175.445,650.712 194.343,650.712 "/>
<polyline clip-path="url(#clip870)" style="stroke:#000000; stroke-linecap:round; stroke-linejoin:round; stroke-width:4; stroke-opacity:1; fill:none" points="175.445,405.484 194.343,405.484 "/>
<polyline clip-path="url(#clip870)" style="stroke:#000000; stroke-linecap:round; stroke-linejoin:round; stroke-width:4; stroke-opacity:1; fill:none" points="175.445,160.256 194.343,160.256 "/>
<path clip-path="url(#clip870)" d="M127.501 1372.19 Q123.89 1372.19 122.061 1375.76 Q120.255 1379.3 120.255 1386.43 Q120.255 1393.54 122.061 1397.1 Q123.89 1400.64 127.501 1400.64 Q131.135 1400.64 132.941 1397.1 Q134.769 1393.54 134.769 1386.43 Q134.769 1379.3 132.941 1375.76 Q131.135 1372.19 127.501 1372.19 M127.501 1368.49 Q133.311 1368.49 136.367 1373.1 Q139.445 1377.68 139.445 1386.43 Q139.445 1395.16 136.367 1399.76 Q133.311 1404.35 127.501 1404.35 Q121.691 1404.35 118.612 1399.76 Q115.556 1395.16 115.556 1386.43 Q115.556 1377.68 118.612 1373.1 Q121.691 1368.49 127.501 1368.49 Z" fill="#000000" fill-rule="nonzero" fill-opacity="1" /><path clip-path="url(#clip870)" d="M119.538 1154.51 L127.177 1154.51 L127.177 1128.15 L118.867 1129.81 L118.867 1125.55 L127.13 1123.89 L131.806 1123.89 L131.806 1154.51 L139.445 1154.51 L139.445 1158.45 L119.538 1158.45 L119.538 1154.51 Z" fill="#000000" fill-rule="nonzero" fill-opacity="1" /><path clip-path="url(#clip870)" d="M123.126 909.285 L139.445 909.285 L139.445 913.22 L117.501 913.22 L117.501 909.285 Q120.163 906.53 124.746 901.901 Q129.353 897.248 130.533 895.905 Q132.779 893.382 133.658 891.646 Q134.561 889.887 134.561 888.197 Q134.561 885.442 132.617 883.706 Q130.695 881.97 127.593 881.97 Q125.394 881.97 122.941 882.734 Q120.51 883.498 117.732 885.049 L117.732 880.327 Q120.556 879.192 123.01 878.614 Q125.464 878.035 127.501 878.035 Q132.871 878.035 136.066 880.72 Q139.26 883.405 139.26 887.896 Q139.26 890.026 138.45 891.947 Q137.663 893.845 135.556 896.438 Q134.978 897.109 131.876 900.326 Q128.774 903.521 123.126 909.285 Z" fill="#000000" fill-rule="nonzero" fill-opacity="1" /><path clip-path="url(#clip870)" d="M132.316 649.358 Q135.672 650.075 137.547 652.344 Q139.445 654.612 139.445 657.946 Q139.445 663.062 135.927 665.862 Q132.408 668.663 125.927 668.663 Q123.751 668.663 121.436 668.224 Q119.144 667.807 116.691 666.95 L116.691 662.437 Q118.635 663.571 120.95 664.149 Q123.265 664.728 125.788 664.728 Q130.186 664.728 132.478 662.992 Q134.792 661.256 134.792 657.946 Q134.792 654.89 132.64 653.177 Q130.51 651.441 126.691 651.441 L122.663 651.441 L122.663 647.599 L126.876 647.599 Q130.325 647.599 132.154 646.233 Q133.982 644.844 133.982 642.251 Q133.982 639.589 132.084 638.177 Q130.209 636.742 126.691 636.742 Q124.769 636.742 122.57 637.159 Q120.371 637.576 117.732 638.455 L117.732 634.289 Q120.394 633.548 122.709 633.177 Q125.047 632.807 127.107 632.807 Q132.431 632.807 135.533 635.238 Q138.635 637.645 138.635 641.765 Q138.635 644.636 136.992 646.626 Q135.348 648.594 132.316 649.358 Z" fill="#000000" fill-rule="nonzero" fill-opacity="1" /><path clip-path="url(#clip870)" d="M129.862 392.278 L118.056 410.727 L129.862 410.727 L129.862 392.278 M128.635 388.204 L134.515 388.204 L134.515 410.727 L139.445 410.727 L139.445 414.616 L134.515 414.616 L134.515 422.764 L129.862 422.764 L129.862 414.616 L114.26 414.616 L114.26 410.102 L128.635 388.204 Z" fill="#000000" fill-rule="nonzero" fill-opacity="1" /><path clip-path="url(#clip870)" d="M118.543 142.976 L136.899 142.976 L136.899 146.911 L122.825 146.911 L122.825 155.384 Q123.843 155.036 124.862 154.874 Q125.88 154.689 126.899 154.689 Q132.686 154.689 136.066 157.86 Q139.445 161.032 139.445 166.448 Q139.445 172.027 135.973 175.129 Q132.501 178.208 126.181 178.208 Q124.005 178.208 121.737 177.837 Q119.492 177.467 117.084 176.726 L117.084 172.027 Q119.168 173.161 121.39 173.717 Q123.612 174.272 126.089 174.272 Q130.093 174.272 132.431 172.166 Q134.769 170.059 134.769 166.448 Q134.769 162.837 132.431 160.731 Q130.093 158.624 126.089 158.624 Q124.214 158.624 122.339 159.041 Q120.487 159.458 118.543 160.337 L118.543 142.976 Z" fill="#000000" fill-rule="nonzero" fill-opacity="1" /><path clip-path="url(#clip870)" d="M16.4842 1144.88 L16.4842 1135.3 L48.8219 1123.17 L16.4842 1110.98 L16.4842 1101.4 L64.0042 1101.4 L64.0042 1107.67 L22.277 1107.67 L54.8694 1119.92 L54.8694 1126.38 L22.277 1138.64 L64.0042 1138.64 L64.0042 1144.88 L16.4842 1144.88 Z" fill="#000000" fill-rule="nonzero" fill-opacity="1" /><path clip-path="url(#clip870)" d="M28.3562 1088.89 L28.3562 1083.03 L64.0042 1083.03 L64.0042 1088.89 L28.3562 1088.89 M14.479 1088.89 L14.479 1083.03 L21.895 1083.03 L21.895 1088.89 L14.479 1088.89 Z" fill="#000000" fill-rule="nonzero" fill-opacity="1" /><path clip-path="url(#clip870)" d="M42.4881 1041.15 L64.0042 1041.15 L64.0042 1047 L42.679 1047 Q37.6183 1047 35.1038 1048.98 Q32.5894 1050.95 32.5894 1054.9 Q32.5894 1059.64 35.6131 1062.38 Q38.6368 1065.11 43.8567 1065.11 L64.0042 1065.11 L64.0042 1071 L28.3562 1071 L28.3562 1065.11 L33.8944 1065.11 Q30.6797 1063.01 29.0883 1060.18 Q27.4968 1057.32 27.4968 1053.59 Q27.4968 1047.45 31.3163 1044.3 Q35.1038 1041.15 42.4881 1041.15 Z" fill="#000000" fill-rule="nonzero" fill-opacity="1" /><path clip-path="url(#clip870)" d="M28.3562 1029.47 L28.3562 1023.61 L64.0042 1023.61 L64.0042 1029.47 L28.3562 1029.47 M14.479 1029.47 L14.479 1023.61 L21.895 1023.61 L21.895 1029.47 L14.479 1029.47 Z" fill="#000000" fill-rule="nonzero" fill-opacity="1" /><path clip-path="url(#clip870)" d="M35.1993 983.601 Q31.2526 981.405 29.3747 978.349 Q27.4968 975.294 27.4968 971.156 Q27.4968 965.586 31.4117 962.563 Q35.2948 959.539 42.4881 959.539 L64.0042 959.539 L64.0042 965.427 L42.679 965.427 Q37.5546 965.427 35.072 967.241 Q32.5894 969.056 32.5894 972.779 Q32.5894 977.331 35.6131 979.973 Q38.6368 982.615 43.8567 982.615 L64.0042 982.615 L64.0042 988.503 L42.679 988.503 Q37.5228 988.503 35.072 990.317 Q32.5894 992.131 32.5894 995.919 Q32.5894 1000.41 35.6449 1003.05 Q38.6686 1005.69 43.8567 1005.69 L64.0042 1005.69 L64.0042 1011.58 L28.3562 1011.58 L28.3562 1005.69 L33.8944 1005.69 Q30.616 1003.68 29.0564 1000.88 Q27.4968 998.083 27.4968 994.232 Q27.4968 990.349 29.4702 987.643 Q31.4436 984.906 35.1993 983.601 Z" fill="#000000" fill-rule="nonzero" fill-opacity="1" /><path clip-path="url(#clip870)" d="M49.9359 948.462 L28.3562 948.462 L28.3562 942.606 L49.7131 942.606 Q54.7739 942.606 57.3202 940.633 Q59.8346 938.659 59.8346 934.713 Q59.8346 929.97 56.8109 927.233 Q53.7872 924.464 48.5673 924.464 L28.3562 924.464 L28.3562 918.607 L64.0042 918.607 L64.0042 924.464 L58.5296 924.464 Q61.7762 926.596 63.3676 929.429 Q64.9272 932.23 64.9272 935.954 Q64.9272 942.097 61.1078 945.28 Q57.2883 948.462 49.9359 948.462 M27.4968 933.726 L27.4968 933.726 Z" fill="#000000" fill-rule="nonzero" fill-opacity="1" /><path clip-path="url(#clip870)" d="M35.1993 878.79 Q31.2526 876.594 29.3747 873.538 Q27.4968 870.483 27.4968 866.345 Q27.4968 860.775 31.4117 857.751 Q35.2948 854.727 42.4881 854.727 L64.0042 854.727 L64.0042 860.616 L42.679 860.616 Q37.5546 860.616 35.072 862.43 Q32.5894 864.244 32.5894 867.968 Q32.5894 872.52 35.6131 875.161 Q38.6368 877.803 43.8567 877.803 L64.0042 877.803 L64.0042 883.691 L42.679 883.691 Q37.5228 883.691 35.072 885.506 Q32.5894 887.32 32.5894 891.107 Q32.5894 895.595 35.6449 898.237 Q38.6686 900.879 43.8567 900.879 L64.0042 900.879 L64.0042 906.767 L28.3562 906.767 L28.3562 900.879 L33.8944 900.879 Q30.616 898.874 29.0564 896.073 Q27.4968 893.272 27.4968 889.421 Q27.4968 885.537 29.4702 882.832 Q31.4436 880.095 35.1993 878.79 Z" fill="#000000" fill-rule="nonzero" fill-opacity="1" /><path clip-path="url(#clip870)" d="M28.3562 822.326 L28.3562 816.47 L64.0042 816.47 L64.0042 822.326 L28.3562 822.326 M14.479 822.326 L14.479 816.47 L21.895 816.47 L21.895 822.326 L14.479 822.326 Z" fill="#000000" fill-rule="nonzero" fill-opacity="1" /><path clip-path="url(#clip870)" d="M42.4881 774.583 L64.0042 774.583 L64.0042 780.44 L42.679 780.44 Q37.6183 780.44 35.1038 782.413 Q32.5894 784.386 32.5894 788.333 Q32.5894 793.076 35.6131 795.813 Q38.6368 798.55 43.8567 798.55 L64.0042 798.55 L64.0042 804.438 L28.3562 804.438 L28.3562 798.55 L33.8944 798.55 Q30.6797 796.449 29.0883 793.617 Q27.4968 790.752 27.4968 787.028 Q27.4968 780.885 31.3163 777.734 Q35.1038 774.583 42.4881 774.583 Z" fill="#000000" fill-rule="nonzero" fill-opacity="1" /><path clip-path="url(#clip870)" d="M14.479 744.855 L19.3487 744.855 L19.3487 750.457 Q19.3487 753.608 20.6219 754.85 Q21.895 756.059 25.2052 756.059 L28.3562 756.059 L28.3562 746.415 L32.9077 746.415 L32.9077 756.059 L64.0042 756.059 L64.0042 761.947 L32.9077 761.947 L32.9077 767.549 L28.3562 767.549 L28.3562 761.947 L25.8736 761.947 Q19.9216 761.947 17.2162 759.178 Q14.479 756.409 14.479 750.394 L14.479 744.855 Z" fill="#000000" fill-rule="nonzero" fill-opacity="1" /><path clip-path="url(#clip870)" d="M14.479 739.954 L14.479 734.097 L64.0042 734.097 L64.0042 739.954 L14.479 739.954 Z" fill="#000000" fill-rule="nonzero" fill-opacity="1" /><path clip-path="url(#clip870)" d="M46.0847 705.643 Q46.0847 712.74 47.7079 715.478 Q49.3312 718.215 53.2461 718.215 Q56.3653 718.215 58.2114 716.178 Q60.0256 714.109 60.0256 710.576 Q60.0256 705.706 56.5881 702.778 Q53.1188 699.818 47.3897 699.818 L46.0847 699.818 L46.0847 705.643 M43.6657 693.962 L64.0042 693.962 L64.0042 699.818 L58.5933 699.818 Q61.8398 701.823 63.3994 704.815 Q64.9272 707.807 64.9272 712.136 Q64.9272 717.61 61.8716 720.857 Q58.7843 724.071 53.6281 724.071 Q47.6125 724.071 44.5569 720.061 Q41.5014 716.019 41.5014 708.03 L41.5014 699.818 L40.9285 699.818 Q36.8862 699.818 34.6901 702.492 Q32.4621 705.133 32.4621 709.939 Q32.4621 712.995 33.1941 715.891 Q33.9262 718.788 35.3903 721.461 L29.9795 721.461 Q28.7381 718.247 28.1334 715.223 Q27.4968 712.199 27.4968 709.335 Q27.4968 701.6 31.5072 697.781 Q35.5176 693.962 43.6657 693.962 Z" fill="#000000" fill-rule="nonzero" fill-opacity="1" /><path clip-path="url(#clip870)" d="M35.1993 654.144 Q31.2526 651.948 29.3747 648.892 Q27.4968 645.837 27.4968 641.699 Q27.4968 636.129 31.4117 633.105 Q35.2948 630.082 42.4881 630.082 L64.0042 630.082 L64.0042 635.97 L42.679 635.97 Q37.5546 635.97 35.072 637.784 Q32.5894 639.598 32.5894 643.322 Q32.5894 647.874 35.6131 650.516 Q38.6368 653.157 43.8567 653.157 L64.0042 653.157 L64.0042 659.046 L42.679 659.046 Q37.5228 659.046 35.072 660.86 Q32.5894 662.674 32.5894 666.462 Q32.5894 670.95 35.6449 673.591 Q38.6686 676.233 43.8567 676.233 L64.0042 676.233 L64.0042 682.121 L28.3562 682.121 L28.3562 676.233 L33.8944 676.233 Q30.616 674.228 29.0564 671.427 Q27.4968 668.626 27.4968 664.775 Q27.4968 660.892 29.4702 658.186 Q31.4436 655.449 35.1993 654.144 Z" fill="#000000" fill-rule="nonzero" fill-opacity="1" /><path clip-path="url(#clip870)" d="M35.1993 590.646 Q31.2526 588.45 29.3747 585.394 Q27.4968 582.339 27.4968 578.201 Q27.4968 572.631 31.4117 569.607 Q35.2948 566.584 42.4881 566.584 L64.0042 566.584 L64.0042 572.472 L42.679 572.472 Q37.5546 572.472 35.072 574.286 Q32.5894 576.1 32.5894 579.824 Q32.5894 584.376 35.6131 587.018 Q38.6368 589.659 43.8567 589.659 L64.0042 589.659 L64.0042 595.548 L42.679 595.548 Q37.5228 595.548 35.072 597.362 Q32.5894 599.176 32.5894 602.964 Q32.5894 607.452 35.6449 610.093 Q38.6686 612.735 43.8567 612.735 L64.0042 612.735 L64.0042 618.623 L28.3562 618.623 L28.3562 612.735 L33.8944 612.735 Q30.616 610.73 29.0564 607.929 Q27.4968 605.128 27.4968 601.277 Q27.4968 597.394 29.4702 594.688 Q31.4436 591.951 35.1993 590.646 Z" fill="#000000" fill-rule="nonzero" fill-opacity="1" /><path clip-path="url(#clip870)" d="M46.0847 538.702 Q46.0847 545.8 47.7079 548.537 Q49.3312 551.274 53.2461 551.274 Q56.3653 551.274 58.2114 549.237 Q60.0256 547.168 60.0256 543.635 Q60.0256 538.766 56.5881 535.837 Q53.1188 532.877 47.3897 532.877 L46.0847 532.877 L46.0847 538.702 M43.6657 527.021 L64.0042 527.021 L64.0042 532.877 L58.5933 532.877 Q61.8398 534.883 63.3994 537.874 Q64.9272 540.866 64.9272 545.195 Q64.9272 550.669 61.8716 553.916 Q58.7843 557.131 53.6281 557.131 Q47.6125 557.131 44.5569 553.12 Q41.5014 549.078 41.5014 541.089 L41.5014 532.877 L40.9285 532.877 Q36.8862 532.877 34.6901 535.551 Q32.4621 538.193 32.4621 542.999 Q32.4621 546.054 33.1941 548.951 Q33.9262 551.847 35.3903 554.521 L29.9795 554.521 Q28.7381 551.306 28.1334 548.282 Q27.4968 545.259 27.4968 542.394 Q27.4968 534.66 31.5072 530.84 Q35.5176 527.021 43.6657 527.021 Z" fill="#000000" fill-rule="nonzero" fill-opacity="1" /><path clip-path="url(#clip870)" d="M18.2347 509.165 L28.3562 509.165 L28.3562 497.102 L32.9077 497.102 L32.9077 509.165 L52.2594 509.165 Q56.6199 509.165 57.8613 507.987 Q59.1026 506.778 59.1026 503.118 L59.1026 497.102 L64.0042 497.102 L64.0042 503.118 Q64.0042 509.897 61.4897 512.475 Q58.9434 515.053 52.2594 515.053 L32.9077 515.053 L32.9077 519.35 L28.3562 519.35 L28.3562 515.053 L18.2347 515.053 L18.2347 509.165 Z" fill="#000000" fill-rule="nonzero" fill-opacity="1" /><path clip-path="url(#clip870)" d="M28.3562 489.4 L28.3562 483.543 L64.0042 483.543 L64.0042 489.4 L28.3562 489.4 M14.479 489.4 L14.479 483.543 L21.895 483.543 L21.895 489.4 L14.479 489.4 Z" fill="#000000" fill-rule="nonzero" fill-opacity="1" /><path clip-path="url(#clip870)" d="M32.4621 457.476 Q32.4621 462.186 36.1542 464.923 Q39.8145 467.661 46.212 467.661 Q52.6095 467.661 56.3017 464.955 Q59.9619 462.218 59.9619 457.476 Q59.9619 452.797 56.2698 450.059 Q52.5777 447.322 46.212 447.322 Q39.8781 447.322 36.186 450.059 Q32.4621 452.797 32.4621 457.476 M27.4968 457.476 Q27.4968 449.837 32.4621 445.476 Q37.4273 441.116 46.212 441.116 Q54.9649 441.116 59.9619 445.476 Q64.9272 449.837 64.9272 457.476 Q64.9272 465.146 59.9619 469.507 Q54.9649 473.835 46.212 473.835 Q37.4273 473.835 32.4621 469.507 Q27.4968 465.146 27.4968 457.476 Z" fill="#000000" fill-rule="nonzero" fill-opacity="1" /><path clip-path="url(#clip870)" d="M42.4881 401.776 L64.0042 401.776 L64.0042 407.632 L42.679 407.632 Q37.6183 407.632 35.1038 409.605 Q32.5894 411.579 32.5894 415.526 Q32.5894 420.268 35.6131 423.005 Q38.6368 425.742 43.8567 425.742 L64.0042 425.742 L64.0042 431.631 L28.3562 431.631 L28.3562 425.742 L33.8944 425.742 Q30.6797 423.642 29.0883 420.809 Q27.4968 417.944 27.4968 414.221 Q27.4968 408.078 31.3163 404.927 Q35.1038 401.776 42.4881 401.776 Z" fill="#000000" fill-rule="nonzero" fill-opacity="1" /><path clip-path="url(#clip870)" d="M577.31 12.096 L589.503 12.096 L604.937 53.2532 L620.452 12.096 L632.646 12.096 L632.646 72.576 L624.665 72.576 L624.665 19.4686 L609.069 60.9499 L600.846 60.9499 L585.25 19.4686 L585.25 72.576 L577.31 72.576 L577.31 12.096 Z" fill="#000000" fill-rule="nonzero" fill-opacity="1" /><path clip-path="url(#clip870)" d="M648.566 27.2059 L656.019 27.2059 L656.019 72.576 L648.566 72.576 L648.566 27.2059 M648.566 9.54393 L656.019 9.54393 L656.019 18.9825 L648.566 18.9825 L648.566 9.54393 Z" fill="#000000" fill-rule="nonzero" fill-opacity="1" /><path clip-path="url(#clip870)" d="M709.329 45.1919 L709.329 72.576 L701.876 72.576 L701.876 45.4349 Q701.876 38.994 699.364 35.7938 Q696.852 32.5936 691.829 32.5936 Q685.793 32.5936 682.31 36.4419 Q678.826 40.2903 678.826 46.9338 L678.826 72.576 L671.332 72.576 L671.332 27.2059 L678.826 27.2059 L678.826 34.2544 Q681.5 30.163 685.105 28.1376 Q688.751 26.1121 693.49 26.1121 Q701.308 26.1121 705.319 30.9732 Q709.329 35.7938 709.329 45.1919 Z" fill="#000000" fill-rule="nonzero" fill-opacity="1" /><path clip-path="url(#clip870)" d="M724.196 27.2059 L731.65 27.2059 L731.65 72.576 L724.196 72.576 L724.196 27.2059 M724.196 9.54393 L731.65 9.54393 L731.65 18.9825 L724.196 18.9825 L724.196 9.54393 Z" fill="#000000" fill-rule="nonzero" fill-opacity="1" /><path clip-path="url(#clip870)" d="M782.57 35.9153 Q785.365 30.8922 789.254 28.5022 Q793.142 26.1121 798.409 26.1121 Q805.498 26.1121 809.346 31.0947 Q813.194 36.0368 813.194 45.1919 L813.194 72.576 L805.7 72.576 L805.7 45.4349 Q805.7 38.913 803.391 35.7533 Q801.082 32.5936 796.343 32.5936 Q790.55 32.5936 787.188 36.4419 Q783.825 40.2903 783.825 46.9338 L783.825 72.576 L776.331 72.576 L776.331 45.4349 Q776.331 38.8725 774.022 35.7533 Q771.713 32.5936 766.893 32.5936 Q761.181 32.5936 757.819 36.4824 Q754.456 40.3308 754.456 46.9338 L754.456 72.576 L746.962 72.576 L746.962 27.2059 L754.456 27.2059 L754.456 34.2544 Q757.008 30.082 760.573 28.0971 Q764.138 26.1121 769.04 26.1121 Q773.982 26.1121 777.425 28.6237 Q780.909 31.1352 782.57 35.9153 Z" fill="#000000" fill-rule="nonzero" fill-opacity="1" /><path clip-path="url(#clip870)" d="M827.292 54.671 L827.292 27.2059 L834.745 27.2059 L834.745 54.3874 Q834.745 60.8284 837.257 64.0691 Q839.768 67.2693 844.791 67.2693 Q850.827 67.2693 854.311 63.421 Q857.835 59.5726 857.835 52.9291 L857.835 27.2059 L865.289 27.2059 L865.289 72.576 L857.835 72.576 L857.835 65.6084 Q855.121 69.7404 851.516 71.7658 Q847.951 73.7508 843.212 73.7508 Q835.393 73.7508 831.342 68.8897 Q827.292 64.0286 827.292 54.671 M846.047 26.1121 L846.047 26.1121 Z" fill="#000000" fill-rule="nonzero" fill-opacity="1" /><path clip-path="url(#clip870)" d="M915.966 35.9153 Q918.761 30.8922 922.65 28.5022 Q926.539 26.1121 931.805 26.1121 Q938.894 26.1121 942.742 31.0947 Q946.591 36.0368 946.591 45.1919 L946.591 72.576 L939.097 72.576 L939.097 45.4349 Q939.097 38.913 936.787 35.7533 Q934.478 32.5936 929.739 32.5936 Q923.946 32.5936 920.584 36.4419 Q917.222 40.2903 917.222 46.9338 L917.222 72.576 L909.727 72.576 L909.727 45.4349 Q909.727 38.8725 907.418 35.7533 Q905.109 32.5936 900.289 32.5936 Q894.577 32.5936 891.215 36.4824 Q887.853 40.3308 887.853 46.9338 L887.853 72.576 L880.358 72.576 L880.358 27.2059 L887.853 27.2059 L887.853 34.2544 Q890.405 30.082 893.969 28.0971 Q897.534 26.1121 902.436 26.1121 Q907.378 26.1121 910.821 28.6237 Q914.305 31.1352 915.966 35.9153 Z" fill="#000000" fill-rule="nonzero" fill-opacity="1" /><path clip-path="url(#clip870)" d="M987.829 27.2059 L995.283 27.2059 L995.283 72.576 L987.829 72.576 L987.829 27.2059 M987.829 9.54393 L995.283 9.54393 L995.283 18.9825 L987.829 18.9825 L987.829 9.54393 Z" fill="#000000" fill-rule="nonzero" fill-opacity="1" /><path clip-path="url(#clip870)" d="M1048.59 45.1919 L1048.59 72.576 L1041.14 72.576 L1041.14 45.4349 Q1041.14 38.994 1038.63 35.7938 Q1036.12 32.5936 1031.09 32.5936 Q1025.06 32.5936 1021.57 36.4419 Q1018.09 40.2903 1018.09 46.9338 L1018.09 72.576 L1010.59 72.576 L1010.59 27.2059 L1018.09 27.2059 L1018.09 34.2544 Q1020.76 30.163 1024.37 28.1376 Q1028.01 26.1121 1032.75 26.1121 Q1040.57 26.1121 1044.58 30.9732 Q1048.59 35.7938 1048.59 45.1919 Z" fill="#000000" fill-rule="nonzero" fill-opacity="1" /><path clip-path="url(#clip870)" d="M1086.43 9.54393 L1086.43 15.7418 L1079.3 15.7418 Q1075.29 15.7418 1073.71 17.3622 Q1072.17 18.9825 1072.17 23.1955 L1072.17 27.2059 L1084.44 27.2059 L1084.44 32.9987 L1072.17 32.9987 L1072.17 72.576 L1064.67 72.576 L1064.67 32.9987 L1057.54 32.9987 L1057.54 27.2059 L1064.67 27.2059 L1064.67 24.0462 Q1064.67 16.471 1068.2 13.0277 Q1071.72 9.54393 1079.38 9.54393 L1086.43 9.54393 Z" fill="#000000" fill-rule="nonzero" fill-opacity="1" /><path clip-path="url(#clip870)" d="M1092.67 9.54393 L1100.12 9.54393 L1100.12 72.576 L1092.67 72.576 L1092.67 9.54393 Z" fill="#000000" fill-rule="nonzero" fill-opacity="1" /><path clip-path="url(#clip870)" d="M1136.34 49.7694 Q1127.3 49.7694 1123.82 51.8354 Q1120.33 53.9013 1120.33 58.8839 Q1120.33 62.8538 1122.93 65.2034 Q1125.56 67.5124 1130.06 67.5124 Q1136.25 67.5124 1139.98 63.1374 Q1143.75 58.7219 1143.75 51.4303 L1143.75 49.7694 L1136.34 49.7694 M1151.2 46.6907 L1151.2 72.576 L1143.75 72.576 L1143.75 65.6895 Q1141.2 69.8214 1137.39 71.8063 Q1133.58 73.7508 1128.07 73.7508 Q1121.1 73.7508 1116.97 69.8619 Q1112.88 65.9325 1112.88 59.3701 Q1112.88 51.7138 1117.98 47.825 Q1123.13 43.9361 1133.3 43.9361 L1143.75 43.9361 L1143.75 43.2069 Q1143.75 38.0623 1140.35 35.2672 Q1136.98 32.4315 1130.87 32.4315 Q1126.98 32.4315 1123.29 33.3632 Q1119.6 34.295 1116.2 36.1584 L1116.2 29.2718 Q1120.29 27.692 1124.14 26.9223 Q1127.99 26.1121 1131.64 26.1121 Q1141.48 26.1121 1146.34 31.2163 Q1151.2 36.3204 1151.2 46.6907 Z" fill="#000000" fill-rule="nonzero" fill-opacity="1" /><path clip-path="url(#clip870)" d="M1201.88 35.9153 Q1204.67 30.8922 1208.56 28.5022 Q1212.45 26.1121 1217.72 26.1121 Q1224.81 26.1121 1228.66 31.0947 Q1232.5 36.0368 1232.5 45.1919 L1232.5 72.576 L1225.01 72.576 L1225.01 45.4349 Q1225.01 38.913 1222.7 35.7533 Q1220.39 32.5936 1215.65 32.5936 Q1209.86 32.5936 1206.5 36.4419 Q1203.13 40.2903 1203.13 46.9338 L1203.13 72.576 L1195.64 72.576 L1195.64 45.4349 Q1195.64 38.8725 1193.33 35.7533 Q1191.02 32.5936 1186.2 32.5936 Q1180.49 32.5936 1177.13 36.4824 Q1173.77 40.3308 1173.77 46.9338 L1173.77 72.576 L1166.27 72.576 L1166.27 27.2059 L1173.77 27.2059 L1173.77 34.2544 Q1176.32 30.082 1179.88 28.0971 Q1183.45 26.1121 1188.35 26.1121 Q1193.29 26.1121 1196.73 28.6237 Q1200.22 31.1352 1201.88 35.9153 Z" fill="#000000" fill-rule="nonzero" fill-opacity="1" /><path clip-path="url(#clip870)" d="M1282.69 35.9153 Q1285.49 30.8922 1289.38 28.5022 Q1293.27 26.1121 1298.53 26.1121 Q1305.62 26.1121 1309.47 31.0947 Q1313.32 36.0368 1313.32 45.1919 L1313.32 72.576 L1305.82 72.576 L1305.82 45.4349 Q1305.82 38.913 1303.52 35.7533 Q1301.21 32.5936 1296.47 32.5936 Q1290.67 32.5936 1287.31 36.4419 Q1283.95 40.2903 1283.95 46.9338 L1283.95 72.576 L1276.46 72.576 L1276.46 45.4349 Q1276.46 38.8725 1274.15 35.7533 Q1271.84 32.5936 1267.02 32.5936 Q1261.31 32.5936 1257.94 36.4824 Q1254.58 40.3308 1254.58 46.9338 L1254.58 72.576 L1247.09 72.576 L1247.09 27.2059 L1254.58 27.2059 L1254.58 34.2544 Q1257.13 30.082 1260.7 28.0971 Q1264.26 26.1121 1269.16 26.1121 Q1274.11 26.1121 1277.55 28.6237 Q1281.03 31.1352 1282.69 35.9153 Z" fill="#000000" fill-rule="nonzero" fill-opacity="1" /><path clip-path="url(#clip870)" d="M1348.8 49.7694 Q1339.77 49.7694 1336.29 51.8354 Q1332.8 53.9013 1332.8 58.8839 Q1332.8 62.8538 1335.4 65.2034 Q1338.03 67.5124 1342.53 67.5124 Q1348.72 67.5124 1352.45 63.1374 Q1356.22 58.7219 1356.22 51.4303 L1356.22 49.7694 L1348.8 49.7694 M1363.67 46.6907 L1363.67 72.576 L1356.22 72.576 L1356.22 65.6895 Q1353.67 69.8214 1349.86 71.8063 Q1346.05 73.7508 1340.54 73.7508 Q1333.57 73.7508 1329.44 69.8619 Q1325.35 65.9325 1325.35 59.3701 Q1325.35 51.7138 1330.45 47.825 Q1335.6 43.9361 1345.77 43.9361 L1356.22 43.9361 L1356.22 43.2069 Q1356.22 38.0623 1352.82 35.2672 Q1349.45 32.4315 1343.34 32.4315 Q1339.45 32.4315 1335.76 33.3632 Q1332.07 34.295 1328.67 36.1584 L1328.67 29.2718 Q1332.76 27.692 1336.61 26.9223 Q1340.46 26.1121 1344.11 26.1121 Q1353.95 26.1121 1358.81 31.2163 Q1363.67 36.3204 1363.67 46.6907 Z" fill="#000000" fill-rule="nonzero" fill-opacity="1" /><path clip-path="url(#clip870)" d="M1386.4 14.324 L1386.4 27.2059 L1401.75 27.2059 L1401.75 32.9987 L1386.4 32.9987 L1386.4 57.6282 Q1386.4 63.1779 1387.9 64.7578 Q1389.44 66.3376 1394.09 66.3376 L1401.75 66.3376 L1401.75 72.576 L1394.09 72.576 Q1385.47 72.576 1382.18 69.3758 Q1378.9 66.1351 1378.9 57.6282 L1378.9 32.9987 L1373.43 32.9987 L1373.43 27.2059 L1378.9 27.2059 L1378.9 14.324 L1386.4 14.324 Z" fill="#000000" fill-rule="nonzero" fill-opacity="1" /><path clip-path="url(#clip870)" d="M1411.55 27.2059 L1419.01 27.2059 L1419.01 72.576 L1411.55 72.576 L1411.55 27.2059 M1411.55 9.54393 L1419.01 9.54393 L1419.01 18.9825 L1411.55 18.9825 L1411.55 9.54393 Z" fill="#000000" fill-rule="nonzero" fill-opacity="1" /><path clip-path="url(#clip870)" d="M1452.18 32.4315 Q1446.19 32.4315 1442.7 37.1306 Q1439.22 41.7891 1439.22 49.9314 Q1439.22 58.0738 1442.66 62.7728 Q1446.15 67.4314 1452.18 67.4314 Q1458.14 67.4314 1461.62 62.7323 Q1465.11 58.0333 1465.11 49.9314 Q1465.11 41.8701 1461.62 37.1711 Q1458.14 32.4315 1452.18 32.4315 M1452.18 26.1121 Q1461.91 26.1121 1467.46 32.4315 Q1473.01 38.7509 1473.01 49.9314 Q1473.01 61.0714 1467.46 67.4314 Q1461.91 73.7508 1452.18 73.7508 Q1442.42 73.7508 1436.87 67.4314 Q1431.36 61.0714 1431.36 49.9314 Q1431.36 38.7509 1436.87 32.4315 Q1442.42 26.1121 1452.18 26.1121 Z" fill="#000000" fill-rule="nonzero" fill-opacity="1" /><path clip-path="url(#clip870)" d="M1523.07 45.1919 L1523.07 72.576 L1515.62 72.576 L1515.62 45.4349 Q1515.62 38.994 1513.11 35.7938 Q1510.6 32.5936 1505.57 32.5936 Q1499.54 32.5936 1496.06 36.4419 Q1492.57 40.2903 1492.57 46.9338 L1492.57 72.576 L1485.08 72.576 L1485.08 27.2059 L1492.57 27.2059 L1492.57 34.2544 Q1495.25 30.163 1498.85 28.1376 Q1502.5 26.1121 1507.24 26.1121 Q1515.05 26.1121 1519.06 30.9732 Q1523.07 35.7938 1523.07 45.1919 Z" fill="#000000" fill-rule="nonzero" fill-opacity="1" /><path clip-path="url(#clip870)" d="M1581.89 32.4315 Q1575.9 32.4315 1572.41 37.1306 Q1568.93 41.7891 1568.93 49.9314 Q1568.93 58.0738 1572.37 62.7728 Q1575.86 67.4314 1581.89 67.4314 Q1587.85 67.4314 1591.33 62.7323 Q1594.82 58.0333 1594.82 49.9314 Q1594.82 41.8701 1591.33 37.1711 Q1587.85 32.4315 1581.89 32.4315 M1581.89 26.1121 Q1591.62 26.1121 1597.17 32.4315 Q1602.72 38.7509 1602.72 49.9314 Q1602.72 61.0714 1597.17 67.4314 Q1591.62 73.7508 1581.89 73.7508 Q1572.13 73.7508 1566.58 67.4314 Q1561.07 61.0714 1561.07 49.9314 Q1561.07 38.7509 1566.58 32.4315 Q1572.13 26.1121 1581.89 26.1121 Z" fill="#000000" fill-rule="nonzero" fill-opacity="1" /><path clip-path="url(#clip870)" d="M1609.72 27.2059 L1617.62 27.2059 L1631.8 65.2844 L1645.98 27.2059 L1653.88 27.2059 L1636.86 72.576 L1626.74 72.576 L1609.72 27.2059 Z" fill="#000000" fill-rule="nonzero" fill-opacity="1" /><path clip-path="url(#clip870)" d="M1702.98 48.0275 L1702.98 51.6733 L1668.7 51.6733 Q1669.19 59.3701 1673.32 63.421 Q1677.5 67.4314 1684.91 67.4314 Q1689.2 67.4314 1693.21 66.3781 Q1697.26 65.3249 1701.23 63.2184 L1701.23 70.267 Q1697.22 71.9684 1693.01 72.8596 Q1688.8 73.7508 1684.46 73.7508 Q1673.61 73.7508 1667.25 67.4314 Q1660.93 61.1119 1660.93 50.3365 Q1660.93 39.1965 1666.92 32.6746 Q1672.96 26.1121 1683.17 26.1121 Q1692.32 26.1121 1697.63 32.0264 Q1702.98 37.9003 1702.98 48.0275 M1695.52 45.84 Q1695.44 39.7232 1692.08 36.0774 Q1688.76 32.4315 1683.25 32.4315 Q1677.01 32.4315 1673.24 35.9558 Q1669.52 39.4801 1668.95 45.8805 L1695.52 45.84 Z" fill="#000000" fill-rule="nonzero" fill-opacity="1" /><path clip-path="url(#clip870)" d="M1741.5 34.1734 Q1740.24 33.4443 1738.75 33.1202 Q1737.29 32.7556 1735.5 32.7556 Q1729.18 32.7556 1725.78 36.8875 Q1722.42 40.9789 1722.42 48.6757 L1722.42 72.576 L1714.93 72.576 L1714.93 27.2059 L1722.42 27.2059 L1722.42 34.2544 Q1724.77 30.1225 1728.54 28.1376 Q1732.3 26.1121 1737.69 26.1121 Q1738.46 26.1121 1739.39 26.2337 Q1740.32 26.3147 1741.46 26.5172 L1741.5 34.1734 Z" fill="#000000" fill-rule="nonzero" fill-opacity="1" /><path clip-path="url(#clip870)" d="M1783.06 14.324 L1783.06 27.2059 L1798.41 27.2059 L1798.41 32.9987 L1783.06 32.9987 L1783.06 57.6282 Q1783.06 63.1779 1784.56 64.7578 Q1786.1 66.3376 1790.76 66.3376 L1798.41 66.3376 L1798.41 72.576 L1790.76 72.576 Q1782.13 72.576 1778.85 69.3758 Q1775.57 66.1351 1775.57 57.6282 L1775.57 32.9987 L1770.1 32.9987 L1770.1 27.2059 L1775.57 27.2059 L1775.57 14.324 L1783.06 14.324 Z" fill="#000000" fill-rule="nonzero" fill-opacity="1" /><path clip-path="url(#clip870)" d="M1808.22 27.2059 L1815.67 27.2059 L1815.67 72.576 L1808.22 72.576 L1808.22 27.2059 M1808.22 9.54393 L1815.67 9.54393 L1815.67 18.9825 L1808.22 18.9825 L1808.22 9.54393 Z" fill="#000000" fill-rule="nonzero" fill-opacity="1" /><path clip-path="url(#clip870)" d="M1866.59 35.9153 Q1869.39 30.8922 1873.28 28.5022 Q1877.16 26.1121 1882.43 26.1121 Q1889.52 26.1121 1893.37 31.0947 Q1897.22 36.0368 1897.22 45.1919 L1897.22 72.576 L1889.72 72.576 L1889.72 45.4349 Q1889.72 38.913 1887.41 35.7533 Q1885.1 32.5936 1880.36 32.5936 Q1874.57 32.5936 1871.21 36.4419 Q1867.85 40.2903 1867.85 46.9338 L1867.85 72.576 L1860.35 72.576 L1860.35 45.4349 Q1860.35 38.8725 1858.04 35.7533 Q1855.74 32.5936 1850.91 32.5936 Q1845.2 32.5936 1841.84 36.4824 Q1838.48 40.3308 1838.48 46.9338 L1838.48 72.576 L1830.98 72.576 L1830.98 27.2059 L1838.48 27.2059 L1838.48 34.2544 Q1841.03 30.082 1844.6 28.0971 Q1848.16 26.1121 1853.06 26.1121 Q1858 26.1121 1861.45 28.6237 Q1864.93 31.1352 1866.59 35.9153 Z" fill="#000000" fill-rule="nonzero" fill-opacity="1" /><path clip-path="url(#clip870)" d="M1950.89 48.0275 L1950.89 51.6733 L1916.62 51.6733 Q1917.11 59.3701 1921.24 63.421 Q1925.41 67.4314 1932.82 67.4314 Q1937.12 67.4314 1941.13 66.3781 Q1945.18 65.3249 1949.15 63.2184 L1949.15 70.267 Q1945.14 71.9684 1940.93 72.8596 Q1936.71 73.7508 1932.38 73.7508 Q1921.52 73.7508 1915.16 67.4314 Q1908.84 61.1119 1908.84 50.3365 Q1908.84 39.1965 1914.84 32.6746 Q1920.87 26.1121 1931.08 26.1121 Q1940.24 26.1121 1945.54 32.0264 Q1950.89 37.9003 1950.89 48.0275 M1943.44 45.84 Q1943.36 39.7232 1939.99 36.0774 Q1936.67 32.4315 1931.16 32.4315 Q1924.92 32.4315 1921.16 35.9558 Q1917.43 39.4801 1916.86 45.8805 L1943.44 45.84 Z" fill="#000000" fill-rule="nonzero" fill-opacity="1" /><polyline clip-path="url(#clip872)" style="stroke:#009af9; stroke-linecap:round; stroke-linejoin:round; stroke-width:4; stroke-opacity:1; fill:none" points="237.067,1386.4 289.736,1386.4 342.404,1386.4 395.072,1386.4 447.741,1141.17 500.409,1141.17 553.077,1141.17 605.746,1141.17 658.414,895.94 711.083,895.94 763.751,895.94 816.419,895.94 869.088,650.712 921.756,650.712 974.424,650.712 1027.09,650.712 1079.76,405.484 1132.43,160.256 1185.1,160.256 1237.77,160.256 1290.43,160.256 1343.1,405.484 1395.77,405.484 1448.44,405.484 1501.11,405.484 1553.78,650.712 1606.45,650.712 1659.11,650.712 1711.78,650.712 1764.45,895.94 1817.12,895.94 1869.79,895.94 1922.46,895.94 1975.12,1141.17 2027.79,1141.17 2080.46,1141.17 2133.13,1141.17 2185.8,1386.4 2238.47,1386.4 2291.13,1386.4 "/>
</svg>
