<?xml version="1.0" encoding="utf-8"?>
<svg xmlns="http://www.w3.org/2000/svg" xmlns:xlink="http://www.w3.org/1999/xlink" width="600" height="400" viewBox="0 0 2400 1600">
<defs>
  <clipPath id="clip690">
    <rect x="0" y="0" width="2400" height="1600"/>
  </clipPath>
</defs>
<path clip-path="url(#clip690)" d="M0 1600 L2400 1600 L2400 0 L0 0  Z" fill="#ffffff" fill-rule="evenodd" fill-opacity="1"/>
<defs>
  <clipPath id="clip691">
    <rect x="480" y="0" width="1681" height="1600"/>
  </clipPath>
</defs>
<path clip-path="url(#clip690)" d="M247.459 1486.45 L766.56 1486.45 L766.56 47.2441 L247.459 47.2441  Z" fill="#ffffff" fill-rule="evenodd" fill-opacity="1"/>
<defs>
  <clipPath id="clip692">
    <rect x="247" y="47" width="520" height="1440"/>
  </clipPath>
</defs>
<polyline clip-path="url(#clip692)" style="stroke:#000000; stroke-linecap:round; stroke-linejoin:round; stroke-width:2; stroke-opacity:0.1; fill:none" points="249.593,1486.45 249.593,47.2441 "/>
<polyline clip-path="url(#clip692)" style="stroke:#000000; stroke-linecap:round; stroke-linejoin:round; stroke-width:2; stroke-opacity:0.1; fill:none" points="375.162,1486.45 375.162,47.2441 "/>
<polyline clip-path="url(#clip692)" style="stroke:#000000; stroke-linecap:round; stroke-linejoin:round; stroke-width:2; stroke-opacity:0.1; fill:none" points="500.731,1486.45 500.731,47.2441 "/>
<polyline clip-path="url(#clip692)" style="stroke:#000000; stroke-linecap:round; stroke-linejoin:round; stroke-width:2; stroke-opacity:0.1; fill:none" points="626.3,1486.45 626.3,47.2441 "/>
<polyline clip-path="url(#clip692)" style="stroke:#000000; stroke-linecap:round; stroke-linejoin:round; stroke-width:2; stroke-opacity:0.1; fill:none" points="751.868,1486.45 751.868,47.2441 "/>
<polyline clip-path="url(#clip692)" style="stroke:#000000; stroke-linecap:round; stroke-linejoin:round; stroke-width:2; stroke-opacity:0.1; fill:none" points="247.459,1445.72 766.56,1445.72 "/>
<polyline clip-path="url(#clip692)" style="stroke:#000000; stroke-linecap:round; stroke-linejoin:round; stroke-width:2; stroke-opacity:0.1; fill:none" points="247.459,1097.58 766.56,1097.58 "/>
<polyline clip-path="url(#clip692)" style="stroke:#000000; stroke-linecap:round; stroke-linejoin:round; stroke-width:2; stroke-opacity:0.1; fill:none" points="247.459,749.439 766.56,749.439 "/>
<polyline clip-path="url(#clip692)" style="stroke:#000000; stroke-linecap:round; stroke-linejoin:round; stroke-width:2; stroke-opacity:0.1; fill:none" points="247.459,401.301 766.56,401.301 "/>
<polyline clip-path="url(#clip692)" style="stroke:#000000; stroke-linecap:round; stroke-linejoin:round; stroke-width:2; stroke-opacity:0.1; fill:none" points="247.459,53.1624 766.56,53.1624 "/>
<polyline clip-path="url(#clip690)" style="stroke:#000000; stroke-linecap:round; stroke-linejoin:round; stroke-width:4; stroke-opacity:1; fill:none" points="247.459,1486.45 766.56,1486.45 "/>
<polyline clip-path="url(#clip690)" style="stroke:#000000; stroke-linecap:round; stroke-linejoin:round; stroke-width:4; stroke-opacity:1; fill:none" points="249.593,1486.45 249.593,1467.55 "/>
<polyline clip-path="url(#clip690)" style="stroke:#000000; stroke-linecap:round; stroke-linejoin:round; stroke-width:4; stroke-opacity:1; fill:none" points="375.162,1486.45 375.162,1467.55 "/>
<polyline clip-path="url(#clip690)" style="stroke:#000000; stroke-linecap:round; stroke-linejoin:round; stroke-width:4; stroke-opacity:1; fill:none" points="500.731,1486.45 500.731,1467.55 "/>
<polyline clip-path="url(#clip690)" style="stroke:#000000; stroke-linecap:round; stroke-linejoin:round; stroke-width:4; stroke-opacity:1; fill:none" points="626.3,1486.45 626.3,1467.55 "/>
<polyline clip-path="url(#clip690)" style="stroke:#000000; stroke-linecap:round; stroke-linejoin:round; stroke-width:4; stroke-opacity:1; fill:none" points="751.868,1486.45 751.868,1467.55 "/>
<path clip-path="url(#clip690)" d="M249.593 1517.37 Q245.982 1517.37 244.154 1520.93 Q242.348 1524.47 242.348 1531.6 Q242.348 1538.71 244.154 1542.27 Q245.982 1545.82 249.593 1545.82 Q253.228 1545.82 255.033 1542.27 Q256.862 1538.71 256.862 1531.6 Q256.862 1524.47 255.033 1520.93 Q253.228 1517.37 249.593 1517.37 M249.593 1513.66 Q255.404 1513.66 258.459 1518.27 Q261.538 1522.85 261.538 1531.6 Q261.538 1540.33 258.459 1544.94 Q255.404 1549.52 249.593 1549.52 Q243.783 1549.52 240.705 1544.94 Q237.649 1540.33 237.649 1531.6 Q237.649 1522.85 240.705 1518.27 Q243.783 1513.66 249.593 1513.66 Z" fill="#000000" fill-rule="nonzero" fill-opacity="1" /><path clip-path="url(#clip690)" d="M349.85 1544.91 L357.489 1544.91 L357.489 1518.55 L349.178 1520.21 L349.178 1515.95 L357.442 1514.29 L362.118 1514.29 L362.118 1544.91 L369.757 1544.91 L369.757 1548.85 L349.85 1548.85 L349.85 1544.91 Z" fill="#000000" fill-rule="nonzero" fill-opacity="1" /><path clip-path="url(#clip690)" d="M389.201 1517.37 Q385.59 1517.37 383.762 1520.93 Q381.956 1524.47 381.956 1531.6 Q381.956 1538.71 383.762 1542.27 Q385.59 1545.82 389.201 1545.82 Q392.836 1545.82 394.641 1542.27 Q396.47 1538.71 396.47 1531.6 Q396.47 1524.47 394.641 1520.93 Q392.836 1517.37 389.201 1517.37 M389.201 1513.66 Q395.012 1513.66 398.067 1518.27 Q401.146 1522.85 401.146 1531.6 Q401.146 1540.33 398.067 1544.94 Q395.012 1549.52 389.201 1549.52 Q383.391 1549.52 380.313 1544.94 Q377.257 1540.33 377.257 1531.6 Q377.257 1522.85 380.313 1518.27 Q383.391 1513.66 389.201 1513.66 Z" fill="#000000" fill-rule="nonzero" fill-opacity="1" /><path clip-path="url(#clip690)" d="M479.504 1544.91 L495.823 1544.91 L495.823 1548.85 L473.879 1548.85 L473.879 1544.91 Q476.541 1542.16 481.124 1537.53 Q485.731 1532.88 486.911 1531.53 Q489.157 1529.01 490.036 1527.27 Q490.939 1525.51 490.939 1523.82 Q490.939 1521.07 488.995 1519.33 Q487.074 1517.6 483.972 1517.6 Q481.773 1517.6 479.319 1518.36 Q476.888 1519.13 474.111 1520.68 L474.111 1515.95 Q476.935 1514.82 479.388 1514.24 Q481.842 1513.66 483.879 1513.66 Q489.249 1513.66 492.444 1516.35 Q495.638 1519.03 495.638 1523.52 Q495.638 1525.65 494.828 1527.57 Q494.041 1529.47 491.935 1532.07 Q491.356 1532.74 488.254 1535.95 Q485.152 1539.15 479.504 1544.91 Z" fill="#000000" fill-rule="nonzero" fill-opacity="1" /><path clip-path="url(#clip690)" d="M515.638 1517.37 Q512.027 1517.37 510.198 1520.93 Q508.393 1524.47 508.393 1531.6 Q508.393 1538.71 510.198 1542.27 Q512.027 1545.82 515.638 1545.82 Q519.272 1545.82 521.078 1542.27 Q522.907 1538.71 522.907 1531.6 Q522.907 1524.47 521.078 1520.93 Q519.272 1517.37 515.638 1517.37 M515.638 1513.66 Q521.448 1513.66 524.504 1518.27 Q527.583 1522.85 527.583 1531.6 Q527.583 1540.33 524.504 1544.94 Q521.448 1549.52 515.638 1549.52 Q509.828 1549.52 506.749 1544.94 Q503.694 1540.33 503.694 1531.6 Q503.694 1522.85 506.749 1518.27 Q509.828 1513.66 515.638 1513.66 Z" fill="#000000" fill-rule="nonzero" fill-opacity="1" /><path clip-path="url(#clip690)" d="M615.142 1530.21 Q618.499 1530.93 620.374 1533.2 Q622.272 1535.47 622.272 1538.8 Q622.272 1543.92 618.753 1546.72 Q615.235 1549.52 608.753 1549.52 Q606.577 1549.52 604.263 1549.08 Q601.971 1548.66 599.517 1547.81 L599.517 1543.29 Q601.462 1544.43 603.777 1545.01 Q606.091 1545.58 608.614 1545.58 Q613.013 1545.58 615.304 1543.85 Q617.619 1542.11 617.619 1538.8 Q617.619 1535.75 615.466 1534.03 Q613.337 1532.3 609.517 1532.3 L605.489 1532.3 L605.489 1528.45 L609.702 1528.45 Q613.151 1528.45 614.98 1527.09 Q616.809 1525.7 616.809 1523.11 Q616.809 1520.45 614.911 1519.03 Q613.036 1517.6 609.517 1517.6 Q607.596 1517.6 605.397 1518.01 Q603.198 1518.43 600.559 1519.31 L600.559 1515.14 Q603.221 1514.4 605.536 1514.03 Q607.874 1513.66 609.934 1513.66 Q615.258 1513.66 618.36 1516.09 Q621.462 1518.5 621.462 1522.62 Q621.462 1525.49 619.818 1527.48 Q618.175 1529.45 615.142 1530.21 Z" fill="#000000" fill-rule="nonzero" fill-opacity="1" /><path clip-path="url(#clip690)" d="M641.137 1517.37 Q637.526 1517.37 635.698 1520.93 Q633.892 1524.47 633.892 1531.6 Q633.892 1538.71 635.698 1542.27 Q637.526 1545.82 641.137 1545.82 Q644.772 1545.82 646.577 1542.27 Q648.406 1538.71 648.406 1531.6 Q648.406 1524.47 646.577 1520.93 Q644.772 1517.37 641.137 1517.37 M641.137 1513.66 Q646.948 1513.66 650.003 1518.27 Q653.082 1522.85 653.082 1531.6 Q653.082 1540.33 650.003 1544.94 Q646.948 1549.52 641.137 1549.52 Q635.327 1549.52 632.249 1544.94 Q629.193 1540.33 629.193 1531.6 Q629.193 1522.85 632.249 1518.27 Q635.327 1513.66 641.137 1513.66 Z" fill="#000000" fill-rule="nonzero" fill-opacity="1" /><path clip-path="url(#clip690)" d="M740.04 1518.36 L728.234 1536.81 L740.04 1536.81 L740.04 1518.36 M738.813 1514.29 L744.692 1514.29 L744.692 1536.81 L749.623 1536.81 L749.623 1540.7 L744.692 1540.7 L744.692 1548.85 L740.04 1548.85 L740.04 1540.7 L724.438 1540.7 L724.438 1536.19 L738.813 1514.29 Z" fill="#000000" fill-rule="nonzero" fill-opacity="1" /><path clip-path="url(#clip690)" d="M767.354 1517.37 Q763.743 1517.37 761.915 1520.93 Q760.109 1524.47 760.109 1531.6 Q760.109 1538.71 761.915 1542.27 Q763.743 1545.82 767.354 1545.82 Q770.989 1545.82 772.794 1542.27 Q774.623 1538.71 774.623 1531.6 Q774.623 1524.47 772.794 1520.93 Q770.989 1517.37 767.354 1517.37 M767.354 1513.66 Q773.164 1513.66 776.22 1518.27 Q779.299 1522.85 779.299 1531.6 Q779.299 1540.33 776.22 1544.94 Q773.164 1549.52 767.354 1549.52 Q761.544 1549.52 758.465 1544.94 Q755.41 1540.33 755.41 1531.6 Q755.41 1522.85 758.465 1518.27 Q761.544 1513.66 767.354 1513.66 Z" fill="#000000" fill-rule="nonzero" fill-opacity="1" /><polyline clip-path="url(#clip690)" style="stroke:#000000; stroke-linecap:round; stroke-linejoin:round; stroke-width:4; stroke-opacity:1; fill:none" points="247.459,1486.45 247.459,47.2441 "/>
<polyline clip-path="url(#clip690)" style="stroke:#000000; stroke-linecap:round; stroke-linejoin:round; stroke-width:4; stroke-opacity:1; fill:none" points="247.459,1445.72 266.356,1445.72 "/>
<polyline clip-path="url(#clip690)" style="stroke:#000000; stroke-linecap:round; stroke-linejoin:round; stroke-width:4; stroke-opacity:1; fill:none" points="247.459,1097.58 266.356,1097.58 "/>
<polyline clip-path="url(#clip690)" style="stroke:#000000; stroke-linecap:round; stroke-linejoin:round; stroke-width:4; stroke-opacity:1; fill:none" points="247.459,749.439 266.356,749.439 "/>
<polyline clip-path="url(#clip690)" style="stroke:#000000; stroke-linecap:round; stroke-linejoin:round; stroke-width:4; stroke-opacity:1; fill:none" points="247.459,401.301 266.356,401.301 "/>
<polyline clip-path="url(#clip690)" style="stroke:#000000; stroke-linecap:round; stroke-linejoin:round; stroke-width:4; stroke-opacity:1; fill:none" points="247.459,53.1624 266.356,53.1624 "/>
<path clip-path="url(#clip690)" d="M154.283 1431.51 Q150.672 1431.51 148.843 1435.08 Q147.038 1438.62 147.038 1445.75 Q147.038 1452.86 148.843 1456.42 Q150.672 1459.96 154.283 1459.96 Q157.917 1459.96 159.723 1456.42 Q161.552 1452.86 161.552 1445.75 Q161.552 1438.62 159.723 1435.08 Q157.917 1431.51 154.283 1431.51 M154.283 1427.81 Q160.093 1427.81 163.149 1432.42 Q166.227 1437 166.227 1445.75 Q166.227 1454.48 163.149 1459.08 Q160.093 1463.67 154.283 1463.67 Q148.473 1463.67 145.394 1459.08 Q142.339 1454.48 142.339 1445.75 Q142.339 1437 145.394 1432.42 Q148.473 1427.81 154.283 1427.81 Z" fill="#000000" fill-rule="nonzero" fill-opacity="1" /><path clip-path="url(#clip690)" d="M174.445 1457.12 L179.329 1457.12 L179.329 1463 L174.445 1463 L174.445 1457.12 Z" fill="#000000" fill-rule="nonzero" fill-opacity="1" /><path clip-path="url(#clip690)" d="M199.514 1431.51 Q195.903 1431.51 194.075 1435.08 Q192.269 1438.62 192.269 1445.75 Q192.269 1452.86 194.075 1456.42 Q195.903 1459.96 199.514 1459.96 Q203.149 1459.96 204.954 1456.42 Q206.783 1452.86 206.783 1445.75 Q206.783 1438.62 204.954 1435.08 Q203.149 1431.51 199.514 1431.51 M199.514 1427.81 Q205.324 1427.81 208.38 1432.42 Q211.459 1437 211.459 1445.75 Q211.459 1454.48 208.38 1459.08 Q205.324 1463.67 199.514 1463.67 Q193.704 1463.67 190.625 1459.08 Q187.57 1454.48 187.57 1445.75 Q187.57 1437 190.625 1432.42 Q193.704 1427.81 199.514 1427.81 Z" fill="#000000" fill-rule="nonzero" fill-opacity="1" /><path clip-path="url(#clip690)" d="M149.306 1110.92 L165.626 1110.92 L165.626 1114.86 L143.681 1114.86 L143.681 1110.92 Q146.343 1108.17 150.927 1103.54 Q155.533 1098.89 156.714 1097.54 Q158.959 1095.02 159.839 1093.28 Q160.741 1091.52 160.741 1089.83 Q160.741 1087.08 158.797 1085.34 Q156.876 1083.61 153.774 1083.61 Q151.575 1083.61 149.121 1084.37 Q146.691 1085.14 143.913 1086.69 L143.913 1081.96 Q146.737 1080.83 149.191 1080.25 Q151.644 1079.67 153.681 1079.67 Q159.052 1079.67 162.246 1082.36 Q165.44 1085.04 165.44 1089.53 Q165.44 1091.66 164.63 1093.58 Q163.843 1095.48 161.737 1098.08 Q161.158 1098.75 158.056 1101.96 Q154.954 1105.16 149.306 1110.92 Z" fill="#000000" fill-rule="nonzero" fill-opacity="1" /><path clip-path="url(#clip690)" d="M175.44 1108.98 L180.325 1108.98 L180.325 1114.86 L175.44 1114.86 L175.44 1108.98 Z" fill="#000000" fill-rule="nonzero" fill-opacity="1" /><path clip-path="url(#clip690)" d="M190.556 1080.3 L208.912 1080.3 L208.912 1084.23 L194.838 1084.23 L194.838 1092.7 Q195.857 1092.36 196.875 1092.2 Q197.894 1092.01 198.912 1092.01 Q204.699 1092.01 208.079 1095.18 Q211.459 1098.35 211.459 1103.77 Q211.459 1109.35 207.987 1112.45 Q204.514 1115.53 198.195 1115.53 Q196.019 1115.53 193.75 1115.16 Q191.505 1114.79 189.098 1114.05 L189.098 1109.35 Q191.181 1110.48 193.403 1111.04 Q195.625 1111.59 198.102 1111.59 Q202.107 1111.59 204.445 1109.49 Q206.783 1107.38 206.783 1103.77 Q206.783 1100.16 204.445 1098.05 Q202.107 1095.95 198.102 1095.95 Q196.227 1095.95 194.352 1096.36 Q192.5 1096.78 190.556 1097.66 L190.556 1080.3 Z" fill="#000000" fill-rule="nonzero" fill-opacity="1" /><path clip-path="url(#clip690)" d="M144.329 732.159 L162.686 732.159 L162.686 736.094 L148.612 736.094 L148.612 744.566 Q149.63 744.219 150.649 744.057 Q151.667 743.872 152.686 743.872 Q158.473 743.872 161.852 747.043 Q165.232 750.215 165.232 755.631 Q165.232 761.21 161.76 764.312 Q158.288 767.39 151.968 767.39 Q149.792 767.39 147.524 767.02 Q145.279 766.65 142.871 765.909 L142.871 761.21 Q144.954 762.344 147.177 762.9 Q149.399 763.455 151.876 763.455 Q155.88 763.455 158.218 761.349 Q160.556 759.242 160.556 755.631 Q160.556 752.02 158.218 749.914 Q155.88 747.807 151.876 747.807 Q150.001 747.807 148.126 748.224 Q146.274 748.64 144.329 749.52 L144.329 732.159 Z" fill="#000000" fill-rule="nonzero" fill-opacity="1" /><path clip-path="url(#clip690)" d="M174.445 760.839 L179.329 760.839 L179.329 766.719 L174.445 766.719 L174.445 760.839 Z" fill="#000000" fill-rule="nonzero" fill-opacity="1" /><path clip-path="url(#clip690)" d="M199.514 735.238 Q195.903 735.238 194.075 738.803 Q192.269 742.344 192.269 749.474 Q192.269 756.58 194.075 760.145 Q195.903 763.687 199.514 763.687 Q203.149 763.687 204.954 760.145 Q206.783 756.58 206.783 749.474 Q206.783 742.344 204.954 738.803 Q203.149 735.238 199.514 735.238 M199.514 731.534 Q205.324 731.534 208.38 736.141 Q211.459 740.724 211.459 749.474 Q211.459 758.201 208.38 762.807 Q205.324 767.39 199.514 767.39 Q193.704 767.39 190.625 762.807 Q187.57 758.201 187.57 749.474 Q187.57 740.724 190.625 736.141 Q193.704 731.534 199.514 731.534 Z" fill="#000000" fill-rule="nonzero" fill-opacity="1" /><path clip-path="url(#clip690)" d="M144.098 384.021 L166.32 384.021 L166.32 386.011 L153.774 418.581 L148.89 418.581 L160.695 387.956 L144.098 387.956 L144.098 384.021 Z" fill="#000000" fill-rule="nonzero" fill-opacity="1" /><path clip-path="url(#clip690)" d="M175.44 412.701 L180.325 412.701 L180.325 418.581 L175.44 418.581 L175.44 412.701 Z" fill="#000000" fill-rule="nonzero" fill-opacity="1" /><path clip-path="url(#clip690)" d="M190.556 384.021 L208.912 384.021 L208.912 387.956 L194.838 387.956 L194.838 396.428 Q195.857 396.081 196.875 395.919 Q197.894 395.734 198.912 395.734 Q204.699 395.734 208.079 398.905 Q211.459 402.076 211.459 407.493 Q211.459 413.072 207.987 416.173 Q204.514 419.252 198.195 419.252 Q196.019 419.252 193.75 418.882 Q191.505 418.511 189.098 417.771 L189.098 413.072 Q191.181 414.206 193.403 414.761 Q195.625 415.317 198.102 415.317 Q202.107 415.317 204.445 413.21 Q206.783 411.104 206.783 407.493 Q206.783 403.882 204.445 401.775 Q202.107 399.669 198.102 399.669 Q196.227 399.669 194.352 400.085 Q192.5 400.502 190.556 401.382 L190.556 384.021 Z" fill="#000000" fill-rule="nonzero" fill-opacity="1" /><path clip-path="url(#clip690)" d="M114.931 66.5073 L122.57 66.5073 L122.57 40.1417 L114.26 41.8083 L114.26 37.5491 L122.524 35.8824 L127.2 35.8824 L127.2 66.5073 L134.839 66.5073 L134.839 70.4424 L114.931 70.4424 L114.931 66.5073 Z" fill="#000000" fill-rule="nonzero" fill-opacity="1" /><path clip-path="url(#clip690)" d="M154.283 38.9611 Q150.672 38.9611 148.843 42.5259 Q147.038 46.0676 147.038 53.1972 Q147.038 60.3036 148.843 63.8684 Q150.672 67.4101 154.283 67.4101 Q157.917 67.4101 159.723 63.8684 Q161.552 60.3036 161.552 53.1972 Q161.552 46.0676 159.723 42.5259 Q157.917 38.9611 154.283 38.9611 M154.283 35.2574 Q160.093 35.2574 163.149 39.8639 Q166.227 44.4472 166.227 53.1972 Q166.227 61.924 163.149 66.5304 Q160.093 71.1137 154.283 71.1137 Q148.473 71.1137 145.394 66.5304 Q142.339 61.924 142.339 53.1972 Q142.339 44.4472 145.394 39.8639 Q148.473 35.2574 154.283 35.2574 Z" fill="#000000" fill-rule="nonzero" fill-opacity="1" /><path clip-path="url(#clip690)" d="M174.445 64.5628 L179.329 64.5628 L179.329 70.4424 L174.445 70.4424 L174.445 64.5628 Z" fill="#000000" fill-rule="nonzero" fill-opacity="1" /><path clip-path="url(#clip690)" d="M199.514 38.9611 Q195.903 38.9611 194.075 42.5259 Q192.269 46.0676 192.269 53.1972 Q192.269 60.3036 194.075 63.8684 Q195.903 67.4101 199.514 67.4101 Q203.149 67.4101 204.954 63.8684 Q206.783 60.3036 206.783 53.1972 Q206.783 46.0676 204.954 42.5259 Q203.149 38.9611 199.514 38.9611 M199.514 35.2574 Q205.324 35.2574 208.38 39.8639 Q211.459 44.4472 211.459 53.1972 Q211.459 61.924 208.38 66.5304 Q205.324 71.1137 199.514 71.1137 Q193.704 71.1137 190.625 66.5304 Q187.57 61.924 187.57 53.1972 Q187.57 44.4472 190.625 39.8639 Q193.704 35.2574 199.514 35.2574 Z" fill="#000000" fill-rule="nonzero" fill-opacity="1" /><path clip-path="url(#clip690)" d="M46.0847 878.15 Q46.0847 885.248 47.7079 887.985 Q49.3312 890.723 53.2461 890.723 Q56.3653 890.723 58.2114 888.686 Q60.0256 886.617 60.0256 883.084 Q60.0256 878.214 56.5881 875.286 Q53.1188 872.326 47.3897 872.326 L46.0847 872.326 L46.0847 878.15 M43.6657 866.469 L64.0042 866.469 L64.0042 872.326 L58.5933 872.326 Q61.8398 874.331 63.3994 877.323 Q64.9272 880.315 64.9272 884.643 Q64.9272 890.118 61.8716 893.364 Q58.7843 896.579 53.6281 896.579 Q47.6125 896.579 44.5569 892.569 Q41.5014 888.526 41.5014 880.538 L41.5014 872.326 L40.9285 872.326 Q36.8862 872.326 34.6901 874.999 Q32.4621 877.641 32.4621 882.447 Q32.4621 885.503 33.1941 888.399 Q33.9262 891.296 35.3903 893.969 L29.9795 893.969 Q28.7381 890.754 28.1334 887.731 Q27.4968 884.707 27.4968 881.842 Q27.4968 874.108 31.5072 870.289 Q35.5176 866.469 43.6657 866.469 Z" fill="#000000" fill-rule="nonzero" fill-opacity="1" /><path clip-path="url(#clip690)" d="M28.3562 858.608 L28.3562 852.401 L58.275 841.261 L28.3562 830.121 L28.3562 823.915 L64.0042 837.283 L64.0042 845.24 L28.3562 858.608 Z" fill="#000000" fill-rule="nonzero" fill-opacity="1" /><path clip-path="url(#clip690)" d="M44.7161 785.338 L47.5806 785.338 L47.5806 812.265 Q53.6281 811.883 56.8109 808.637 Q59.9619 805.359 59.9619 799.534 Q59.9619 796.16 59.1344 793.009 Q58.3069 789.826 56.6518 786.707 L62.1899 786.707 Q63.5267 789.858 64.227 793.168 Q64.9272 796.478 64.9272 799.884 Q64.9272 808.414 59.9619 813.411 Q54.9967 818.376 46.5303 818.376 Q37.7774 818.376 32.6531 813.666 Q27.4968 808.923 27.4968 800.903 Q27.4968 793.709 32.1438 789.54 Q36.7589 785.338 44.7161 785.338 M42.9973 791.195 Q38.1912 791.258 35.3266 793.9 Q32.4621 796.51 32.4621 800.839 Q32.4621 805.74 35.2312 808.701 Q38.0002 811.629 43.0292 812.074 L42.9973 791.195 Z" fill="#000000" fill-rule="nonzero" fill-opacity="1" /><path clip-path="url(#clip690)" d="M33.8307 755.069 Q33.2578 756.056 33.0032 757.234 Q32.7167 758.38 32.7167 759.78 Q32.7167 764.745 35.9632 767.419 Q39.1779 770.061 45.2253 770.061 L64.0042 770.061 L64.0042 775.949 L28.3562 775.949 L28.3562 770.061 L33.8944 770.061 Q30.6479 768.215 29.0883 765.255 Q27.4968 762.295 27.4968 758.061 Q27.4968 757.457 27.5923 756.725 Q27.656 755.992 27.8151 755.101 L33.8307 755.069 Z" fill="#000000" fill-rule="nonzero" fill-opacity="1" /><path clip-path="url(#clip690)" d="M46.0847 732.726 Q46.0847 739.824 47.7079 742.561 Q49.3312 745.298 53.2461 745.298 Q56.3653 745.298 58.2114 743.261 Q60.0256 741.192 60.0256 737.659 Q60.0256 732.789 56.5881 729.861 Q53.1188 726.901 47.3897 726.901 L46.0847 726.901 L46.0847 732.726 M43.6657 721.045 L64.0042 721.045 L64.0042 726.901 L58.5933 726.901 Q61.8398 728.906 63.3994 731.898 Q64.9272 734.89 64.9272 739.219 Q64.9272 744.693 61.8716 747.94 Q58.7843 751.155 53.6281 751.155 Q47.6125 751.155 44.5569 747.144 Q41.5014 743.102 41.5014 735.113 L41.5014 726.901 L40.9285 726.901 Q36.8862 726.901 34.6901 729.575 Q32.4621 732.217 32.4621 737.023 Q32.4621 740.078 33.1941 742.975 Q33.9262 745.871 35.3903 748.545 L29.9795 748.545 Q28.7381 745.33 28.1334 742.306 Q27.4968 739.282 27.4968 736.418 Q27.4968 728.684 31.5072 724.864 Q35.5176 721.045 43.6657 721.045 Z" fill="#000000" fill-rule="nonzero" fill-opacity="1" /><path clip-path="url(#clip690)" d="M45.7664 685.524 Q39.4007 685.524 35.8996 688.166 Q32.3984 690.776 32.3984 695.518 Q32.3984 700.229 35.8996 702.871 Q39.4007 705.481 45.7664 705.481 Q52.1003 705.481 55.6014 702.871 Q59.1026 700.229 59.1026 695.518 Q59.1026 690.776 55.6014 688.166 Q52.1003 685.524 45.7664 685.524 M59.58 679.668 Q68.683 679.668 73.1071 683.71 Q77.5631 687.752 77.5631 696.091 Q77.5631 699.179 77.0857 701.916 Q76.6401 704.653 75.6852 707.231 L69.9879 707.231 Q71.3884 704.653 72.0568 702.139 Q72.7252 699.624 72.7252 697.014 Q72.7252 691.253 69.7015 688.389 Q66.7096 685.524 60.6303 685.524 L57.7339 685.524 Q60.885 687.338 62.4446 690.171 Q64.0042 693.004 64.0042 696.951 Q64.0042 703.507 59.0071 707.518 Q54.01 711.528 45.7664 711.528 Q37.491 711.528 32.4939 707.518 Q27.4968 703.507 27.4968 696.951 Q27.4968 693.004 29.0564 690.171 Q30.616 687.338 33.7671 685.524 L28.3562 685.524 L28.3562 679.668 L59.58 679.668 Z" fill="#000000" fill-rule="nonzero" fill-opacity="1" /><path clip-path="url(#clip690)" d="M44.7161 637.113 L47.5806 637.113 L47.5806 664.04 Q53.6281 663.658 56.8109 660.411 Q59.9619 657.133 59.9619 651.308 Q59.9619 647.935 59.1344 644.784 Q58.3069 641.601 56.6518 638.482 L62.1899 638.482 Q63.5267 641.633 64.227 644.943 Q64.9272 648.253 64.9272 651.659 Q64.9272 660.189 59.9619 665.186 Q54.9967 670.151 46.5303 670.151 Q37.7774 670.151 32.6531 665.44 Q27.4968 660.698 27.4968 652.677 Q27.4968 645.484 32.1438 641.314 Q36.7589 637.113 44.7161 637.113 M42.9973 642.969 Q38.1912 643.033 35.3266 645.675 Q32.4621 648.285 32.4621 652.613 Q32.4621 657.515 35.2312 660.475 Q38.0002 663.403 43.0292 663.849 L42.9973 642.969 Z" fill="#000000" fill-rule="nonzero" fill-opacity="1" /><polyline clip-path="url(#clip692)" style="stroke:#009af9; stroke-linecap:round; stroke-linejoin:round; stroke-width:4; stroke-opacity:1; fill:none" points="262.15,1445.72 274.707,1445.72 287.264,1364.48 299.821,1232.19 312.378,1390.01 324.935,1111.5 337.491,995.457 350.048,944.397 362.605,1034.91 375.162,668.207 387.719,988.494 400.276,361.845 412.833,870.127 425.39,1025.63 437.946,190.097 450.503,359.524 463.06,858.522 475.617,87.9763 488.174,257.404 500.731,357.203 513.288,503.421 525.845,345.599 538.401,823.709 550.958,259.725 563.515,282.934 576.072,844.597 588.629,394.338 601.186,886.373 613.743,387.375 626.3,1002.42 638.856,856.201 651.413,858.522 663.97,1116.14 676.527,1011.7 689.084,1053.48 701.641,1269.33 714.198,1250.76 726.755,1380.73 739.311,1445.72 751.868,1445.72 "/>
<path clip-path="url(#clip690)" d="M1017.77 1486.45 L1536.87 1486.45 L1536.87 47.2441 L1017.77 47.2441  Z" fill="#ffffff" fill-rule="evenodd" fill-opacity="1"/>
<defs>
  <clipPath id="clip693">
    <rect x="1017" y="47" width="520" height="1440"/>
  </clipPath>
</defs>
<polyline clip-path="url(#clip693)" style="stroke:#000000; stroke-linecap:round; stroke-linejoin:round; stroke-width:2; stroke-opacity:0.1; fill:none" points="1019.9,1486.45 1019.9,47.2441 "/>
<polyline clip-path="url(#clip693)" style="stroke:#000000; stroke-linecap:round; stroke-linejoin:round; stroke-width:2; stroke-opacity:0.1; fill:none" points="1145.47,1486.45 1145.47,47.2441 "/>
<polyline clip-path="url(#clip693)" style="stroke:#000000; stroke-linecap:round; stroke-linejoin:round; stroke-width:2; stroke-opacity:0.1; fill:none" points="1271.04,1486.45 1271.04,47.2441 "/>
<polyline clip-path="url(#clip693)" style="stroke:#000000; stroke-linecap:round; stroke-linejoin:round; stroke-width:2; stroke-opacity:0.1; fill:none" points="1396.61,1486.45 1396.61,47.2441 "/>
<polyline clip-path="url(#clip693)" style="stroke:#000000; stroke-linecap:round; stroke-linejoin:round; stroke-width:2; stroke-opacity:0.1; fill:none" points="1522.18,1486.45 1522.18,47.2441 "/>
<polyline clip-path="url(#clip693)" style="stroke:#000000; stroke-linecap:round; stroke-linejoin:round; stroke-width:2; stroke-opacity:0.1; fill:none" points="1017.77,1445.72 1536.87,1445.72 "/>
<polyline clip-path="url(#clip693)" style="stroke:#000000; stroke-linecap:round; stroke-linejoin:round; stroke-width:2; stroke-opacity:0.1; fill:none" points="1017.77,1106.28 1536.87,1106.28 "/>
<polyline clip-path="url(#clip693)" style="stroke:#000000; stroke-linecap:round; stroke-linejoin:round; stroke-width:2; stroke-opacity:0.1; fill:none" points="1017.77,766.846 1536.87,766.846 "/>
<polyline clip-path="url(#clip693)" style="stroke:#000000; stroke-linecap:round; stroke-linejoin:round; stroke-width:2; stroke-opacity:0.1; fill:none" points="1017.77,427.411 1536.87,427.411 "/>
<polyline clip-path="url(#clip693)" style="stroke:#000000; stroke-linecap:round; stroke-linejoin:round; stroke-width:2; stroke-opacity:0.1; fill:none" points="1017.77,87.9763 1536.87,87.9763 "/>
<polyline clip-path="url(#clip690)" style="stroke:#000000; stroke-linecap:round; stroke-linejoin:round; stroke-width:4; stroke-opacity:1; fill:none" points="1017.77,1486.45 1536.87,1486.45 "/>
<polyline clip-path="url(#clip690)" style="stroke:#000000; stroke-linecap:round; stroke-linejoin:round; stroke-width:4; stroke-opacity:1; fill:none" points="1019.9,1486.45 1019.9,1467.55 "/>
<polyline clip-path="url(#clip690)" style="stroke:#000000; stroke-linecap:round; stroke-linejoin:round; stroke-width:4; stroke-opacity:1; fill:none" points="1145.47,1486.45 1145.47,1467.55 "/>
<polyline clip-path="url(#clip690)" style="stroke:#000000; stroke-linecap:round; stroke-linejoin:round; stroke-width:4; stroke-opacity:1; fill:none" points="1271.04,1486.45 1271.04,1467.55 "/>
<polyline clip-path="url(#clip690)" style="stroke:#000000; stroke-linecap:round; stroke-linejoin:round; stroke-width:4; stroke-opacity:1; fill:none" points="1396.61,1486.45 1396.61,1467.55 "/>
<polyline clip-path="url(#clip690)" style="stroke:#000000; stroke-linecap:round; stroke-linejoin:round; stroke-width:4; stroke-opacity:1; fill:none" points="1522.18,1486.45 1522.18,1467.55 "/>
<path clip-path="url(#clip690)" d="M1019.9 1517.37 Q1016.29 1517.37 1014.46 1520.93 Q1012.66 1524.47 1012.66 1531.6 Q1012.66 1538.71 1014.46 1542.27 Q1016.29 1545.82 1019.9 1545.82 Q1023.54 1545.82 1025.34 1542.27 Q1027.17 1538.71 1027.17 1531.6 Q1027.17 1524.47 1025.34 1520.93 Q1023.54 1517.37 1019.9 1517.37 M1019.9 1513.66 Q1025.71 1513.66 1028.77 1518.27 Q1031.85 1522.85 1031.85 1531.6 Q1031.85 1540.33 1028.77 1544.94 Q1025.71 1549.52 1019.9 1549.52 Q1014.09 1549.52 1011.01 1544.94 Q1007.96 1540.33 1007.96 1531.6 Q1007.96 1522.85 1011.01 1518.27 Q1014.09 1513.66 1019.9 1513.66 Z" fill="#000000" fill-rule="nonzero" fill-opacity="1" /><path clip-path="url(#clip690)" d="M1120.16 1544.91 L1127.8 1544.91 L1127.8 1518.55 L1119.49 1520.21 L1119.49 1515.95 L1127.75 1514.29 L1132.43 1514.29 L1132.43 1544.91 L1140.07 1544.91 L1140.07 1548.85 L1120.16 1548.85 L1120.16 1544.91 Z" fill="#000000" fill-rule="nonzero" fill-opacity="1" /><path clip-path="url(#clip690)" d="M1159.51 1517.37 Q1155.9 1517.37 1154.07 1520.93 Q1152.26 1524.47 1152.26 1531.6 Q1152.26 1538.71 1154.07 1542.27 Q1155.9 1545.82 1159.51 1545.82 Q1163.14 1545.82 1164.95 1542.27 Q1166.78 1538.71 1166.78 1531.6 Q1166.78 1524.47 1164.95 1520.93 Q1163.14 1517.37 1159.51 1517.37 M1159.51 1513.66 Q1165.32 1513.66 1168.38 1518.27 Q1171.45 1522.85 1171.45 1531.6 Q1171.45 1540.33 1168.38 1544.94 Q1165.32 1549.52 1159.51 1549.52 Q1153.7 1549.52 1150.62 1544.94 Q1147.57 1540.33 1147.57 1531.6 Q1147.57 1522.85 1150.62 1518.27 Q1153.7 1513.66 1159.51 1513.66 Z" fill="#000000" fill-rule="nonzero" fill-opacity="1" /><path clip-path="url(#clip690)" d="M1249.81 1544.91 L1266.13 1544.91 L1266.13 1548.85 L1244.19 1548.85 L1244.19 1544.91 Q1246.85 1542.16 1251.43 1537.53 Q1256.04 1532.88 1257.22 1531.53 Q1259.47 1529.01 1260.35 1527.27 Q1261.25 1525.51 1261.25 1523.82 Q1261.25 1521.07 1259.3 1519.33 Q1257.38 1517.6 1254.28 1517.6 Q1252.08 1517.6 1249.63 1518.36 Q1247.2 1519.13 1244.42 1520.68 L1244.42 1515.95 Q1247.24 1514.82 1249.7 1514.24 Q1252.15 1513.66 1254.19 1513.66 Q1259.56 1513.66 1262.75 1516.35 Q1265.95 1519.03 1265.95 1523.52 Q1265.95 1525.65 1265.14 1527.57 Q1264.35 1529.47 1262.24 1532.07 Q1261.66 1532.74 1258.56 1535.95 Q1255.46 1539.15 1249.81 1544.91 Z" fill="#000000" fill-rule="nonzero" fill-opacity="1" /><path clip-path="url(#clip690)" d="M1285.95 1517.37 Q1282.34 1517.37 1280.51 1520.93 Q1278.7 1524.47 1278.7 1531.6 Q1278.7 1538.71 1280.51 1542.27 Q1282.34 1545.82 1285.95 1545.82 Q1289.58 1545.82 1291.39 1542.27 Q1293.22 1538.71 1293.22 1531.6 Q1293.22 1524.47 1291.39 1520.93 Q1289.58 1517.37 1285.95 1517.37 M1285.95 1513.66 Q1291.76 1513.66 1294.81 1518.27 Q1297.89 1522.85 1297.89 1531.6 Q1297.89 1540.33 1294.81 1544.94 Q1291.76 1549.52 1285.95 1549.52 Q1280.14 1549.52 1277.06 1544.94 Q1274 1540.33 1274 1531.6 Q1274 1522.85 1277.06 1518.27 Q1280.14 1513.66 1285.95 1513.66 Z" fill="#000000" fill-rule="nonzero" fill-opacity="1" /><path clip-path="url(#clip690)" d="M1385.45 1530.21 Q1388.81 1530.93 1390.68 1533.2 Q1392.58 1535.47 1392.58 1538.8 Q1392.58 1543.92 1389.06 1546.72 Q1385.54 1549.52 1379.06 1549.52 Q1376.89 1549.52 1374.57 1549.08 Q1372.28 1548.66 1369.83 1547.81 L1369.83 1543.29 Q1371.77 1544.43 1374.09 1545.01 Q1376.4 1545.58 1378.92 1545.58 Q1383.32 1545.58 1385.61 1543.85 Q1387.93 1542.11 1387.93 1538.8 Q1387.93 1535.75 1385.78 1534.03 Q1383.65 1532.3 1379.83 1532.3 L1375.8 1532.3 L1375.8 1528.45 L1380.01 1528.45 Q1383.46 1528.45 1385.29 1527.09 Q1387.12 1525.7 1387.12 1523.11 Q1387.12 1520.45 1385.22 1519.03 Q1383.34 1517.6 1379.83 1517.6 Q1377.9 1517.6 1375.71 1518.01 Q1373.51 1518.43 1370.87 1519.31 L1370.87 1515.14 Q1373.53 1514.4 1375.84 1514.03 Q1378.18 1513.66 1380.24 1513.66 Q1385.57 1513.66 1388.67 1516.09 Q1391.77 1518.5 1391.77 1522.62 Q1391.77 1525.49 1390.13 1527.48 Q1388.48 1529.45 1385.45 1530.21 Z" fill="#000000" fill-rule="nonzero" fill-opacity="1" /><path clip-path="url(#clip690)" d="M1411.45 1517.37 Q1407.84 1517.37 1406.01 1520.93 Q1404.2 1524.47 1404.2 1531.6 Q1404.2 1538.71 1406.01 1542.27 Q1407.84 1545.82 1411.45 1545.82 Q1415.08 1545.82 1416.89 1542.27 Q1418.71 1538.71 1418.71 1531.6 Q1418.71 1524.47 1416.89 1520.93 Q1415.08 1517.37 1411.45 1517.37 M1411.45 1513.66 Q1417.26 1513.66 1420.31 1518.27 Q1423.39 1522.85 1423.39 1531.6 Q1423.39 1540.33 1420.31 1544.94 Q1417.26 1549.52 1411.45 1549.52 Q1405.64 1549.52 1402.56 1544.94 Q1399.5 1540.33 1399.5 1531.6 Q1399.5 1522.85 1402.56 1518.27 Q1405.64 1513.66 1411.45 1513.66 Z" fill="#000000" fill-rule="nonzero" fill-opacity="1" /><path clip-path="url(#clip690)" d="M1510.35 1518.36 L1498.54 1536.81 L1510.35 1536.81 L1510.35 1518.36 M1509.12 1514.29 L1515 1514.29 L1515 1536.81 L1519.93 1536.81 L1519.93 1540.7 L1515 1540.7 L1515 1548.85 L1510.35 1548.85 L1510.35 1540.7 L1494.75 1540.7 L1494.75 1536.19 L1509.12 1514.29 Z" fill="#000000" fill-rule="nonzero" fill-opacity="1" /><path clip-path="url(#clip690)" d="M1537.66 1517.37 Q1534.05 1517.37 1532.22 1520.93 Q1530.42 1524.47 1530.42 1531.6 Q1530.42 1538.71 1532.22 1542.27 Q1534.05 1545.82 1537.66 1545.82 Q1541.3 1545.82 1543.1 1542.27 Q1544.93 1538.71 1544.93 1531.6 Q1544.93 1524.47 1543.1 1520.93 Q1541.3 1517.37 1537.66 1517.37 M1537.66 1513.66 Q1543.47 1513.66 1546.53 1518.27 Q1549.61 1522.85 1549.61 1531.6 Q1549.61 1540.33 1546.53 1544.94 Q1543.47 1549.52 1537.66 1549.52 Q1531.85 1549.52 1528.77 1544.94 Q1525.72 1540.33 1525.72 1531.6 Q1525.72 1522.85 1528.77 1518.27 Q1531.85 1513.66 1537.66 1513.66 Z" fill="#000000" fill-rule="nonzero" fill-opacity="1" /><polyline clip-path="url(#clip690)" style="stroke:#000000; stroke-linecap:round; stroke-linejoin:round; stroke-width:4; stroke-opacity:1; fill:none" points="1017.77,1486.45 1017.77,47.2441 "/>
<polyline clip-path="url(#clip690)" style="stroke:#000000; stroke-linecap:round; stroke-linejoin:round; stroke-width:4; stroke-opacity:1; fill:none" points="1017.77,1445.72 1036.67,1445.72 "/>
<polyline clip-path="url(#clip690)" style="stroke:#000000; stroke-linecap:round; stroke-linejoin:round; stroke-width:4; stroke-opacity:1; fill:none" points="1017.77,1106.28 1036.67,1106.28 "/>
<polyline clip-path="url(#clip690)" style="stroke:#000000; stroke-linecap:round; stroke-linejoin:round; stroke-width:4; stroke-opacity:1; fill:none" points="1017.77,766.846 1036.67,766.846 "/>
<polyline clip-path="url(#clip690)" style="stroke:#000000; stroke-linecap:round; stroke-linejoin:round; stroke-width:4; stroke-opacity:1; fill:none" points="1017.77,427.411 1036.67,427.411 "/>
<polyline clip-path="url(#clip690)" style="stroke:#000000; stroke-linecap:round; stroke-linejoin:round; stroke-width:4; stroke-opacity:1; fill:none" points="1017.77,87.9763 1036.67,87.9763 "/>
<path clip-path="url(#clip690)" d="M969.823 1431.51 Q966.212 1431.51 964.383 1435.08 Q962.578 1438.62 962.578 1445.75 Q962.578 1452.86 964.383 1456.42 Q966.212 1459.96 969.823 1459.96 Q973.457 1459.96 975.263 1456.42 Q977.092 1452.86 977.092 1445.75 Q977.092 1438.62 975.263 1435.08 Q973.457 1431.51 969.823 1431.51 M969.823 1427.81 Q975.633 1427.81 978.689 1432.42 Q981.768 1437 981.768 1445.75 Q981.768 1454.48 978.689 1459.08 Q975.633 1463.67 969.823 1463.67 Q964.013 1463.67 960.934 1459.08 Q957.879 1454.48 957.879 1445.75 Q957.879 1437 960.934 1432.42 Q964.013 1427.81 969.823 1427.81 Z" fill="#000000" fill-rule="nonzero" fill-opacity="1" /><path clip-path="url(#clip690)" d="M960.865 1089 L979.221 1089 L979.221 1092.94 L965.147 1092.94 L965.147 1101.41 Q966.166 1101.06 967.184 1100.9 Q968.203 1100.71 969.221 1100.71 Q975.008 1100.71 978.388 1103.89 Q981.768 1107.06 981.768 1112.47 Q981.768 1118.05 978.295 1121.15 Q974.823 1124.23 968.504 1124.23 Q966.328 1124.23 964.059 1123.86 Q961.814 1123.49 959.407 1122.75 L959.407 1118.05 Q961.49 1119.19 963.712 1119.74 Q965.934 1120.3 968.411 1120.3 Q972.416 1120.3 974.754 1118.19 Q977.092 1116.08 977.092 1112.47 Q977.092 1108.86 974.754 1106.76 Q972.416 1104.65 968.411 1104.65 Q966.536 1104.65 964.661 1105.07 Q962.809 1105.48 960.865 1106.36 L960.865 1089 Z" fill="#000000" fill-rule="nonzero" fill-opacity="1" /><path clip-path="url(#clip690)" d="M930.471 780.191 L938.11 780.191 L938.11 753.825 L929.8 755.492 L929.8 751.233 L938.064 749.566 L942.74 749.566 L942.74 780.191 L950.379 780.191 L950.379 784.126 L930.471 784.126 L930.471 780.191 Z" fill="#000000" fill-rule="nonzero" fill-opacity="1" /><path clip-path="url(#clip690)" d="M969.823 752.645 Q966.212 752.645 964.383 756.209 Q962.578 759.751 962.578 766.881 Q962.578 773.987 964.383 777.552 Q966.212 781.094 969.823 781.094 Q973.457 781.094 975.263 777.552 Q977.092 773.987 977.092 766.881 Q977.092 759.751 975.263 756.209 Q973.457 752.645 969.823 752.645 M969.823 748.941 Q975.633 748.941 978.689 753.547 Q981.768 758.131 981.768 766.881 Q981.768 775.608 978.689 780.214 Q975.633 784.797 969.823 784.797 Q964.013 784.797 960.934 780.214 Q957.879 775.608 957.879 766.881 Q957.879 758.131 960.934 753.547 Q964.013 748.941 969.823 748.941 Z" fill="#000000" fill-rule="nonzero" fill-opacity="1" /><path clip-path="url(#clip690)" d="M931.467 440.756 L939.106 440.756 L939.106 414.39 L930.796 416.057 L930.796 411.798 L939.059 410.131 L943.735 410.131 L943.735 440.756 L951.374 440.756 L951.374 444.691 L931.467 444.691 L931.467 440.756 Z" fill="#000000" fill-rule="nonzero" fill-opacity="1" /><path clip-path="url(#clip690)" d="M960.865 410.131 L979.221 410.131 L979.221 414.066 L965.147 414.066 L965.147 422.538 Q966.166 422.191 967.184 422.029 Q968.203 421.844 969.221 421.844 Q975.008 421.844 978.388 425.015 Q981.768 428.187 981.768 433.603 Q981.768 439.182 978.295 442.284 Q974.823 445.362 968.504 445.362 Q966.328 445.362 964.059 444.992 Q961.814 444.622 959.407 443.881 L959.407 439.182 Q961.49 440.316 963.712 440.872 Q965.934 441.427 968.411 441.427 Q972.416 441.427 974.754 439.321 Q977.092 437.214 977.092 433.603 Q977.092 429.992 974.754 427.886 Q972.416 425.779 968.411 425.779 Q966.536 425.779 964.661 426.196 Q962.809 426.613 960.865 427.492 L960.865 410.131 Z" fill="#000000" fill-rule="nonzero" fill-opacity="1" /><path clip-path="url(#clip690)" d="M933.689 101.321 L950.008 101.321 L950.008 105.256 L928.064 105.256 L928.064 101.321 Q930.726 98.5665 935.309 93.9369 Q939.916 89.2841 941.096 87.9416 Q943.342 85.4184 944.221 83.6823 Q945.124 81.9231 945.124 80.2333 Q945.124 77.4786 943.18 75.7425 Q941.258 74.0064 938.157 74.0064 Q935.958 74.0064 933.504 74.7703 Q931.073 75.5342 928.296 77.0851 L928.296 72.3629 Q931.12 71.2287 933.573 70.65 Q936.027 70.0713 938.064 70.0713 Q943.434 70.0713 946.629 72.7565 Q949.823 75.4416 949.823 79.9323 Q949.823 82.062 949.013 83.9832 Q948.226 85.8814 946.12 88.474 Q945.541 89.1453 942.439 92.3628 Q939.337 95.5573 933.689 101.321 Z" fill="#000000" fill-rule="nonzero" fill-opacity="1" /><path clip-path="url(#clip690)" d="M969.823 73.775 Q966.212 73.775 964.383 77.3398 Q962.578 80.8814 962.578 88.011 Q962.578 95.1174 964.383 98.6822 Q966.212 102.224 969.823 102.224 Q973.457 102.224 975.263 98.6822 Q977.092 95.1174 977.092 88.011 Q977.092 80.8814 975.263 77.3398 Q973.457 73.775 969.823 73.775 M969.823 70.0713 Q975.633 70.0713 978.689 74.6777 Q981.768 79.261 981.768 88.011 Q981.768 96.7378 978.689 101.344 Q975.633 105.928 969.823 105.928 Q964.013 105.928 960.934 101.344 Q957.879 96.7378 957.879 88.011 Q957.879 79.261 960.934 74.6777 Q964.013 70.0713 969.823 70.0713 Z" fill="#000000" fill-rule="nonzero" fill-opacity="1" /><path clip-path="url(#clip690)" d="M849.003 805.852 Q845.057 803.656 843.179 800.6 Q841.301 797.545 841.301 793.407 Q841.301 787.837 845.216 784.813 Q849.099 781.789 856.292 781.789 L877.808 781.789 L877.808 787.678 L856.483 787.678 Q851.359 787.678 848.876 789.492 Q846.393 791.306 846.393 795.03 Q846.393 799.582 849.417 802.223 Q852.441 804.865 857.661 804.865 L877.808 804.865 L877.808 810.753 L856.483 810.753 Q851.327 810.753 848.876 812.568 Q846.393 814.382 846.393 818.169 Q846.393 822.657 849.449 825.299 Q852.473 827.941 857.661 827.941 L877.808 827.941 L877.808 833.829 L842.16 833.829 L842.16 827.941 L847.698 827.941 Q844.42 825.936 842.86 823.135 Q841.301 820.334 841.301 816.483 Q841.301 812.6 843.274 809.894 Q845.248 807.157 849.003 805.852 Z" fill="#000000" fill-rule="nonzero" fill-opacity="1" /><path clip-path="url(#clip690)" d="M859.889 753.908 Q859.889 761.005 861.512 763.743 Q863.135 766.48 867.05 766.48 Q870.169 766.48 872.015 764.443 Q873.83 762.374 873.83 758.841 Q873.83 753.971 870.392 751.043 Q866.923 748.083 861.194 748.083 L859.889 748.083 L859.889 753.908 M857.47 742.227 L877.808 742.227 L877.808 748.083 L872.397 748.083 Q875.644 750.088 877.203 753.08 Q878.731 756.072 878.731 760.401 Q878.731 765.875 875.676 769.122 Q872.588 772.336 867.432 772.336 Q861.416 772.336 858.361 768.326 Q855.305 764.284 855.305 756.295 L855.305 748.083 L854.732 748.083 Q850.69 748.083 848.494 750.757 Q846.266 753.398 846.266 758.205 Q846.266 761.26 846.998 764.156 Q847.73 767.053 849.194 769.726 L843.783 769.726 Q842.542 766.512 841.937 763.488 Q841.301 760.464 841.301 757.6 Q841.301 749.865 845.311 746.046 Q849.322 742.227 857.47 742.227 Z" fill="#000000" fill-rule="nonzero" fill-opacity="1" /><path clip-path="url(#clip690)" d="M842.16 700.531 L859.507 713.422 L877.808 699.863 L877.808 706.77 L863.804 717.146 L877.808 727.522 L877.808 734.429 L859.157 720.583 L842.16 733.251 L842.16 726.344 L854.86 716.891 L842.16 707.438 L842.16 700.531 Z" fill="#000000" fill-rule="nonzero" fill-opacity="1" /><polyline clip-path="url(#clip693)" style="stroke:#009af9; stroke-linecap:round; stroke-linejoin:round; stroke-width:4; stroke-opacity:1; fill:none" points="1032.46,1445.72 1045.02,1445.72 1057.57,1377.83 1070.13,1242.05 1082.69,1377.83 1095.24,1106.28 1107.8,970.507 1120.36,970.507 1132.91,1038.39 1145.47,631.072 1158.03,1038.39 1170.58,495.298 1183.14,834.733 1195.7,1038.39 1208.26,291.637 1220.81,291.637 1233.37,834.733 1245.93,87.9763 1258.48,291.637 1271.04,359.524 1283.6,631.072 1296.15,291.637 1308.71,766.846 1321.27,155.863 1333.82,359.524 1346.38,902.62 1358.94,359.524 1371.49,902.62 1384.05,495.298 1396.61,1038.39 1409.17,631.072 1421.72,698.959 1434.28,1106.28 1446.84,970.507 1459.39,1038.39 1471.95,1242.05 1484.51,1242.05 1497.06,1377.83 1509.62,1445.72 1522.18,1445.72 "/>
<path clip-path="url(#clip690)" d="M1833.65 1486.45 L2352.76 1486.45 L2352.76 47.2441 L1833.65 47.2441  Z" fill="#ffffff" fill-rule="evenodd" fill-opacity="1"/>
<defs>
  <clipPath id="clip694">
    <rect x="1833" y="47" width="520" height="1440"/>
  </clipPath>
</defs>
<polyline clip-path="url(#clip694)" style="stroke:#000000; stroke-linecap:round; stroke-linejoin:round; stroke-width:2; stroke-opacity:0.1; fill:none" points="1835.79,1486.45 1835.79,47.2441 "/>
<polyline clip-path="url(#clip694)" style="stroke:#000000; stroke-linecap:round; stroke-linejoin:round; stroke-width:2; stroke-opacity:0.1; fill:none" points="1961.36,1486.45 1961.36,47.2441 "/>
<polyline clip-path="url(#clip694)" style="stroke:#000000; stroke-linecap:round; stroke-linejoin:round; stroke-width:2; stroke-opacity:0.1; fill:none" points="2086.93,1486.45 2086.93,47.2441 "/>
<polyline clip-path="url(#clip694)" style="stroke:#000000; stroke-linecap:round; stroke-linejoin:round; stroke-width:2; stroke-opacity:0.1; fill:none" points="2212.5,1486.45 2212.5,47.2441 "/>
<polyline clip-path="url(#clip694)" style="stroke:#000000; stroke-linecap:round; stroke-linejoin:round; stroke-width:2; stroke-opacity:0.1; fill:none" points="2338.06,1486.45 2338.06,47.2441 "/>
<polyline clip-path="url(#clip694)" style="stroke:#000000; stroke-linecap:round; stroke-linejoin:round; stroke-width:2; stroke-opacity:0.1; fill:none" points="1833.65,1445.72 2352.76,1445.72 "/>
<polyline clip-path="url(#clip694)" style="stroke:#000000; stroke-linecap:round; stroke-linejoin:round; stroke-width:2; stroke-opacity:0.1; fill:none" points="1833.65,1106.28 2352.76,1106.28 "/>
<polyline clip-path="url(#clip694)" style="stroke:#000000; stroke-linecap:round; stroke-linejoin:round; stroke-width:2; stroke-opacity:0.1; fill:none" points="1833.65,766.846 2352.76,766.846 "/>
<polyline clip-path="url(#clip694)" style="stroke:#000000; stroke-linecap:round; stroke-linejoin:round; stroke-width:2; stroke-opacity:0.1; fill:none" points="1833.65,427.411 2352.76,427.411 "/>
<polyline clip-path="url(#clip694)" style="stroke:#000000; stroke-linecap:round; stroke-linejoin:round; stroke-width:2; stroke-opacity:0.1; fill:none" points="1833.65,87.9763 2352.76,87.9763 "/>
<polyline clip-path="url(#clip690)" style="stroke:#000000; stroke-linecap:round; stroke-linejoin:round; stroke-width:4; stroke-opacity:1; fill:none" points="1833.65,1486.45 2352.76,1486.45 "/>
<polyline clip-path="url(#clip690)" style="stroke:#000000; stroke-linecap:round; stroke-linejoin:round; stroke-width:4; stroke-opacity:1; fill:none" points="1835.79,1486.45 1835.79,1467.55 "/>
<polyline clip-path="url(#clip690)" style="stroke:#000000; stroke-linecap:round; stroke-linejoin:round; stroke-width:4; stroke-opacity:1; fill:none" points="1961.36,1486.45 1961.36,1467.55 "/>
<polyline clip-path="url(#clip690)" style="stroke:#000000; stroke-linecap:round; stroke-linejoin:round; stroke-width:4; stroke-opacity:1; fill:none" points="2086.93,1486.45 2086.93,1467.55 "/>
<polyline clip-path="url(#clip690)" style="stroke:#000000; stroke-linecap:round; stroke-linejoin:round; stroke-width:4; stroke-opacity:1; fill:none" points="2212.5,1486.45 2212.5,1467.55 "/>
<polyline clip-path="url(#clip690)" style="stroke:#000000; stroke-linecap:round; stroke-linejoin:round; stroke-width:4; stroke-opacity:1; fill:none" points="2338.06,1486.45 2338.06,1467.55 "/>
<path clip-path="url(#clip690)" d="M1835.79 1517.37 Q1832.18 1517.37 1830.35 1520.93 Q1828.54 1524.47 1828.54 1531.6 Q1828.54 1538.71 1830.35 1542.27 Q1832.18 1545.82 1835.79 1545.82 Q1839.42 1545.82 1841.23 1542.27 Q1843.06 1538.71 1843.06 1531.6 Q1843.06 1524.47 1841.23 1520.93 Q1839.42 1517.37 1835.79 1517.37 M1835.79 1513.66 Q1841.6 1513.66 1844.66 1518.27 Q1847.73 1522.85 1847.73 1531.6 Q1847.73 1540.33 1844.66 1544.94 Q1841.6 1549.52 1835.79 1549.52 Q1829.98 1549.52 1826.9 1544.94 Q1823.85 1540.33 1823.85 1531.6 Q1823.85 1522.85 1826.9 1518.27 Q1829.98 1513.66 1835.79 1513.66 Z" fill="#000000" fill-rule="nonzero" fill-opacity="1" /><path clip-path="url(#clip690)" d="M1936.05 1544.91 L1943.68 1544.91 L1943.68 1518.55 L1935.37 1520.21 L1935.37 1515.95 L1943.64 1514.29 L1948.31 1514.29 L1948.31 1544.91 L1955.95 1544.91 L1955.95 1548.85 L1936.05 1548.85 L1936.05 1544.91 Z" fill="#000000" fill-rule="nonzero" fill-opacity="1" /><path clip-path="url(#clip690)" d="M1975.4 1517.37 Q1971.79 1517.37 1969.96 1520.93 Q1968.15 1524.47 1968.15 1531.6 Q1968.15 1538.71 1969.96 1542.27 Q1971.79 1545.82 1975.4 1545.82 Q1979.03 1545.82 1980.84 1542.27 Q1982.67 1538.71 1982.67 1531.6 Q1982.67 1524.47 1980.84 1520.93 Q1979.03 1517.37 1975.4 1517.37 M1975.4 1513.66 Q1981.21 1513.66 1984.26 1518.27 Q1987.34 1522.85 1987.34 1531.6 Q1987.34 1540.33 1984.26 1544.94 Q1981.21 1549.52 1975.4 1549.52 Q1969.59 1549.52 1966.51 1544.94 Q1963.45 1540.33 1963.45 1531.6 Q1963.45 1522.85 1966.51 1518.27 Q1969.59 1513.66 1975.4 1513.66 Z" fill="#000000" fill-rule="nonzero" fill-opacity="1" /><path clip-path="url(#clip690)" d="M2065.7 1544.91 L2082.02 1544.91 L2082.02 1548.85 L2060.08 1548.85 L2060.08 1544.91 Q2062.74 1542.16 2067.32 1537.53 Q2071.93 1532.88 2073.11 1531.53 Q2075.35 1529.01 2076.23 1527.27 Q2077.14 1525.51 2077.14 1523.82 Q2077.14 1521.07 2075.19 1519.33 Q2073.27 1517.6 2070.17 1517.6 Q2067.97 1517.6 2065.51 1518.36 Q2063.08 1519.13 2060.31 1520.68 L2060.31 1515.95 Q2063.13 1514.82 2065.58 1514.24 Q2068.04 1513.66 2070.08 1513.66 Q2075.45 1513.66 2078.64 1516.35 Q2081.83 1519.03 2081.83 1523.52 Q2081.83 1525.65 2081.02 1527.57 Q2080.24 1529.47 2078.13 1532.07 Q2077.55 1532.74 2074.45 1535.95 Q2071.35 1539.15 2065.7 1544.91 Z" fill="#000000" fill-rule="nonzero" fill-opacity="1" /><path clip-path="url(#clip690)" d="M2101.83 1517.37 Q2098.22 1517.37 2096.39 1520.93 Q2094.59 1524.47 2094.59 1531.6 Q2094.59 1538.71 2096.39 1542.27 Q2098.22 1545.82 2101.83 1545.82 Q2105.47 1545.82 2107.27 1542.27 Q2109.1 1538.71 2109.1 1531.6 Q2109.1 1524.47 2107.27 1520.93 Q2105.47 1517.37 2101.83 1517.37 M2101.83 1513.66 Q2107.64 1513.66 2110.7 1518.27 Q2113.78 1522.85 2113.78 1531.6 Q2113.78 1540.33 2110.7 1544.94 Q2107.64 1549.52 2101.83 1549.52 Q2096.02 1549.52 2092.95 1544.94 Q2089.89 1540.33 2089.89 1531.6 Q2089.89 1522.85 2092.95 1518.27 Q2096.02 1513.66 2101.83 1513.66 Z" fill="#000000" fill-rule="nonzero" fill-opacity="1" /><path clip-path="url(#clip690)" d="M2201.34 1530.21 Q2204.69 1530.93 2206.57 1533.2 Q2208.47 1535.47 2208.47 1538.8 Q2208.47 1543.92 2204.95 1546.72 Q2201.43 1549.52 2194.95 1549.52 Q2192.77 1549.52 2190.46 1549.08 Q2188.17 1548.66 2185.71 1547.81 L2185.71 1543.29 Q2187.66 1544.43 2189.97 1545.01 Q2192.29 1545.58 2194.81 1545.58 Q2199.21 1545.58 2201.5 1543.85 Q2203.82 1542.11 2203.82 1538.8 Q2203.82 1535.75 2201.66 1534.03 Q2199.53 1532.3 2195.71 1532.3 L2191.69 1532.3 L2191.69 1528.45 L2195.9 1528.45 Q2199.35 1528.45 2201.18 1527.09 Q2203 1525.7 2203 1523.11 Q2203 1520.45 2201.11 1519.03 Q2199.23 1517.6 2195.71 1517.6 Q2193.79 1517.6 2191.59 1518.01 Q2189.39 1518.43 2186.76 1519.31 L2186.76 1515.14 Q2189.42 1514.4 2191.73 1514.03 Q2194.07 1513.66 2196.13 1513.66 Q2201.45 1513.66 2204.56 1516.09 Q2207.66 1518.5 2207.66 1522.62 Q2207.66 1525.49 2206.01 1527.48 Q2204.37 1529.45 2201.34 1530.21 Z" fill="#000000" fill-rule="nonzero" fill-opacity="1" /><path clip-path="url(#clip690)" d="M2227.33 1517.37 Q2223.72 1517.37 2221.89 1520.93 Q2220.09 1524.47 2220.09 1531.6 Q2220.09 1538.71 2221.89 1542.27 Q2223.72 1545.82 2227.33 1545.82 Q2230.97 1545.82 2232.77 1542.27 Q2234.6 1538.71 2234.6 1531.6 Q2234.6 1524.47 2232.77 1520.93 Q2230.97 1517.37 2227.33 1517.37 M2227.33 1513.66 Q2233.14 1513.66 2236.2 1518.27 Q2239.28 1522.85 2239.28 1531.6 Q2239.28 1540.33 2236.2 1544.94 Q2233.14 1549.52 2227.33 1549.52 Q2221.52 1549.52 2218.44 1544.94 Q2215.39 1540.33 2215.39 1531.6 Q2215.39 1522.85 2218.44 1518.27 Q2221.52 1513.66 2227.33 1513.66 Z" fill="#000000" fill-rule="nonzero" fill-opacity="1" /><path clip-path="url(#clip690)" d="M2326.24 1518.36 L2314.43 1536.81 L2326.24 1536.81 L2326.24 1518.36 M2325.01 1514.29 L2330.89 1514.29 L2330.89 1536.81 L2335.82 1536.81 L2335.82 1540.7 L2330.89 1540.7 L2330.89 1548.85 L2326.24 1548.85 L2326.24 1540.7 L2310.63 1540.7 L2310.63 1536.19 L2325.01 1514.29 Z" fill="#000000" fill-rule="nonzero" fill-opacity="1" /><path clip-path="url(#clip690)" d="M2353.55 1517.37 Q2349.94 1517.37 2348.11 1520.93 Q2346.31 1524.47 2346.31 1531.6 Q2346.31 1538.71 2348.11 1542.27 Q2349.94 1545.82 2353.55 1545.82 Q2357.18 1545.82 2358.99 1542.27 Q2360.82 1538.71 2360.82 1531.6 Q2360.82 1524.47 2358.99 1520.93 Q2357.18 1517.37 2353.55 1517.37 M2353.55 1513.66 Q2359.36 1513.66 2362.42 1518.27 Q2365.49 1522.85 2365.49 1531.6 Q2365.49 1540.33 2362.42 1544.94 Q2359.36 1549.52 2353.55 1549.52 Q2347.74 1549.52 2344.66 1544.94 Q2341.61 1540.33 2341.61 1531.6 Q2341.61 1522.85 2344.66 1518.27 Q2347.74 1513.66 2353.55 1513.66 Z" fill="#000000" fill-rule="nonzero" fill-opacity="1" /><polyline clip-path="url(#clip690)" style="stroke:#000000; stroke-linecap:round; stroke-linejoin:round; stroke-width:4; stroke-opacity:1; fill:none" points="1833.65,1486.45 1833.65,47.2441 "/>
<polyline clip-path="url(#clip690)" style="stroke:#000000; stroke-linecap:round; stroke-linejoin:round; stroke-width:4; stroke-opacity:1; fill:none" points="1833.65,1445.72 1852.55,1445.72 "/>
<polyline clip-path="url(#clip690)" style="stroke:#000000; stroke-linecap:round; stroke-linejoin:round; stroke-width:4; stroke-opacity:1; fill:none" points="1833.65,1106.28 1852.55,1106.28 "/>
<polyline clip-path="url(#clip690)" style="stroke:#000000; stroke-linecap:round; stroke-linejoin:round; stroke-width:4; stroke-opacity:1; fill:none" points="1833.65,766.846 1852.55,766.846 "/>
<polyline clip-path="url(#clip690)" style="stroke:#000000; stroke-linecap:round; stroke-linejoin:round; stroke-width:4; stroke-opacity:1; fill:none" points="1833.65,427.411 1852.55,427.411 "/>
<polyline clip-path="url(#clip690)" style="stroke:#000000; stroke-linecap:round; stroke-linejoin:round; stroke-width:4; stroke-opacity:1; fill:none" points="1833.65,87.9763 1852.55,87.9763 "/>
<path clip-path="url(#clip690)" d="M1710.32 1431.51 Q1706.71 1431.51 1704.88 1435.08 Q1703.07 1438.62 1703.07 1445.75 Q1703.07 1452.86 1704.88 1456.42 Q1706.71 1459.96 1710.32 1459.96 Q1713.95 1459.96 1715.76 1456.42 Q1717.59 1452.86 1717.59 1445.75 Q1717.59 1438.62 1715.76 1435.08 Q1713.95 1431.51 1710.32 1431.51 M1710.32 1427.81 Q1716.13 1427.81 1719.18 1432.42 Q1722.26 1437 1722.26 1445.75 Q1722.26 1454.48 1719.18 1459.08 Q1716.13 1463.67 1710.32 1463.67 Q1704.51 1463.67 1701.43 1459.08 Q1698.37 1454.48 1698.37 1445.75 Q1698.37 1437 1701.43 1432.42 Q1704.51 1427.81 1710.32 1427.81 Z" fill="#000000" fill-rule="nonzero" fill-opacity="1" /><path clip-path="url(#clip690)" d="M1730.48 1457.12 L1735.36 1457.12 L1735.36 1463 L1730.48 1463 L1730.48 1457.12 Z" fill="#000000" fill-rule="nonzero" fill-opacity="1" /><path clip-path="url(#clip690)" d="M1755.55 1431.51 Q1751.94 1431.51 1750.11 1435.08 Q1748.3 1438.62 1748.3 1445.75 Q1748.3 1452.86 1750.11 1456.42 Q1751.94 1459.96 1755.55 1459.96 Q1759.18 1459.96 1760.99 1456.42 Q1762.82 1452.86 1762.82 1445.75 Q1762.82 1438.62 1760.99 1435.08 Q1759.18 1431.51 1755.55 1431.51 M1755.55 1427.81 Q1761.36 1427.81 1764.41 1432.42 Q1767.49 1437 1767.49 1445.75 Q1767.49 1454.48 1764.41 1459.08 Q1761.36 1463.67 1755.55 1463.67 Q1749.74 1463.67 1746.66 1459.08 Q1743.6 1454.48 1743.6 1445.75 Q1743.6 1437 1746.66 1432.42 Q1749.74 1427.81 1755.55 1427.81 Z" fill="#000000" fill-rule="nonzero" fill-opacity="1" /><path clip-path="url(#clip690)" d="M1785.71 1431.51 Q1782.1 1431.51 1780.27 1435.08 Q1778.47 1438.62 1778.47 1445.75 Q1778.47 1452.86 1780.27 1456.42 Q1782.1 1459.96 1785.71 1459.96 Q1789.34 1459.96 1791.15 1456.42 Q1792.98 1452.86 1792.98 1445.75 Q1792.98 1438.62 1791.15 1435.08 Q1789.34 1431.51 1785.71 1431.51 M1785.71 1427.81 Q1791.52 1427.81 1794.58 1432.42 Q1797.65 1437 1797.65 1445.75 Q1797.65 1454.48 1794.58 1459.08 Q1791.52 1463.67 1785.71 1463.67 Q1779.9 1463.67 1776.82 1459.08 Q1773.77 1454.48 1773.77 1445.75 Q1773.77 1437 1776.82 1432.42 Q1779.9 1427.81 1785.71 1427.81 Z" fill="#000000" fill-rule="nonzero" fill-opacity="1" /><path clip-path="url(#clip690)" d="M1711.31 1092.08 Q1707.7 1092.08 1705.87 1095.64 Q1704.07 1099.19 1704.07 1106.32 Q1704.07 1113.42 1705.87 1116.99 Q1707.7 1120.53 1711.31 1120.53 Q1714.95 1120.53 1716.75 1116.99 Q1718.58 1113.42 1718.58 1106.32 Q1718.58 1099.19 1716.75 1095.64 Q1714.95 1092.08 1711.31 1092.08 M1711.31 1088.38 Q1717.12 1088.38 1720.18 1092.98 Q1723.26 1097.57 1723.26 1106.32 Q1723.26 1115.04 1720.18 1119.65 Q1717.12 1124.23 1711.31 1124.23 Q1705.5 1124.23 1702.42 1119.65 Q1699.37 1115.04 1699.37 1106.32 Q1699.37 1097.57 1702.42 1092.98 Q1705.5 1088.38 1711.31 1088.38 Z" fill="#000000" fill-rule="nonzero" fill-opacity="1" /><path clip-path="url(#clip690)" d="M1731.47 1117.68 L1736.36 1117.68 L1736.36 1123.56 L1731.47 1123.56 L1731.47 1117.68 Z" fill="#000000" fill-rule="nonzero" fill-opacity="1" /><path clip-path="url(#clip690)" d="M1750.57 1119.63 L1766.89 1119.63 L1766.89 1123.56 L1744.95 1123.56 L1744.95 1119.63 Q1747.61 1116.87 1752.19 1112.24 Q1756.8 1107.59 1757.98 1106.25 Q1760.22 1103.72 1761.1 1101.99 Q1762.01 1100.23 1762.01 1098.54 Q1762.01 1095.78 1760.06 1094.05 Q1758.14 1092.31 1755.04 1092.31 Q1752.84 1092.31 1750.39 1093.07 Q1747.96 1093.84 1745.18 1095.39 L1745.18 1090.67 Q1748 1089.53 1750.46 1088.95 Q1752.91 1088.38 1754.95 1088.38 Q1760.32 1088.38 1763.51 1091.06 Q1766.71 1093.75 1766.71 1098.24 Q1766.71 1100.37 1765.9 1102.29 Q1765.11 1104.19 1763 1106.78 Q1762.42 1107.45 1759.32 1110.67 Q1756.22 1113.86 1750.57 1119.63 Z" fill="#000000" fill-rule="nonzero" fill-opacity="1" /><path clip-path="url(#clip690)" d="M1776.75 1089 L1795.11 1089 L1795.11 1092.94 L1781.03 1092.94 L1781.03 1101.41 Q1782.05 1101.06 1783.07 1100.9 Q1784.09 1100.71 1785.11 1100.71 Q1790.9 1100.71 1794.28 1103.89 Q1797.65 1107.06 1797.65 1112.47 Q1797.65 1118.05 1794.18 1121.15 Q1790.71 1124.23 1784.39 1124.23 Q1782.22 1124.23 1779.95 1123.86 Q1777.7 1123.49 1775.29 1122.75 L1775.29 1118.05 Q1777.38 1119.19 1779.6 1119.74 Q1781.82 1120.3 1784.3 1120.3 Q1788.3 1120.3 1790.64 1118.19 Q1792.98 1116.08 1792.98 1112.47 Q1792.98 1108.86 1790.64 1106.76 Q1788.3 1104.65 1784.3 1104.65 Q1782.42 1104.65 1780.55 1105.07 Q1778.7 1105.48 1776.75 1106.36 L1776.75 1089 Z" fill="#000000" fill-rule="nonzero" fill-opacity="1" /><path clip-path="url(#clip690)" d="M1710.32 752.645 Q1706.71 752.645 1704.88 756.209 Q1703.07 759.751 1703.07 766.881 Q1703.07 773.987 1704.88 777.552 Q1706.71 781.094 1710.32 781.094 Q1713.95 781.094 1715.76 777.552 Q1717.59 773.987 1717.59 766.881 Q1717.59 759.751 1715.76 756.209 Q1713.95 752.645 1710.32 752.645 M1710.32 748.941 Q1716.13 748.941 1719.18 753.547 Q1722.26 758.131 1722.26 766.881 Q1722.26 775.608 1719.18 780.214 Q1716.13 784.797 1710.32 784.797 Q1704.51 784.797 1701.43 780.214 Q1698.37 775.608 1698.37 766.881 Q1698.37 758.131 1701.43 753.547 Q1704.51 748.941 1710.32 748.941 Z" fill="#000000" fill-rule="nonzero" fill-opacity="1" /><path clip-path="url(#clip690)" d="M1730.48 778.246 L1735.36 778.246 L1735.36 784.126 L1730.48 784.126 L1730.48 778.246 Z" fill="#000000" fill-rule="nonzero" fill-opacity="1" /><path clip-path="url(#clip690)" d="M1745.59 749.566 L1763.95 749.566 L1763.95 753.501 L1749.88 753.501 L1749.88 761.973 Q1750.9 761.626 1751.91 761.464 Q1752.93 761.279 1753.95 761.279 Q1759.74 761.279 1763.12 764.45 Q1766.5 767.621 1766.5 773.038 Q1766.5 778.617 1763.03 781.719 Q1759.55 784.797 1753.23 784.797 Q1751.06 784.797 1748.79 784.427 Q1746.54 784.057 1744.14 783.316 L1744.14 778.617 Q1746.22 779.751 1748.44 780.307 Q1750.66 780.862 1753.14 780.862 Q1757.15 780.862 1759.48 778.756 Q1761.82 776.649 1761.82 773.038 Q1761.82 769.427 1759.48 767.321 Q1757.15 765.214 1753.14 765.214 Q1751.27 765.214 1749.39 765.631 Q1747.54 766.047 1745.59 766.927 L1745.59 749.566 Z" fill="#000000" fill-rule="nonzero" fill-opacity="1" /><path clip-path="url(#clip690)" d="M1785.71 752.645 Q1782.1 752.645 1780.27 756.209 Q1778.47 759.751 1778.47 766.881 Q1778.47 773.987 1780.27 777.552 Q1782.1 781.094 1785.71 781.094 Q1789.34 781.094 1791.15 777.552 Q1792.98 773.987 1792.98 766.881 Q1792.98 759.751 1791.15 756.209 Q1789.34 752.645 1785.71 752.645 M1785.71 748.941 Q1791.52 748.941 1794.58 753.547 Q1797.65 758.131 1797.65 766.881 Q1797.65 775.608 1794.58 780.214 Q1791.52 784.797 1785.71 784.797 Q1779.9 784.797 1776.82 780.214 Q1773.77 775.608 1773.77 766.881 Q1773.77 758.131 1776.82 753.547 Q1779.9 748.941 1785.71 748.941 Z" fill="#000000" fill-rule="nonzero" fill-opacity="1" /><path clip-path="url(#clip690)" d="M1711.31 413.21 Q1707.7 413.21 1705.87 416.775 Q1704.07 420.316 1704.07 427.446 Q1704.07 434.552 1705.87 438.117 Q1707.7 441.659 1711.31 441.659 Q1714.95 441.659 1716.75 438.117 Q1718.58 434.552 1718.58 427.446 Q1718.58 420.316 1716.75 416.775 Q1714.95 413.21 1711.31 413.21 M1711.31 409.506 Q1717.12 409.506 1720.18 414.113 Q1723.26 418.696 1723.26 427.446 Q1723.26 436.173 1720.18 440.779 Q1717.12 445.362 1711.31 445.362 Q1705.5 445.362 1702.42 440.779 Q1699.37 436.173 1699.37 427.446 Q1699.37 418.696 1702.42 414.113 Q1705.5 409.506 1711.31 409.506 Z" fill="#000000" fill-rule="nonzero" fill-opacity="1" /><path clip-path="url(#clip690)" d="M1731.47 438.812 L1736.36 438.812 L1736.36 444.691 L1731.47 444.691 L1731.47 438.812 Z" fill="#000000" fill-rule="nonzero" fill-opacity="1" /><path clip-path="url(#clip690)" d="M1745.36 410.131 L1767.59 410.131 L1767.59 412.122 L1755.04 444.691 L1750.16 444.691 L1761.96 414.066 L1745.36 414.066 L1745.36 410.131 Z" fill="#000000" fill-rule="nonzero" fill-opacity="1" /><path clip-path="url(#clip690)" d="M1776.75 410.131 L1795.11 410.131 L1795.11 414.066 L1781.03 414.066 L1781.03 422.538 Q1782.05 422.191 1783.07 422.029 Q1784.09 421.844 1785.11 421.844 Q1790.9 421.844 1794.28 425.015 Q1797.65 428.187 1797.65 433.603 Q1797.65 439.182 1794.18 442.284 Q1790.71 445.362 1784.39 445.362 Q1782.22 445.362 1779.95 444.992 Q1777.7 444.622 1775.29 443.881 L1775.29 439.182 Q1777.38 440.316 1779.6 440.872 Q1781.82 441.427 1784.3 441.427 Q1788.3 441.427 1790.64 439.321 Q1792.98 437.214 1792.98 433.603 Q1792.98 429.992 1790.64 427.886 Q1788.3 425.779 1784.3 425.779 Q1782.42 425.779 1780.55 426.196 Q1778.7 426.613 1776.75 427.492 L1776.75 410.131 Z" fill="#000000" fill-rule="nonzero" fill-opacity="1" /><path clip-path="url(#clip690)" d="M1701.13 101.321 L1708.77 101.321 L1708.77 74.9555 L1700.46 76.6222 L1700.46 72.3629 L1708.72 70.6963 L1713.4 70.6963 L1713.4 101.321 L1721.03 101.321 L1721.03 105.256 L1701.13 105.256 L1701.13 101.321 Z" fill="#000000" fill-rule="nonzero" fill-opacity="1" /><path clip-path="url(#clip690)" d="M1730.48 99.3767 L1735.36 99.3767 L1735.36 105.256 L1730.48 105.256 L1730.48 99.3767 Z" fill="#000000" fill-rule="nonzero" fill-opacity="1" /><path clip-path="url(#clip690)" d="M1755.55 73.775 Q1751.94 73.775 1750.11 77.3398 Q1748.3 80.8814 1748.3 88.011 Q1748.3 95.1174 1750.11 98.6822 Q1751.94 102.224 1755.55 102.224 Q1759.18 102.224 1760.99 98.6822 Q1762.82 95.1174 1762.82 88.011 Q1762.82 80.8814 1760.99 77.3398 Q1759.18 73.775 1755.55 73.775 M1755.55 70.0713 Q1761.36 70.0713 1764.41 74.6777 Q1767.49 79.261 1767.49 88.011 Q1767.49 96.7378 1764.41 101.344 Q1761.36 105.928 1755.55 105.928 Q1749.74 105.928 1746.66 101.344 Q1743.6 96.7378 1743.6 88.011 Q1743.6 79.261 1746.66 74.6777 Q1749.74 70.0713 1755.55 70.0713 Z" fill="#000000" fill-rule="nonzero" fill-opacity="1" /><path clip-path="url(#clip690)" d="M1785.71 73.775 Q1782.1 73.775 1780.27 77.3398 Q1778.47 80.8814 1778.47 88.011 Q1778.47 95.1174 1780.27 98.6822 Q1782.1 102.224 1785.71 102.224 Q1789.34 102.224 1791.15 98.6822 Q1792.98 95.1174 1792.98 88.011 Q1792.98 80.8814 1791.15 77.3398 Q1789.34 73.775 1785.71 73.775 M1785.71 70.0713 Q1791.52 70.0713 1794.58 74.6777 Q1797.65 79.261 1797.65 88.011 Q1797.65 96.7378 1794.58 101.344 Q1791.52 105.928 1785.71 105.928 Q1779.9 105.928 1776.82 101.344 Q1773.77 96.7378 1773.77 88.011 Q1773.77 79.261 1776.82 74.6777 Q1779.9 70.0713 1785.71 70.0713 Z" fill="#000000" fill-rule="nonzero" fill-opacity="1" /><path clip-path="url(#clip690)" d="M1619.31 794.6 Q1615.37 792.404 1613.49 789.349 Q1611.61 786.293 1611.61 782.156 Q1611.61 776.586 1615.52 773.562 Q1619.41 770.538 1626.6 770.538 L1648.12 770.538 L1648.12 776.426 L1626.79 776.426 Q1621.67 776.426 1619.18 778.241 Q1616.7 780.055 1616.7 783.779 Q1616.7 788.33 1619.73 790.972 Q1622.75 793.614 1627.97 793.614 L1648.12 793.614 L1648.12 799.502 L1626.79 799.502 Q1621.64 799.502 1619.18 801.316 Q1616.7 803.131 1616.7 806.918 Q1616.7 811.406 1619.76 814.048 Q1622.78 816.689 1627.97 816.689 L1648.12 816.689 L1648.12 822.578 L1612.47 822.578 L1612.47 816.689 L1618.01 816.689 Q1614.73 814.684 1613.17 811.883 Q1611.61 809.082 1611.61 805.231 Q1611.61 801.348 1613.58 798.643 Q1615.56 795.905 1619.31 794.6 Z" fill="#000000" fill-rule="nonzero" fill-opacity="1" /><path clip-path="url(#clip690)" d="M1612.47 758.857 L1612.47 753.001 L1648.12 753.001 L1648.12 758.857 L1612.47 758.857 M1598.59 758.857 L1598.59 753.001 L1606.01 753.001 L1606.01 758.857 L1598.59 758.857 Z" fill="#000000" fill-rule="nonzero" fill-opacity="1" /><path clip-path="url(#clip690)" d="M1626.6 711.114 L1648.12 711.114 L1648.12 716.971 L1626.79 716.971 Q1621.73 716.971 1619.22 718.944 Q1616.7 720.917 1616.7 724.864 Q1616.7 729.607 1619.73 732.344 Q1622.75 735.081 1627.97 735.081 L1648.12 735.081 L1648.12 740.969 L1612.47 740.969 L1612.47 735.081 L1618.01 735.081 Q1614.79 732.98 1613.2 730.148 Q1611.61 727.283 1611.61 723.559 Q1611.61 717.416 1615.43 714.265 Q1619.22 711.114 1626.6 711.114 Z" fill="#000000" fill-rule="nonzero" fill-opacity="1" /><polyline clip-path="url(#clip694)" style="stroke:#009af9; stroke-linecap:round; stroke-linejoin:round; stroke-width:4; stroke-opacity:1; fill:none" points="1848.35,1445.72 1860.9,1445.72 1873.46,1445.72 1886.02,1445.72 1898.57,1445.72 1911.13,1445.72 1923.69,1445.72 1936.24,1445.72 1948.8,1445.72 1961.36,1445.72 1973.92,1445.72 1986.47,1445.72 1999.03,1445.72 2011.59,1445.72 2024.14,1445.72 2036.7,1445.72 2049.26,1445.72 2061.81,1445.72 2074.37,1445.72 2086.93,1445.72 2099.48,1445.72 2112.04,1445.72 2124.6,1445.72 2137.15,1445.72 2149.71,1445.72 2162.27,1445.72 2174.83,1445.72 2187.38,1445.72 2199.94,1445.72 2212.5,1445.72 2225.05,1445.72 2237.61,1445.72 2250.17,1445.72 2262.72,1445.72 2275.28,1445.72 2287.84,1445.72 2300.39,1445.72 2312.95,1445.72 2325.51,1445.72 2338.06,1445.72 "/>
</svg>
