<?xml version="1.0" encoding="utf-8"?>
<svg xmlns="http://www.w3.org/2000/svg" xmlns:xlink="http://www.w3.org/1999/xlink" width="600" height="400" viewBox="0 0 2400 1600">
<defs>
  <clipPath id="clip700">
    <rect x="0" y="0" width="2400" height="1600"/>
  </clipPath>
</defs>
<path clip-path="url(#clip700)" d="M0 1600 L2400 1600 L2400 0 L0 0  Z" fill="#ffffff" fill-rule="evenodd" fill-opacity="1"/>
<defs>
  <clipPath id="clip701">
    <rect x="480" y="0" width="1681" height="1600"/>
  </clipPath>
</defs>
<path clip-path="url(#clip700)" d="M202.227 1423.18 L2352.76 1423.18 L2352.76 123.472 L202.227 123.472  Z" fill="#ffffff" fill-rule="evenodd" fill-opacity="1"/>
<defs>
  <clipPath id="clip702">
    <rect x="202" y="123" width="2152" height="1301"/>
  </clipPath>
</defs>
<polyline clip-path="url(#clip702)" style="stroke:#000000; stroke-linecap:round; stroke-linejoin:round; stroke-width:2; stroke-opacity:0.1; fill:none" points="211.071,1423.18 211.071,123.472 "/>
<polyline clip-path="url(#clip702)" style="stroke:#000000; stroke-linecap:round; stroke-linejoin:round; stroke-width:2; stroke-opacity:0.1; fill:none" points="731.276,1423.18 731.276,123.472 "/>
<polyline clip-path="url(#clip702)" style="stroke:#000000; stroke-linecap:round; stroke-linejoin:round; stroke-width:2; stroke-opacity:0.1; fill:none" points="1251.48,1423.18 1251.48,123.472 "/>
<polyline clip-path="url(#clip702)" style="stroke:#000000; stroke-linecap:round; stroke-linejoin:round; stroke-width:2; stroke-opacity:0.1; fill:none" points="1771.69,1423.18 1771.69,123.472 "/>
<polyline clip-path="url(#clip702)" style="stroke:#000000; stroke-linecap:round; stroke-linejoin:round; stroke-width:2; stroke-opacity:0.1; fill:none" points="2291.89,1423.18 2291.89,123.472 "/>
<polyline clip-path="url(#clip702)" style="stroke:#000000; stroke-linecap:round; stroke-linejoin:round; stroke-width:2; stroke-opacity:0.1; fill:none" points="202.227,1386.4 2352.76,1386.4 "/>
<polyline clip-path="url(#clip702)" style="stroke:#000000; stroke-linecap:round; stroke-linejoin:round; stroke-width:2; stroke-opacity:0.1; fill:none" points="202.227,1203.02 2352.76,1203.02 "/>
<polyline clip-path="url(#clip702)" style="stroke:#000000; stroke-linecap:round; stroke-linejoin:round; stroke-width:2; stroke-opacity:0.1; fill:none" points="202.227,1019.64 2352.76,1019.64 "/>
<polyline clip-path="url(#clip702)" style="stroke:#000000; stroke-linecap:round; stroke-linejoin:round; stroke-width:2; stroke-opacity:0.1; fill:none" points="202.227,836.265 2352.76,836.265 "/>
<polyline clip-path="url(#clip702)" style="stroke:#000000; stroke-linecap:round; stroke-linejoin:round; stroke-width:2; stroke-opacity:0.1; fill:none" points="202.227,652.888 2352.76,652.888 "/>
<polyline clip-path="url(#clip702)" style="stroke:#000000; stroke-linecap:round; stroke-linejoin:round; stroke-width:2; stroke-opacity:0.1; fill:none" points="202.227,469.511 2352.76,469.511 "/>
<polyline clip-path="url(#clip702)" style="stroke:#000000; stroke-linecap:round; stroke-linejoin:round; stroke-width:2; stroke-opacity:0.1; fill:none" points="202.227,286.134 2352.76,286.134 "/>
<polyline clip-path="url(#clip700)" style="stroke:#000000; stroke-linecap:round; stroke-linejoin:round; stroke-width:4; stroke-opacity:1; fill:none" points="202.227,1423.18 2352.76,1423.18 "/>
<polyline clip-path="url(#clip700)" style="stroke:#000000; stroke-linecap:round; stroke-linejoin:round; stroke-width:4; stroke-opacity:1; fill:none" points="211.071,1423.18 211.071,1404.28 "/>
<polyline clip-path="url(#clip700)" style="stroke:#000000; stroke-linecap:round; stroke-linejoin:round; stroke-width:4; stroke-opacity:1; fill:none" points="731.276,1423.18 731.276,1404.28 "/>
<polyline clip-path="url(#clip700)" style="stroke:#000000; stroke-linecap:round; stroke-linejoin:round; stroke-width:4; stroke-opacity:1; fill:none" points="1251.48,1423.18 1251.48,1404.28 "/>
<polyline clip-path="url(#clip700)" style="stroke:#000000; stroke-linecap:round; stroke-linejoin:round; stroke-width:4; stroke-opacity:1; fill:none" points="1771.69,1423.18 1771.69,1404.28 "/>
<polyline clip-path="url(#clip700)" style="stroke:#000000; stroke-linecap:round; stroke-linejoin:round; stroke-width:4; stroke-opacity:1; fill:none" points="2291.89,1423.18 2291.89,1404.28 "/>
<path clip-path="url(#clip700)" d="M211.071 1454.1 Q207.46 1454.1 205.631 1457.66 Q203.826 1461.2 203.826 1468.33 Q203.826 1475.44 205.631 1479.01 Q207.46 1482.55 211.071 1482.55 Q214.705 1482.55 216.511 1479.01 Q218.339 1475.44 218.339 1468.33 Q218.339 1461.2 216.511 1457.66 Q214.705 1454.1 211.071 1454.1 M211.071 1450.39 Q216.881 1450.39 219.937 1455 Q223.015 1459.58 223.015 1468.33 Q223.015 1477.06 219.937 1481.67 Q216.881 1486.25 211.071 1486.25 Q205.261 1486.25 202.182 1481.67 Q199.127 1477.06 199.127 1468.33 Q199.127 1459.58 202.182 1455 Q205.261 1450.39 211.071 1450.39 Z" fill="#000000" fill-rule="nonzero" fill-opacity="1" /><path clip-path="url(#clip700)" d="M705.964 1481.64 L713.603 1481.64 L713.603 1455.28 L705.293 1456.95 L705.293 1452.69 L713.556 1451.02 L718.232 1451.02 L718.232 1481.64 L725.871 1481.64 L725.871 1485.58 L705.964 1485.58 L705.964 1481.64 Z" fill="#000000" fill-rule="nonzero" fill-opacity="1" /><path clip-path="url(#clip700)" d="M745.315 1454.1 Q741.704 1454.1 739.876 1457.66 Q738.07 1461.2 738.07 1468.33 Q738.07 1475.44 739.876 1479.01 Q741.704 1482.55 745.315 1482.55 Q748.95 1482.55 750.755 1479.01 Q752.584 1475.44 752.584 1468.33 Q752.584 1461.2 750.755 1457.66 Q748.95 1454.1 745.315 1454.1 M745.315 1450.39 Q751.126 1450.39 754.181 1455 Q757.26 1459.58 757.26 1468.33 Q757.26 1477.06 754.181 1481.67 Q751.126 1486.25 745.315 1486.25 Q739.505 1486.25 736.427 1481.67 Q733.371 1477.06 733.371 1468.33 Q733.371 1459.58 736.427 1455 Q739.505 1450.39 745.315 1450.39 Z" fill="#000000" fill-rule="nonzero" fill-opacity="1" /><path clip-path="url(#clip700)" d="M1230.25 1481.64 L1246.57 1481.64 L1246.57 1485.58 L1224.63 1485.58 L1224.63 1481.64 Q1227.29 1478.89 1231.88 1474.26 Q1236.48 1469.61 1237.66 1468.27 Q1239.91 1465.74 1240.79 1464.01 Q1241.69 1462.25 1241.69 1460.56 Q1241.69 1457.8 1239.75 1456.07 Q1237.82 1454.33 1234.72 1454.33 Q1232.52 1454.33 1230.07 1455.09 Q1227.64 1455.86 1224.86 1457.41 L1224.86 1452.69 Q1227.69 1451.55 1230.14 1450.97 Q1232.59 1450.39 1234.63 1450.39 Q1240 1450.39 1243.19 1453.08 Q1246.39 1455.77 1246.39 1460.26 Q1246.39 1462.39 1245.58 1464.31 Q1244.79 1466.2 1242.69 1468.8 Q1242.11 1469.47 1239 1472.69 Q1235.9 1475.88 1230.25 1481.64 Z" fill="#000000" fill-rule="nonzero" fill-opacity="1" /><path clip-path="url(#clip700)" d="M1266.39 1454.1 Q1262.78 1454.1 1260.95 1457.66 Q1259.14 1461.2 1259.14 1468.33 Q1259.14 1475.44 1260.95 1479.01 Q1262.78 1482.55 1266.39 1482.55 Q1270.02 1482.55 1271.83 1479.01 Q1273.66 1475.44 1273.66 1468.33 Q1273.66 1461.2 1271.83 1457.66 Q1270.02 1454.1 1266.39 1454.1 M1266.39 1450.39 Q1272.2 1450.39 1275.25 1455 Q1278.33 1459.58 1278.33 1468.33 Q1278.33 1477.06 1275.25 1481.67 Q1272.2 1486.25 1266.39 1486.25 Q1260.58 1486.25 1257.5 1481.67 Q1254.44 1477.06 1254.44 1468.33 Q1254.44 1459.58 1257.5 1455 Q1260.58 1450.39 1266.39 1450.39 Z" fill="#000000" fill-rule="nonzero" fill-opacity="1" /><path clip-path="url(#clip700)" d="M1760.53 1466.95 Q1763.89 1467.66 1765.76 1469.93 Q1767.66 1472.2 1767.66 1475.53 Q1767.66 1480.65 1764.14 1483.45 Q1760.62 1486.25 1754.14 1486.25 Q1751.96 1486.25 1749.65 1485.81 Q1747.36 1485.39 1744.9 1484.54 L1744.9 1480.02 Q1746.85 1481.16 1749.16 1481.74 Q1751.48 1482.32 1754 1482.32 Q1758.4 1482.32 1760.69 1480.58 Q1763.01 1478.84 1763.01 1475.53 Q1763.01 1472.48 1760.85 1470.77 Q1758.72 1469.03 1754.9 1469.03 L1750.88 1469.03 L1750.88 1465.19 L1755.09 1465.19 Q1758.54 1465.19 1760.37 1463.82 Q1762.2 1462.43 1762.2 1459.84 Q1762.2 1457.18 1760.3 1455.77 Q1758.42 1454.33 1754.9 1454.33 Q1752.98 1454.33 1750.78 1454.75 Q1748.58 1455.16 1745.95 1456.04 L1745.95 1451.88 Q1748.61 1451.14 1750.92 1450.77 Q1753.26 1450.39 1755.32 1450.39 Q1760.65 1450.39 1763.75 1452.83 Q1766.85 1455.23 1766.85 1459.35 Q1766.85 1462.22 1765.21 1464.21 Q1763.56 1466.18 1760.53 1466.95 Z" fill="#000000" fill-rule="nonzero" fill-opacity="1" /><path clip-path="url(#clip700)" d="M1786.52 1454.1 Q1782.91 1454.1 1781.08 1457.66 Q1779.28 1461.2 1779.28 1468.33 Q1779.28 1475.44 1781.08 1479.01 Q1782.91 1482.55 1786.52 1482.55 Q1790.16 1482.55 1791.96 1479.01 Q1793.79 1475.44 1793.79 1468.33 Q1793.79 1461.2 1791.96 1457.66 Q1790.16 1454.1 1786.52 1454.1 M1786.52 1450.39 Q1792.33 1450.39 1795.39 1455 Q1798.47 1459.58 1798.47 1468.33 Q1798.47 1477.06 1795.39 1481.67 Q1792.33 1486.25 1786.52 1486.25 Q1780.71 1486.25 1777.64 1481.67 Q1774.58 1477.06 1774.58 1468.33 Q1774.58 1459.58 1777.64 1455 Q1780.71 1450.39 1786.52 1450.39 Z" fill="#000000" fill-rule="nonzero" fill-opacity="1" /><path clip-path="url(#clip700)" d="M2280.06 1455.09 L2268.26 1473.54 L2280.06 1473.54 L2280.06 1455.09 M2278.84 1451.02 L2284.72 1451.02 L2284.72 1473.54 L2289.65 1473.54 L2289.65 1477.43 L2284.72 1477.43 L2284.72 1485.58 L2280.06 1485.58 L2280.06 1477.43 L2264.46 1477.43 L2264.46 1472.92 L2278.84 1451.02 Z" fill="#000000" fill-rule="nonzero" fill-opacity="1" /><path clip-path="url(#clip700)" d="M2307.38 1454.1 Q2303.77 1454.1 2301.94 1457.66 Q2300.13 1461.2 2300.13 1468.33 Q2300.13 1475.44 2301.94 1479.01 Q2303.77 1482.55 2307.38 1482.55 Q2311.01 1482.55 2312.82 1479.01 Q2314.65 1475.44 2314.65 1468.33 Q2314.65 1461.2 2312.82 1457.66 Q2311.01 1454.1 2307.38 1454.1 M2307.38 1450.39 Q2313.19 1450.39 2316.24 1455 Q2319.32 1459.58 2319.32 1468.33 Q2319.32 1477.06 2316.24 1481.67 Q2313.19 1486.25 2307.38 1486.25 Q2301.57 1486.25 2298.49 1481.67 Q2295.43 1477.06 2295.43 1468.33 Q2295.43 1459.58 2298.49 1455 Q2301.57 1450.39 2307.38 1450.39 Z" fill="#000000" fill-rule="nonzero" fill-opacity="1" /><path clip-path="url(#clip700)" d="M1223.73 1525.81 L1223.73 1562.76 L1231.5 1562.76 Q1241.33 1562.76 1245.89 1558.3 Q1250.47 1553.85 1250.47 1544.24 Q1250.47 1534.69 1245.89 1530.26 Q1241.33 1525.81 1231.5 1525.81 L1223.73 1525.81 M1217.3 1520.52 L1230.51 1520.52 Q1244.33 1520.52 1250.79 1526.28 Q1257.25 1532.01 1257.25 1544.24 Q1257.25 1556.52 1250.76 1562.28 Q1244.26 1568.04 1230.51 1568.04 L1217.3 1568.04 L1217.3 1520.52 Z" fill="#000000" fill-rule="nonzero" fill-opacity="1" /><path clip-path="url(#clip700)" d="M1283.44 1550.12 Q1276.35 1550.12 1273.61 1551.75 Q1270.87 1553.37 1270.87 1557.29 Q1270.87 1560.4 1272.91 1562.25 Q1274.98 1564.07 1278.51 1564.07 Q1283.38 1564.07 1286.31 1560.63 Q1289.27 1557.16 1289.27 1551.43 L1289.27 1550.12 L1283.44 1550.12 M1295.12 1547.71 L1295.12 1568.04 L1289.27 1568.04 L1289.27 1562.63 Q1287.26 1565.88 1284.27 1567.44 Q1281.28 1568.97 1276.95 1568.97 Q1271.48 1568.97 1268.23 1565.91 Q1265.01 1562.82 1265.01 1557.67 Q1265.01 1551.65 1269.03 1548.6 Q1273.07 1545.54 1281.06 1545.54 L1289.27 1545.54 L1289.27 1544.97 Q1289.27 1540.93 1286.59 1538.73 Q1283.95 1536.5 1279.15 1536.5 Q1276.09 1536.5 1273.19 1537.23 Q1270.3 1537.97 1267.62 1539.43 L1267.62 1534.02 Q1270.84 1532.78 1273.86 1532.17 Q1276.89 1531.54 1279.75 1531.54 Q1287.49 1531.54 1291.31 1535.55 Q1295.12 1539.56 1295.12 1547.71 Z" fill="#000000" fill-rule="nonzero" fill-opacity="1" /><path clip-path="url(#clip700)" d="M1322.02 1571.35 Q1319.54 1577.72 1317.18 1579.66 Q1314.83 1581.6 1310.88 1581.6 L1306.2 1581.6 L1306.2 1576.7 L1309.64 1576.7 Q1312.06 1576.7 1313.39 1575.56 Q1314.73 1574.41 1316.35 1570.14 L1317.4 1567.47 L1302.99 1532.4 L1309.19 1532.4 L1320.33 1560.28 L1331.47 1532.4 L1337.68 1532.4 L1322.02 1571.35 Z" fill="#000000" fill-rule="nonzero" fill-opacity="1" /><polyline clip-path="url(#clip700)" style="stroke:#000000; stroke-linecap:round; stroke-linejoin:round; stroke-width:4; stroke-opacity:1; fill:none" points="202.227,1423.18 202.227,123.472 "/>
<polyline clip-path="url(#clip700)" style="stroke:#000000; stroke-linecap:round; stroke-linejoin:round; stroke-width:4; stroke-opacity:1; fill:none" points="202.227,1386.4 221.125,1386.4 "/>
<polyline clip-path="url(#clip700)" style="stroke:#000000; stroke-linecap:round; stroke-linejoin:round; stroke-width:4; stroke-opacity:1; fill:none" points="202.227,1203.02 221.125,1203.02 "/>
<polyline clip-path="url(#clip700)" style="stroke:#000000; stroke-linecap:round; stroke-linejoin:round; stroke-width:4; stroke-opacity:1; fill:none" points="202.227,1019.64 221.125,1019.64 "/>
<polyline clip-path="url(#clip700)" style="stroke:#000000; stroke-linecap:round; stroke-linejoin:round; stroke-width:4; stroke-opacity:1; fill:none" points="202.227,836.265 221.125,836.265 "/>
<polyline clip-path="url(#clip700)" style="stroke:#000000; stroke-linecap:round; stroke-linejoin:round; stroke-width:4; stroke-opacity:1; fill:none" points="202.227,652.888 221.125,652.888 "/>
<polyline clip-path="url(#clip700)" style="stroke:#000000; stroke-linecap:round; stroke-linejoin:round; stroke-width:4; stroke-opacity:1; fill:none" points="202.227,469.511 221.125,469.511 "/>
<polyline clip-path="url(#clip700)" style="stroke:#000000; stroke-linecap:round; stroke-linejoin:round; stroke-width:4; stroke-opacity:1; fill:none" points="202.227,286.134 221.125,286.134 "/>
<path clip-path="url(#clip700)" d="M154.283 1372.19 Q150.672 1372.19 148.843 1375.76 Q147.038 1379.3 147.038 1386.43 Q147.038 1393.54 148.843 1397.1 Q150.672 1400.64 154.283 1400.64 Q157.917 1400.64 159.723 1397.1 Q161.552 1393.54 161.552 1386.43 Q161.552 1379.3 159.723 1375.76 Q157.917 1372.19 154.283 1372.19 M154.283 1368.49 Q160.093 1368.49 163.149 1373.1 Q166.227 1377.68 166.227 1386.43 Q166.227 1395.16 163.149 1399.76 Q160.093 1404.35 154.283 1404.35 Q148.473 1404.35 145.394 1399.76 Q142.339 1395.16 142.339 1386.43 Q142.339 1377.68 145.394 1373.1 Q148.473 1368.49 154.283 1368.49 Z" fill="#000000" fill-rule="nonzero" fill-opacity="1" /><path clip-path="url(#clip700)" d="M149.908 1216.36 L166.227 1216.36 L166.227 1220.3 L144.283 1220.3 L144.283 1216.36 Q146.945 1213.61 151.528 1208.98 Q156.135 1204.33 157.315 1202.98 Q159.561 1200.46 160.44 1198.72 Q161.343 1196.97 161.343 1195.28 Q161.343 1192.52 159.399 1190.78 Q157.478 1189.05 154.376 1189.05 Q152.177 1189.05 149.723 1189.81 Q147.292 1190.58 144.515 1192.13 L144.515 1187.41 Q147.339 1186.27 149.792 1185.69 Q152.246 1185.11 154.283 1185.11 Q159.653 1185.11 162.848 1187.8 Q166.042 1190.48 166.042 1194.97 Q166.042 1197.1 165.232 1199.03 Q164.445 1200.92 162.339 1203.52 Q161.76 1204.19 158.658 1207.41 Q155.556 1210.6 149.908 1216.36 Z" fill="#000000" fill-rule="nonzero" fill-opacity="1" /><path clip-path="url(#clip700)" d="M156.644 1006.44 L144.839 1024.88 L156.644 1024.88 L156.644 1006.44 M155.417 1002.36 L161.297 1002.36 L161.297 1024.88 L166.227 1024.88 L166.227 1028.77 L161.297 1028.77 L161.297 1036.92 L156.644 1036.92 L156.644 1028.77 L141.042 1028.77 L141.042 1024.26 L155.417 1002.36 Z" fill="#000000" fill-rule="nonzero" fill-opacity="1" /><path clip-path="url(#clip700)" d="M154.7 834.401 Q151.552 834.401 149.7 836.554 Q147.871 838.707 147.871 842.457 Q147.871 846.184 149.7 848.36 Q151.552 850.512 154.7 850.512 Q157.848 850.512 159.677 848.36 Q161.528 846.184 161.528 842.457 Q161.528 838.707 159.677 836.554 Q157.848 834.401 154.7 834.401 M163.982 819.749 L163.982 824.008 Q162.223 823.174 160.417 822.735 Q158.635 822.295 156.876 822.295 Q152.246 822.295 149.792 825.42 Q147.362 828.545 147.015 834.864 Q148.38 832.85 150.441 831.786 Q152.501 830.698 154.978 830.698 Q160.186 830.698 163.195 833.869 Q166.227 837.017 166.227 842.457 Q166.227 847.781 163.079 850.998 Q159.931 854.216 154.7 854.216 Q148.704 854.216 145.533 849.633 Q142.362 845.026 142.362 836.299 Q142.362 828.105 146.251 823.244 Q150.14 818.36 156.69 818.36 Q158.45 818.36 160.232 818.707 Q162.038 819.054 163.982 819.749 Z" fill="#000000" fill-rule="nonzero" fill-opacity="1" /><path clip-path="url(#clip700)" d="M154.376 653.756 Q151.042 653.756 149.121 655.538 Q147.223 657.321 147.223 660.446 Q147.223 663.571 149.121 665.353 Q151.042 667.135 154.376 667.135 Q157.709 667.135 159.63 665.353 Q161.552 663.547 161.552 660.446 Q161.552 657.321 159.63 655.538 Q157.732 653.756 154.376 653.756 M149.7 651.765 Q146.691 651.024 145.001 648.964 Q143.334 646.904 143.334 643.941 Q143.334 639.798 146.274 637.39 Q149.237 634.983 154.376 634.983 Q159.538 634.983 162.477 637.39 Q165.417 639.798 165.417 643.941 Q165.417 646.904 163.727 648.964 Q162.061 651.024 159.075 651.765 Q162.454 652.552 164.329 654.844 Q166.227 657.135 166.227 660.446 Q166.227 665.469 163.149 668.154 Q160.093 670.839 154.376 670.839 Q148.658 670.839 145.579 668.154 Q142.524 665.469 142.524 660.446 Q142.524 657.135 144.422 654.844 Q146.32 652.552 149.7 651.765 M147.987 644.381 Q147.987 647.066 149.653 648.571 Q151.343 650.075 154.376 650.075 Q157.385 650.075 159.075 648.571 Q160.788 647.066 160.788 644.381 Q160.788 641.696 159.075 640.191 Q157.385 638.686 154.376 638.686 Q151.343 638.686 149.653 640.191 Q147.987 641.696 147.987 644.381 Z" fill="#000000" fill-rule="nonzero" fill-opacity="1" /><path clip-path="url(#clip700)" d="M114.931 482.856 L122.57 482.856 L122.57 456.49 L114.26 458.157 L114.26 453.897 L122.524 452.231 L127.2 452.231 L127.2 482.856 L134.839 482.856 L134.839 486.791 L114.931 486.791 L114.931 482.856 Z" fill="#000000" fill-rule="nonzero" fill-opacity="1" /><path clip-path="url(#clip700)" d="M154.283 455.309 Q150.672 455.309 148.843 458.874 Q147.038 462.416 147.038 469.545 Q147.038 476.652 148.843 480.217 Q150.672 483.758 154.283 483.758 Q157.917 483.758 159.723 480.217 Q161.552 476.652 161.552 469.545 Q161.552 462.416 159.723 458.874 Q157.917 455.309 154.283 455.309 M154.283 451.606 Q160.093 451.606 163.149 456.212 Q166.227 460.795 166.227 469.545 Q166.227 478.272 163.149 482.879 Q160.093 487.462 154.283 487.462 Q148.473 487.462 145.394 482.879 Q142.339 478.272 142.339 469.545 Q142.339 460.795 145.394 456.212 Q148.473 451.606 154.283 451.606 Z" fill="#000000" fill-rule="nonzero" fill-opacity="1" /><path clip-path="url(#clip700)" d="M116.529 299.479 L124.168 299.479 L124.168 273.113 L115.857 274.78 L115.857 270.52 L124.121 268.854 L128.797 268.854 L128.797 299.479 L136.436 299.479 L136.436 303.414 L116.529 303.414 L116.529 299.479 Z" fill="#000000" fill-rule="nonzero" fill-opacity="1" /><path clip-path="url(#clip700)" d="M149.908 299.479 L166.227 299.479 L166.227 303.414 L144.283 303.414 L144.283 299.479 Q146.945 296.724 151.528 292.094 Q156.135 287.442 157.315 286.099 Q159.561 283.576 160.44 281.84 Q161.343 280.081 161.343 278.391 Q161.343 275.636 159.399 273.9 Q157.478 272.164 154.376 272.164 Q152.177 272.164 149.723 272.928 Q147.292 273.692 144.515 275.243 L144.515 270.52 Q147.339 269.386 149.792 268.807 Q152.246 268.229 154.283 268.229 Q159.653 268.229 162.848 270.914 Q166.042 273.599 166.042 278.09 Q166.042 280.219 165.232 282.141 Q164.445 284.039 162.339 286.631 Q161.76 287.303 158.658 290.52 Q155.556 293.715 149.908 299.479 Z" fill="#000000" fill-rule="nonzero" fill-opacity="1" /><path clip-path="url(#clip700)" d="M22.818 1108.85 L46.4666 1117.57 L46.4666 1100.09 L22.818 1108.85 M16.4842 1112.47 L16.4842 1105.19 L64.0042 1087.08 L64.0042 1093.76 L51.8138 1098.09 L51.8138 1119.51 L64.0042 1123.84 L64.0042 1130.62 L16.4842 1112.47 Z" fill="#000000" fill-rule="nonzero" fill-opacity="1" /><path clip-path="url(#clip700)" d="M28.3562 1088.41 L28.3562 1082.21 L58.275 1071.07 L28.3562 1059.93 L28.3562 1053.72 L64.0042 1067.09 L64.0042 1075.04 L28.3562 1088.41 Z" fill="#000000" fill-rule="nonzero" fill-opacity="1" /><path clip-path="url(#clip700)" d="M44.7161 1015.14 L47.5806 1015.14 L47.5806 1042.07 Q53.6281 1041.69 56.8109 1038.44 Q59.9619 1035.16 59.9619 1029.34 Q59.9619 1025.96 59.1344 1022.81 Q58.3069 1019.63 56.6518 1016.51 L62.1899 1016.51 Q63.5267 1019.66 64.227 1022.97 Q64.9272 1026.28 64.9272 1029.69 Q64.9272 1038.22 59.9619 1043.22 Q54.9967 1048.18 46.5303 1048.18 Q37.7774 1048.18 32.6531 1043.47 Q27.4968 1038.73 27.4968 1030.71 Q27.4968 1023.51 32.1438 1019.34 Q36.7589 1015.14 44.7161 1015.14 M42.9973 1021 Q38.1912 1021.06 35.3266 1023.71 Q32.4621 1026.32 32.4621 1030.64 Q32.4621 1035.55 35.2312 1038.51 Q38.0002 1041.43 43.0292 1041.88 L42.9973 1021 Z" fill="#000000" fill-rule="nonzero" fill-opacity="1" /><path clip-path="url(#clip700)" d="M33.8307 984.874 Q33.2578 985.861 33.0032 987.039 Q32.7167 988.184 32.7167 989.585 Q32.7167 994.55 35.9632 997.224 Q39.1779 999.866 45.2253 999.866 L64.0042 999.866 L64.0042 1005.75 L28.3562 1005.75 L28.3562 999.866 L33.8944 999.866 Q30.6479 998.02 29.0883 995.059 Q27.4968 992.099 27.4968 987.866 Q27.4968 987.261 27.5923 986.529 Q27.656 985.797 27.8151 984.906 L33.8307 984.874 Z" fill="#000000" fill-rule="nonzero" fill-opacity="1" /><path clip-path="url(#clip700)" d="M46.0847 962.531 Q46.0847 969.628 47.7079 972.366 Q49.3312 975.103 53.2461 975.103 Q56.3653 975.103 58.2114 973.066 Q60.0256 970.997 60.0256 967.464 Q60.0256 962.594 56.5881 959.666 Q53.1188 956.706 47.3897 956.706 L46.0847 956.706 L46.0847 962.531 M43.6657 950.85 L64.0042 950.85 L64.0042 956.706 L58.5933 956.706 Q61.8398 958.711 63.3994 961.703 Q64.9272 964.695 64.9272 969.024 Q64.9272 974.498 61.8716 977.745 Q58.7843 980.959 53.6281 980.959 Q47.6125 980.959 44.5569 976.949 Q41.5014 972.907 41.5014 964.918 L41.5014 956.706 L40.9285 956.706 Q36.8862 956.706 34.6901 959.38 Q32.4621 962.021 32.4621 966.828 Q32.4621 969.883 33.1941 972.779 Q33.9262 975.676 35.3903 978.349 L29.9795 978.349 Q28.7381 975.135 28.1334 972.111 Q27.4968 969.087 27.4968 966.223 Q27.4968 958.488 31.5072 954.669 Q35.5176 950.85 43.6657 950.85 Z" fill="#000000" fill-rule="nonzero" fill-opacity="1" /><path clip-path="url(#clip700)" d="M45.7664 915.329 Q39.4007 915.329 35.8996 917.971 Q32.3984 920.581 32.3984 925.323 Q32.3984 930.034 35.8996 932.676 Q39.4007 935.285 45.7664 935.285 Q52.1003 935.285 55.6014 932.676 Q59.1026 930.034 59.1026 925.323 Q59.1026 920.581 55.6014 917.971 Q52.1003 915.329 45.7664 915.329 M59.58 909.473 Q68.683 909.473 73.1071 913.515 Q77.5631 917.557 77.5631 925.896 Q77.5631 928.983 77.0857 931.721 Q76.6401 934.458 75.6852 937.036 L69.9879 937.036 Q71.3884 934.458 72.0568 931.943 Q72.7252 929.429 72.7252 926.819 Q72.7252 921.058 69.7015 918.194 Q66.7096 915.329 60.6303 915.329 L57.7339 915.329 Q60.885 917.143 62.4446 919.976 Q64.0042 922.809 64.0042 926.755 Q64.0042 933.312 59.0071 937.323 Q54.01 941.333 45.7664 941.333 Q37.491 941.333 32.4939 937.323 Q27.4968 933.312 27.4968 926.755 Q27.4968 922.809 29.0564 919.976 Q30.616 917.143 33.7671 915.329 L28.3562 915.329 L28.3562 909.473 L59.58 909.473 Z" fill="#000000" fill-rule="nonzero" fill-opacity="1" /><path clip-path="url(#clip700)" d="M44.7161 866.918 L47.5806 866.918 L47.5806 893.845 Q53.6281 893.463 56.8109 890.216 Q59.9619 886.938 59.9619 881.113 Q59.9619 877.739 59.1344 874.588 Q58.3069 871.406 56.6518 868.286 L62.1899 868.286 Q63.5267 871.437 64.227 874.748 Q64.9272 878.058 64.9272 881.463 Q64.9272 889.993 59.9619 894.991 Q54.9967 899.956 46.5303 899.956 Q37.7774 899.956 32.6531 895.245 Q27.4968 890.503 27.4968 882.482 Q27.4968 875.289 32.1438 871.119 Q36.7589 866.918 44.7161 866.918 M42.9973 872.774 Q38.1912 872.838 35.3266 875.48 Q32.4621 878.09 32.4621 882.418 Q32.4621 887.32 35.2312 890.28 Q38.0002 893.208 43.0292 893.654 L42.9973 872.774 Z" fill="#000000" fill-rule="nonzero" fill-opacity="1" /><path clip-path="url(#clip700)" d="M28.3562 836.585 L28.3562 830.729 L64.0042 830.729 L64.0042 836.585 L28.3562 836.585 M14.479 836.585 L14.479 830.729 L21.895 830.729 L21.895 836.585 L14.479 836.585 Z" fill="#000000" fill-rule="nonzero" fill-opacity="1" /><path clip-path="url(#clip700)" d="M42.4881 788.842 L64.0042 788.842 L64.0042 794.699 L42.679 794.699 Q37.6183 794.699 35.1038 796.672 Q32.5894 798.646 32.5894 802.592 Q32.5894 807.335 35.6131 810.072 Q38.6368 812.809 43.8567 812.809 L64.0042 812.809 L64.0042 818.698 L28.3562 818.698 L28.3562 812.809 L33.8944 812.809 Q30.6797 810.709 29.0883 807.876 Q27.4968 805.011 27.4968 801.287 Q27.4968 795.144 31.3163 791.993 Q35.1038 788.842 42.4881 788.842 Z" fill="#000000" fill-rule="nonzero" fill-opacity="1" /><path clip-path="url(#clip700)" d="M14.479 759.115 L19.3487 759.115 L19.3487 764.716 Q19.3487 767.867 20.6219 769.109 Q21.895 770.318 25.2052 770.318 L28.3562 770.318 L28.3562 760.674 L32.9077 760.674 L32.9077 770.318 L64.0042 770.318 L64.0042 776.206 L32.9077 776.206 L32.9077 781.808 L28.3562 781.808 L28.3562 776.206 L25.8736 776.206 Q19.9216 776.206 17.2162 773.437 Q14.479 770.668 14.479 764.653 L14.479 759.115 Z" fill="#000000" fill-rule="nonzero" fill-opacity="1" /><path clip-path="url(#clip700)" d="M14.479 754.213 L14.479 748.356 L64.0042 748.356 L64.0042 754.213 L14.479 754.213 Z" fill="#000000" fill-rule="nonzero" fill-opacity="1" /><path clip-path="url(#clip700)" d="M46.0847 719.902 Q46.0847 727 47.7079 729.737 Q49.3312 732.474 53.2461 732.474 Q56.3653 732.474 58.2114 730.437 Q60.0256 728.368 60.0256 724.835 Q60.0256 719.965 56.5881 717.037 Q53.1188 714.077 47.3897 714.077 L46.0847 714.077 L46.0847 719.902 M43.6657 708.221 L64.0042 708.221 L64.0042 714.077 L58.5933 714.077 Q61.8398 716.082 63.3994 719.074 Q64.9272 722.066 64.9272 726.395 Q64.9272 731.869 61.8716 735.116 Q58.7843 738.331 53.6281 738.331 Q47.6125 738.331 44.5569 734.32 Q41.5014 730.278 41.5014 722.289 L41.5014 714.077 L40.9285 714.077 Q36.8862 714.077 34.6901 716.751 Q32.4621 719.393 32.4621 724.199 Q32.4621 727.254 33.1941 730.151 Q33.9262 733.047 35.3903 735.721 L29.9795 735.721 Q28.7381 732.506 28.1334 729.482 Q27.4968 726.458 27.4968 723.594 Q27.4968 715.86 31.5072 712.04 Q35.5176 708.221 43.6657 708.221 Z" fill="#000000" fill-rule="nonzero" fill-opacity="1" /><path clip-path="url(#clip700)" d="M35.1993 668.403 Q31.2526 666.207 29.3747 663.152 Q27.4968 660.096 27.4968 655.958 Q27.4968 650.388 31.4117 647.365 Q35.2948 644.341 42.4881 644.341 L64.0042 644.341 L64.0042 650.229 L42.679 650.229 Q37.5546 650.229 35.072 652.043 Q32.5894 653.858 32.5894 657.582 Q32.5894 662.133 35.6131 664.775 Q38.6368 667.417 43.8567 667.417 L64.0042 667.417 L64.0042 673.305 L42.679 673.305 Q37.5228 673.305 35.072 675.119 Q32.5894 676.933 32.5894 680.721 Q32.5894 685.209 35.6449 687.85 Q38.6686 690.492 43.8567 690.492 L64.0042 690.492 L64.0042 696.381 L28.3562 696.381 L28.3562 690.492 L33.8944 690.492 Q30.616 688.487 29.0564 685.686 Q27.4968 682.885 27.4968 679.034 Q27.4968 675.151 29.4702 672.445 Q31.4436 669.708 35.1993 668.403 Z" fill="#000000" fill-rule="nonzero" fill-opacity="1" /><path clip-path="url(#clip700)" d="M35.1993 604.905 Q31.2526 602.709 29.3747 599.654 Q27.4968 596.598 27.4968 592.46 Q27.4968 586.89 31.4117 583.867 Q35.2948 580.843 42.4881 580.843 L64.0042 580.843 L64.0042 586.731 L42.679 586.731 Q37.5546 586.731 35.072 588.545 Q32.5894 590.36 32.5894 594.084 Q32.5894 598.635 35.6131 601.277 Q38.6368 603.919 43.8567 603.919 L64.0042 603.919 L64.0042 609.807 L42.679 609.807 Q37.5228 609.807 35.072 611.621 Q32.5894 613.435 32.5894 617.223 Q32.5894 621.711 35.6449 624.353 Q38.6686 626.994 43.8567 626.994 L64.0042 626.994 L64.0042 632.883 L28.3562 632.883 L28.3562 626.994 L33.8944 626.994 Q30.616 624.989 29.0564 622.188 Q27.4968 619.387 27.4968 615.536 Q27.4968 611.653 29.4702 608.948 Q31.4436 606.21 35.1993 604.905 Z" fill="#000000" fill-rule="nonzero" fill-opacity="1" /><path clip-path="url(#clip700)" d="M46.0847 552.961 Q46.0847 560.059 47.7079 562.796 Q49.3312 565.533 53.2461 565.533 Q56.3653 565.533 58.2114 563.496 Q60.0256 561.428 60.0256 557.895 Q60.0256 553.025 56.5881 550.097 Q53.1188 547.137 47.3897 547.137 L46.0847 547.137 L46.0847 552.961 M43.6657 541.28 L64.0042 541.28 L64.0042 547.137 L58.5933 547.137 Q61.8398 549.142 63.3994 552.134 Q64.9272 555.125 64.9272 559.454 Q64.9272 564.929 61.8716 568.175 Q58.7843 571.39 53.6281 571.39 Q47.6125 571.39 44.5569 567.379 Q41.5014 563.337 41.5014 555.348 L41.5014 547.137 L40.9285 547.137 Q36.8862 547.137 34.6901 549.81 Q32.4621 552.452 32.4621 557.258 Q32.4621 560.314 33.1941 563.21 Q33.9262 566.106 35.3903 568.78 L29.9795 568.78 Q28.7381 565.565 28.1334 562.542 Q27.4968 559.518 27.4968 556.653 Q27.4968 548.919 31.5072 545.099 Q35.5176 541.28 43.6657 541.28 Z" fill="#000000" fill-rule="nonzero" fill-opacity="1" /><path clip-path="url(#clip700)" d="M18.2347 523.424 L28.3562 523.424 L28.3562 511.361 L32.9077 511.361 L32.9077 523.424 L52.2594 523.424 Q56.6199 523.424 57.8613 522.247 Q59.1026 521.037 59.1026 517.377 L59.1026 511.361 L64.0042 511.361 L64.0042 517.377 Q64.0042 524.156 61.4897 526.734 Q58.9434 529.313 52.2594 529.313 L32.9077 529.313 L32.9077 533.609 L28.3562 533.609 L28.3562 529.313 L18.2347 529.313 L18.2347 523.424 Z" fill="#000000" fill-rule="nonzero" fill-opacity="1" /><path clip-path="url(#clip700)" d="M28.3562 503.659 L28.3562 497.802 L64.0042 497.802 L64.0042 503.659 L28.3562 503.659 M14.479 503.659 L14.479 497.802 L21.895 497.802 L21.895 503.659 L14.479 503.659 Z" fill="#000000" fill-rule="nonzero" fill-opacity="1" /><path clip-path="url(#clip700)" d="M32.4621 471.735 Q32.4621 476.445 36.1542 479.183 Q39.8145 481.92 46.212 481.92 Q52.6095 481.92 56.3017 479.214 Q59.9619 476.477 59.9619 471.735 Q59.9619 467.056 56.2698 464.319 Q52.5777 461.581 46.212 461.581 Q39.8781 461.581 36.186 464.319 Q32.4621 467.056 32.4621 471.735 M27.4968 471.735 Q27.4968 464.096 32.4621 459.735 Q37.4273 455.375 46.212 455.375 Q54.9649 455.375 59.9619 459.735 Q64.9272 464.096 64.9272 471.735 Q64.9272 479.405 59.9619 483.766 Q54.9649 488.095 46.212 488.095 Q37.4273 488.095 32.4621 483.766 Q27.4968 479.405 27.4968 471.735 Z" fill="#000000" fill-rule="nonzero" fill-opacity="1" /><path clip-path="url(#clip700)" d="M42.4881 416.035 L64.0042 416.035 L64.0042 421.891 L42.679 421.891 Q37.6183 421.891 35.1038 423.865 Q32.5894 425.838 32.5894 429.785 Q32.5894 434.527 35.6131 437.264 Q38.6368 440.002 43.8567 440.002 L64.0042 440.002 L64.0042 445.89 L28.3562 445.89 L28.3562 440.002 L33.8944 440.002 Q30.6797 437.901 29.0883 435.068 Q27.4968 432.204 27.4968 428.48 Q27.4968 422.337 31.3163 419.186 Q35.1038 416.035 42.4881 416.035 Z" fill="#000000" fill-rule="nonzero" fill-opacity="1" /><path clip-path="url(#clip700)" d="M636.558 20.1573 L625.458 50.2555 L647.698 50.2555 L636.558 20.1573 M631.94 12.096 L641.216 12.096 L664.266 72.576 L655.759 72.576 L650.25 57.061 L622.987 57.061 L617.478 72.576 L608.849 72.576 L631.94 12.096 Z" fill="#000000" fill-rule="nonzero" fill-opacity="1" /><path clip-path="url(#clip700)" d="M662.564 27.2059 L670.464 27.2059 L684.642 65.2844 L698.82 27.2059 L706.719 27.2059 L689.705 72.576 L679.578 72.576 L662.564 27.2059 Z" fill="#000000" fill-rule="nonzero" fill-opacity="1" /><path clip-path="url(#clip700)" d="M755.816 48.0275 L755.816 51.6733 L721.546 51.6733 Q722.032 59.3701 726.164 63.421 Q730.336 67.4314 737.749 67.4314 Q742.043 67.4314 746.054 66.3781 Q750.104 65.3249 754.074 63.2184 L754.074 70.267 Q750.064 71.9684 745.851 72.8596 Q741.638 73.7508 737.304 73.7508 Q726.447 73.7508 720.087 67.4314 Q713.768 61.1119 713.768 50.3365 Q713.768 39.1965 719.763 32.6746 Q725.799 26.1121 736.007 26.1121 Q745.162 26.1121 750.469 32.0264 Q755.816 37.9003 755.816 48.0275 M748.363 45.84 Q748.282 39.7232 744.919 36.0774 Q741.598 32.4315 736.088 32.4315 Q729.85 32.4315 726.083 35.9558 Q722.356 39.4801 721.789 45.8805 L748.363 45.84 Z" fill="#000000" fill-rule="nonzero" fill-opacity="1" /><path clip-path="url(#clip700)" d="M794.34 34.1734 Q793.085 33.4443 791.586 33.1202 Q790.127 32.7556 788.345 32.7556 Q782.026 32.7556 778.623 36.8875 Q775.261 40.9789 775.261 48.6757 L775.261 72.576 L767.766 72.576 L767.766 27.2059 L775.261 27.2059 L775.261 34.2544 Q777.61 30.1225 781.377 28.1376 Q785.145 26.1121 790.532 26.1121 Q791.302 26.1121 792.234 26.2337 Q793.166 26.3147 794.3 26.5172 L794.34 34.1734 Z" fill="#000000" fill-rule="nonzero" fill-opacity="1" /><path clip-path="url(#clip700)" d="M822.778 49.7694 Q813.744 49.7694 810.26 51.8354 Q806.777 53.9013 806.777 58.8839 Q806.777 62.8538 809.369 65.2034 Q812.002 67.5124 816.499 67.5124 Q822.697 67.5124 826.424 63.1374 Q830.191 58.7219 830.191 51.4303 L830.191 49.7694 L822.778 49.7694 M837.645 46.6907 L837.645 72.576 L830.191 72.576 L830.191 65.6895 Q827.639 69.8214 823.831 71.8063 Q820.023 73.7508 814.514 73.7508 Q807.546 73.7508 803.414 69.8619 Q799.323 65.9325 799.323 59.3701 Q799.323 51.7138 804.427 47.825 Q809.572 43.9361 819.74 43.9361 L830.191 43.9361 L830.191 43.2069 Q830.191 38.0623 826.788 35.2672 Q823.426 32.4315 817.309 32.4315 Q813.42 32.4315 809.734 33.3632 Q806.047 34.295 802.645 36.1584 L802.645 29.2718 Q806.736 27.692 810.584 26.9223 Q814.433 26.1121 818.079 26.1121 Q827.922 26.1121 832.783 31.2163 Q837.645 36.3204 837.645 46.6907 Z" fill="#000000" fill-rule="nonzero" fill-opacity="1" /><path clip-path="url(#clip700)" d="M882.853 49.3643 Q882.853 41.2625 879.49 36.8065 Q876.169 32.3505 870.133 32.3505 Q864.137 32.3505 860.775 36.8065 Q857.453 41.2625 857.453 49.3643 Q857.453 57.4256 860.775 61.8816 Q864.137 66.3376 870.133 66.3376 Q876.169 66.3376 879.49 61.8816 Q882.853 57.4256 882.853 49.3643 M890.306 66.9452 Q890.306 78.5308 885.162 84.1616 Q880.017 89.8329 869.404 89.8329 Q865.474 89.8329 861.99 89.2252 Q858.507 88.6581 855.225 87.4428 L855.225 80.1917 Q858.507 81.9741 861.707 82.8248 Q864.907 83.6755 868.229 83.6755 Q875.561 83.6755 879.207 79.8271 Q882.853 76.0193 882.853 68.282 L882.853 64.5957 Q880.544 68.6061 876.938 70.5911 Q873.333 72.576 868.31 72.576 Q859.965 72.576 854.861 66.2161 Q849.757 59.8562 849.757 49.3643 Q849.757 38.832 854.861 32.472 Q859.965 26.1121 868.31 26.1121 Q873.333 26.1121 876.938 28.0971 Q880.544 30.082 882.853 34.0924 L882.853 27.2059 L890.306 27.2059 L890.306 66.9452 Z" fill="#000000" fill-rule="nonzero" fill-opacity="1" /><path clip-path="url(#clip700)" d="M944.467 48.0275 L944.467 51.6733 L910.196 51.6733 Q910.682 59.3701 914.814 63.421 Q918.987 67.4314 926.4 67.4314 Q930.694 67.4314 934.704 66.3781 Q938.755 65.3249 942.725 63.2184 L942.725 70.267 Q938.715 71.9684 934.502 72.8596 Q930.289 73.7508 925.954 73.7508 Q915.098 73.7508 908.738 67.4314 Q902.418 61.1119 902.418 50.3365 Q902.418 39.1965 908.414 32.6746 Q914.45 26.1121 924.658 26.1121 Q933.813 26.1121 939.12 32.0264 Q944.467 37.9003 944.467 48.0275 M937.013 45.84 Q936.932 39.7232 933.57 36.0774 Q930.248 32.4315 924.739 32.4315 Q918.501 32.4315 914.733 35.9558 Q911.006 39.4801 910.439 45.8805 L937.013 45.84 Z" fill="#000000" fill-rule="nonzero" fill-opacity="1" /><path clip-path="url(#clip700)" d="M983.072 27.2059 L990.526 27.2059 L990.526 72.576 L983.072 72.576 L983.072 27.2059 M983.072 9.54393 L990.526 9.54393 L990.526 18.9825 L983.072 18.9825 L983.072 9.54393 Z" fill="#000000" fill-rule="nonzero" fill-opacity="1" /><path clip-path="url(#clip700)" d="M1043.84 45.1919 L1043.84 72.576 L1036.38 72.576 L1036.38 45.4349 Q1036.38 38.994 1033.87 35.7938 Q1031.36 32.5936 1026.34 32.5936 Q1020.3 32.5936 1016.82 36.4419 Q1013.33 40.2903 1013.33 46.9338 L1013.33 72.576 L1005.84 72.576 L1005.84 27.2059 L1013.33 27.2059 L1013.33 34.2544 Q1016.01 30.163 1019.61 28.1376 Q1023.26 26.1121 1028 26.1121 Q1035.81 26.1121 1039.83 30.9732 Q1043.84 35.7938 1043.84 45.1919 Z" fill="#000000" fill-rule="nonzero" fill-opacity="1" /><path clip-path="url(#clip700)" d="M1081.67 9.54393 L1081.67 15.7418 L1074.54 15.7418 Q1070.53 15.7418 1068.95 17.3622 Q1067.41 18.9825 1067.41 23.1955 L1067.41 27.2059 L1079.69 27.2059 L1079.69 32.9987 L1067.41 32.9987 L1067.41 72.576 L1059.92 72.576 L1059.92 32.9987 L1052.79 32.9987 L1052.79 27.2059 L1059.92 27.2059 L1059.92 24.0462 Q1059.92 16.471 1063.44 13.0277 Q1066.97 9.54393 1074.62 9.54393 L1081.67 9.54393 Z" fill="#000000" fill-rule="nonzero" fill-opacity="1" /><path clip-path="url(#clip700)" d="M1087.91 9.54393 L1095.36 9.54393 L1095.36 72.576 L1087.91 72.576 L1087.91 9.54393 Z" fill="#000000" fill-rule="nonzero" fill-opacity="1" /><path clip-path="url(#clip700)" d="M1131.58 49.7694 Q1122.54 49.7694 1119.06 51.8354 Q1115.58 53.9013 1115.58 58.8839 Q1115.58 62.8538 1118.17 65.2034 Q1120.8 67.5124 1125.3 67.5124 Q1131.5 67.5124 1135.22 63.1374 Q1138.99 58.7219 1138.99 51.4303 L1138.99 49.7694 L1131.58 49.7694 M1146.44 46.6907 L1146.44 72.576 L1138.99 72.576 L1138.99 65.6895 Q1136.44 69.8214 1132.63 71.8063 Q1128.82 73.7508 1123.31 73.7508 Q1116.35 73.7508 1112.21 69.8619 Q1108.12 65.9325 1108.12 59.3701 Q1108.12 51.7138 1113.23 47.825 Q1118.37 43.9361 1128.54 43.9361 L1138.99 43.9361 L1138.99 43.2069 Q1138.99 38.0623 1135.59 35.2672 Q1132.23 32.4315 1126.11 32.4315 Q1122.22 32.4315 1118.53 33.3632 Q1114.85 34.295 1111.45 36.1584 L1111.45 29.2718 Q1115.54 27.692 1119.38 26.9223 Q1123.23 26.1121 1126.88 26.1121 Q1136.72 26.1121 1141.58 31.2163 Q1146.44 36.3204 1146.44 46.6907 Z" fill="#000000" fill-rule="nonzero" fill-opacity="1" /><path clip-path="url(#clip700)" d="M1197.12 35.9153 Q1199.92 30.8922 1203.81 28.5022 Q1207.69 26.1121 1212.96 26.1121 Q1220.05 26.1121 1223.9 31.0947 Q1227.75 36.0368 1227.75 45.1919 L1227.75 72.576 L1220.25 72.576 L1220.25 45.4349 Q1220.25 38.913 1217.94 35.7533 Q1215.63 32.5936 1210.89 32.5936 Q1205.1 32.5936 1201.74 36.4419 Q1198.38 40.2903 1198.38 46.9338 L1198.38 72.576 L1190.88 72.576 L1190.88 45.4349 Q1190.88 38.8725 1188.57 35.7533 Q1186.27 32.5936 1181.44 32.5936 Q1175.73 32.5936 1172.37 36.4824 Q1169.01 40.3308 1169.01 46.9338 L1169.01 72.576 L1161.51 72.576 L1161.51 27.2059 L1169.01 27.2059 L1169.01 34.2544 Q1171.56 30.082 1175.13 28.0971 Q1178.69 26.1121 1183.59 26.1121 Q1188.53 26.1121 1191.98 28.6237 Q1195.46 31.1352 1197.12 35.9153 Z" fill="#000000" fill-rule="nonzero" fill-opacity="1" /><path clip-path="url(#clip700)" d="M1277.94 35.9153 Q1280.73 30.8922 1284.62 28.5022 Q1288.51 26.1121 1293.78 26.1121 Q1300.87 26.1121 1304.71 31.0947 Q1308.56 36.0368 1308.56 45.1919 L1308.56 72.576 L1301.07 72.576 L1301.07 45.4349 Q1301.07 38.913 1298.76 35.7533 Q1296.45 32.5936 1291.71 32.5936 Q1285.92 32.5936 1282.56 36.4419 Q1279.19 40.2903 1279.19 46.9338 L1279.19 72.576 L1271.7 72.576 L1271.7 45.4349 Q1271.7 38.8725 1269.39 35.7533 Q1267.08 32.5936 1262.26 32.5936 Q1256.55 32.5936 1253.19 36.4824 Q1249.82 40.3308 1249.82 46.9338 L1249.82 72.576 L1242.33 72.576 L1242.33 27.2059 L1249.82 27.2059 L1249.82 34.2544 Q1252.38 30.082 1255.94 28.0971 Q1259.51 26.1121 1264.41 26.1121 Q1269.35 26.1121 1272.79 28.6237 Q1276.28 31.1352 1277.94 35.9153 Z" fill="#000000" fill-rule="nonzero" fill-opacity="1" /><path clip-path="url(#clip700)" d="M1344.05 49.7694 Q1335.01 49.7694 1331.53 51.8354 Q1328.05 53.9013 1328.05 58.8839 Q1328.05 62.8538 1330.64 65.2034 Q1333.27 67.5124 1337.77 67.5124 Q1343.97 67.5124 1347.69 63.1374 Q1351.46 58.7219 1351.46 51.4303 L1351.46 49.7694 L1344.05 49.7694 M1358.91 46.6907 L1358.91 72.576 L1351.46 72.576 L1351.46 65.6895 Q1348.91 69.8214 1345.1 71.8063 Q1341.29 73.7508 1335.78 73.7508 Q1328.82 73.7508 1324.68 69.8619 Q1320.59 65.9325 1320.59 59.3701 Q1320.59 51.7138 1325.7 47.825 Q1330.84 43.9361 1341.01 43.9361 L1351.46 43.9361 L1351.46 43.2069 Q1351.46 38.0623 1348.06 35.2672 Q1344.7 32.4315 1338.58 32.4315 Q1334.69 32.4315 1331 33.3632 Q1327.32 34.295 1323.92 36.1584 L1323.92 29.2718 Q1328.01 27.692 1331.85 26.9223 Q1335.7 26.1121 1339.35 26.1121 Q1349.19 26.1121 1354.05 31.2163 Q1358.91 36.3204 1358.91 46.6907 Z" fill="#000000" fill-rule="nonzero" fill-opacity="1" /><path clip-path="url(#clip700)" d="M1381.64 14.324 L1381.64 27.2059 L1396.99 27.2059 L1396.99 32.9987 L1381.64 32.9987 L1381.64 57.6282 Q1381.64 63.1779 1383.14 64.7578 Q1384.68 66.3376 1389.34 66.3376 L1396.99 66.3376 L1396.99 72.576 L1389.34 72.576 Q1380.71 72.576 1377.43 69.3758 Q1374.15 66.1351 1374.15 57.6282 L1374.15 32.9987 L1368.68 32.9987 L1368.68 27.2059 L1374.15 27.2059 L1374.15 14.324 L1381.64 14.324 Z" fill="#000000" fill-rule="nonzero" fill-opacity="1" /><path clip-path="url(#clip700)" d="M1406.8 27.2059 L1414.25 27.2059 L1414.25 72.576 L1406.8 72.576 L1406.8 27.2059 M1406.8 9.54393 L1414.25 9.54393 L1414.25 18.9825 L1406.8 18.9825 L1406.8 9.54393 Z" fill="#000000" fill-rule="nonzero" fill-opacity="1" /><path clip-path="url(#clip700)" d="M1447.43 32.4315 Q1441.43 32.4315 1437.95 37.1306 Q1434.46 41.7891 1434.46 49.9314 Q1434.46 58.0738 1437.91 62.7728 Q1441.39 67.4314 1447.43 67.4314 Q1453.38 67.4314 1456.87 62.7323 Q1460.35 58.0333 1460.35 49.9314 Q1460.35 41.8701 1456.87 37.1711 Q1453.38 32.4315 1447.43 32.4315 M1447.43 26.1121 Q1457.15 26.1121 1462.7 32.4315 Q1468.25 38.7509 1468.25 49.9314 Q1468.25 61.0714 1462.7 67.4314 Q1457.15 73.7508 1447.43 73.7508 Q1437.66 73.7508 1432.11 67.4314 Q1426.61 61.0714 1426.61 49.9314 Q1426.61 38.7509 1432.11 32.4315 Q1437.66 26.1121 1447.43 26.1121 Z" fill="#000000" fill-rule="nonzero" fill-opacity="1" /><path clip-path="url(#clip700)" d="M1518.32 45.1919 L1518.32 72.576 L1510.86 72.576 L1510.86 45.4349 Q1510.86 38.994 1508.35 35.7938 Q1505.84 32.5936 1500.82 32.5936 Q1494.78 32.5936 1491.3 36.4419 Q1487.81 40.2903 1487.81 46.9338 L1487.81 72.576 L1480.32 72.576 L1480.32 27.2059 L1487.81 27.2059 L1487.81 34.2544 Q1490.49 30.163 1494.09 28.1376 Q1497.74 26.1121 1502.48 26.1121 Q1510.3 26.1121 1514.31 30.9732 Q1518.32 35.7938 1518.32 45.1919 Z" fill="#000000" fill-rule="nonzero" fill-opacity="1" /><path clip-path="url(#clip700)" d="M1577.14 32.4315 Q1571.14 32.4315 1567.66 37.1306 Q1564.17 41.7891 1564.17 49.9314 Q1564.17 58.0738 1567.62 62.7728 Q1571.1 67.4314 1577.14 67.4314 Q1583.09 67.4314 1586.58 62.7323 Q1590.06 58.0333 1590.06 49.9314 Q1590.06 41.8701 1586.58 37.1711 Q1583.09 32.4315 1577.14 32.4315 M1577.14 26.1121 Q1586.86 26.1121 1592.41 32.4315 Q1597.96 38.7509 1597.96 49.9314 Q1597.96 61.0714 1592.41 67.4314 Q1586.86 73.7508 1577.14 73.7508 Q1567.37 73.7508 1561.82 67.4314 Q1556.32 61.0714 1556.32 49.9314 Q1556.32 38.7509 1561.82 32.4315 Q1567.37 26.1121 1577.14 26.1121 Z" fill="#000000" fill-rule="nonzero" fill-opacity="1" /><path clip-path="url(#clip700)" d="M1604.97 27.2059 L1612.87 27.2059 L1627.04 65.2844 L1641.22 27.2059 L1649.12 27.2059 L1632.11 72.576 L1621.98 72.576 L1604.97 27.2059 Z" fill="#000000" fill-rule="nonzero" fill-opacity="1" /><path clip-path="url(#clip700)" d="M1698.22 48.0275 L1698.22 51.6733 L1663.95 51.6733 Q1664.43 59.3701 1668.57 63.421 Q1672.74 67.4314 1680.15 67.4314 Q1684.45 67.4314 1688.46 66.3781 Q1692.51 65.3249 1696.48 63.2184 L1696.48 70.267 Q1692.47 71.9684 1688.25 72.8596 Q1684.04 73.7508 1679.71 73.7508 Q1668.85 73.7508 1662.49 67.4314 Q1656.17 61.1119 1656.17 50.3365 Q1656.17 39.1965 1662.17 32.6746 Q1668.2 26.1121 1678.41 26.1121 Q1687.56 26.1121 1692.87 32.0264 Q1698.22 37.9003 1698.22 48.0275 M1690.76 45.84 Q1690.68 39.7232 1687.32 36.0774 Q1684 32.4315 1678.49 32.4315 Q1672.25 32.4315 1668.48 35.9558 Q1664.76 39.4801 1664.19 45.8805 L1690.76 45.84 Z" fill="#000000" fill-rule="nonzero" fill-opacity="1" /><path clip-path="url(#clip700)" d="M1736.74 34.1734 Q1735.49 33.4443 1733.99 33.1202 Q1732.53 32.7556 1730.75 32.7556 Q1724.43 32.7556 1721.03 36.8875 Q1717.66 40.9789 1717.66 48.6757 L1717.66 72.576 L1710.17 72.576 L1710.17 27.2059 L1717.66 27.2059 L1717.66 34.2544 Q1720.01 30.1225 1723.78 28.1376 Q1727.55 26.1121 1732.93 26.1121 Q1733.7 26.1121 1734.64 26.2337 Q1735.57 26.3147 1736.7 26.5172 L1736.74 34.1734 Z" fill="#000000" fill-rule="nonzero" fill-opacity="1" /><path clip-path="url(#clip700)" d="M1778.3 14.324 L1778.3 27.2059 L1793.66 27.2059 L1793.66 32.9987 L1778.3 32.9987 L1778.3 57.6282 Q1778.3 63.1779 1779.8 64.7578 Q1781.34 66.3376 1786 66.3376 L1793.66 66.3376 L1793.66 72.576 L1786 72.576 Q1777.37 72.576 1774.09 69.3758 Q1770.81 66.1351 1770.81 57.6282 L1770.81 32.9987 L1765.34 32.9987 L1765.34 27.2059 L1770.81 27.2059 L1770.81 14.324 L1778.3 14.324 Z" fill="#000000" fill-rule="nonzero" fill-opacity="1" /><path clip-path="url(#clip700)" d="M1803.46 27.2059 L1810.91 27.2059 L1810.91 72.576 L1803.46 72.576 L1803.46 27.2059 M1803.46 9.54393 L1810.91 9.54393 L1810.91 18.9825 L1803.46 18.9825 L1803.46 9.54393 Z" fill="#000000" fill-rule="nonzero" fill-opacity="1" /><path clip-path="url(#clip700)" d="M1861.83 35.9153 Q1864.63 30.8922 1868.52 28.5022 Q1872.41 26.1121 1877.67 26.1121 Q1884.76 26.1121 1888.61 31.0947 Q1892.46 36.0368 1892.46 45.1919 L1892.46 72.576 L1884.97 72.576 L1884.97 45.4349 Q1884.97 38.913 1882.66 35.7533 Q1880.35 32.5936 1875.61 32.5936 Q1869.81 32.5936 1866.45 36.4419 Q1863.09 40.2903 1863.09 46.9338 L1863.09 72.576 L1855.6 72.576 L1855.6 45.4349 Q1855.6 38.8725 1853.29 35.7533 Q1850.98 32.5936 1846.16 32.5936 Q1840.45 32.5936 1837.08 36.4824 Q1833.72 40.3308 1833.72 46.9338 L1833.72 72.576 L1826.23 72.576 L1826.23 27.2059 L1833.72 27.2059 L1833.72 34.2544 Q1836.27 30.082 1839.84 28.0971 Q1843.4 26.1121 1848.3 26.1121 Q1853.25 26.1121 1856.69 28.6237 Q1860.17 31.1352 1861.83 35.9153 Z" fill="#000000" fill-rule="nonzero" fill-opacity="1" /><path clip-path="url(#clip700)" d="M1946.13 48.0275 L1946.13 51.6733 L1911.86 51.6733 Q1912.35 59.3701 1916.48 63.421 Q1920.65 67.4314 1928.07 67.4314 Q1932.36 67.4314 1936.37 66.3781 Q1940.42 65.3249 1944.39 63.2184 L1944.39 70.267 Q1940.38 71.9684 1936.17 72.8596 Q1931.96 73.7508 1927.62 73.7508 Q1916.76 73.7508 1910.4 67.4314 Q1904.09 61.1119 1904.09 50.3365 Q1904.09 39.1965 1910.08 32.6746 Q1916.12 26.1121 1926.33 26.1121 Q1935.48 26.1121 1940.79 32.0264 Q1946.13 37.9003 1946.13 48.0275 M1938.68 45.84 Q1938.6 39.7232 1935.24 36.0774 Q1931.92 32.4315 1926.41 32.4315 Q1920.17 32.4315 1916.4 35.9558 Q1912.67 39.4801 1912.11 45.8805 L1938.68 45.84 Z" fill="#000000" fill-rule="nonzero" fill-opacity="1" /><polyline clip-path="url(#clip702)" style="stroke:#009af9; stroke-linecap:round; stroke-linejoin:round; stroke-width:4; stroke-opacity:1; fill:none" points="263.091,1386.4 315.112,1344.44 367.133,1283.83 419.153,1227.88 471.174,1161.06 523.194,1095.79 575.215,1038.29 627.235,1035.18 679.256,910.859 731.276,876.67 783.297,836.265 835.317,840.927 887.338,623.361 939.358,673.09 991.379,617.145 1043.4,506.808 1095.42,503.7 1147.44,405.795 1199.46,326.539 1251.48,262.823 1303.5,160.256 1355.52,290.796 1407.54,374.714 1459.56,455.524 1511.58,464.849 1563.6,589.172 1615.63,539.443 1667.65,719.712 1719.67,715.049 1771.69,784.981 1823.71,826.94 1875.73,837.819 1927.75,917.075 1979.77,1061.6 2031.79,1083.36 2083.81,1060.05 2135.83,1157.95 2187.85,1251.19 2239.87,1280.72 2291.89,1333.56 "/>
</svg>
