<?xml version="1.0" encoding="utf-8"?>
<svg xmlns="http://www.w3.org/2000/svg" xmlns:xlink="http://www.w3.org/1999/xlink" width="600" height="400" viewBox="0 0 2400 1600">
<defs>
  <clipPath id="clip740">
    <rect x="0" y="0" width="2400" height="1600"/>
  </clipPath>
</defs>
<path clip-path="url(#clip740)" d="M0 1600 L2400 1600 L2400 0 L0 0  Z" fill="#ffffff" fill-rule="evenodd" fill-opacity="1"/>
<defs>
  <clipPath id="clip741">
    <rect x="480" y="0" width="1681" height="1600"/>
  </clipPath>
</defs>
<path clip-path="url(#clip740)" d="M203.964 1423.18 L2352.76 1423.18 L2352.76 123.472 L203.964 123.472  Z" fill="#ffffff" fill-rule="evenodd" fill-opacity="1"/>
<defs>
  <clipPath id="clip742">
    <rect x="203" y="123" width="2150" height="1301"/>
  </clipPath>
</defs>
<polyline clip-path="url(#clip742)" style="stroke:#000000; stroke-linecap:round; stroke-linejoin:round; stroke-width:2; stroke-opacity:0.1; fill:none" points="212.8,1423.18 212.8,123.472 "/>
<polyline clip-path="url(#clip742)" style="stroke:#000000; stroke-linecap:round; stroke-linejoin:round; stroke-width:2; stroke-opacity:0.1; fill:none" points="732.585,1423.18 732.585,123.472 "/>
<polyline clip-path="url(#clip742)" style="stroke:#000000; stroke-linecap:round; stroke-linejoin:round; stroke-width:2; stroke-opacity:0.1; fill:none" points="1252.37,1423.18 1252.37,123.472 "/>
<polyline clip-path="url(#clip742)" style="stroke:#000000; stroke-linecap:round; stroke-linejoin:round; stroke-width:2; stroke-opacity:0.1; fill:none" points="1772.16,1423.18 1772.16,123.472 "/>
<polyline clip-path="url(#clip742)" style="stroke:#000000; stroke-linecap:round; stroke-linejoin:round; stroke-width:2; stroke-opacity:0.1; fill:none" points="2291.94,1423.18 2291.94,123.472 "/>
<polyline clip-path="url(#clip742)" style="stroke:#000000; stroke-linecap:round; stroke-linejoin:round; stroke-width:2; stroke-opacity:0.1; fill:none" points="203.964,1386.4 2352.76,1386.4 "/>
<polyline clip-path="url(#clip742)" style="stroke:#000000; stroke-linecap:round; stroke-linejoin:round; stroke-width:2; stroke-opacity:0.1; fill:none" points="203.964,1079.86 2352.76,1079.86 "/>
<polyline clip-path="url(#clip742)" style="stroke:#000000; stroke-linecap:round; stroke-linejoin:round; stroke-width:2; stroke-opacity:0.1; fill:none" points="203.964,773.326 2352.76,773.326 "/>
<polyline clip-path="url(#clip742)" style="stroke:#000000; stroke-linecap:round; stroke-linejoin:round; stroke-width:2; stroke-opacity:0.1; fill:none" points="203.964,466.791 2352.76,466.791 "/>
<polyline clip-path="url(#clip742)" style="stroke:#000000; stroke-linecap:round; stroke-linejoin:round; stroke-width:2; stroke-opacity:0.1; fill:none" points="203.964,160.256 2352.76,160.256 "/>
<polyline clip-path="url(#clip740)" style="stroke:#000000; stroke-linecap:round; stroke-linejoin:round; stroke-width:4; stroke-opacity:1; fill:none" points="203.964,1423.18 2352.76,1423.18 "/>
<polyline clip-path="url(#clip740)" style="stroke:#000000; stroke-linecap:round; stroke-linejoin:round; stroke-width:4; stroke-opacity:1; fill:none" points="212.8,1423.18 212.8,1404.28 "/>
<polyline clip-path="url(#clip740)" style="stroke:#000000; stroke-linecap:round; stroke-linejoin:round; stroke-width:4; stroke-opacity:1; fill:none" points="732.585,1423.18 732.585,1404.28 "/>
<polyline clip-path="url(#clip740)" style="stroke:#000000; stroke-linecap:round; stroke-linejoin:round; stroke-width:4; stroke-opacity:1; fill:none" points="1252.37,1423.18 1252.37,1404.28 "/>
<polyline clip-path="url(#clip740)" style="stroke:#000000; stroke-linecap:round; stroke-linejoin:round; stroke-width:4; stroke-opacity:1; fill:none" points="1772.16,1423.18 1772.16,1404.28 "/>
<polyline clip-path="url(#clip740)" style="stroke:#000000; stroke-linecap:round; stroke-linejoin:round; stroke-width:4; stroke-opacity:1; fill:none" points="2291.94,1423.18 2291.94,1404.28 "/>
<path clip-path="url(#clip740)" d="M212.8 1454.1 Q209.189 1454.1 207.36 1457.66 Q205.555 1461.2 205.555 1468.33 Q205.555 1475.44 207.36 1479.01 Q209.189 1482.55 212.8 1482.55 Q216.434 1482.55 218.24 1479.01 Q220.068 1475.44 220.068 1468.33 Q220.068 1461.2 218.24 1457.66 Q216.434 1454.1 212.8 1454.1 M212.8 1450.39 Q218.61 1450.39 221.666 1455 Q224.744 1459.58 224.744 1468.33 Q224.744 1477.06 221.666 1481.67 Q218.61 1486.25 212.8 1486.25 Q206.99 1486.25 203.911 1481.67 Q200.856 1477.06 200.856 1468.33 Q200.856 1459.58 203.911 1455 Q206.99 1450.39 212.8 1450.39 Z" fill="#000000" fill-rule="nonzero" fill-opacity="1" /><path clip-path="url(#clip740)" d="M707.273 1481.64 L714.912 1481.64 L714.912 1455.28 L706.602 1456.95 L706.602 1452.69 L714.865 1451.02 L719.541 1451.02 L719.541 1481.64 L727.18 1481.64 L727.18 1485.58 L707.273 1485.58 L707.273 1481.64 Z" fill="#000000" fill-rule="nonzero" fill-opacity="1" /><path clip-path="url(#clip740)" d="M746.624 1454.1 Q743.013 1454.1 741.185 1457.66 Q739.379 1461.2 739.379 1468.33 Q739.379 1475.44 741.185 1479.01 Q743.013 1482.55 746.624 1482.55 Q750.259 1482.55 752.064 1479.01 Q753.893 1475.44 753.893 1468.33 Q753.893 1461.2 752.064 1457.66 Q750.259 1454.1 746.624 1454.1 M746.624 1450.39 Q752.435 1450.39 755.49 1455 Q758.569 1459.58 758.569 1468.33 Q758.569 1477.06 755.49 1481.67 Q752.435 1486.25 746.624 1486.25 Q740.814 1486.25 737.736 1481.67 Q734.68 1477.06 734.68 1468.33 Q734.68 1459.58 737.736 1455 Q740.814 1450.39 746.624 1450.39 Z" fill="#000000" fill-rule="nonzero" fill-opacity="1" /><path clip-path="url(#clip740)" d="M1231.14 1481.64 L1247.46 1481.64 L1247.46 1485.58 L1225.52 1485.58 L1225.52 1481.64 Q1228.18 1478.89 1232.76 1474.26 Q1237.37 1469.61 1238.55 1468.27 Q1240.8 1465.74 1241.68 1464.01 Q1242.58 1462.25 1242.58 1460.56 Q1242.58 1457.8 1240.63 1456.07 Q1238.71 1454.33 1235.61 1454.33 Q1233.41 1454.33 1230.96 1455.09 Q1228.53 1455.86 1225.75 1457.41 L1225.75 1452.69 Q1228.57 1451.55 1231.03 1450.97 Q1233.48 1450.39 1235.52 1450.39 Q1240.89 1450.39 1244.08 1453.08 Q1247.28 1455.77 1247.28 1460.26 Q1247.28 1462.39 1246.47 1464.31 Q1245.68 1466.2 1243.57 1468.8 Q1243 1469.47 1239.89 1472.69 Q1236.79 1475.88 1231.14 1481.64 Z" fill="#000000" fill-rule="nonzero" fill-opacity="1" /><path clip-path="url(#clip740)" d="M1267.28 1454.1 Q1263.67 1454.1 1261.84 1457.66 Q1260.03 1461.2 1260.03 1468.33 Q1260.03 1475.44 1261.84 1479.01 Q1263.67 1482.55 1267.28 1482.55 Q1270.91 1482.55 1272.72 1479.01 Q1274.55 1475.44 1274.55 1468.33 Q1274.55 1461.2 1272.72 1457.66 Q1270.91 1454.1 1267.28 1454.1 M1267.28 1450.39 Q1273.09 1450.39 1276.14 1455 Q1279.22 1459.58 1279.22 1468.33 Q1279.22 1477.06 1276.14 1481.67 Q1273.09 1486.25 1267.28 1486.25 Q1261.47 1486.25 1258.39 1481.67 Q1255.33 1477.06 1255.33 1468.33 Q1255.33 1459.58 1258.39 1455 Q1261.47 1450.39 1267.28 1450.39 Z" fill="#000000" fill-rule="nonzero" fill-opacity="1" /><path clip-path="url(#clip740)" d="M1761 1466.95 Q1764.35 1467.66 1766.23 1469.93 Q1768.13 1472.2 1768.13 1475.53 Q1768.13 1480.65 1764.61 1483.45 Q1761.09 1486.25 1754.61 1486.25 Q1752.43 1486.25 1750.12 1485.81 Q1747.83 1485.39 1745.37 1484.54 L1745.37 1480.02 Q1747.32 1481.16 1749.63 1481.74 Q1751.95 1482.32 1754.47 1482.32 Q1758.87 1482.32 1761.16 1480.58 Q1763.48 1478.84 1763.48 1475.53 Q1763.48 1472.48 1761.32 1470.77 Q1759.19 1469.03 1755.37 1469.03 L1751.35 1469.03 L1751.35 1465.19 L1755.56 1465.19 Q1759.01 1465.19 1760.84 1463.82 Q1762.67 1462.43 1762.67 1459.84 Q1762.67 1457.18 1760.77 1455.77 Q1758.89 1454.33 1755.37 1454.33 Q1753.45 1454.33 1751.25 1454.75 Q1749.05 1455.16 1746.42 1456.04 L1746.42 1451.88 Q1749.08 1451.14 1751.39 1450.77 Q1753.73 1450.39 1755.79 1450.39 Q1761.11 1450.39 1764.22 1452.83 Q1767.32 1455.23 1767.32 1459.35 Q1767.32 1462.22 1765.67 1464.21 Q1764.03 1466.18 1761 1466.95 Z" fill="#000000" fill-rule="nonzero" fill-opacity="1" /><path clip-path="url(#clip740)" d="M1786.99 1454.1 Q1783.38 1454.1 1781.55 1457.66 Q1779.75 1461.2 1779.75 1468.33 Q1779.75 1475.44 1781.55 1479.01 Q1783.38 1482.55 1786.99 1482.55 Q1790.63 1482.55 1792.43 1479.01 Q1794.26 1475.44 1794.26 1468.33 Q1794.26 1461.2 1792.43 1457.66 Q1790.63 1454.1 1786.99 1454.1 M1786.99 1450.39 Q1792.8 1450.39 1795.86 1455 Q1798.94 1459.58 1798.94 1468.33 Q1798.94 1477.06 1795.86 1481.67 Q1792.8 1486.25 1786.99 1486.25 Q1781.18 1486.25 1778.1 1481.67 Q1775.05 1477.06 1775.05 1468.33 Q1775.05 1459.58 1778.1 1455 Q1781.18 1450.39 1786.99 1450.39 Z" fill="#000000" fill-rule="nonzero" fill-opacity="1" /><path clip-path="url(#clip740)" d="M2280.11 1455.09 L2268.31 1473.54 L2280.11 1473.54 L2280.11 1455.09 M2278.89 1451.02 L2284.77 1451.02 L2284.77 1473.54 L2289.7 1473.54 L2289.7 1477.43 L2284.77 1477.43 L2284.77 1485.58 L2280.11 1485.58 L2280.11 1477.43 L2264.51 1477.43 L2264.51 1472.92 L2278.89 1451.02 Z" fill="#000000" fill-rule="nonzero" fill-opacity="1" /><path clip-path="url(#clip740)" d="M2307.43 1454.1 Q2303.82 1454.1 2301.99 1457.66 Q2300.18 1461.2 2300.18 1468.33 Q2300.18 1475.44 2301.99 1479.01 Q2303.82 1482.55 2307.43 1482.55 Q2311.06 1482.55 2312.87 1479.01 Q2314.7 1475.44 2314.7 1468.33 Q2314.7 1461.2 2312.87 1457.66 Q2311.06 1454.1 2307.43 1454.1 M2307.43 1450.39 Q2313.24 1450.39 2316.29 1455 Q2319.37 1459.58 2319.37 1468.33 Q2319.37 1477.06 2316.29 1481.67 Q2313.24 1486.25 2307.43 1486.25 Q2301.62 1486.25 2298.54 1481.67 Q2295.48 1477.06 2295.48 1468.33 Q2295.48 1459.58 2298.54 1455 Q2301.62 1450.39 2307.43 1450.39 Z" fill="#000000" fill-rule="nonzero" fill-opacity="1" /><path clip-path="url(#clip740)" d="M1224.6 1525.81 L1224.6 1562.76 L1232.37 1562.76 Q1242.2 1562.76 1246.75 1558.3 Q1251.34 1553.85 1251.34 1544.24 Q1251.34 1534.69 1246.75 1530.26 Q1242.2 1525.81 1232.37 1525.81 L1224.6 1525.81 M1218.17 1520.52 L1231.38 1520.52 Q1245.19 1520.52 1251.66 1526.28 Q1258.12 1532.01 1258.12 1544.24 Q1258.12 1556.52 1251.62 1562.28 Q1245.13 1568.04 1231.38 1568.04 L1218.17 1568.04 L1218.17 1520.52 Z" fill="#000000" fill-rule="nonzero" fill-opacity="1" /><path clip-path="url(#clip740)" d="M1284.31 1550.12 Q1277.21 1550.12 1274.48 1551.75 Q1271.74 1553.37 1271.74 1557.29 Q1271.74 1560.4 1273.78 1562.25 Q1275.85 1564.07 1279.38 1564.07 Q1284.25 1564.07 1287.18 1560.63 Q1290.14 1557.16 1290.14 1551.43 L1290.14 1550.12 L1284.31 1550.12 M1295.99 1547.71 L1295.99 1568.04 L1290.14 1568.04 L1290.14 1562.63 Q1288.13 1565.88 1285.14 1567.44 Q1282.15 1568.97 1277.82 1568.97 Q1272.34 1568.97 1269.1 1565.91 Q1265.88 1562.82 1265.88 1557.67 Q1265.88 1551.65 1269.89 1548.6 Q1273.94 1545.54 1281.92 1545.54 L1290.14 1545.54 L1290.14 1544.97 Q1290.14 1540.93 1287.46 1538.73 Q1284.82 1536.5 1280.01 1536.5 Q1276.96 1536.5 1274.06 1537.23 Q1271.17 1537.97 1268.49 1539.43 L1268.49 1534.02 Q1271.71 1532.78 1274.73 1532.17 Q1277.75 1531.54 1280.62 1531.54 Q1288.35 1531.54 1292.17 1535.55 Q1295.99 1539.56 1295.99 1547.71 Z" fill="#000000" fill-rule="nonzero" fill-opacity="1" /><path clip-path="url(#clip740)" d="M1322.89 1571.35 Q1320.41 1577.72 1318.05 1579.66 Q1315.69 1581.6 1311.75 1581.6 L1307.07 1581.6 L1307.07 1576.7 L1310.51 1576.7 Q1312.93 1576.7 1314.26 1575.56 Q1315.6 1574.41 1317.22 1570.14 L1318.27 1567.47 L1303.85 1532.4 L1310.06 1532.4 L1321.2 1560.28 L1332.34 1532.4 L1338.55 1532.4 L1322.89 1571.35 Z" fill="#000000" fill-rule="nonzero" fill-opacity="1" /><polyline clip-path="url(#clip740)" style="stroke:#000000; stroke-linecap:round; stroke-linejoin:round; stroke-width:4; stroke-opacity:1; fill:none" points="203.964,1423.18 203.964,123.472 "/>
<polyline clip-path="url(#clip740)" style="stroke:#000000; stroke-linecap:round; stroke-linejoin:round; stroke-width:4; stroke-opacity:1; fill:none" points="203.964,1386.4 222.861,1386.4 "/>
<polyline clip-path="url(#clip740)" style="stroke:#000000; stroke-linecap:round; stroke-linejoin:round; stroke-width:4; stroke-opacity:1; fill:none" points="203.964,1079.86 222.861,1079.86 "/>
<polyline clip-path="url(#clip740)" style="stroke:#000000; stroke-linecap:round; stroke-linejoin:round; stroke-width:4; stroke-opacity:1; fill:none" points="203.964,773.326 222.861,773.326 "/>
<polyline clip-path="url(#clip740)" style="stroke:#000000; stroke-linecap:round; stroke-linejoin:round; stroke-width:4; stroke-opacity:1; fill:none" points="203.964,466.791 222.861,466.791 "/>
<polyline clip-path="url(#clip740)" style="stroke:#000000; stroke-linecap:round; stroke-linejoin:round; stroke-width:4; stroke-opacity:1; fill:none" points="203.964,160.256 222.861,160.256 "/>
<path clip-path="url(#clip740)" d="M156.019 1372.19 Q152.408 1372.19 150.579 1375.76 Q148.774 1379.3 148.774 1386.43 Q148.774 1393.54 150.579 1397.1 Q152.408 1400.64 156.019 1400.64 Q159.653 1400.64 161.459 1397.1 Q163.288 1393.54 163.288 1386.43 Q163.288 1379.3 161.459 1375.76 Q159.653 1372.19 156.019 1372.19 M156.019 1368.49 Q161.829 1368.49 164.885 1373.1 Q167.964 1377.68 167.964 1386.43 Q167.964 1395.16 164.885 1399.76 Q161.829 1404.35 156.019 1404.35 Q150.209 1404.35 147.13 1399.76 Q144.075 1395.16 144.075 1386.43 Q144.075 1377.68 147.13 1373.1 Q150.209 1368.49 156.019 1368.49 Z" fill="#000000" fill-rule="nonzero" fill-opacity="1" /><path clip-path="url(#clip740)" d="M147.061 1062.58 L165.417 1062.58 L165.417 1066.52 L151.343 1066.52 L151.343 1074.99 Q152.362 1074.64 153.38 1074.48 Q154.399 1074.29 155.417 1074.29 Q161.204 1074.29 164.584 1077.47 Q167.964 1080.64 167.964 1086.05 Q167.964 1091.63 164.491 1094.73 Q161.019 1097.81 154.7 1097.81 Q152.524 1097.81 150.255 1097.44 Q148.01 1097.07 145.603 1096.33 L145.603 1091.63 Q147.686 1092.77 149.908 1093.32 Q152.13 1093.88 154.607 1093.88 Q158.612 1093.88 160.95 1091.77 Q163.288 1089.66 163.288 1086.05 Q163.288 1082.44 160.95 1080.34 Q158.612 1078.23 154.607 1078.23 Q152.732 1078.23 150.857 1078.65 Q149.005 1079.06 147.061 1079.94 L147.061 1062.58 Z" fill="#000000" fill-rule="nonzero" fill-opacity="1" /><path clip-path="url(#clip740)" d="M116.668 786.671 L124.306 786.671 L124.306 760.305 L115.996 761.972 L115.996 757.713 L124.26 756.046 L128.936 756.046 L128.936 786.671 L136.575 786.671 L136.575 790.606 L116.668 790.606 L116.668 786.671 Z" fill="#000000" fill-rule="nonzero" fill-opacity="1" /><path clip-path="url(#clip740)" d="M156.019 759.125 Q152.408 759.125 150.579 762.689 Q148.774 766.231 148.774 773.361 Q148.774 780.467 150.579 784.032 Q152.408 787.574 156.019 787.574 Q159.653 787.574 161.459 784.032 Q163.288 780.467 163.288 773.361 Q163.288 766.231 161.459 762.689 Q159.653 759.125 156.019 759.125 M156.019 755.421 Q161.829 755.421 164.885 760.027 Q167.964 764.611 167.964 773.361 Q167.964 782.088 164.885 786.694 Q161.829 791.277 156.019 791.277 Q150.209 791.277 147.13 786.694 Q144.075 782.088 144.075 773.361 Q144.075 764.611 147.13 760.027 Q150.209 755.421 156.019 755.421 Z" fill="#000000" fill-rule="nonzero" fill-opacity="1" /><path clip-path="url(#clip740)" d="M117.663 480.136 L125.302 480.136 L125.302 453.77 L116.992 455.437 L116.992 451.178 L125.255 449.511 L129.931 449.511 L129.931 480.136 L137.57 480.136 L137.57 484.071 L117.663 484.071 L117.663 480.136 Z" fill="#000000" fill-rule="nonzero" fill-opacity="1" /><path clip-path="url(#clip740)" d="M147.061 449.511 L165.417 449.511 L165.417 453.446 L151.343 453.446 L151.343 461.918 Q152.362 461.571 153.38 461.409 Q154.399 461.224 155.417 461.224 Q161.204 461.224 164.584 464.395 Q167.964 467.567 167.964 472.983 Q167.964 478.562 164.491 481.664 Q161.019 484.742 154.7 484.742 Q152.524 484.742 150.255 484.372 Q148.01 484.002 145.603 483.261 L145.603 478.562 Q147.686 479.696 149.908 480.252 Q152.13 480.807 154.607 480.807 Q158.612 480.807 160.95 478.701 Q163.288 476.594 163.288 472.983 Q163.288 469.372 160.95 467.266 Q158.612 465.159 154.607 465.159 Q152.732 465.159 150.857 465.576 Q149.005 465.993 147.061 466.872 L147.061 449.511 Z" fill="#000000" fill-rule="nonzero" fill-opacity="1" /><path clip-path="url(#clip740)" d="M119.885 173.601 L136.204 173.601 L136.204 177.536 L114.26 177.536 L114.26 173.601 Q116.922 170.847 121.505 166.217 Q126.112 161.564 127.292 160.222 Q129.538 157.698 130.417 155.962 Q131.32 154.203 131.32 152.513 Q131.32 149.759 129.376 148.023 Q127.455 146.286 124.353 146.286 Q122.154 146.286 119.7 147.05 Q117.269 147.814 114.492 149.365 L114.492 144.643 Q117.316 143.509 119.769 142.93 Q122.223 142.351 124.26 142.351 Q129.63 142.351 132.825 145.036 Q136.019 147.722 136.019 152.212 Q136.019 154.342 135.209 156.263 Q134.422 158.161 132.316 160.754 Q131.737 161.425 128.635 164.643 Q125.533 167.837 119.885 173.601 Z" fill="#000000" fill-rule="nonzero" fill-opacity="1" /><path clip-path="url(#clip740)" d="M156.019 146.055 Q152.408 146.055 150.579 149.62 Q148.774 153.161 148.774 160.291 Q148.774 167.397 150.579 170.962 Q152.408 174.504 156.019 174.504 Q159.653 174.504 161.459 170.962 Q163.288 167.397 163.288 160.291 Q163.288 153.161 161.459 149.62 Q159.653 146.055 156.019 146.055 M156.019 142.351 Q161.829 142.351 164.885 146.958 Q167.964 151.541 167.964 160.291 Q167.964 169.018 164.885 173.624 Q161.829 178.208 156.019 178.208 Q150.209 178.208 147.13 173.624 Q144.075 169.018 144.075 160.291 Q144.075 151.541 147.13 146.958 Q150.209 142.351 156.019 142.351 Z" fill="#000000" fill-rule="nonzero" fill-opacity="1" /><path clip-path="url(#clip740)" d="M16.4842 1154.42 L16.4842 1144.84 L48.8219 1132.72 L16.4842 1120.53 L16.4842 1110.95 L64.0042 1110.95 L64.0042 1117.22 L22.277 1117.22 L54.8694 1129.47 L54.8694 1135.93 L22.277 1148.19 L64.0042 1148.19 L64.0042 1154.42 L16.4842 1154.42 Z" fill="#000000" fill-rule="nonzero" fill-opacity="1" /><path clip-path="url(#clip740)" d="M46.0847 1082.24 Q46.0847 1089.34 47.7079 1092.07 Q49.3312 1094.81 53.2461 1094.81 Q56.3653 1094.81 58.2114 1092.77 Q60.0256 1090.7 60.0256 1087.17 Q60.0256 1082.3 56.5881 1079.37 Q53.1188 1076.41 47.3897 1076.41 L46.0847 1076.41 L46.0847 1082.24 M43.6657 1070.56 L64.0042 1070.56 L64.0042 1076.41 L58.5933 1076.41 Q61.8398 1078.42 63.3994 1081.41 Q64.9272 1084.4 64.9272 1088.73 Q64.9272 1094.21 61.8716 1097.45 Q58.7843 1100.67 53.6281 1100.67 Q47.6125 1100.67 44.5569 1096.66 Q41.5014 1092.61 41.5014 1084.62 L41.5014 1076.41 L40.9285 1076.41 Q36.8862 1076.41 34.6901 1079.09 Q32.4621 1081.73 32.4621 1086.53 Q32.4621 1089.59 33.1941 1092.49 Q33.9262 1095.38 35.3903 1098.06 L29.9795 1098.06 Q28.7381 1094.84 28.1334 1091.82 Q27.4968 1088.79 27.4968 1085.93 Q27.4968 1078.2 31.5072 1074.38 Q35.5176 1070.56 43.6657 1070.56 Z" fill="#000000" fill-rule="nonzero" fill-opacity="1" /><path clip-path="url(#clip740)" d="M28.3562 1028.86 L45.7028 1041.75 L64.0042 1028.19 L64.0042 1035.1 L49.9996 1045.48 L64.0042 1055.85 L64.0042 1062.76 L45.3526 1048.91 L28.3562 1061.58 L28.3562 1054.67 L41.0558 1045.22 L28.3562 1035.77 L28.3562 1028.86 Z" fill="#000000" fill-rule="nonzero" fill-opacity="1" /><path clip-path="url(#clip740)" d="M28.3562 1019.92 L28.3562 1014.06 L64.0042 1014.06 L64.0042 1019.92 L28.3562 1019.92 M14.479 1019.92 L14.479 1014.06 L21.895 1014.06 L21.895 1019.92 L14.479 1019.92 Z" fill="#000000" fill-rule="nonzero" fill-opacity="1" /><path clip-path="url(#clip740)" d="M35.1993 974.053 Q31.2526 971.856 29.3747 968.801 Q27.4968 965.745 27.4968 961.608 Q27.4968 956.038 31.4117 953.014 Q35.2948 949.99 42.4881 949.99 L64.0042 949.99 L64.0042 955.879 L42.679 955.879 Q37.5546 955.879 35.072 957.693 Q32.5894 959.507 32.5894 963.231 Q32.5894 967.782 35.6131 970.424 Q38.6368 973.066 43.8567 973.066 L64.0042 973.066 L64.0042 978.954 L42.679 978.954 Q37.5228 978.954 35.072 980.768 Q32.5894 982.583 32.5894 986.37 Q32.5894 990.858 35.6449 993.5 Q38.6686 996.142 43.8567 996.142 L64.0042 996.142 L64.0042 1002.03 L28.3562 1002.03 L28.3562 996.142 L33.8944 996.142 Q30.616 994.136 29.0564 991.336 Q27.4968 988.535 27.4968 984.683 Q27.4968 980.8 29.4702 978.095 Q31.4436 975.358 35.1993 974.053 Z" fill="#000000" fill-rule="nonzero" fill-opacity="1" /><path clip-path="url(#clip740)" d="M49.9359 938.914 L28.3562 938.914 L28.3562 933.057 L49.7131 933.057 Q54.7739 933.057 57.3202 931.084 Q59.8346 929.111 59.8346 925.164 Q59.8346 920.422 56.8109 917.684 Q53.7872 914.915 48.5673 914.915 L28.3562 914.915 L28.3562 909.059 L64.0042 909.059 L64.0042 914.915 L58.5296 914.915 Q61.7762 917.048 63.3676 919.88 Q64.9272 922.681 64.9272 926.405 Q64.9272 932.548 61.1078 935.731 Q57.2883 938.914 49.9359 938.914 M27.4968 924.177 L27.4968 924.177 Z" fill="#000000" fill-rule="nonzero" fill-opacity="1" /><path clip-path="url(#clip740)" d="M35.1993 869.241 Q31.2526 867.045 29.3747 863.99 Q27.4968 860.934 27.4968 856.796 Q27.4968 851.226 31.4117 848.203 Q35.2948 845.179 42.4881 845.179 L64.0042 845.179 L64.0042 851.067 L42.679 851.067 Q37.5546 851.067 35.072 852.881 Q32.5894 854.696 32.5894 858.42 Q32.5894 862.971 35.6131 865.613 Q38.6368 868.255 43.8567 868.255 L64.0042 868.255 L64.0042 874.143 L42.679 874.143 Q37.5228 874.143 35.072 875.957 Q32.5894 877.771 32.5894 881.559 Q32.5894 886.047 35.6449 888.689 Q38.6686 891.33 43.8567 891.33 L64.0042 891.33 L64.0042 897.219 L28.3562 897.219 L28.3562 891.33 L33.8944 891.33 Q30.616 889.325 29.0564 886.524 Q27.4968 883.723 27.4968 879.872 Q27.4968 875.989 29.4702 873.283 Q31.4436 870.546 35.1993 869.241 Z" fill="#000000" fill-rule="nonzero" fill-opacity="1" /><path clip-path="url(#clip740)" d="M28.3562 812.777 L28.3562 806.921 L64.0042 806.921 L64.0042 812.777 L28.3562 812.777 M14.479 812.777 L14.479 806.921 L21.895 806.921 L21.895 812.777 L14.479 812.777 Z" fill="#000000" fill-rule="nonzero" fill-opacity="1" /><path clip-path="url(#clip740)" d="M42.4881 765.035 L64.0042 765.035 L64.0042 770.891 L42.679 770.891 Q37.6183 770.891 35.1038 772.864 Q32.5894 774.838 32.5894 778.785 Q32.5894 783.527 35.6131 786.264 Q38.6368 789.002 43.8567 789.002 L64.0042 789.002 L64.0042 794.89 L28.3562 794.89 L28.3562 789.002 L33.8944 789.002 Q30.6797 786.901 29.0883 784.068 Q27.4968 781.204 27.4968 777.48 Q27.4968 771.337 31.3163 768.186 Q35.1038 765.035 42.4881 765.035 Z" fill="#000000" fill-rule="nonzero" fill-opacity="1" /><path clip-path="url(#clip740)" d="M14.479 735.307 L19.3487 735.307 L19.3487 740.909 Q19.3487 744.06 20.6219 745.301 Q21.895 746.51 25.2052 746.51 L28.3562 746.51 L28.3562 736.866 L32.9077 736.866 L32.9077 746.51 L64.0042 746.51 L64.0042 752.399 L32.9077 752.399 L32.9077 758.001 L28.3562 758.001 L28.3562 752.399 L25.8736 752.399 Q19.9216 752.399 17.2162 749.63 Q14.479 746.861 14.479 740.845 L14.479 735.307 Z" fill="#000000" fill-rule="nonzero" fill-opacity="1" /><path clip-path="url(#clip740)" d="M14.479 730.405 L14.479 724.549 L64.0042 724.549 L64.0042 730.405 L14.479 730.405 Z" fill="#000000" fill-rule="nonzero" fill-opacity="1" /><path clip-path="url(#clip740)" d="M46.0847 696.094 Q46.0847 703.192 47.7079 705.929 Q49.3312 708.666 53.2461 708.666 Q56.3653 708.666 58.2114 706.629 Q60.0256 704.56 60.0256 701.027 Q60.0256 696.158 56.5881 693.229 Q53.1188 690.269 47.3897 690.269 L46.0847 690.269 L46.0847 696.094 M43.6657 684.413 L64.0042 684.413 L64.0042 690.269 L58.5933 690.269 Q61.8398 692.275 63.3994 695.267 Q64.9272 698.258 64.9272 702.587 Q64.9272 708.062 61.8716 711.308 Q58.7843 714.523 53.6281 714.523 Q47.6125 714.523 44.5569 710.512 Q41.5014 706.47 41.5014 698.481 L41.5014 690.269 L40.9285 690.269 Q36.8862 690.269 34.6901 692.943 Q32.4621 695.585 32.4621 700.391 Q32.4621 703.446 33.1941 706.343 Q33.9262 709.239 35.3903 711.913 L29.9795 711.913 Q28.7381 708.698 28.1334 705.674 Q27.4968 702.651 27.4968 699.786 Q27.4968 692.052 31.5072 688.232 Q35.5176 684.413 43.6657 684.413 Z" fill="#000000" fill-rule="nonzero" fill-opacity="1" /><path clip-path="url(#clip740)" d="M35.1993 644.595 Q31.2526 642.399 29.3747 639.344 Q27.4968 636.288 27.4968 632.151 Q27.4968 626.581 31.4117 623.557 Q35.2948 620.533 42.4881 620.533 L64.0042 620.533 L64.0042 626.421 L42.679 626.421 Q37.5546 626.421 35.072 628.236 Q32.5894 630.05 32.5894 633.774 Q32.5894 638.325 35.6131 640.967 Q38.6368 643.609 43.8567 643.609 L64.0042 643.609 L64.0042 649.497 L42.679 649.497 Q37.5228 649.497 35.072 651.311 Q32.5894 653.126 32.5894 656.913 Q32.5894 661.401 35.6449 664.043 Q38.6686 666.684 43.8567 666.684 L64.0042 666.684 L64.0042 672.573 L28.3562 672.573 L28.3562 666.684 L33.8944 666.684 Q30.616 664.679 29.0564 661.878 Q27.4968 659.077 27.4968 655.226 Q27.4968 651.343 29.4702 648.638 Q31.4436 645.9 35.1993 644.595 Z" fill="#000000" fill-rule="nonzero" fill-opacity="1" /><path clip-path="url(#clip740)" d="M35.1993 581.098 Q31.2526 578.901 29.3747 575.846 Q27.4968 572.79 27.4968 568.653 Q27.4968 563.083 31.4117 560.059 Q35.2948 557.035 42.4881 557.035 L64.0042 557.035 L64.0042 562.923 L42.679 562.923 Q37.5546 562.923 35.072 564.738 Q32.5894 566.552 32.5894 570.276 Q32.5894 574.827 35.6131 577.469 Q38.6368 580.111 43.8567 580.111 L64.0042 580.111 L64.0042 585.999 L42.679 585.999 Q37.5228 585.999 35.072 587.813 Q32.5894 589.628 32.5894 593.415 Q32.5894 597.903 35.6449 600.545 Q38.6686 603.187 43.8567 603.187 L64.0042 603.187 L64.0042 609.075 L28.3562 609.075 L28.3562 603.187 L33.8944 603.187 Q30.616 601.181 29.0564 598.38 Q27.4968 595.58 27.4968 591.728 Q27.4968 587.845 29.4702 585.14 Q31.4436 582.403 35.1993 581.098 Z" fill="#000000" fill-rule="nonzero" fill-opacity="1" /><path clip-path="url(#clip740)" d="M46.0847 529.153 Q46.0847 536.251 47.7079 538.988 Q49.3312 541.726 53.2461 541.726 Q56.3653 541.726 58.2114 539.689 Q60.0256 537.62 60.0256 534.087 Q60.0256 529.217 56.5881 526.289 Q53.1188 523.329 47.3897 523.329 L46.0847 523.329 L46.0847 529.153 M43.6657 517.472 L64.0042 517.472 L64.0042 523.329 L58.5933 523.329 Q61.8398 525.334 63.3994 528.326 Q64.9272 531.318 64.9272 535.646 Q64.9272 541.121 61.8716 544.367 Q58.7843 547.582 53.6281 547.582 Q47.6125 547.582 44.5569 543.572 Q41.5014 539.529 41.5014 531.541 L41.5014 523.329 L40.9285 523.329 Q36.8862 523.329 34.6901 526.002 Q32.4621 528.644 32.4621 533.45 Q32.4621 536.506 33.1941 539.402 Q33.9262 542.299 35.3903 544.972 L29.9795 544.972 Q28.7381 541.757 28.1334 538.734 Q27.4968 535.71 27.4968 532.846 Q27.4968 525.111 31.5072 521.292 Q35.5176 517.472 43.6657 517.472 Z" fill="#000000" fill-rule="nonzero" fill-opacity="1" /><path clip-path="url(#clip740)" d="M18.2347 499.617 L28.3562 499.617 L28.3562 487.553 L32.9077 487.553 L32.9077 499.617 L52.2594 499.617 Q56.6199 499.617 57.8613 498.439 Q59.1026 497.229 59.1026 493.569 L59.1026 487.553 L64.0042 487.553 L64.0042 493.569 Q64.0042 500.349 61.4897 502.927 Q58.9434 505.505 52.2594 505.505 L32.9077 505.505 L32.9077 509.802 L28.3562 509.802 L28.3562 505.505 L18.2347 505.505 L18.2347 499.617 Z" fill="#000000" fill-rule="nonzero" fill-opacity="1" /><path clip-path="url(#clip740)" d="M28.3562 479.851 L28.3562 473.995 L64.0042 473.995 L64.0042 479.851 L28.3562 479.851 M14.479 479.851 L14.479 473.995 L21.895 473.995 L21.895 479.851 L14.479 479.851 Z" fill="#000000" fill-rule="nonzero" fill-opacity="1" /><path clip-path="url(#clip740)" d="M32.4621 447.927 Q32.4621 452.638 36.1542 455.375 Q39.8145 458.112 46.212 458.112 Q52.6095 458.112 56.3017 455.407 Q59.9619 452.669 59.9619 447.927 Q59.9619 443.248 56.2698 440.511 Q52.5777 437.774 46.212 437.774 Q39.8781 437.774 36.186 440.511 Q32.4621 443.248 32.4621 447.927 M27.4968 447.927 Q27.4968 440.288 32.4621 435.928 Q37.4273 431.567 46.212 431.567 Q54.9649 431.567 59.9619 435.928 Q64.9272 440.288 64.9272 447.927 Q64.9272 455.598 59.9619 459.958 Q54.9649 464.287 46.212 464.287 Q37.4273 464.287 32.4621 459.958 Q27.4968 455.598 27.4968 447.927 Z" fill="#000000" fill-rule="nonzero" fill-opacity="1" /><path clip-path="url(#clip740)" d="M42.4881 392.227 L64.0042 392.227 L64.0042 398.083 L42.679 398.083 Q37.6183 398.083 35.1038 400.057 Q32.5894 402.03 32.5894 405.977 Q32.5894 410.719 35.6131 413.457 Q38.6368 416.194 43.8567 416.194 L64.0042 416.194 L64.0042 422.082 L28.3562 422.082 L28.3562 416.194 L33.8944 416.194 Q30.6797 414.093 29.0883 411.261 Q27.4968 408.396 27.4968 404.672 Q27.4968 398.529 31.3163 395.378 Q35.1038 392.227 42.4881 392.227 Z" fill="#000000" fill-rule="nonzero" fill-opacity="1" /><path clip-path="url(#clip740)" d="M579.417 12.096 L591.61 12.096 L607.044 53.2532 L622.559 12.096 L634.752 12.096 L634.752 72.576 L626.772 72.576 L626.772 19.4686 L611.176 60.9499 L602.952 60.9499 L587.356 19.4686 L587.356 72.576 L579.417 72.576 L579.417 12.096 Z" fill="#000000" fill-rule="nonzero" fill-opacity="1" /><path clip-path="url(#clip740)" d="M671.291 49.7694 Q662.258 49.7694 658.774 51.8354 Q655.29 53.9013 655.29 58.8839 Q655.29 62.8538 657.883 65.2034 Q660.516 67.5124 665.012 67.5124 Q671.21 67.5124 674.937 63.1374 Q678.704 58.7219 678.704 51.4303 L678.704 49.7694 L671.291 49.7694 M686.158 46.6907 L686.158 72.576 L678.704 72.576 L678.704 65.6895 Q676.152 69.8214 672.344 71.8063 Q668.537 73.7508 663.027 73.7508 Q656.06 73.7508 651.928 69.8619 Q647.836 65.9325 647.836 59.3701 Q647.836 51.7138 652.941 47.825 Q658.085 43.9361 668.253 43.9361 L678.704 43.9361 L678.704 43.2069 Q678.704 38.0623 675.302 35.2672 Q671.939 32.4315 665.823 32.4315 Q661.934 32.4315 658.247 33.3632 Q654.561 34.295 651.158 36.1584 L651.158 29.2718 Q655.25 27.692 659.098 26.9223 Q662.946 26.1121 666.592 26.1121 Q676.436 26.1121 681.297 31.2163 Q686.158 36.3204 686.158 46.6907 Z" fill="#000000" fill-rule="nonzero" fill-opacity="1" /><path clip-path="url(#clip740)" d="M739.225 27.2059 L722.819 49.2833 L740.076 72.576 L731.285 72.576 L718.079 54.752 L704.873 72.576 L696.083 72.576 L713.704 48.8377 L697.582 27.2059 L706.372 27.2059 L718.403 43.369 L730.434 27.2059 L739.225 27.2059 Z" fill="#000000" fill-rule="nonzero" fill-opacity="1" /><path clip-path="url(#clip740)" d="M750.608 27.2059 L758.062 27.2059 L758.062 72.576 L750.608 72.576 L750.608 27.2059 M750.608 9.54393 L758.062 9.54393 L758.062 18.9825 L750.608 18.9825 L750.608 9.54393 Z" fill="#000000" fill-rule="nonzero" fill-opacity="1" /><path clip-path="url(#clip740)" d="M808.981 35.9153 Q811.777 30.8922 815.665 28.5022 Q819.554 26.1121 824.821 26.1121 Q831.91 26.1121 835.758 31.0947 Q839.606 36.0368 839.606 45.1919 L839.606 72.576 L832.112 72.576 L832.112 45.4349 Q832.112 38.913 829.803 35.7533 Q827.494 32.5936 822.755 32.5936 Q816.962 32.5936 813.599 36.4419 Q810.237 40.2903 810.237 46.9338 L810.237 72.576 L802.743 72.576 L802.743 45.4349 Q802.743 38.8725 800.434 35.7533 Q798.125 32.5936 793.304 32.5936 Q787.593 32.5936 784.23 36.4824 Q780.868 40.3308 780.868 46.9338 L780.868 72.576 L773.374 72.576 L773.374 27.2059 L780.868 27.2059 L780.868 34.2544 Q783.42 30.082 786.985 28.0971 Q790.55 26.1121 795.451 26.1121 Q800.394 26.1121 803.837 28.6237 Q807.321 31.1352 808.981 35.9153 Z" fill="#000000" fill-rule="nonzero" fill-opacity="1" /><path clip-path="url(#clip740)" d="M853.703 54.671 L853.703 27.2059 L861.157 27.2059 L861.157 54.3874 Q861.157 60.8284 863.669 64.0691 Q866.18 67.2693 871.203 67.2693 Q877.239 67.2693 880.723 63.421 Q884.247 59.5726 884.247 52.9291 L884.247 27.2059 L891.701 27.2059 L891.701 72.576 L884.247 72.576 L884.247 65.6084 Q881.533 69.7404 877.928 71.7658 Q874.363 73.7508 869.624 73.7508 Q861.805 73.7508 857.754 68.8897 Q853.703 64.0286 853.703 54.671 M872.459 26.1121 L872.459 26.1121 Z" fill="#000000" fill-rule="nonzero" fill-opacity="1" /><path clip-path="url(#clip740)" d="M942.378 35.9153 Q945.173 30.8922 949.062 28.5022 Q952.951 26.1121 958.217 26.1121 Q965.306 26.1121 969.154 31.0947 Q973.003 36.0368 973.003 45.1919 L973.003 72.576 L965.508 72.576 L965.508 45.4349 Q965.508 38.913 963.199 35.7533 Q960.89 32.5936 956.151 32.5936 Q950.358 32.5936 946.996 36.4419 Q943.634 40.2903 943.634 46.9338 L943.634 72.576 L936.139 72.576 L936.139 45.4349 Q936.139 38.8725 933.83 35.7533 Q931.521 32.5936 926.701 32.5936 Q920.989 32.5936 917.627 36.4824 Q914.264 40.3308 914.264 46.9338 L914.264 72.576 L906.77 72.576 L906.77 27.2059 L914.264 27.2059 L914.264 34.2544 Q916.817 30.082 920.381 28.0971 Q923.946 26.1121 928.848 26.1121 Q933.79 26.1121 937.233 28.6237 Q940.717 31.1352 942.378 35.9153 Z" fill="#000000" fill-rule="nonzero" fill-opacity="1" /><path clip-path="url(#clip740)" d="M1014.24 27.2059 L1021.69 27.2059 L1021.69 72.576 L1014.24 72.576 L1014.24 27.2059 M1014.24 9.54393 L1021.69 9.54393 L1021.69 18.9825 L1014.24 18.9825 L1014.24 9.54393 Z" fill="#000000" fill-rule="nonzero" fill-opacity="1" /><path clip-path="url(#clip740)" d="M1075 45.1919 L1075 72.576 L1067.55 72.576 L1067.55 45.4349 Q1067.55 38.994 1065.04 35.7938 Q1062.53 32.5936 1057.5 32.5936 Q1051.47 32.5936 1047.98 36.4419 Q1044.5 40.2903 1044.5 46.9338 L1044.5 72.576 L1037.01 72.576 L1037.01 27.2059 L1044.5 27.2059 L1044.5 34.2544 Q1047.17 30.163 1050.78 28.1376 Q1054.43 26.1121 1059.17 26.1121 Q1066.98 26.1121 1070.99 30.9732 Q1075 35.7938 1075 45.1919 Z" fill="#000000" fill-rule="nonzero" fill-opacity="1" /><path clip-path="url(#clip740)" d="M1112.84 9.54393 L1112.84 15.7418 L1105.71 15.7418 Q1101.7 15.7418 1100.12 17.3622 Q1098.58 18.9825 1098.58 23.1955 L1098.58 27.2059 L1110.85 27.2059 L1110.85 32.9987 L1098.58 32.9987 L1098.58 72.576 L1091.09 72.576 L1091.09 32.9987 L1083.96 32.9987 L1083.96 27.2059 L1091.09 27.2059 L1091.09 24.0462 Q1091.09 16.471 1094.61 13.0277 Q1098.14 9.54393 1105.79 9.54393 L1112.84 9.54393 Z" fill="#000000" fill-rule="nonzero" fill-opacity="1" /><path clip-path="url(#clip740)" d="M1119.08 9.54393 L1126.53 9.54393 L1126.53 72.576 L1119.08 72.576 L1119.08 9.54393 Z" fill="#000000" fill-rule="nonzero" fill-opacity="1" /><path clip-path="url(#clip740)" d="M1162.75 49.7694 Q1153.71 49.7694 1150.23 51.8354 Q1146.75 53.9013 1146.75 58.8839 Q1146.75 62.8538 1149.34 65.2034 Q1151.97 67.5124 1156.47 67.5124 Q1162.67 67.5124 1166.39 63.1374 Q1170.16 58.7219 1170.16 51.4303 L1170.16 49.7694 L1162.75 49.7694 M1177.61 46.6907 L1177.61 72.576 L1170.16 72.576 L1170.16 65.6895 Q1167.61 69.8214 1163.8 71.8063 Q1159.99 73.7508 1154.48 73.7508 Q1147.52 73.7508 1143.38 69.8619 Q1139.29 65.9325 1139.29 59.3701 Q1139.29 51.7138 1144.4 47.825 Q1149.54 43.9361 1159.71 43.9361 L1170.16 43.9361 L1170.16 43.2069 Q1170.16 38.0623 1166.76 35.2672 Q1163.4 32.4315 1157.28 32.4315 Q1153.39 32.4315 1149.7 33.3632 Q1146.02 34.295 1142.61 36.1584 L1142.61 29.2718 Q1146.71 27.692 1150.55 26.9223 Q1154.4 26.1121 1158.05 26.1121 Q1167.89 26.1121 1172.75 31.2163 Q1177.61 36.3204 1177.61 46.6907 Z" fill="#000000" fill-rule="nonzero" fill-opacity="1" /><path clip-path="url(#clip740)" d="M1228.29 35.9153 Q1231.09 30.8922 1234.97 28.5022 Q1238.86 26.1121 1244.13 26.1121 Q1251.22 26.1121 1255.07 31.0947 Q1258.92 36.0368 1258.92 45.1919 L1258.92 72.576 L1251.42 72.576 L1251.42 45.4349 Q1251.42 38.913 1249.11 35.7533 Q1246.8 32.5936 1242.06 32.5936 Q1236.27 32.5936 1232.91 36.4419 Q1229.55 40.2903 1229.55 46.9338 L1229.55 72.576 L1222.05 72.576 L1222.05 45.4349 Q1222.05 38.8725 1219.74 35.7533 Q1217.43 32.5936 1212.61 32.5936 Q1206.9 32.5936 1203.54 36.4824 Q1200.18 40.3308 1200.18 46.9338 L1200.18 72.576 L1192.68 72.576 L1192.68 27.2059 L1200.18 27.2059 L1200.18 34.2544 Q1202.73 30.082 1206.29 28.0971 Q1209.86 26.1121 1214.76 26.1121 Q1219.7 26.1121 1223.15 28.6237 Q1226.63 31.1352 1228.29 35.9153 Z" fill="#000000" fill-rule="nonzero" fill-opacity="1" /><path clip-path="url(#clip740)" d="M1309.11 35.9153 Q1311.9 30.8922 1315.79 28.5022 Q1319.68 26.1121 1324.95 26.1121 Q1332.03 26.1121 1335.88 31.0947 Q1339.73 36.0368 1339.73 45.1919 L1339.73 72.576 L1332.24 72.576 L1332.24 45.4349 Q1332.24 38.913 1329.93 35.7533 Q1327.62 32.5936 1322.88 32.5936 Q1317.09 32.5936 1313.72 36.4419 Q1310.36 40.2903 1310.36 46.9338 L1310.36 72.576 L1302.87 72.576 L1302.87 45.4349 Q1302.87 38.8725 1300.56 35.7533 Q1298.25 32.5936 1293.43 32.5936 Q1287.72 32.5936 1284.36 36.4824 Q1280.99 40.3308 1280.99 46.9338 L1280.99 72.576 L1273.5 72.576 L1273.5 27.2059 L1280.99 27.2059 L1280.99 34.2544 Q1283.54 30.082 1287.11 28.0971 Q1290.67 26.1121 1295.58 26.1121 Q1300.52 26.1121 1303.96 28.6237 Q1307.45 31.1352 1309.11 35.9153 Z" fill="#000000" fill-rule="nonzero" fill-opacity="1" /><path clip-path="url(#clip740)" d="M1375.22 49.7694 Q1366.18 49.7694 1362.7 51.8354 Q1359.22 53.9013 1359.22 58.8839 Q1359.22 62.8538 1361.81 65.2034 Q1364.44 67.5124 1368.94 67.5124 Q1375.14 67.5124 1378.86 63.1374 Q1382.63 58.7219 1382.63 51.4303 L1382.63 49.7694 L1375.22 49.7694 M1390.08 46.6907 L1390.08 72.576 L1382.63 72.576 L1382.63 65.6895 Q1380.08 69.8214 1376.27 71.8063 Q1372.46 73.7508 1366.95 73.7508 Q1359.99 73.7508 1355.85 69.8619 Q1351.76 65.9325 1351.76 59.3701 Q1351.76 51.7138 1356.87 47.825 Q1362.01 43.9361 1372.18 43.9361 L1382.63 43.9361 L1382.63 43.2069 Q1382.63 38.0623 1379.23 35.2672 Q1375.87 32.4315 1369.75 32.4315 Q1365.86 32.4315 1362.17 33.3632 Q1358.49 34.295 1355.08 36.1584 L1355.08 29.2718 Q1359.18 27.692 1363.02 26.9223 Q1366.87 26.1121 1370.52 26.1121 Q1380.36 26.1121 1385.22 31.2163 Q1390.08 36.3204 1390.08 46.6907 Z" fill="#000000" fill-rule="nonzero" fill-opacity="1" /><path clip-path="url(#clip740)" d="M1412.81 14.324 L1412.81 27.2059 L1428.16 27.2059 L1428.16 32.9987 L1412.81 32.9987 L1412.81 57.6282 Q1412.81 63.1779 1414.31 64.7578 Q1415.85 66.3376 1420.51 66.3376 L1428.16 66.3376 L1428.16 72.576 L1420.51 72.576 Q1411.88 72.576 1408.6 69.3758 Q1405.32 66.1351 1405.32 57.6282 L1405.32 32.9987 L1399.85 32.9987 L1399.85 27.2059 L1405.32 27.2059 L1405.32 14.324 L1412.81 14.324 Z" fill="#000000" fill-rule="nonzero" fill-opacity="1" /><path clip-path="url(#clip740)" d="M1437.97 27.2059 L1445.42 27.2059 L1445.42 72.576 L1437.97 72.576 L1437.97 27.2059 M1437.97 9.54393 L1445.42 9.54393 L1445.42 18.9825 L1437.97 18.9825 L1437.97 9.54393 Z" fill="#000000" fill-rule="nonzero" fill-opacity="1" /><path clip-path="url(#clip740)" d="M1478.6 32.4315 Q1472.6 32.4315 1469.12 37.1306 Q1465.63 41.7891 1465.63 49.9314 Q1465.63 58.0738 1469.08 62.7728 Q1472.56 67.4314 1478.6 67.4314 Q1484.55 67.4314 1488.03 62.7323 Q1491.52 58.0333 1491.52 49.9314 Q1491.52 41.8701 1488.03 37.1711 Q1484.55 32.4315 1478.6 32.4315 M1478.6 26.1121 Q1488.32 26.1121 1493.87 32.4315 Q1499.42 38.7509 1499.42 49.9314 Q1499.42 61.0714 1493.87 67.4314 Q1488.32 73.7508 1478.6 73.7508 Q1468.83 73.7508 1463.28 67.4314 Q1457.77 61.0714 1457.77 49.9314 Q1457.77 38.7509 1463.28 32.4315 Q1468.83 26.1121 1478.6 26.1121 Z" fill="#000000" fill-rule="nonzero" fill-opacity="1" /><path clip-path="url(#clip740)" d="M1549.49 45.1919 L1549.49 72.576 L1542.03 72.576 L1542.03 45.4349 Q1542.03 38.994 1539.52 35.7938 Q1537.01 32.5936 1531.99 32.5936 Q1525.95 32.5936 1522.47 36.4419 Q1518.98 40.2903 1518.98 46.9338 L1518.98 72.576 L1511.49 72.576 L1511.49 27.2059 L1518.98 27.2059 L1518.98 34.2544 Q1521.66 30.163 1525.26 28.1376 Q1528.91 26.1121 1533.65 26.1121 Q1541.47 26.1121 1545.48 30.9732 Q1549.49 35.7938 1549.49 45.1919 Z" fill="#000000" fill-rule="nonzero" fill-opacity="1" /><path clip-path="url(#clip740)" d="M1608.31 32.4315 Q1602.31 32.4315 1598.83 37.1306 Q1595.34 41.7891 1595.34 49.9314 Q1595.34 58.0738 1598.79 62.7728 Q1602.27 67.4314 1608.31 67.4314 Q1614.26 67.4314 1617.74 62.7323 Q1621.23 58.0333 1621.23 49.9314 Q1621.23 41.8701 1617.74 37.1711 Q1614.26 32.4315 1608.31 32.4315 M1608.31 26.1121 Q1618.03 26.1121 1623.58 32.4315 Q1629.13 38.7509 1629.13 49.9314 Q1629.13 61.0714 1623.58 67.4314 Q1618.03 73.7508 1608.31 73.7508 Q1598.54 73.7508 1592.99 67.4314 Q1587.48 61.0714 1587.48 49.9314 Q1587.48 38.7509 1592.99 32.4315 Q1598.54 26.1121 1608.31 26.1121 Z" fill="#000000" fill-rule="nonzero" fill-opacity="1" /><path clip-path="url(#clip740)" d="M1636.14 27.2059 L1644.03 27.2059 L1658.21 65.2844 L1672.39 27.2059 L1680.29 27.2059 L1663.28 72.576 L1653.15 72.576 L1636.14 27.2059 Z" fill="#000000" fill-rule="nonzero" fill-opacity="1" /><path clip-path="url(#clip740)" d="M1729.39 48.0275 L1729.39 51.6733 L1695.12 51.6733 Q1695.6 59.3701 1699.73 63.421 Q1703.91 67.4314 1711.32 67.4314 Q1715.61 67.4314 1719.62 66.3781 Q1723.68 65.3249 1727.65 63.2184 L1727.65 70.267 Q1723.64 71.9684 1719.42 72.8596 Q1715.21 73.7508 1710.87 73.7508 Q1700.02 73.7508 1693.66 67.4314 Q1687.34 61.1119 1687.34 50.3365 Q1687.34 39.1965 1693.33 32.6746 Q1699.37 26.1121 1709.58 26.1121 Q1718.73 26.1121 1724.04 32.0264 Q1729.39 37.9003 1729.39 48.0275 M1721.93 45.84 Q1721.85 39.7232 1718.49 36.0774 Q1715.17 32.4315 1709.66 32.4315 Q1703.42 32.4315 1699.65 35.9558 Q1695.93 39.4801 1695.36 45.8805 L1721.93 45.84 Z" fill="#000000" fill-rule="nonzero" fill-opacity="1" /><path clip-path="url(#clip740)" d="M1767.91 34.1734 Q1766.66 33.4443 1765.16 33.1202 Q1763.7 32.7556 1761.92 32.7556 Q1755.6 32.7556 1752.19 36.8875 Q1748.83 40.9789 1748.83 48.6757 L1748.83 72.576 L1741.34 72.576 L1741.34 27.2059 L1748.83 27.2059 L1748.83 34.2544 Q1751.18 30.1225 1754.95 28.1376 Q1758.72 26.1121 1764.1 26.1121 Q1764.87 26.1121 1765.81 26.2337 Q1766.74 26.3147 1767.87 26.5172 L1767.91 34.1734 Z" fill="#000000" fill-rule="nonzero" fill-opacity="1" /><path clip-path="url(#clip740)" d="M1809.47 14.324 L1809.47 27.2059 L1824.83 27.2059 L1824.83 32.9987 L1809.47 32.9987 L1809.47 57.6282 Q1809.47 63.1779 1810.97 64.7578 Q1812.51 66.3376 1817.17 66.3376 L1824.83 66.3376 L1824.83 72.576 L1817.17 72.576 Q1808.54 72.576 1805.26 69.3758 Q1801.98 66.1351 1801.98 57.6282 L1801.98 32.9987 L1796.51 32.9987 L1796.51 27.2059 L1801.98 27.2059 L1801.98 14.324 L1809.47 14.324 Z" fill="#000000" fill-rule="nonzero" fill-opacity="1" /><path clip-path="url(#clip740)" d="M1834.63 27.2059 L1842.08 27.2059 L1842.08 72.576 L1834.63 72.576 L1834.63 27.2059 M1834.63 9.54393 L1842.08 9.54393 L1842.08 18.9825 L1834.63 18.9825 L1834.63 9.54393 Z" fill="#000000" fill-rule="nonzero" fill-opacity="1" /><path clip-path="url(#clip740)" d="M1893 35.9153 Q1895.8 30.8922 1899.69 28.5022 Q1903.58 26.1121 1908.84 26.1121 Q1915.93 26.1121 1919.78 31.0947 Q1923.63 36.0368 1923.63 45.1919 L1923.63 72.576 L1916.13 72.576 L1916.13 45.4349 Q1916.13 38.913 1913.83 35.7533 Q1911.52 32.5936 1906.78 32.5936 Q1900.98 32.5936 1897.62 36.4419 Q1894.26 40.2903 1894.26 46.9338 L1894.26 72.576 L1886.77 72.576 L1886.77 45.4349 Q1886.77 38.8725 1884.46 35.7533 Q1882.15 32.5936 1877.33 32.5936 Q1871.61 32.5936 1868.25 36.4824 Q1864.89 40.3308 1864.89 46.9338 L1864.89 72.576 L1857.4 72.576 L1857.4 27.2059 L1864.89 27.2059 L1864.89 34.2544 Q1867.44 30.082 1871.01 28.0971 Q1874.57 26.1121 1879.47 26.1121 Q1884.42 26.1121 1887.86 28.6237 Q1891.34 31.1352 1893 35.9153 Z" fill="#000000" fill-rule="nonzero" fill-opacity="1" /><path clip-path="url(#clip740)" d="M1977.3 48.0275 L1977.3 51.6733 L1943.03 51.6733 Q1943.52 59.3701 1947.65 63.421 Q1951.82 67.4314 1959.24 67.4314 Q1963.53 67.4314 1967.54 66.3781 Q1971.59 65.3249 1975.56 63.2184 L1975.56 70.267 Q1971.55 71.9684 1967.34 72.8596 Q1963.12 73.7508 1958.79 73.7508 Q1947.93 73.7508 1941.57 67.4314 Q1935.25 61.1119 1935.25 50.3365 Q1935.25 39.1965 1941.25 32.6746 Q1947.29 26.1121 1957.49 26.1121 Q1966.65 26.1121 1971.96 32.0264 Q1977.3 37.9003 1977.3 48.0275 M1969.85 45.84 Q1969.77 39.7232 1966.41 36.0774 Q1963.08 32.4315 1957.57 32.4315 Q1951.34 32.4315 1947.57 35.9558 Q1943.84 39.4801 1943.28 45.8805 L1969.85 45.84 Z" fill="#000000" fill-rule="nonzero" fill-opacity="1" /><polyline clip-path="url(#clip742)" style="stroke:#009af9; stroke-linecap:round; stroke-linejoin:round; stroke-width:4; stroke-opacity:1; fill:none" points="264.778,1386.4 316.757,1325.09 368.736,1263.78 420.714,1202.47 472.693,1141.17 524.671,1079.86 576.65,1018.55 628.628,957.247 680.607,895.94 732.585,834.633 784.564,773.326 836.542,712.019 888.521,650.712 940.499,589.405 992.478,528.098 1044.46,466.791 1096.43,405.484 1148.41,344.177 1200.39,282.87 1252.37,221.563 1304.35,160.256 1356.33,221.563 1408.31,282.87 1460.28,344.177 1512.26,405.484 1564.24,466.791 1616.22,528.098 1668.2,589.405 1720.18,650.712 1772.16,712.019 1824.13,773.326 1876.11,834.633 1928.09,895.94 1980.07,957.247 2032.05,1018.55 2084.03,1079.86 2136.01,1141.17 2187.98,1202.47 2239.96,1263.78 2291.94,1325.09 "/>
</svg>
