<?xml version="1.0" encoding="utf-8"?>
<svg xmlns="http://www.w3.org/2000/svg" xmlns:xlink="http://www.w3.org/1999/xlink" width="600" height="400" viewBox="0 0 2400 1600">
<defs>
  <clipPath id="clip190">
    <rect x="0" y="0" width="2400" height="1600"/>
  </clipPath>
</defs>
<path clip-path="url(#clip190)" d="M0 1600 L2400 1600 L2400 0 L0 0  Z" fill="#ffffff" fill-rule="evenodd" fill-opacity="1"/>
<defs>
  <clipPath id="clip191">
    <rect x="480" y="0" width="1681" height="1600"/>
  </clipPath>
</defs>
<path clip-path="url(#clip190)" d="M202.227 1423.18 L761.105 1423.18 L761.105 123.472 L202.227 123.472  Z" fill="#ffffff" fill-rule="evenodd" fill-opacity="1"/>
<defs>
  <clipPath id="clip192">
    <rect x="202" y="123" width="560" height="1301"/>
  </clipPath>
</defs>
<polyline clip-path="url(#clip192)" style="stroke:#000000; stroke-linecap:round; stroke-linejoin:round; stroke-width:2; stroke-opacity:0.1; fill:none" points="204.526,1423.18 204.526,123.472 "/>
<polyline clip-path="url(#clip192)" style="stroke:#000000; stroke-linecap:round; stroke-linejoin:round; stroke-width:2; stroke-opacity:0.1; fill:none" points="339.716,1423.18 339.716,123.472 "/>
<polyline clip-path="url(#clip192)" style="stroke:#000000; stroke-linecap:round; stroke-linejoin:round; stroke-width:2; stroke-opacity:0.1; fill:none" points="474.907,1423.18 474.907,123.472 "/>
<polyline clip-path="url(#clip192)" style="stroke:#000000; stroke-linecap:round; stroke-linejoin:round; stroke-width:2; stroke-opacity:0.1; fill:none" points="610.097,1423.18 610.097,123.472 "/>
<polyline clip-path="url(#clip192)" style="stroke:#000000; stroke-linecap:round; stroke-linejoin:round; stroke-width:2; stroke-opacity:0.1; fill:none" points="745.287,1423.18 745.287,123.472 "/>
<polyline clip-path="url(#clip192)" style="stroke:#000000; stroke-linecap:round; stroke-linejoin:round; stroke-width:2; stroke-opacity:0.1; fill:none" points="202.227,1386.4 761.105,1386.4 "/>
<polyline clip-path="url(#clip192)" style="stroke:#000000; stroke-linecap:round; stroke-linejoin:round; stroke-width:2; stroke-opacity:0.1; fill:none" points="202.227,1203.02 761.105,1203.02 "/>
<polyline clip-path="url(#clip192)" style="stroke:#000000; stroke-linecap:round; stroke-linejoin:round; stroke-width:2; stroke-opacity:0.1; fill:none" points="202.227,1019.64 761.105,1019.64 "/>
<polyline clip-path="url(#clip192)" style="stroke:#000000; stroke-linecap:round; stroke-linejoin:round; stroke-width:2; stroke-opacity:0.1; fill:none" points="202.227,836.265 761.105,836.265 "/>
<polyline clip-path="url(#clip192)" style="stroke:#000000; stroke-linecap:round; stroke-linejoin:round; stroke-width:2; stroke-opacity:0.1; fill:none" points="202.227,652.888 761.105,652.888 "/>
<polyline clip-path="url(#clip192)" style="stroke:#000000; stroke-linecap:round; stroke-linejoin:round; stroke-width:2; stroke-opacity:0.1; fill:none" points="202.227,469.511 761.105,469.511 "/>
<polyline clip-path="url(#clip192)" style="stroke:#000000; stroke-linecap:round; stroke-linejoin:round; stroke-width:2; stroke-opacity:0.1; fill:none" points="202.227,286.134 761.105,286.134 "/>
<polyline clip-path="url(#clip190)" style="stroke:#000000; stroke-linecap:round; stroke-linejoin:round; stroke-width:4; stroke-opacity:1; fill:none" points="202.227,1423.18 761.105,1423.18 "/>
<polyline clip-path="url(#clip190)" style="stroke:#000000; stroke-linecap:round; stroke-linejoin:round; stroke-width:4; stroke-opacity:1; fill:none" points="204.526,1423.18 204.526,1404.28 "/>
<polyline clip-path="url(#clip190)" style="stroke:#000000; stroke-linecap:round; stroke-linejoin:round; stroke-width:4; stroke-opacity:1; fill:none" points="339.716,1423.18 339.716,1404.28 "/>
<polyline clip-path="url(#clip190)" style="stroke:#000000; stroke-linecap:round; stroke-linejoin:round; stroke-width:4; stroke-opacity:1; fill:none" points="474.907,1423.18 474.907,1404.28 "/>
<polyline clip-path="url(#clip190)" style="stroke:#000000; stroke-linecap:round; stroke-linejoin:round; stroke-width:4; stroke-opacity:1; fill:none" points="610.097,1423.18 610.097,1404.28 "/>
<polyline clip-path="url(#clip190)" style="stroke:#000000; stroke-linecap:round; stroke-linejoin:round; stroke-width:4; stroke-opacity:1; fill:none" points="745.287,1423.18 745.287,1404.28 "/>
<path clip-path="url(#clip190)" d="M204.526 1454.1 Q200.915 1454.1 199.086 1457.66 Q197.28 1461.2 197.28 1468.33 Q197.28 1475.44 199.086 1479.01 Q200.915 1482.55 204.526 1482.55 Q208.16 1482.55 209.965 1479.01 Q211.794 1475.44 211.794 1468.33 Q211.794 1461.2 209.965 1457.66 Q208.16 1454.1 204.526 1454.1 M204.526 1450.39 Q210.336 1450.39 213.391 1455 Q216.47 1459.58 216.47 1468.33 Q216.47 1477.06 213.391 1481.67 Q210.336 1486.25 204.526 1486.25 Q198.716 1486.25 195.637 1481.67 Q192.581 1477.06 192.581 1468.33 Q192.581 1459.58 195.637 1455 Q198.716 1450.39 204.526 1450.39 Z" fill="#000000" fill-rule="nonzero" fill-opacity="1" /><path clip-path="url(#clip190)" d="M314.404 1481.64 L322.043 1481.64 L322.043 1455.28 L313.732 1456.95 L313.732 1452.69 L321.996 1451.02 L326.672 1451.02 L326.672 1481.64 L334.311 1481.64 L334.311 1485.58 L314.404 1485.58 L314.404 1481.64 Z" fill="#000000" fill-rule="nonzero" fill-opacity="1" /><path clip-path="url(#clip190)" d="M353.755 1454.1 Q350.144 1454.1 348.316 1457.66 Q346.51 1461.2 346.51 1468.33 Q346.51 1475.44 348.316 1479.01 Q350.144 1482.55 353.755 1482.55 Q357.39 1482.55 359.195 1479.01 Q361.024 1475.44 361.024 1468.33 Q361.024 1461.2 359.195 1457.66 Q357.39 1454.1 353.755 1454.1 M353.755 1450.39 Q359.566 1450.39 362.621 1455 Q365.7 1459.58 365.7 1468.33 Q365.7 1477.06 362.621 1481.67 Q359.566 1486.25 353.755 1486.25 Q347.945 1486.25 344.867 1481.67 Q341.811 1477.06 341.811 1468.33 Q341.811 1459.58 344.867 1455 Q347.945 1450.39 353.755 1450.39 Z" fill="#000000" fill-rule="nonzero" fill-opacity="1" /><path clip-path="url(#clip190)" d="M453.68 1481.64 L469.999 1481.64 L469.999 1485.58 L448.055 1485.58 L448.055 1481.64 Q450.717 1478.89 455.3 1474.26 Q459.907 1469.61 461.087 1468.27 Q463.333 1465.74 464.212 1464.01 Q465.115 1462.25 465.115 1460.56 Q465.115 1457.8 463.17 1456.07 Q461.249 1454.33 458.147 1454.33 Q455.948 1454.33 453.495 1455.09 Q451.064 1455.86 448.286 1457.41 L448.286 1452.69 Q451.11 1451.55 453.564 1450.97 Q456.018 1450.39 458.055 1450.39 Q463.425 1450.39 466.62 1453.08 Q469.814 1455.77 469.814 1460.26 Q469.814 1462.39 469.004 1464.31 Q468.217 1466.2 466.11 1468.8 Q465.532 1469.47 462.43 1472.69 Q459.328 1475.88 453.68 1481.64 Z" fill="#000000" fill-rule="nonzero" fill-opacity="1" /><path clip-path="url(#clip190)" d="M489.814 1454.1 Q486.203 1454.1 484.374 1457.66 Q482.569 1461.2 482.569 1468.33 Q482.569 1475.44 484.374 1479.01 Q486.203 1482.55 489.814 1482.55 Q493.448 1482.55 495.254 1479.01 Q497.082 1475.44 497.082 1468.33 Q497.082 1461.2 495.254 1457.66 Q493.448 1454.1 489.814 1454.1 M489.814 1450.39 Q495.624 1450.39 498.68 1455 Q501.758 1459.58 501.758 1468.33 Q501.758 1477.06 498.68 1481.67 Q495.624 1486.25 489.814 1486.25 Q484.004 1486.25 480.925 1481.67 Q477.869 1477.06 477.869 1468.33 Q477.869 1459.58 480.925 1455 Q484.004 1450.39 489.814 1450.39 Z" fill="#000000" fill-rule="nonzero" fill-opacity="1" /><path clip-path="url(#clip190)" d="M598.94 1466.95 Q602.296 1467.66 604.171 1469.93 Q606.069 1472.2 606.069 1475.53 Q606.069 1480.65 602.551 1483.45 Q599.032 1486.25 592.551 1486.25 Q590.375 1486.25 588.06 1485.81 Q585.768 1485.39 583.315 1484.54 L583.315 1480.02 Q585.259 1481.16 587.574 1481.74 Q589.889 1482.32 592.412 1482.32 Q596.81 1482.32 599.102 1480.58 Q601.416 1478.84 601.416 1475.53 Q601.416 1472.48 599.264 1470.77 Q597.134 1469.03 593.315 1469.03 L589.287 1469.03 L589.287 1465.19 L593.5 1465.19 Q596.949 1465.19 598.778 1463.82 Q600.606 1462.43 600.606 1459.84 Q600.606 1457.18 598.708 1455.77 Q596.833 1454.33 593.315 1454.33 Q591.393 1454.33 589.194 1454.75 Q586.995 1455.16 584.356 1456.04 L584.356 1451.88 Q587.018 1451.14 589.333 1450.77 Q591.671 1450.39 593.731 1450.39 Q599.055 1450.39 602.157 1452.83 Q605.259 1455.23 605.259 1459.35 Q605.259 1462.22 603.615 1464.21 Q601.972 1466.18 598.94 1466.95 Z" fill="#000000" fill-rule="nonzero" fill-opacity="1" /><path clip-path="url(#clip190)" d="M624.935 1454.1 Q621.324 1454.1 619.495 1457.66 Q617.689 1461.2 617.689 1468.33 Q617.689 1475.44 619.495 1479.01 Q621.324 1482.55 624.935 1482.55 Q628.569 1482.55 630.375 1479.01 Q632.203 1475.44 632.203 1468.33 Q632.203 1461.2 630.375 1457.66 Q628.569 1454.1 624.935 1454.1 M624.935 1450.39 Q630.745 1450.39 633.801 1455 Q636.879 1459.58 636.879 1468.33 Q636.879 1477.06 633.801 1481.67 Q630.745 1486.25 624.935 1486.25 Q619.125 1486.25 616.046 1481.67 Q612.99 1477.06 612.99 1468.33 Q612.99 1459.58 616.046 1455 Q619.125 1450.39 624.935 1450.39 Z" fill="#000000" fill-rule="nonzero" fill-opacity="1" /><path clip-path="url(#clip190)" d="M733.459 1455.09 L721.653 1473.54 L733.459 1473.54 L733.459 1455.09 M732.232 1451.02 L738.111 1451.02 L738.111 1473.54 L743.042 1473.54 L743.042 1477.43 L738.111 1477.43 L738.111 1485.58 L733.459 1485.58 L733.459 1477.43 L717.857 1477.43 L717.857 1472.92 L732.232 1451.02 Z" fill="#000000" fill-rule="nonzero" fill-opacity="1" /><path clip-path="url(#clip190)" d="M760.773 1454.1 Q757.162 1454.1 755.334 1457.66 Q753.528 1461.2 753.528 1468.33 Q753.528 1475.44 755.334 1479.01 Q757.162 1482.55 760.773 1482.55 Q764.408 1482.55 766.213 1479.01 Q768.042 1475.44 768.042 1468.33 Q768.042 1461.2 766.213 1457.66 Q764.408 1454.1 760.773 1454.1 M760.773 1450.39 Q766.584 1450.39 769.639 1455 Q772.718 1459.58 772.718 1468.33 Q772.718 1477.06 769.639 1481.67 Q766.584 1486.25 760.773 1486.25 Q754.963 1486.25 751.885 1481.67 Q748.829 1477.06 748.829 1468.33 Q748.829 1459.58 751.885 1455 Q754.963 1450.39 760.773 1450.39 Z" fill="#000000" fill-rule="nonzero" fill-opacity="1" /><path clip-path="url(#clip190)" d="M427.908 1525.81 L427.908 1562.76 L435.674 1562.76 Q445.509 1562.76 450.06 1558.3 Q454.644 1553.85 454.644 1544.24 Q454.644 1534.69 450.06 1530.26 Q445.509 1525.81 435.674 1525.81 L427.908 1525.81 M421.478 1520.52 L434.687 1520.52 Q448.501 1520.52 454.962 1526.28 Q461.423 1532.01 461.423 1544.24 Q461.423 1556.52 454.93 1562.28 Q448.437 1568.04 434.687 1568.04 L421.478 1568.04 L421.478 1520.52 Z" fill="#000000" fill-rule="nonzero" fill-opacity="1" /><path clip-path="url(#clip190)" d="M487.618 1550.12 Q480.52 1550.12 477.783 1551.75 Q475.046 1553.37 475.046 1557.29 Q475.046 1560.4 477.083 1562.25 Q479.152 1564.07 482.685 1564.07 Q487.554 1564.07 490.483 1560.63 Q493.443 1557.16 493.443 1551.43 L493.443 1550.12 L487.618 1550.12 M499.299 1547.71 L499.299 1568.04 L493.443 1568.04 L493.443 1562.63 Q491.437 1565.88 488.446 1567.44 Q485.454 1568.97 481.125 1568.97 Q475.65 1568.97 472.404 1565.91 Q469.189 1562.82 469.189 1557.67 Q469.189 1551.65 473.2 1548.6 Q477.242 1545.54 485.231 1545.54 L493.443 1545.54 L493.443 1544.97 Q493.443 1540.93 490.769 1538.73 Q488.127 1536.5 483.321 1536.5 Q480.266 1536.5 477.369 1537.23 Q474.473 1537.97 471.799 1539.43 L471.799 1534.02 Q475.014 1532.78 478.038 1532.17 Q481.061 1531.54 483.926 1531.54 Q491.66 1531.54 495.48 1535.55 Q499.299 1539.56 499.299 1547.71 Z" fill="#000000" fill-rule="nonzero" fill-opacity="1" /><path clip-path="url(#clip190)" d="M526.194 1571.35 Q523.712 1577.72 521.356 1579.66 Q519.001 1581.6 515.054 1581.6 L510.375 1581.6 L510.375 1576.7 L513.813 1576.7 Q516.232 1576.7 517.569 1575.56 Q518.905 1574.41 520.529 1570.14 L521.579 1567.47 L507.161 1532.4 L513.367 1532.4 L524.507 1560.28 L535.647 1532.4 L541.854 1532.4 L526.194 1571.35 Z" fill="#000000" fill-rule="nonzero" fill-opacity="1" /><polyline clip-path="url(#clip190)" style="stroke:#000000; stroke-linecap:round; stroke-linejoin:round; stroke-width:4; stroke-opacity:1; fill:none" points="202.227,1423.18 202.227,123.472 "/>
<polyline clip-path="url(#clip190)" style="stroke:#000000; stroke-linecap:round; stroke-linejoin:round; stroke-width:4; stroke-opacity:1; fill:none" points="202.227,1386.4 221.125,1386.4 "/>
<polyline clip-path="url(#clip190)" style="stroke:#000000; stroke-linecap:round; stroke-linejoin:round; stroke-width:4; stroke-opacity:1; fill:none" points="202.227,1203.02 221.125,1203.02 "/>
<polyline clip-path="url(#clip190)" style="stroke:#000000; stroke-linecap:round; stroke-linejoin:round; stroke-width:4; stroke-opacity:1; fill:none" points="202.227,1019.64 221.125,1019.64 "/>
<polyline clip-path="url(#clip190)" style="stroke:#000000; stroke-linecap:round; stroke-linejoin:round; stroke-width:4; stroke-opacity:1; fill:none" points="202.227,836.265 221.125,836.265 "/>
<polyline clip-path="url(#clip190)" style="stroke:#000000; stroke-linecap:round; stroke-linejoin:round; stroke-width:4; stroke-opacity:1; fill:none" points="202.227,652.888 221.125,652.888 "/>
<polyline clip-path="url(#clip190)" style="stroke:#000000; stroke-linecap:round; stroke-linejoin:round; stroke-width:4; stroke-opacity:1; fill:none" points="202.227,469.511 221.125,469.511 "/>
<polyline clip-path="url(#clip190)" style="stroke:#000000; stroke-linecap:round; stroke-linejoin:round; stroke-width:4; stroke-opacity:1; fill:none" points="202.227,286.134 221.125,286.134 "/>
<path clip-path="url(#clip190)" d="M154.283 1372.19 Q150.672 1372.19 148.843 1375.76 Q147.038 1379.3 147.038 1386.43 Q147.038 1393.54 148.843 1397.1 Q150.672 1400.64 154.283 1400.64 Q157.917 1400.64 159.723 1397.1 Q161.552 1393.54 161.552 1386.43 Q161.552 1379.3 159.723 1375.76 Q157.917 1372.19 154.283 1372.19 M154.283 1368.49 Q160.093 1368.49 163.149 1373.1 Q166.227 1377.68 166.227 1386.43 Q166.227 1395.16 163.149 1399.76 Q160.093 1404.35 154.283 1404.35 Q148.473 1404.35 145.394 1399.76 Q142.339 1395.16 142.339 1386.43 Q142.339 1377.68 145.394 1373.1 Q148.473 1368.49 154.283 1368.49 Z" fill="#000000" fill-rule="nonzero" fill-opacity="1" /><path clip-path="url(#clip190)" d="M149.908 1216.36 L166.227 1216.36 L166.227 1220.3 L144.283 1220.3 L144.283 1216.36 Q146.945 1213.61 151.528 1208.98 Q156.135 1204.33 157.315 1202.98 Q159.561 1200.46 160.44 1198.72 Q161.343 1196.97 161.343 1195.28 Q161.343 1192.52 159.399 1190.78 Q157.478 1189.05 154.376 1189.05 Q152.177 1189.05 149.723 1189.81 Q147.292 1190.58 144.515 1192.13 L144.515 1187.41 Q147.339 1186.27 149.792 1185.69 Q152.246 1185.11 154.283 1185.11 Q159.653 1185.11 162.848 1187.8 Q166.042 1190.48 166.042 1194.97 Q166.042 1197.1 165.232 1199.03 Q164.445 1200.92 162.339 1203.52 Q161.76 1204.19 158.658 1207.41 Q155.556 1210.6 149.908 1216.36 Z" fill="#000000" fill-rule="nonzero" fill-opacity="1" /><path clip-path="url(#clip190)" d="M156.644 1006.44 L144.839 1024.88 L156.644 1024.88 L156.644 1006.44 M155.417 1002.36 L161.297 1002.36 L161.297 1024.88 L166.227 1024.88 L166.227 1028.77 L161.297 1028.77 L161.297 1036.92 L156.644 1036.92 L156.644 1028.77 L141.042 1028.77 L141.042 1024.26 L155.417 1002.36 Z" fill="#000000" fill-rule="nonzero" fill-opacity="1" /><path clip-path="url(#clip190)" d="M154.7 834.401 Q151.552 834.401 149.7 836.554 Q147.871 838.707 147.871 842.457 Q147.871 846.184 149.7 848.36 Q151.552 850.512 154.7 850.512 Q157.848 850.512 159.677 848.36 Q161.528 846.184 161.528 842.457 Q161.528 838.707 159.677 836.554 Q157.848 834.401 154.7 834.401 M163.982 819.749 L163.982 824.008 Q162.223 823.174 160.417 822.735 Q158.635 822.295 156.876 822.295 Q152.246 822.295 149.792 825.42 Q147.362 828.545 147.015 834.864 Q148.38 832.85 150.441 831.786 Q152.501 830.698 154.978 830.698 Q160.186 830.698 163.195 833.869 Q166.227 837.017 166.227 842.457 Q166.227 847.781 163.079 850.998 Q159.931 854.216 154.7 854.216 Q148.704 854.216 145.533 849.633 Q142.362 845.026 142.362 836.299 Q142.362 828.105 146.251 823.244 Q150.14 818.36 156.69 818.36 Q158.45 818.36 160.232 818.707 Q162.038 819.054 163.982 819.749 Z" fill="#000000" fill-rule="nonzero" fill-opacity="1" /><path clip-path="url(#clip190)" d="M154.376 653.756 Q151.042 653.756 149.121 655.538 Q147.223 657.321 147.223 660.446 Q147.223 663.571 149.121 665.353 Q151.042 667.135 154.376 667.135 Q157.709 667.135 159.63 665.353 Q161.552 663.547 161.552 660.446 Q161.552 657.321 159.63 655.538 Q157.732 653.756 154.376 653.756 M149.7 651.765 Q146.691 651.024 145.001 648.964 Q143.334 646.904 143.334 643.941 Q143.334 639.798 146.274 637.39 Q149.237 634.983 154.376 634.983 Q159.538 634.983 162.477 637.39 Q165.417 639.798 165.417 643.941 Q165.417 646.904 163.727 648.964 Q162.061 651.024 159.075 651.765 Q162.454 652.552 164.329 654.844 Q166.227 657.135 166.227 660.446 Q166.227 665.469 163.149 668.154 Q160.093 670.839 154.376 670.839 Q148.658 670.839 145.579 668.154 Q142.524 665.469 142.524 660.446 Q142.524 657.135 144.422 654.844 Q146.32 652.552 149.7 651.765 M147.987 644.381 Q147.987 647.066 149.653 648.571 Q151.343 650.075 154.376 650.075 Q157.385 650.075 159.075 648.571 Q160.788 647.066 160.788 644.381 Q160.788 641.696 159.075 640.191 Q157.385 638.686 154.376 638.686 Q151.343 638.686 149.653 640.191 Q147.987 641.696 147.987 644.381 Z" fill="#000000" fill-rule="nonzero" fill-opacity="1" /><path clip-path="url(#clip190)" d="M114.931 482.856 L122.57 482.856 L122.57 456.49 L114.26 458.157 L114.26 453.897 L122.524 452.231 L127.2 452.231 L127.2 482.856 L134.839 482.856 L134.839 486.791 L114.931 486.791 L114.931 482.856 Z" fill="#000000" fill-rule="nonzero" fill-opacity="1" /><path clip-path="url(#clip190)" d="M154.283 455.309 Q150.672 455.309 148.843 458.874 Q147.038 462.416 147.038 469.545 Q147.038 476.652 148.843 480.217 Q150.672 483.758 154.283 483.758 Q157.917 483.758 159.723 480.217 Q161.552 476.652 161.552 469.545 Q161.552 462.416 159.723 458.874 Q157.917 455.309 154.283 455.309 M154.283 451.606 Q160.093 451.606 163.149 456.212 Q166.227 460.795 166.227 469.545 Q166.227 478.272 163.149 482.879 Q160.093 487.462 154.283 487.462 Q148.473 487.462 145.394 482.879 Q142.339 478.272 142.339 469.545 Q142.339 460.795 145.394 456.212 Q148.473 451.606 154.283 451.606 Z" fill="#000000" fill-rule="nonzero" fill-opacity="1" /><path clip-path="url(#clip190)" d="M116.529 299.479 L124.168 299.479 L124.168 273.113 L115.857 274.78 L115.857 270.52 L124.121 268.854 L128.797 268.854 L128.797 299.479 L136.436 299.479 L136.436 303.414 L116.529 303.414 L116.529 299.479 Z" fill="#000000" fill-rule="nonzero" fill-opacity="1" /><path clip-path="url(#clip190)" d="M149.908 299.479 L166.227 299.479 L166.227 303.414 L144.283 303.414 L144.283 299.479 Q146.945 296.724 151.528 292.094 Q156.135 287.442 157.315 286.099 Q159.561 283.576 160.44 281.84 Q161.343 280.081 161.343 278.391 Q161.343 275.636 159.399 273.9 Q157.478 272.164 154.376 272.164 Q152.177 272.164 149.723 272.928 Q147.292 273.692 144.515 275.243 L144.515 270.52 Q147.339 269.386 149.792 268.807 Q152.246 268.229 154.283 268.229 Q159.653 268.229 162.848 270.914 Q166.042 273.599 166.042 278.09 Q166.042 280.219 165.232 282.141 Q164.445 284.039 162.339 286.631 Q161.76 287.303 158.658 290.52 Q155.556 293.715 149.908 299.479 Z" fill="#000000" fill-rule="nonzero" fill-opacity="1" /><path clip-path="url(#clip190)" d="M46.0847 884.63 Q46.0847 891.728 47.7079 894.465 Q49.3312 897.203 53.2461 897.203 Q56.3653 897.203 58.2114 895.166 Q60.0256 893.097 60.0256 889.564 Q60.0256 884.694 56.5881 881.766 Q53.1188 878.806 47.3897 878.806 L46.0847 878.806 L46.0847 884.63 M43.6657 872.949 L64.0042 872.949 L64.0042 878.806 L58.5933 878.806 Q61.8398 880.811 63.3994 883.803 Q64.9272 886.795 64.9272 891.123 Q64.9272 896.598 61.8716 899.844 Q58.7843 903.059 53.6281 903.059 Q47.6125 903.059 44.5569 899.049 Q41.5014 895.006 41.5014 887.018 L41.5014 878.806 L40.9285 878.806 Q36.8862 878.806 34.6901 881.479 Q32.4621 884.121 32.4621 888.927 Q32.4621 891.983 33.1941 894.879 Q33.9262 897.776 35.3903 900.449 L29.9795 900.449 Q28.7381 897.234 28.1334 894.211 Q27.4968 891.187 27.4968 888.322 Q27.4968 880.588 31.5072 876.769 Q35.5176 872.949 43.6657 872.949 Z" fill="#000000" fill-rule="nonzero" fill-opacity="1" /><path clip-path="url(#clip190)" d="M28.3562 865.088 L28.3562 858.881 L58.275 847.741 L28.3562 836.601 L28.3562 830.395 L64.0042 843.763 L64.0042 851.72 L28.3562 865.088 Z" fill="#000000" fill-rule="nonzero" fill-opacity="1" /><path clip-path="url(#clip190)" d="M44.7161 791.818 L47.5806 791.818 L47.5806 818.745 Q53.6281 818.363 56.8109 815.117 Q59.9619 811.839 59.9619 806.014 Q59.9619 802.64 59.1344 799.489 Q58.3069 796.306 56.6518 793.187 L62.1899 793.187 Q63.5267 796.338 64.227 799.648 Q64.9272 802.958 64.9272 806.364 Q64.9272 814.894 59.9619 819.891 Q54.9967 824.856 46.5303 824.856 Q37.7774 824.856 32.6531 820.146 Q27.4968 815.403 27.4968 807.383 Q27.4968 800.189 32.1438 796.02 Q36.7589 791.818 44.7161 791.818 M42.9973 797.675 Q38.1912 797.738 35.3266 800.38 Q32.4621 802.99 32.4621 807.319 Q32.4621 812.22 35.2312 815.181 Q38.0002 818.109 43.0292 818.554 L42.9973 797.675 Z" fill="#000000" fill-rule="nonzero" fill-opacity="1" /><path clip-path="url(#clip190)" d="M33.8307 761.549 Q33.2578 762.536 33.0032 763.714 Q32.7167 764.86 32.7167 766.26 Q32.7167 771.225 35.9632 773.899 Q39.1779 776.541 45.2253 776.541 L64.0042 776.541 L64.0042 782.429 L28.3562 782.429 L28.3562 776.541 L33.8944 776.541 Q30.6479 774.695 29.0883 771.735 Q27.4968 768.775 27.4968 764.541 Q27.4968 763.937 27.5923 763.205 Q27.656 762.472 27.8151 761.581 L33.8307 761.549 Z" fill="#000000" fill-rule="nonzero" fill-opacity="1" /><path clip-path="url(#clip190)" d="M46.0847 739.206 Q46.0847 746.304 47.7079 749.041 Q49.3312 751.778 53.2461 751.778 Q56.3653 751.778 58.2114 749.741 Q60.0256 747.672 60.0256 744.139 Q60.0256 739.269 56.5881 736.341 Q53.1188 733.381 47.3897 733.381 L46.0847 733.381 L46.0847 739.206 M43.6657 727.525 L64.0042 727.525 L64.0042 733.381 L58.5933 733.381 Q61.8398 735.386 63.3994 738.378 Q64.9272 741.37 64.9272 745.699 Q64.9272 751.173 61.8716 754.42 Q58.7843 757.635 53.6281 757.635 Q47.6125 757.635 44.5569 753.624 Q41.5014 749.582 41.5014 741.593 L41.5014 733.381 L40.9285 733.381 Q36.8862 733.381 34.6901 736.055 Q32.4621 738.697 32.4621 743.503 Q32.4621 746.558 33.1941 749.455 Q33.9262 752.351 35.3903 755.025 L29.9795 755.025 Q28.7381 751.81 28.1334 748.786 Q27.4968 745.762 27.4968 742.898 Q27.4968 735.164 31.5072 731.344 Q35.5176 727.525 43.6657 727.525 Z" fill="#000000" fill-rule="nonzero" fill-opacity="1" /><path clip-path="url(#clip190)" d="M45.7664 692.004 Q39.4007 692.004 35.8996 694.646 Q32.3984 697.256 32.3984 701.998 Q32.3984 706.709 35.8996 709.351 Q39.4007 711.961 45.7664 711.961 Q52.1003 711.961 55.6014 709.351 Q59.1026 706.709 59.1026 701.998 Q59.1026 697.256 55.6014 694.646 Q52.1003 692.004 45.7664 692.004 M59.58 686.148 Q68.683 686.148 73.1071 690.19 Q77.5631 694.232 77.5631 702.571 Q77.5631 705.659 77.0857 708.396 Q76.6401 711.133 75.6852 713.711 L69.9879 713.711 Q71.3884 711.133 72.0568 708.619 Q72.7252 706.104 72.7252 703.494 Q72.7252 697.733 69.7015 694.869 Q66.7096 692.004 60.6303 692.004 L57.7339 692.004 Q60.885 693.818 62.4446 696.651 Q64.0042 699.484 64.0042 703.431 Q64.0042 709.987 59.0071 713.998 Q54.01 718.008 45.7664 718.008 Q37.491 718.008 32.4939 713.998 Q27.4968 709.987 27.4968 703.431 Q27.4968 699.484 29.0564 696.651 Q30.616 693.818 33.7671 692.004 L28.3562 692.004 L28.3562 686.148 L59.58 686.148 Z" fill="#000000" fill-rule="nonzero" fill-opacity="1" /><path clip-path="url(#clip190)" d="M44.7161 643.593 L47.5806 643.593 L47.5806 670.52 Q53.6281 670.138 56.8109 666.891 Q59.9619 663.613 59.9619 657.788 Q59.9619 654.415 59.1344 651.264 Q58.3069 648.081 56.6518 644.962 L62.1899 644.962 Q63.5267 648.113 64.227 651.423 Q64.9272 654.733 64.9272 658.139 Q64.9272 666.669 59.9619 671.666 Q54.9967 676.631 46.5303 676.631 Q37.7774 676.631 32.6531 671.92 Q27.4968 667.178 27.4968 659.157 Q27.4968 651.964 32.1438 647.794 Q36.7589 643.593 44.7161 643.593 M42.9973 649.449 Q38.1912 649.513 35.3266 652.155 Q32.4621 654.765 32.4621 659.093 Q32.4621 663.995 35.2312 666.955 Q38.0002 669.883 43.0292 670.329 L42.9973 649.449 Z" fill="#000000" fill-rule="nonzero" fill-opacity="1" /><path clip-path="url(#clip190)" d="M341.566 20.1573 L330.466 50.2555 L352.706 50.2555 L341.566 20.1573 M336.947 12.096 L346.224 12.096 L369.274 72.576 L360.767 72.576 L355.258 57.061 L327.995 57.061 L322.486 72.576 L313.857 72.576 L336.947 12.096 Z" fill="#000000" fill-rule="nonzero" fill-opacity="1" /><path clip-path="url(#clip190)" d="M367.572 27.2059 L375.472 27.2059 L389.65 65.2844 L403.828 27.2059 L411.727 27.2059 L394.713 72.576 L384.586 72.576 L367.572 27.2059 Z" fill="#000000" fill-rule="nonzero" fill-opacity="1" /><path clip-path="url(#clip190)" d="M460.824 48.0275 L460.824 51.6733 L426.553 51.6733 Q427.04 59.3701 431.172 63.421 Q435.344 67.4314 442.757 67.4314 Q447.051 67.4314 451.061 66.3781 Q455.112 65.3249 459.082 63.2184 L459.082 70.267 Q455.072 71.9684 450.859 72.8596 Q446.646 73.7508 442.312 73.7508 Q431.455 73.7508 425.095 67.4314 Q418.776 61.1119 418.776 50.3365 Q418.776 39.1965 424.771 32.6746 Q430.807 26.1121 441.015 26.1121 Q450.17 26.1121 455.477 32.0264 Q460.824 37.9003 460.824 48.0275 M453.37 45.84 Q453.289 39.7232 449.927 36.0774 Q446.605 32.4315 441.096 32.4315 Q434.858 32.4315 431.091 35.9558 Q427.364 39.4801 426.797 45.8805 L453.37 45.84 Z" fill="#000000" fill-rule="nonzero" fill-opacity="1" /><path clip-path="url(#clip190)" d="M499.348 34.1734 Q498.092 33.4443 496.594 33.1202 Q495.135 32.7556 493.353 32.7556 Q487.033 32.7556 483.631 36.8875 Q480.268 40.9789 480.268 48.6757 L480.268 72.576 L472.774 72.576 L472.774 27.2059 L480.268 27.2059 L480.268 34.2544 Q482.618 30.1225 486.385 28.1376 Q490.153 26.1121 495.54 26.1121 Q496.31 26.1121 497.242 26.2337 Q498.173 26.3147 499.308 26.5172 L499.348 34.1734 Z" fill="#000000" fill-rule="nonzero" fill-opacity="1" /><path clip-path="url(#clip190)" d="M527.786 49.7694 Q518.752 49.7694 515.268 51.8354 Q511.785 53.9013 511.785 58.8839 Q511.785 62.8538 514.377 65.2034 Q517.01 67.5124 521.507 67.5124 Q527.705 67.5124 531.431 63.1374 Q535.199 58.7219 535.199 51.4303 L535.199 49.7694 L527.786 49.7694 M542.652 46.6907 L542.652 72.576 L535.199 72.576 L535.199 65.6895 Q532.647 69.8214 528.839 71.8063 Q525.031 73.7508 519.522 73.7508 Q512.554 73.7508 508.422 69.8619 Q504.331 65.9325 504.331 59.3701 Q504.331 51.7138 509.435 47.825 Q514.58 43.9361 524.747 43.9361 L535.199 43.9361 L535.199 43.2069 Q535.199 38.0623 531.796 35.2672 Q528.434 32.4315 522.317 32.4315 Q518.428 32.4315 514.742 33.3632 Q511.055 34.295 507.653 36.1584 L507.653 29.2718 Q511.744 27.692 515.592 26.9223 Q519.441 26.1121 523.087 26.1121 Q532.93 26.1121 537.791 31.2163 Q542.652 36.3204 542.652 46.6907 Z" fill="#000000" fill-rule="nonzero" fill-opacity="1" /><path clip-path="url(#clip190)" d="M587.861 49.3643 Q587.861 41.2625 584.498 36.8065 Q581.177 32.3505 575.141 32.3505 Q569.145 32.3505 565.783 36.8065 Q562.461 41.2625 562.461 49.3643 Q562.461 57.4256 565.783 61.8816 Q569.145 66.3376 575.141 66.3376 Q581.177 66.3376 584.498 61.8816 Q587.861 57.4256 587.861 49.3643 M595.314 66.9452 Q595.314 78.5308 590.17 84.1616 Q585.025 89.8329 574.412 89.8329 Q570.482 89.8329 566.998 89.2252 Q563.515 88.6581 560.233 87.4428 L560.233 80.1917 Q563.515 81.9741 566.715 82.8248 Q569.915 83.6755 573.237 83.6755 Q580.569 83.6755 584.215 79.8271 Q587.861 76.0193 587.861 68.282 L587.861 64.5957 Q585.551 68.6061 581.946 70.5911 Q578.341 72.576 573.318 72.576 Q564.973 72.576 559.869 66.2161 Q554.765 59.8562 554.765 49.3643 Q554.765 38.832 559.869 32.472 Q564.973 26.1121 573.318 26.1121 Q578.341 26.1121 581.946 28.0971 Q585.551 30.082 587.861 34.0924 L587.861 27.2059 L595.314 27.2059 L595.314 66.9452 Z" fill="#000000" fill-rule="nonzero" fill-opacity="1" /><path clip-path="url(#clip190)" d="M649.475 48.0275 L649.475 51.6733 L615.204 51.6733 Q615.69 59.3701 619.822 63.421 Q623.995 67.4314 631.408 67.4314 Q635.702 67.4314 639.712 66.3781 Q643.763 65.3249 647.733 63.2184 L647.733 70.267 Q643.722 71.9684 639.51 72.8596 Q635.297 73.7508 630.962 73.7508 Q620.106 73.7508 613.746 67.4314 Q607.426 61.1119 607.426 50.3365 Q607.426 39.1965 613.422 32.6746 Q619.458 26.1121 629.666 26.1121 Q638.821 26.1121 644.128 32.0264 Q649.475 37.9003 649.475 48.0275 M642.021 45.84 Q641.94 39.7232 638.578 36.0774 Q635.256 32.4315 629.747 32.4315 Q623.508 32.4315 619.741 35.9558 Q616.014 39.4801 615.447 45.8805 L642.021 45.84 Z" fill="#000000" fill-rule="nonzero" fill-opacity="1" /><polyline clip-path="url(#clip192)" style="stroke:#009af9; stroke-linecap:round; stroke-linejoin:round; stroke-width:4; stroke-opacity:1; fill:none" points="218.045,1386.4 231.564,1344.44 245.083,1283.83 258.602,1227.88 272.121,1161.06 285.64,1095.79 299.159,1038.29 312.678,1035.18 326.197,910.859 339.716,876.67 353.235,836.265 366.754,840.927 380.273,623.361 393.792,673.09 407.311,617.145 420.83,506.808 434.349,503.7 447.868,405.795 461.387,326.539 474.907,262.823 488.426,160.256 501.945,290.796 515.464,374.714 528.983,455.524 542.502,464.849 556.021,589.172 569.54,539.443 583.059,719.712 596.578,715.049 610.097,784.981 623.616,826.94 637.135,837.819 650.654,917.075 664.173,1061.6 677.692,1083.36 691.211,1060.05 704.73,1157.95 718.249,1251.19 731.768,1280.72 745.287,1333.56 "/>
<path clip-path="url(#clip190)" d="M1012.31 1423.18 L1571.19 1423.18 L1571.19 123.472 L1012.31 123.472  Z" fill="#ffffff" fill-rule="evenodd" fill-opacity="1"/>
<defs>
  <clipPath id="clip193">
    <rect x="1012" y="123" width="560" height="1301"/>
  </clipPath>
</defs>
<polyline clip-path="url(#clip193)" style="stroke:#000000; stroke-linecap:round; stroke-linejoin:round; stroke-width:2; stroke-opacity:0.1; fill:none" points="1014.61,1423.18 1014.61,123.472 "/>
<polyline clip-path="url(#clip193)" style="stroke:#000000; stroke-linecap:round; stroke-linejoin:round; stroke-width:2; stroke-opacity:0.1; fill:none" points="1149.8,1423.18 1149.8,123.472 "/>
<polyline clip-path="url(#clip193)" style="stroke:#000000; stroke-linecap:round; stroke-linejoin:round; stroke-width:2; stroke-opacity:0.1; fill:none" points="1284.99,1423.18 1284.99,123.472 "/>
<polyline clip-path="url(#clip193)" style="stroke:#000000; stroke-linecap:round; stroke-linejoin:round; stroke-width:2; stroke-opacity:0.1; fill:none" points="1420.18,1423.18 1420.18,123.472 "/>
<polyline clip-path="url(#clip193)" style="stroke:#000000; stroke-linecap:round; stroke-linejoin:round; stroke-width:2; stroke-opacity:0.1; fill:none" points="1555.37,1423.18 1555.37,123.472 "/>
<polyline clip-path="url(#clip193)" style="stroke:#000000; stroke-linecap:round; stroke-linejoin:round; stroke-width:2; stroke-opacity:0.1; fill:none" points="1012.31,1386.4 1571.19,1386.4 "/>
<polyline clip-path="url(#clip193)" style="stroke:#000000; stroke-linecap:round; stroke-linejoin:round; stroke-width:2; stroke-opacity:0.1; fill:none" points="1012.31,1079.86 1571.19,1079.86 "/>
<polyline clip-path="url(#clip193)" style="stroke:#000000; stroke-linecap:round; stroke-linejoin:round; stroke-width:2; stroke-opacity:0.1; fill:none" points="1012.31,773.326 1571.19,773.326 "/>
<polyline clip-path="url(#clip193)" style="stroke:#000000; stroke-linecap:round; stroke-linejoin:round; stroke-width:2; stroke-opacity:0.1; fill:none" points="1012.31,466.791 1571.19,466.791 "/>
<polyline clip-path="url(#clip193)" style="stroke:#000000; stroke-linecap:round; stroke-linejoin:round; stroke-width:2; stroke-opacity:0.1; fill:none" points="1012.31,160.256 1571.19,160.256 "/>
<polyline clip-path="url(#clip190)" style="stroke:#000000; stroke-linecap:round; stroke-linejoin:round; stroke-width:4; stroke-opacity:1; fill:none" points="1012.31,1423.18 1571.19,1423.18 "/>
<polyline clip-path="url(#clip190)" style="stroke:#000000; stroke-linecap:round; stroke-linejoin:round; stroke-width:4; stroke-opacity:1; fill:none" points="1014.61,1423.18 1014.61,1404.28 "/>
<polyline clip-path="url(#clip190)" style="stroke:#000000; stroke-linecap:round; stroke-linejoin:round; stroke-width:4; stroke-opacity:1; fill:none" points="1149.8,1423.18 1149.8,1404.28 "/>
<polyline clip-path="url(#clip190)" style="stroke:#000000; stroke-linecap:round; stroke-linejoin:round; stroke-width:4; stroke-opacity:1; fill:none" points="1284.99,1423.18 1284.99,1404.28 "/>
<polyline clip-path="url(#clip190)" style="stroke:#000000; stroke-linecap:round; stroke-linejoin:round; stroke-width:4; stroke-opacity:1; fill:none" points="1420.18,1423.18 1420.18,1404.28 "/>
<polyline clip-path="url(#clip190)" style="stroke:#000000; stroke-linecap:round; stroke-linejoin:round; stroke-width:4; stroke-opacity:1; fill:none" points="1555.37,1423.18 1555.37,1404.28 "/>
<path clip-path="url(#clip190)" d="M1014.61 1454.1 Q1011 1454.1 1009.17 1457.66 Q1007.37 1461.2 1007.37 1468.33 Q1007.37 1475.44 1009.17 1479.01 Q1011 1482.55 1014.61 1482.55 Q1018.24 1482.55 1020.05 1479.01 Q1021.88 1475.44 1021.88 1468.33 Q1021.88 1461.2 1020.05 1457.66 Q1018.24 1454.1 1014.61 1454.1 M1014.61 1450.39 Q1020.42 1450.39 1023.48 1455 Q1026.55 1459.58 1026.55 1468.33 Q1026.55 1477.06 1023.48 1481.67 Q1020.42 1486.25 1014.61 1486.25 Q1008.8 1486.25 1005.72 1481.67 Q1002.67 1477.06 1002.67 1468.33 Q1002.67 1459.58 1005.72 1455 Q1008.8 1450.39 1014.61 1450.39 Z" fill="#000000" fill-rule="nonzero" fill-opacity="1" /><path clip-path="url(#clip190)" d="M1124.49 1481.64 L1132.13 1481.64 L1132.13 1455.28 L1123.82 1456.95 L1123.82 1452.69 L1132.08 1451.02 L1136.76 1451.02 L1136.76 1481.64 L1144.4 1481.64 L1144.4 1485.58 L1124.49 1485.58 L1124.49 1481.64 Z" fill="#000000" fill-rule="nonzero" fill-opacity="1" /><path clip-path="url(#clip190)" d="M1163.84 1454.1 Q1160.23 1454.1 1158.4 1457.66 Q1156.59 1461.2 1156.59 1468.33 Q1156.59 1475.44 1158.4 1479.01 Q1160.23 1482.55 1163.84 1482.55 Q1167.47 1482.55 1169.28 1479.01 Q1171.11 1475.44 1171.11 1468.33 Q1171.11 1461.2 1169.28 1457.66 Q1167.47 1454.1 1163.84 1454.1 M1163.84 1450.39 Q1169.65 1450.39 1172.71 1455 Q1175.78 1459.58 1175.78 1468.33 Q1175.78 1477.06 1172.71 1481.67 Q1169.65 1486.25 1163.84 1486.25 Q1158.03 1486.25 1154.95 1481.67 Q1151.9 1477.06 1151.9 1468.33 Q1151.9 1459.58 1154.95 1455 Q1158.03 1450.39 1163.84 1450.39 Z" fill="#000000" fill-rule="nonzero" fill-opacity="1" /><path clip-path="url(#clip190)" d="M1263.76 1481.64 L1280.08 1481.64 L1280.08 1485.58 L1258.14 1485.58 L1258.14 1481.64 Q1260.8 1478.89 1265.38 1474.26 Q1269.99 1469.61 1271.17 1468.27 Q1273.42 1465.74 1274.3 1464.01 Q1275.2 1462.25 1275.2 1460.56 Q1275.2 1457.8 1273.26 1456.07 Q1271.33 1454.33 1268.23 1454.33 Q1266.03 1454.33 1263.58 1455.09 Q1261.15 1455.86 1258.37 1457.41 L1258.37 1452.69 Q1261.2 1451.55 1263.65 1450.97 Q1266.1 1450.39 1268.14 1450.39 Q1273.51 1450.39 1276.7 1453.08 Q1279.9 1455.77 1279.9 1460.26 Q1279.9 1462.39 1279.09 1464.31 Q1278.3 1466.2 1276.2 1468.8 Q1275.62 1469.47 1272.51 1472.69 Q1269.41 1475.88 1263.76 1481.64 Z" fill="#000000" fill-rule="nonzero" fill-opacity="1" /><path clip-path="url(#clip190)" d="M1299.9 1454.1 Q1296.29 1454.1 1294.46 1457.66 Q1292.65 1461.2 1292.65 1468.33 Q1292.65 1475.44 1294.46 1479.01 Q1296.29 1482.55 1299.9 1482.55 Q1303.53 1482.55 1305.34 1479.01 Q1307.17 1475.44 1307.17 1468.33 Q1307.17 1461.2 1305.34 1457.66 Q1303.53 1454.1 1299.9 1454.1 M1299.9 1450.39 Q1305.71 1450.39 1308.76 1455 Q1311.84 1459.58 1311.84 1468.33 Q1311.84 1477.06 1308.76 1481.67 Q1305.71 1486.25 1299.9 1486.25 Q1294.09 1486.25 1291.01 1481.67 Q1287.95 1477.06 1287.95 1468.33 Q1287.95 1459.58 1291.01 1455 Q1294.09 1450.39 1299.9 1450.39 Z" fill="#000000" fill-rule="nonzero" fill-opacity="1" /><path clip-path="url(#clip190)" d="M1409.02 1466.95 Q1412.38 1467.66 1414.26 1469.93 Q1416.15 1472.2 1416.15 1475.53 Q1416.15 1480.65 1412.64 1483.45 Q1409.12 1486.25 1402.64 1486.25 Q1400.46 1486.25 1398.14 1485.81 Q1395.85 1485.39 1393.4 1484.54 L1393.4 1480.02 Q1395.34 1481.16 1397.66 1481.74 Q1399.97 1482.32 1402.5 1482.32 Q1406.89 1482.32 1409.19 1480.58 Q1411.5 1478.84 1411.5 1475.53 Q1411.5 1472.48 1409.35 1470.77 Q1407.22 1469.03 1403.4 1469.03 L1399.37 1469.03 L1399.37 1465.19 L1403.58 1465.19 Q1407.03 1465.19 1408.86 1463.82 Q1410.69 1462.43 1410.69 1459.84 Q1410.69 1457.18 1408.79 1455.77 Q1406.92 1454.33 1403.4 1454.33 Q1401.48 1454.33 1399.28 1454.75 Q1397.08 1455.16 1394.44 1456.04 L1394.44 1451.88 Q1397.1 1451.14 1399.42 1450.77 Q1401.76 1450.39 1403.82 1450.39 Q1409.14 1450.39 1412.24 1452.83 Q1415.34 1455.23 1415.34 1459.35 Q1415.34 1462.22 1413.7 1464.21 Q1412.06 1466.18 1409.02 1466.95 Z" fill="#000000" fill-rule="nonzero" fill-opacity="1" /><path clip-path="url(#clip190)" d="M1435.02 1454.1 Q1431.41 1454.1 1429.58 1457.66 Q1427.77 1461.2 1427.77 1468.33 Q1427.77 1475.44 1429.58 1479.01 Q1431.41 1482.55 1435.02 1482.55 Q1438.65 1482.55 1440.46 1479.01 Q1442.29 1475.44 1442.29 1468.33 Q1442.29 1461.2 1440.46 1457.66 Q1438.65 1454.1 1435.02 1454.1 M1435.02 1450.39 Q1440.83 1450.39 1443.89 1455 Q1446.96 1459.58 1446.96 1468.33 Q1446.96 1477.06 1443.89 1481.67 Q1440.83 1486.25 1435.02 1486.25 Q1429.21 1486.25 1426.13 1481.67 Q1423.08 1477.06 1423.08 1468.33 Q1423.08 1459.58 1426.13 1455 Q1429.21 1450.39 1435.02 1450.39 Z" fill="#000000" fill-rule="nonzero" fill-opacity="1" /><path clip-path="url(#clip190)" d="M1543.54 1455.09 L1531.74 1473.54 L1543.54 1473.54 L1543.54 1455.09 M1542.32 1451.02 L1548.2 1451.02 L1548.2 1473.54 L1553.13 1473.54 L1553.13 1477.43 L1548.2 1477.43 L1548.2 1485.58 L1543.54 1485.58 L1543.54 1477.43 L1527.94 1477.43 L1527.94 1472.92 L1542.32 1451.02 Z" fill="#000000" fill-rule="nonzero" fill-opacity="1" /><path clip-path="url(#clip190)" d="M1570.86 1454.1 Q1567.25 1454.1 1565.42 1457.66 Q1563.61 1461.2 1563.61 1468.33 Q1563.61 1475.44 1565.42 1479.01 Q1567.25 1482.55 1570.86 1482.55 Q1574.49 1482.55 1576.3 1479.01 Q1578.13 1475.44 1578.13 1468.33 Q1578.13 1461.2 1576.3 1457.66 Q1574.49 1454.1 1570.86 1454.1 M1570.86 1450.39 Q1576.67 1450.39 1579.72 1455 Q1582.8 1459.58 1582.8 1468.33 Q1582.8 1477.06 1579.72 1481.67 Q1576.67 1486.25 1570.86 1486.25 Q1565.05 1486.25 1561.97 1481.67 Q1558.91 1477.06 1558.91 1468.33 Q1558.91 1459.58 1561.97 1455 Q1565.05 1450.39 1570.86 1450.39 Z" fill="#000000" fill-rule="nonzero" fill-opacity="1" /><path clip-path="url(#clip190)" d="M1237.99 1525.81 L1237.99 1562.76 L1245.76 1562.76 Q1255.59 1562.76 1260.15 1558.3 Q1264.73 1553.85 1264.73 1544.24 Q1264.73 1534.69 1260.15 1530.26 Q1255.59 1525.81 1245.76 1525.81 L1237.99 1525.81 M1231.56 1520.52 L1244.77 1520.52 Q1258.59 1520.52 1265.05 1526.28 Q1271.51 1532.01 1271.51 1544.24 Q1271.51 1556.52 1265.01 1562.28 Q1258.52 1568.04 1244.77 1568.04 L1231.56 1568.04 L1231.56 1520.52 Z" fill="#000000" fill-rule="nonzero" fill-opacity="1" /><path clip-path="url(#clip190)" d="M1297.7 1550.12 Q1290.61 1550.12 1287.87 1551.75 Q1285.13 1553.37 1285.13 1557.29 Q1285.13 1560.4 1287.17 1562.25 Q1289.24 1564.07 1292.77 1564.07 Q1297.64 1564.07 1300.57 1560.63 Q1303.53 1557.16 1303.53 1551.43 L1303.53 1550.12 L1297.7 1550.12 M1309.38 1547.71 L1309.38 1568.04 L1303.53 1568.04 L1303.53 1562.63 Q1301.52 1565.88 1298.53 1567.44 Q1295.54 1568.97 1291.21 1568.97 Q1285.74 1568.97 1282.49 1565.91 Q1279.27 1562.82 1279.27 1557.67 Q1279.27 1551.65 1283.28 1548.6 Q1287.33 1545.54 1295.32 1545.54 L1303.53 1545.54 L1303.53 1544.97 Q1303.53 1540.93 1300.85 1538.73 Q1298.21 1536.5 1293.41 1536.5 Q1290.35 1536.5 1287.45 1537.23 Q1284.56 1537.97 1281.88 1539.43 L1281.88 1534.02 Q1285.1 1532.78 1288.12 1532.17 Q1291.15 1531.54 1294.01 1531.54 Q1301.75 1531.54 1305.56 1535.55 Q1309.38 1539.56 1309.38 1547.71 Z" fill="#000000" fill-rule="nonzero" fill-opacity="1" /><path clip-path="url(#clip190)" d="M1336.28 1571.35 Q1333.8 1577.72 1331.44 1579.66 Q1329.09 1581.6 1325.14 1581.6 L1320.46 1581.6 L1320.46 1576.7 L1323.9 1576.7 Q1326.32 1576.7 1327.65 1575.56 Q1328.99 1574.41 1330.61 1570.14 L1331.66 1567.47 L1317.25 1532.4 L1323.45 1532.4 L1334.59 1560.28 L1345.73 1532.4 L1351.94 1532.4 L1336.28 1571.35 Z" fill="#000000" fill-rule="nonzero" fill-opacity="1" /><polyline clip-path="url(#clip190)" style="stroke:#000000; stroke-linecap:round; stroke-linejoin:round; stroke-width:4; stroke-opacity:1; fill:none" points="1012.31,1423.18 1012.31,123.472 "/>
<polyline clip-path="url(#clip190)" style="stroke:#000000; stroke-linecap:round; stroke-linejoin:round; stroke-width:4; stroke-opacity:1; fill:none" points="1012.31,1386.4 1031.21,1386.4 "/>
<polyline clip-path="url(#clip190)" style="stroke:#000000; stroke-linecap:round; stroke-linejoin:round; stroke-width:4; stroke-opacity:1; fill:none" points="1012.31,1079.86 1031.21,1079.86 "/>
<polyline clip-path="url(#clip190)" style="stroke:#000000; stroke-linecap:round; stroke-linejoin:round; stroke-width:4; stroke-opacity:1; fill:none" points="1012.31,773.326 1031.21,773.326 "/>
<polyline clip-path="url(#clip190)" style="stroke:#000000; stroke-linecap:round; stroke-linejoin:round; stroke-width:4; stroke-opacity:1; fill:none" points="1012.31,466.791 1031.21,466.791 "/>
<polyline clip-path="url(#clip190)" style="stroke:#000000; stroke-linecap:round; stroke-linejoin:round; stroke-width:4; stroke-opacity:1; fill:none" points="1012.31,160.256 1031.21,160.256 "/>
<path clip-path="url(#clip190)" d="M964.368 1372.19 Q960.757 1372.19 958.928 1375.76 Q957.123 1379.3 957.123 1386.43 Q957.123 1393.54 958.928 1397.1 Q960.757 1400.64 964.368 1400.64 Q968.002 1400.64 969.808 1397.1 Q971.636 1393.54 971.636 1386.43 Q971.636 1379.3 969.808 1375.76 Q968.002 1372.19 964.368 1372.19 M964.368 1368.49 Q970.178 1368.49 973.234 1373.1 Q976.312 1377.68 976.312 1386.43 Q976.312 1395.16 973.234 1399.76 Q970.178 1404.35 964.368 1404.35 Q958.558 1404.35 955.479 1399.76 Q952.424 1395.16 952.424 1386.43 Q952.424 1377.68 955.479 1373.1 Q958.558 1368.49 964.368 1368.49 Z" fill="#000000" fill-rule="nonzero" fill-opacity="1" /><path clip-path="url(#clip190)" d="M955.41 1062.58 L973.766 1062.58 L973.766 1066.52 L959.692 1066.52 L959.692 1074.99 Q960.711 1074.64 961.729 1074.48 Q962.748 1074.29 963.766 1074.29 Q969.553 1074.29 972.933 1077.47 Q976.312 1080.64 976.312 1086.05 Q976.312 1091.63 972.84 1094.73 Q969.368 1097.81 963.048 1097.81 Q960.873 1097.81 958.604 1097.44 Q956.359 1097.07 953.951 1096.33 L953.951 1091.63 Q956.035 1092.77 958.257 1093.32 Q960.479 1093.88 962.956 1093.88 Q966.96 1093.88 969.298 1091.77 Q971.636 1089.66 971.636 1086.05 Q971.636 1082.44 969.298 1080.34 Q966.96 1078.23 962.956 1078.23 Q961.081 1078.23 959.206 1078.65 Q957.354 1079.06 955.41 1079.94 L955.41 1062.58 Z" fill="#000000" fill-rule="nonzero" fill-opacity="1" /><path clip-path="url(#clip190)" d="M925.016 786.671 L932.655 786.671 L932.655 760.305 L924.345 761.972 L924.345 757.713 L932.609 756.046 L937.285 756.046 L937.285 786.671 L944.924 786.671 L944.924 790.606 L925.016 790.606 L925.016 786.671 Z" fill="#000000" fill-rule="nonzero" fill-opacity="1" /><path clip-path="url(#clip190)" d="M964.368 759.125 Q960.757 759.125 958.928 762.689 Q957.123 766.231 957.123 773.361 Q957.123 780.467 958.928 784.032 Q960.757 787.574 964.368 787.574 Q968.002 787.574 969.808 784.032 Q971.636 780.467 971.636 773.361 Q971.636 766.231 969.808 762.689 Q968.002 759.125 964.368 759.125 M964.368 755.421 Q970.178 755.421 973.234 760.027 Q976.312 764.611 976.312 773.361 Q976.312 782.088 973.234 786.694 Q970.178 791.277 964.368 791.277 Q958.558 791.277 955.479 786.694 Q952.424 782.088 952.424 773.361 Q952.424 764.611 955.479 760.027 Q958.558 755.421 964.368 755.421 Z" fill="#000000" fill-rule="nonzero" fill-opacity="1" /><path clip-path="url(#clip190)" d="M926.012 480.136 L933.65 480.136 L933.65 453.77 L925.34 455.437 L925.34 451.178 L933.604 449.511 L938.28 449.511 L938.28 480.136 L945.919 480.136 L945.919 484.071 L926.012 484.071 L926.012 480.136 Z" fill="#000000" fill-rule="nonzero" fill-opacity="1" /><path clip-path="url(#clip190)" d="M955.41 449.511 L973.766 449.511 L973.766 453.446 L959.692 453.446 L959.692 461.918 Q960.711 461.571 961.729 461.409 Q962.748 461.224 963.766 461.224 Q969.553 461.224 972.933 464.395 Q976.312 467.567 976.312 472.983 Q976.312 478.562 972.84 481.664 Q969.368 484.742 963.048 484.742 Q960.873 484.742 958.604 484.372 Q956.359 484.002 953.951 483.261 L953.951 478.562 Q956.035 479.696 958.257 480.252 Q960.479 480.807 962.956 480.807 Q966.96 480.807 969.298 478.701 Q971.636 476.594 971.636 472.983 Q971.636 469.372 969.298 467.266 Q966.96 465.159 962.956 465.159 Q961.081 465.159 959.206 465.576 Q957.354 465.993 955.41 466.872 L955.41 449.511 Z" fill="#000000" fill-rule="nonzero" fill-opacity="1" /><path clip-path="url(#clip190)" d="M928.234 173.601 L944.553 173.601 L944.553 177.536 L922.609 177.536 L922.609 173.601 Q925.271 170.847 929.854 166.217 Q934.461 161.564 935.641 160.222 Q937.887 157.698 938.766 155.962 Q939.669 154.203 939.669 152.513 Q939.669 149.759 937.725 148.023 Q935.803 146.286 932.701 146.286 Q930.502 146.286 928.049 147.05 Q925.618 147.814 922.84 149.365 L922.84 144.643 Q925.664 143.509 928.118 142.93 Q930.572 142.351 932.609 142.351 Q937.979 142.351 941.174 145.036 Q944.368 147.722 944.368 152.212 Q944.368 154.342 943.558 156.263 Q942.771 158.161 940.664 160.754 Q940.086 161.425 936.984 164.643 Q933.882 167.837 928.234 173.601 Z" fill="#000000" fill-rule="nonzero" fill-opacity="1" /><path clip-path="url(#clip190)" d="M964.368 146.055 Q960.757 146.055 958.928 149.62 Q957.123 153.161 957.123 160.291 Q957.123 167.397 958.928 170.962 Q960.757 174.504 964.368 174.504 Q968.002 174.504 969.808 170.962 Q971.636 167.397 971.636 160.291 Q971.636 153.161 969.808 149.62 Q968.002 146.055 964.368 146.055 M964.368 142.351 Q970.178 142.351 973.234 146.958 Q976.312 151.541 976.312 160.291 Q976.312 169.018 973.234 173.624 Q970.178 178.208 964.368 178.208 Q958.558 178.208 955.479 173.624 Q952.424 169.018 952.424 160.291 Q952.424 151.541 955.479 146.958 Q958.558 142.351 964.368 142.351 Z" fill="#000000" fill-rule="nonzero" fill-opacity="1" /><path clip-path="url(#clip190)" d="M843.548 812.332 Q839.601 810.136 837.723 807.08 Q835.846 804.025 835.846 799.887 Q835.846 794.317 839.76 791.293 Q843.644 788.269 850.837 788.269 L872.353 788.269 L872.353 794.158 L851.028 794.158 Q845.903 794.158 843.421 795.972 Q840.938 797.786 840.938 801.51 Q840.938 806.062 843.962 808.703 Q846.986 811.345 852.205 811.345 L872.353 811.345 L872.353 817.233 L851.028 817.233 Q845.872 817.233 843.421 819.048 Q840.938 820.862 840.938 824.649 Q840.938 829.137 843.994 831.779 Q847.017 834.421 852.205 834.421 L872.353 834.421 L872.353 840.309 L836.705 840.309 L836.705 834.421 L842.243 834.421 Q838.965 832.416 837.405 829.615 Q835.846 826.814 835.846 822.963 Q835.846 819.08 837.819 816.374 Q839.792 813.637 843.548 812.332 Z" fill="#000000" fill-rule="nonzero" fill-opacity="1" /><path clip-path="url(#clip190)" d="M854.433 760.388 Q854.433 767.485 856.057 770.223 Q857.68 772.96 861.595 772.96 Q864.714 772.96 866.56 770.923 Q868.374 768.854 868.374 765.321 Q868.374 760.451 864.937 757.523 Q861.468 754.563 855.738 754.563 L854.433 754.563 L854.433 760.388 M852.014 748.707 L872.353 748.707 L872.353 754.563 L866.942 754.563 Q870.189 756.568 871.748 759.56 Q873.276 762.552 873.276 766.881 Q873.276 772.355 870.22 775.602 Q867.133 778.816 861.977 778.816 Q855.961 778.816 852.906 774.806 Q849.85 770.764 849.85 762.775 L849.85 754.563 L849.277 754.563 Q845.235 754.563 843.039 757.237 Q840.811 759.878 840.811 764.685 Q840.811 767.74 841.543 770.636 Q842.275 773.533 843.739 776.206 L838.328 776.206 Q837.087 772.992 836.482 769.968 Q835.846 766.944 835.846 764.08 Q835.846 756.345 839.856 752.526 Q843.866 748.707 852.014 748.707 Z" fill="#000000" fill-rule="nonzero" fill-opacity="1" /><path clip-path="url(#clip190)" d="M836.705 707.011 L854.051 719.902 L872.353 706.343 L872.353 713.25 L858.348 723.626 L872.353 734.002 L872.353 740.909 L853.701 727.063 L836.705 739.731 L836.705 732.824 L849.405 723.371 L836.705 713.918 L836.705 707.011 Z" fill="#000000" fill-rule="nonzero" fill-opacity="1" /><path clip-path="url(#clip190)" d="M1094.96 12.096 L1107.15 12.096 L1122.59 53.2532 L1138.1 12.096 L1150.29 12.096 L1150.29 72.576 L1142.31 72.576 L1142.31 19.4686 L1126.72 60.9499 L1118.49 60.9499 L1102.9 19.4686 L1102.9 72.576 L1094.96 72.576 L1094.96 12.096 Z" fill="#000000" fill-rule="nonzero" fill-opacity="1" /><path clip-path="url(#clip190)" d="M1186.83 49.7694 Q1177.8 49.7694 1174.32 51.8354 Q1170.83 53.9013 1170.83 58.8839 Q1170.83 62.8538 1173.42 65.2034 Q1176.06 67.5124 1180.55 67.5124 Q1186.75 67.5124 1190.48 63.1374 Q1194.25 58.7219 1194.25 51.4303 L1194.25 49.7694 L1186.83 49.7694 M1201.7 46.6907 L1201.7 72.576 L1194.25 72.576 L1194.25 65.6895 Q1191.69 69.8214 1187.89 71.8063 Q1184.08 73.7508 1178.57 73.7508 Q1171.6 73.7508 1167.47 69.8619 Q1163.38 65.9325 1163.38 59.3701 Q1163.38 51.7138 1168.48 47.825 Q1173.63 43.9361 1183.79 43.9361 L1194.25 43.9361 L1194.25 43.2069 Q1194.25 38.0623 1190.84 35.2672 Q1187.48 32.4315 1181.36 32.4315 Q1177.47 32.4315 1173.79 33.3632 Q1170.1 34.295 1166.7 36.1584 L1166.7 29.2718 Q1170.79 27.692 1174.64 26.9223 Q1178.49 26.1121 1182.13 26.1121 Q1191.98 26.1121 1196.84 31.2163 Q1201.7 36.3204 1201.7 46.6907 Z" fill="#000000" fill-rule="nonzero" fill-opacity="1" /><path clip-path="url(#clip190)" d="M1254.77 27.2059 L1238.36 49.2833 L1255.62 72.576 L1246.83 72.576 L1233.62 54.752 L1220.41 72.576 L1211.62 72.576 L1229.25 48.8377 L1213.12 27.2059 L1221.91 27.2059 L1233.94 43.369 L1245.98 27.2059 L1254.77 27.2059 Z" fill="#000000" fill-rule="nonzero" fill-opacity="1" /><path clip-path="url(#clip190)" d="M1266.15 27.2059 L1273.6 27.2059 L1273.6 72.576 L1266.15 72.576 L1266.15 27.2059 M1266.15 9.54393 L1273.6 9.54393 L1273.6 18.9825 L1266.15 18.9825 L1266.15 9.54393 Z" fill="#000000" fill-rule="nonzero" fill-opacity="1" /><path clip-path="url(#clip190)" d="M1324.52 35.9153 Q1327.32 30.8922 1331.21 28.5022 Q1335.1 26.1121 1340.36 26.1121 Q1347.45 26.1121 1351.3 31.0947 Q1355.15 36.0368 1355.15 45.1919 L1355.15 72.576 L1347.65 72.576 L1347.65 45.4349 Q1347.65 38.913 1345.34 35.7533 Q1343.04 32.5936 1338.3 32.5936 Q1332.5 32.5936 1329.14 36.4419 Q1325.78 40.2903 1325.78 46.9338 L1325.78 72.576 L1318.28 72.576 L1318.28 45.4349 Q1318.28 38.8725 1315.98 35.7533 Q1313.67 32.5936 1308.85 32.5936 Q1303.13 32.5936 1299.77 36.4824 Q1296.41 40.3308 1296.41 46.9338 L1296.41 72.576 L1288.92 72.576 L1288.92 27.2059 L1296.41 27.2059 L1296.41 34.2544 Q1298.96 30.082 1302.53 28.0971 Q1306.09 26.1121 1310.99 26.1121 Q1315.93 26.1121 1319.38 28.6237 Q1322.86 31.1352 1324.52 35.9153 Z" fill="#000000" fill-rule="nonzero" fill-opacity="1" /><path clip-path="url(#clip190)" d="M1369.24 54.671 L1369.24 27.2059 L1376.7 27.2059 L1376.7 54.3874 Q1376.7 60.8284 1379.21 64.0691 Q1381.72 67.2693 1386.74 67.2693 Q1392.78 67.2693 1396.26 63.421 Q1399.79 59.5726 1399.79 52.9291 L1399.79 27.2059 L1407.24 27.2059 L1407.24 72.576 L1399.79 72.576 L1399.79 65.6084 Q1397.07 69.7404 1393.47 71.7658 Q1389.9 73.7508 1385.16 73.7508 Q1377.35 73.7508 1373.3 68.8897 Q1369.24 64.0286 1369.24 54.671 M1388 26.1121 L1388 26.1121 Z" fill="#000000" fill-rule="nonzero" fill-opacity="1" /><path clip-path="url(#clip190)" d="M1457.92 35.9153 Q1460.71 30.8922 1464.6 28.5022 Q1468.49 26.1121 1473.76 26.1121 Q1480.85 26.1121 1484.7 31.0947 Q1488.54 36.0368 1488.54 45.1919 L1488.54 72.576 L1481.05 72.576 L1481.05 45.4349 Q1481.05 38.913 1478.74 35.7533 Q1476.43 32.5936 1471.69 32.5936 Q1465.9 32.5936 1462.54 36.4419 Q1459.17 40.2903 1459.17 46.9338 L1459.17 72.576 L1451.68 72.576 L1451.68 45.4349 Q1451.68 38.8725 1449.37 35.7533 Q1447.06 32.5936 1442.24 32.5936 Q1436.53 32.5936 1433.17 36.4824 Q1429.81 40.3308 1429.81 46.9338 L1429.81 72.576 L1422.31 72.576 L1422.31 27.2059 L1429.81 27.2059 L1429.81 34.2544 Q1432.36 30.082 1435.92 28.0971 Q1439.49 26.1121 1444.39 26.1121 Q1449.33 26.1121 1452.77 28.6237 Q1456.26 31.1352 1457.92 35.9153 Z" fill="#000000" fill-rule="nonzero" fill-opacity="1" /><polyline clip-path="url(#clip193)" style="stroke:#009af9; stroke-linecap:round; stroke-linejoin:round; stroke-width:4; stroke-opacity:1; fill:none" points="1028.13,1386.4 1041.65,1325.09 1055.17,1263.78 1068.69,1202.47 1082.21,1141.17 1095.72,1079.86 1109.24,1018.55 1122.76,957.247 1136.28,895.94 1149.8,834.633 1163.32,773.326 1176.84,712.019 1190.36,650.712 1203.88,589.405 1217.4,528.098 1230.92,466.791 1244.43,405.484 1257.95,344.177 1271.47,282.87 1284.99,221.563 1298.51,160.256 1312.03,221.563 1325.55,282.87 1339.07,344.177 1352.59,405.484 1366.11,466.791 1379.62,528.098 1393.14,589.405 1406.66,650.712 1420.18,712.019 1433.7,773.326 1447.22,834.633 1460.74,895.94 1474.26,957.247 1487.78,1018.55 1501.3,1079.86 1514.82,1141.17 1528.33,1202.47 1541.85,1263.78 1555.37,1325.09 "/>
<path clip-path="url(#clip190)" d="M1793.88 1423.18 L2352.76 1423.18 L2352.76 123.472 L1793.88 123.472  Z" fill="#ffffff" fill-rule="evenodd" fill-opacity="1"/>
<defs>
  <clipPath id="clip194">
    <rect x="1793" y="123" width="560" height="1301"/>
  </clipPath>
</defs>
<polyline clip-path="url(#clip194)" style="stroke:#000000; stroke-linecap:round; stroke-linejoin:round; stroke-width:2; stroke-opacity:0.1; fill:none" points="1796.18,1423.18 1796.18,123.472 "/>
<polyline clip-path="url(#clip194)" style="stroke:#000000; stroke-linecap:round; stroke-linejoin:round; stroke-width:2; stroke-opacity:0.1; fill:none" points="1931.37,1423.18 1931.37,123.472 "/>
<polyline clip-path="url(#clip194)" style="stroke:#000000; stroke-linecap:round; stroke-linejoin:round; stroke-width:2; stroke-opacity:0.1; fill:none" points="2066.56,1423.18 2066.56,123.472 "/>
<polyline clip-path="url(#clip194)" style="stroke:#000000; stroke-linecap:round; stroke-linejoin:round; stroke-width:2; stroke-opacity:0.1; fill:none" points="2201.75,1423.18 2201.75,123.472 "/>
<polyline clip-path="url(#clip194)" style="stroke:#000000; stroke-linecap:round; stroke-linejoin:round; stroke-width:2; stroke-opacity:0.1; fill:none" points="2336.94,1423.18 2336.94,123.472 "/>
<polyline clip-path="url(#clip194)" style="stroke:#000000; stroke-linecap:round; stroke-linejoin:round; stroke-width:2; stroke-opacity:0.1; fill:none" points="1793.88,1386.4 2352.76,1386.4 "/>
<polyline clip-path="url(#clip194)" style="stroke:#000000; stroke-linecap:round; stroke-linejoin:round; stroke-width:2; stroke-opacity:0.1; fill:none" points="1793.88,1141.17 2352.76,1141.17 "/>
<polyline clip-path="url(#clip194)" style="stroke:#000000; stroke-linecap:round; stroke-linejoin:round; stroke-width:2; stroke-opacity:0.1; fill:none" points="1793.88,895.94 2352.76,895.94 "/>
<polyline clip-path="url(#clip194)" style="stroke:#000000; stroke-linecap:round; stroke-linejoin:round; stroke-width:2; stroke-opacity:0.1; fill:none" points="1793.88,650.712 2352.76,650.712 "/>
<polyline clip-path="url(#clip194)" style="stroke:#000000; stroke-linecap:round; stroke-linejoin:round; stroke-width:2; stroke-opacity:0.1; fill:none" points="1793.88,405.484 2352.76,405.484 "/>
<polyline clip-path="url(#clip194)" style="stroke:#000000; stroke-linecap:round; stroke-linejoin:round; stroke-width:2; stroke-opacity:0.1; fill:none" points="1793.88,160.256 2352.76,160.256 "/>
<polyline clip-path="url(#clip190)" style="stroke:#000000; stroke-linecap:round; stroke-linejoin:round; stroke-width:4; stroke-opacity:1; fill:none" points="1793.88,1423.18 2352.76,1423.18 "/>
<polyline clip-path="url(#clip190)" style="stroke:#000000; stroke-linecap:round; stroke-linejoin:round; stroke-width:4; stroke-opacity:1; fill:none" points="1796.18,1423.18 1796.18,1404.28 "/>
<polyline clip-path="url(#clip190)" style="stroke:#000000; stroke-linecap:round; stroke-linejoin:round; stroke-width:4; stroke-opacity:1; fill:none" points="1931.37,1423.18 1931.37,1404.28 "/>
<polyline clip-path="url(#clip190)" style="stroke:#000000; stroke-linecap:round; stroke-linejoin:round; stroke-width:4; stroke-opacity:1; fill:none" points="2066.56,1423.18 2066.56,1404.28 "/>
<polyline clip-path="url(#clip190)" style="stroke:#000000; stroke-linecap:round; stroke-linejoin:round; stroke-width:4; stroke-opacity:1; fill:none" points="2201.75,1423.18 2201.75,1404.28 "/>
<polyline clip-path="url(#clip190)" style="stroke:#000000; stroke-linecap:round; stroke-linejoin:round; stroke-width:4; stroke-opacity:1; fill:none" points="2336.94,1423.18 2336.94,1404.28 "/>
<path clip-path="url(#clip190)" d="M1796.18 1454.1 Q1792.57 1454.1 1790.74 1457.66 Q1788.93 1461.2 1788.93 1468.33 Q1788.93 1475.44 1790.74 1479.01 Q1792.57 1482.55 1796.18 1482.55 Q1799.81 1482.55 1801.62 1479.01 Q1803.45 1475.44 1803.45 1468.33 Q1803.45 1461.2 1801.62 1457.66 Q1799.81 1454.1 1796.18 1454.1 M1796.18 1450.39 Q1801.99 1450.39 1805.04 1455 Q1808.12 1459.58 1808.12 1468.33 Q1808.12 1477.06 1805.04 1481.67 Q1801.99 1486.25 1796.18 1486.25 Q1790.37 1486.25 1787.29 1481.67 Q1784.23 1477.06 1784.23 1468.33 Q1784.23 1459.58 1787.29 1455 Q1790.37 1450.39 1796.18 1450.39 Z" fill="#000000" fill-rule="nonzero" fill-opacity="1" /><path clip-path="url(#clip190)" d="M1906.06 1481.64 L1913.69 1481.64 L1913.69 1455.28 L1905.38 1456.95 L1905.38 1452.69 L1913.65 1451.02 L1918.32 1451.02 L1918.32 1481.64 L1925.96 1481.64 L1925.96 1485.58 L1906.06 1485.58 L1906.06 1481.64 Z" fill="#000000" fill-rule="nonzero" fill-opacity="1" /><path clip-path="url(#clip190)" d="M1945.41 1454.1 Q1941.8 1454.1 1939.97 1457.66 Q1938.16 1461.2 1938.16 1468.33 Q1938.16 1475.44 1939.97 1479.01 Q1941.8 1482.55 1945.41 1482.55 Q1949.04 1482.55 1950.85 1479.01 Q1952.68 1475.44 1952.68 1468.33 Q1952.68 1461.2 1950.85 1457.66 Q1949.04 1454.1 1945.41 1454.1 M1945.41 1450.39 Q1951.22 1450.39 1954.27 1455 Q1957.35 1459.58 1957.35 1468.33 Q1957.35 1477.06 1954.27 1481.67 Q1951.22 1486.25 1945.41 1486.25 Q1939.6 1486.25 1936.52 1481.67 Q1933.46 1477.06 1933.46 1468.33 Q1933.46 1459.58 1936.52 1455 Q1939.6 1450.39 1945.41 1450.39 Z" fill="#000000" fill-rule="nonzero" fill-opacity="1" /><path clip-path="url(#clip190)" d="M2045.33 1481.64 L2061.65 1481.64 L2061.65 1485.58 L2039.71 1485.58 L2039.71 1481.64 Q2042.37 1478.89 2046.95 1474.26 Q2051.56 1469.61 2052.74 1468.27 Q2054.98 1465.74 2055.86 1464.01 Q2056.77 1462.25 2056.77 1460.56 Q2056.77 1457.8 2054.82 1456.07 Q2052.9 1454.33 2049.8 1454.33 Q2047.6 1454.33 2045.15 1455.09 Q2042.72 1455.86 2039.94 1457.41 L2039.94 1452.69 Q2042.76 1451.55 2045.22 1450.97 Q2047.67 1450.39 2049.71 1450.39 Q2055.08 1450.39 2058.27 1453.08 Q2061.47 1455.77 2061.47 1460.26 Q2061.47 1462.39 2060.66 1464.31 Q2059.87 1466.2 2057.76 1468.8 Q2057.18 1469.47 2054.08 1472.69 Q2050.98 1475.88 2045.33 1481.64 Z" fill="#000000" fill-rule="nonzero" fill-opacity="1" /><path clip-path="url(#clip190)" d="M2081.47 1454.1 Q2077.85 1454.1 2076.03 1457.66 Q2074.22 1461.2 2074.22 1468.33 Q2074.22 1475.44 2076.03 1479.01 Q2077.85 1482.55 2081.47 1482.55 Q2085.1 1482.55 2086.9 1479.01 Q2088.73 1475.44 2088.73 1468.33 Q2088.73 1461.2 2086.9 1457.66 Q2085.1 1454.1 2081.47 1454.1 M2081.47 1450.39 Q2087.28 1450.39 2090.33 1455 Q2093.41 1459.58 2093.41 1468.33 Q2093.41 1477.06 2090.33 1481.67 Q2087.28 1486.25 2081.47 1486.25 Q2075.65 1486.25 2072.58 1481.67 Q2069.52 1477.06 2069.52 1468.33 Q2069.52 1459.58 2072.58 1455 Q2075.65 1450.39 2081.47 1450.39 Z" fill="#000000" fill-rule="nonzero" fill-opacity="1" /><path clip-path="url(#clip190)" d="M2190.59 1466.95 Q2193.95 1467.66 2195.82 1469.93 Q2197.72 1472.2 2197.72 1475.53 Q2197.72 1480.65 2194.2 1483.45 Q2190.68 1486.25 2184.2 1486.25 Q2182.03 1486.25 2179.71 1485.81 Q2177.42 1485.39 2174.97 1484.54 L2174.97 1480.02 Q2176.91 1481.16 2179.23 1481.74 Q2181.54 1482.32 2184.06 1482.32 Q2188.46 1482.32 2190.75 1480.58 Q2193.07 1478.84 2193.07 1475.53 Q2193.07 1472.48 2190.91 1470.77 Q2188.79 1469.03 2184.97 1469.03 L2180.94 1469.03 L2180.94 1465.19 L2185.15 1465.19 Q2188.6 1465.19 2190.43 1463.82 Q2192.26 1462.43 2192.26 1459.84 Q2192.26 1457.18 2190.36 1455.77 Q2188.48 1454.33 2184.97 1454.33 Q2183.04 1454.33 2180.85 1454.75 Q2178.65 1455.16 2176.01 1456.04 L2176.01 1451.88 Q2178.67 1451.14 2180.98 1450.77 Q2183.32 1450.39 2185.38 1450.39 Q2190.71 1450.39 2193.81 1452.83 Q2196.91 1455.23 2196.91 1459.35 Q2196.91 1462.22 2195.27 1464.21 Q2193.62 1466.18 2190.59 1466.95 Z" fill="#000000" fill-rule="nonzero" fill-opacity="1" /><path clip-path="url(#clip190)" d="M2216.59 1454.1 Q2212.98 1454.1 2211.15 1457.66 Q2209.34 1461.2 2209.34 1468.33 Q2209.34 1475.44 2211.15 1479.01 Q2212.98 1482.55 2216.59 1482.55 Q2220.22 1482.55 2222.03 1479.01 Q2223.85 1475.44 2223.85 1468.33 Q2223.85 1461.2 2222.03 1457.66 Q2220.22 1454.1 2216.59 1454.1 M2216.59 1450.39 Q2222.4 1450.39 2225.45 1455 Q2228.53 1459.58 2228.53 1468.33 Q2228.53 1477.06 2225.45 1481.67 Q2222.4 1486.25 2216.59 1486.25 Q2210.78 1486.25 2207.7 1481.67 Q2204.64 1477.06 2204.64 1468.33 Q2204.64 1459.58 2207.7 1455 Q2210.78 1450.39 2216.59 1450.39 Z" fill="#000000" fill-rule="nonzero" fill-opacity="1" /><path clip-path="url(#clip190)" d="M2325.11 1455.09 L2313.3 1473.54 L2325.11 1473.54 L2325.11 1455.09 M2323.88 1451.02 L2329.76 1451.02 L2329.76 1473.54 L2334.69 1473.54 L2334.69 1477.43 L2329.76 1477.43 L2329.76 1485.58 L2325.11 1485.58 L2325.11 1477.43 L2309.51 1477.43 L2309.51 1472.92 L2323.88 1451.02 Z" fill="#000000" fill-rule="nonzero" fill-opacity="1" /><path clip-path="url(#clip190)" d="M2352.42 1454.1 Q2348.81 1454.1 2346.98 1457.66 Q2345.18 1461.2 2345.18 1468.33 Q2345.18 1475.44 2346.98 1479.01 Q2348.81 1482.55 2352.42 1482.55 Q2356.06 1482.55 2357.86 1479.01 Q2359.69 1475.44 2359.69 1468.33 Q2359.69 1461.2 2357.86 1457.66 Q2356.06 1454.1 2352.42 1454.1 M2352.42 1450.39 Q2358.23 1450.39 2361.29 1455 Q2364.37 1459.58 2364.37 1468.33 Q2364.37 1477.06 2361.29 1481.67 Q2358.23 1486.25 2352.42 1486.25 Q2346.61 1486.25 2343.54 1481.67 Q2340.48 1477.06 2340.48 1468.33 Q2340.48 1459.58 2343.54 1455 Q2346.61 1450.39 2352.42 1450.39 Z" fill="#000000" fill-rule="nonzero" fill-opacity="1" /><path clip-path="url(#clip190)" d="M2019.56 1525.81 L2019.56 1562.76 L2027.33 1562.76 Q2037.16 1562.76 2041.71 1558.3 Q2046.29 1553.85 2046.29 1544.24 Q2046.29 1534.69 2041.71 1530.26 Q2037.16 1525.81 2027.33 1525.81 L2019.56 1525.81 M2013.13 1520.52 L2026.34 1520.52 Q2040.15 1520.52 2046.61 1526.28 Q2053.07 1532.01 2053.07 1544.24 Q2053.07 1556.52 2046.58 1562.28 Q2040.09 1568.04 2026.34 1568.04 L2013.13 1568.04 L2013.13 1520.52 Z" fill="#000000" fill-rule="nonzero" fill-opacity="1" /><path clip-path="url(#clip190)" d="M2079.27 1550.12 Q2072.17 1550.12 2069.43 1551.75 Q2066.7 1553.37 2066.7 1557.29 Q2066.7 1560.4 2068.73 1562.25 Q2070.8 1564.07 2074.34 1564.07 Q2079.21 1564.07 2082.13 1560.63 Q2085.09 1557.16 2085.09 1551.43 L2085.09 1550.12 L2079.27 1550.12 M2090.95 1547.71 L2090.95 1568.04 L2085.09 1568.04 L2085.09 1562.63 Q2083.09 1565.88 2080.1 1567.44 Q2077.1 1568.97 2072.78 1568.97 Q2067.3 1568.97 2064.06 1565.91 Q2060.84 1562.82 2060.84 1557.67 Q2060.84 1551.65 2064.85 1548.6 Q2068.89 1545.54 2076.88 1545.54 L2085.09 1545.54 L2085.09 1544.97 Q2085.09 1540.93 2082.42 1538.73 Q2079.78 1536.5 2074.97 1536.5 Q2071.92 1536.5 2069.02 1537.23 Q2066.12 1537.97 2063.45 1539.43 L2063.45 1534.02 Q2066.67 1532.78 2069.69 1532.17 Q2072.71 1531.54 2075.58 1531.54 Q2083.31 1531.54 2087.13 1535.55 Q2090.95 1539.56 2090.95 1547.71 Z" fill="#000000" fill-rule="nonzero" fill-opacity="1" /><path clip-path="url(#clip190)" d="M2117.85 1571.35 Q2115.36 1577.72 2113.01 1579.66 Q2110.65 1581.6 2106.71 1581.6 L2102.03 1581.6 L2102.03 1576.7 L2105.46 1576.7 Q2107.88 1576.7 2109.22 1575.56 Q2110.56 1574.41 2112.18 1570.14 L2113.23 1567.47 L2098.81 1532.4 L2105.02 1532.4 L2116.16 1560.28 L2127.3 1532.4 L2133.51 1532.4 L2117.85 1571.35 Z" fill="#000000" fill-rule="nonzero" fill-opacity="1" /><polyline clip-path="url(#clip190)" style="stroke:#000000; stroke-linecap:round; stroke-linejoin:round; stroke-width:4; stroke-opacity:1; fill:none" points="1793.88,1423.18 1793.88,123.472 "/>
<polyline clip-path="url(#clip190)" style="stroke:#000000; stroke-linecap:round; stroke-linejoin:round; stroke-width:4; stroke-opacity:1; fill:none" points="1793.88,1386.4 1812.78,1386.4 "/>
<polyline clip-path="url(#clip190)" style="stroke:#000000; stroke-linecap:round; stroke-linejoin:round; stroke-width:4; stroke-opacity:1; fill:none" points="1793.88,1141.17 1812.78,1141.17 "/>
<polyline clip-path="url(#clip190)" style="stroke:#000000; stroke-linecap:round; stroke-linejoin:round; stroke-width:4; stroke-opacity:1; fill:none" points="1793.88,895.94 1812.78,895.94 "/>
<polyline clip-path="url(#clip190)" style="stroke:#000000; stroke-linecap:round; stroke-linejoin:round; stroke-width:4; stroke-opacity:1; fill:none" points="1793.88,650.712 1812.78,650.712 "/>
<polyline clip-path="url(#clip190)" style="stroke:#000000; stroke-linecap:round; stroke-linejoin:round; stroke-width:4; stroke-opacity:1; fill:none" points="1793.88,405.484 1812.78,405.484 "/>
<polyline clip-path="url(#clip190)" style="stroke:#000000; stroke-linecap:round; stroke-linejoin:round; stroke-width:4; stroke-opacity:1; fill:none" points="1793.88,160.256 1812.78,160.256 "/>
<path clip-path="url(#clip190)" d="M1745.93 1372.19 Q1742.32 1372.19 1740.49 1375.76 Q1738.69 1379.3 1738.69 1386.43 Q1738.69 1393.54 1740.49 1397.1 Q1742.32 1400.64 1745.93 1400.64 Q1749.57 1400.64 1751.37 1397.1 Q1753.2 1393.54 1753.2 1386.43 Q1753.2 1379.3 1751.37 1375.76 Q1749.57 1372.19 1745.93 1372.19 M1745.93 1368.49 Q1751.74 1368.49 1754.8 1373.1 Q1757.88 1377.68 1757.88 1386.43 Q1757.88 1395.16 1754.8 1399.76 Q1751.74 1404.35 1745.93 1404.35 Q1740.12 1404.35 1737.05 1399.76 Q1733.99 1395.16 1733.99 1386.43 Q1733.99 1377.68 1737.05 1373.1 Q1740.12 1368.49 1745.93 1368.49 Z" fill="#000000" fill-rule="nonzero" fill-opacity="1" /><path clip-path="url(#clip190)" d="M1737.97 1154.51 L1745.61 1154.51 L1745.61 1128.15 L1737.3 1129.81 L1737.3 1125.55 L1745.56 1123.89 L1750.24 1123.89 L1750.24 1154.51 L1757.88 1154.51 L1757.88 1158.45 L1737.97 1158.45 L1737.97 1154.51 Z" fill="#000000" fill-rule="nonzero" fill-opacity="1" /><path clip-path="url(#clip190)" d="M1741.56 909.285 L1757.88 909.285 L1757.88 913.22 L1735.93 913.22 L1735.93 909.285 Q1738.6 906.53 1743.18 901.901 Q1747.79 897.248 1748.97 895.905 Q1751.21 893.382 1752.09 891.646 Q1752.99 889.887 1752.99 888.197 Q1752.99 885.442 1751.05 883.706 Q1749.13 881.97 1746.03 881.97 Q1743.83 881.97 1741.37 882.734 Q1738.94 883.498 1736.17 885.049 L1736.17 880.327 Q1738.99 879.192 1741.44 878.614 Q1743.9 878.035 1745.93 878.035 Q1751.3 878.035 1754.5 880.72 Q1757.69 883.405 1757.69 887.896 Q1757.69 890.026 1756.88 891.947 Q1756.1 893.845 1753.99 896.438 Q1753.41 897.109 1750.31 900.326 Q1747.21 903.521 1741.56 909.285 Z" fill="#000000" fill-rule="nonzero" fill-opacity="1" /><path clip-path="url(#clip190)" d="M1750.75 649.358 Q1754.11 650.075 1755.98 652.344 Q1757.88 654.612 1757.88 657.946 Q1757.88 663.062 1754.36 665.862 Q1750.84 668.663 1744.36 668.663 Q1742.18 668.663 1739.87 668.224 Q1737.58 667.807 1735.12 666.95 L1735.12 662.437 Q1737.07 663.571 1739.38 664.149 Q1741.7 664.728 1744.22 664.728 Q1748.62 664.728 1750.91 662.992 Q1753.23 661.256 1753.23 657.946 Q1753.23 654.89 1751.07 653.177 Q1748.94 651.441 1745.12 651.441 L1741.1 651.441 L1741.1 647.599 L1745.31 647.599 Q1748.76 647.599 1750.59 646.233 Q1752.42 644.844 1752.42 642.251 Q1752.42 639.589 1750.52 638.177 Q1748.64 636.742 1745.12 636.742 Q1743.2 636.742 1741 637.159 Q1738.8 637.576 1736.17 638.455 L1736.17 634.289 Q1738.83 633.548 1741.14 633.177 Q1743.48 632.807 1745.54 632.807 Q1750.86 632.807 1753.97 635.238 Q1757.07 637.645 1757.07 641.765 Q1757.07 644.636 1755.43 646.626 Q1753.78 648.594 1750.75 649.358 Z" fill="#000000" fill-rule="nonzero" fill-opacity="1" /><path clip-path="url(#clip190)" d="M1748.3 392.278 L1736.49 410.727 L1748.3 410.727 L1748.3 392.278 M1747.07 388.204 L1752.95 388.204 L1752.95 410.727 L1757.88 410.727 L1757.88 414.616 L1752.95 414.616 L1752.95 422.764 L1748.3 422.764 L1748.3 414.616 L1732.69 414.616 L1732.69 410.102 L1747.07 388.204 Z" fill="#000000" fill-rule="nonzero" fill-opacity="1" /><path clip-path="url(#clip190)" d="M1736.98 142.976 L1755.33 142.976 L1755.33 146.911 L1741.26 146.911 L1741.26 155.384 Q1742.28 155.036 1743.3 154.874 Q1744.31 154.689 1745.33 154.689 Q1751.12 154.689 1754.5 157.86 Q1757.88 161.032 1757.88 166.448 Q1757.88 172.027 1754.41 175.129 Q1750.93 178.208 1744.61 178.208 Q1742.44 178.208 1740.17 177.837 Q1737.93 177.467 1735.52 176.726 L1735.52 172.027 Q1737.6 173.161 1739.82 173.717 Q1742.05 174.272 1744.52 174.272 Q1748.53 174.272 1750.86 172.166 Q1753.2 170.059 1753.2 166.448 Q1753.2 162.837 1750.86 160.731 Q1748.53 158.624 1744.52 158.624 Q1742.65 158.624 1740.77 159.041 Q1738.92 159.458 1736.98 160.337 L1736.98 142.976 Z" fill="#000000" fill-rule="nonzero" fill-opacity="1" /><path clip-path="url(#clip190)" d="M1653.63 801.08 Q1649.69 798.884 1647.81 795.829 Q1645.93 792.773 1645.93 788.636 Q1645.93 783.066 1649.85 780.042 Q1653.73 777.018 1660.92 777.018 L1682.44 777.018 L1682.44 782.906 L1661.11 782.906 Q1655.99 782.906 1653.51 784.721 Q1651.02 786.535 1651.02 790.259 Q1651.02 794.81 1654.05 797.452 Q1657.07 800.094 1662.29 800.094 L1682.44 800.094 L1682.44 805.982 L1661.11 805.982 Q1655.96 805.982 1653.51 807.796 Q1651.02 809.611 1651.02 813.398 Q1651.02 817.886 1654.08 820.528 Q1657.1 823.169 1662.29 823.169 L1682.44 823.169 L1682.44 829.058 L1646.79 829.058 L1646.79 823.169 L1652.33 823.169 Q1649.05 821.164 1647.49 818.363 Q1645.93 815.562 1645.93 811.711 Q1645.93 807.828 1647.9 805.123 Q1649.88 802.385 1653.63 801.08 Z" fill="#000000" fill-rule="nonzero" fill-opacity="1" /><path clip-path="url(#clip190)" d="M1646.79 765.337 L1646.79 759.481 L1682.44 759.481 L1682.44 765.337 L1646.79 765.337 M1632.91 765.337 L1632.91 759.481 L1640.33 759.481 L1640.33 765.337 L1632.91 765.337 Z" fill="#000000" fill-rule="nonzero" fill-opacity="1" /><path clip-path="url(#clip190)" d="M1660.92 717.594 L1682.44 717.594 L1682.44 723.451 L1661.11 723.451 Q1656.05 723.451 1653.54 725.424 Q1651.02 727.397 1651.02 731.344 Q1651.02 736.087 1654.05 738.824 Q1657.07 741.561 1662.29 741.561 L1682.44 741.561 L1682.44 747.449 L1646.79 747.449 L1646.79 741.561 L1652.33 741.561 Q1649.11 739.46 1647.52 736.628 Q1645.93 733.763 1645.93 730.039 Q1645.93 723.896 1649.75 720.745 Q1653.54 717.594 1660.92 717.594 Z" fill="#000000" fill-rule="nonzero" fill-opacity="1" /><path clip-path="url(#clip190)" d="M1888.68 12.096 L1900.87 12.096 L1916.3 53.2532 L1931.82 12.096 L1944.01 12.096 L1944.01 72.576 L1936.03 72.576 L1936.03 19.4686 L1920.44 60.9499 L1912.21 60.9499 L1896.62 19.4686 L1896.62 72.576 L1888.68 72.576 L1888.68 12.096 Z" fill="#000000" fill-rule="nonzero" fill-opacity="1" /><path clip-path="url(#clip190)" d="M1959.93 27.2059 L1967.39 27.2059 L1967.39 72.576 L1959.93 72.576 L1959.93 27.2059 M1959.93 9.54393 L1967.39 9.54393 L1967.39 18.9825 L1959.93 18.9825 L1959.93 9.54393 Z" fill="#000000" fill-rule="nonzero" fill-opacity="1" /><path clip-path="url(#clip190)" d="M2020.7 45.1919 L2020.7 72.576 L2013.24 72.576 L2013.24 45.4349 Q2013.24 38.994 2010.73 35.7938 Q2008.22 32.5936 2003.2 32.5936 Q1997.16 32.5936 1993.68 36.4419 Q1990.19 40.2903 1990.19 46.9338 L1990.19 72.576 L1982.7 72.576 L1982.7 27.2059 L1990.19 27.2059 L1990.19 34.2544 Q1992.87 30.163 1996.47 28.1376 Q2000.12 26.1121 2004.86 26.1121 Q2012.68 26.1121 2016.69 30.9732 Q2020.7 35.7938 2020.7 45.1919 Z" fill="#000000" fill-rule="nonzero" fill-opacity="1" /><path clip-path="url(#clip190)" d="M2035.56 27.2059 L2043.02 27.2059 L2043.02 72.576 L2035.56 72.576 L2035.56 27.2059 M2035.56 9.54393 L2043.02 9.54393 L2043.02 18.9825 L2035.56 18.9825 L2035.56 9.54393 Z" fill="#000000" fill-rule="nonzero" fill-opacity="1" /><path clip-path="url(#clip190)" d="M2093.94 35.9153 Q2096.73 30.8922 2100.62 28.5022 Q2104.51 26.1121 2109.78 26.1121 Q2116.86 26.1121 2120.71 31.0947 Q2124.56 36.0368 2124.56 45.1919 L2124.56 72.576 L2117.07 72.576 L2117.07 45.4349 Q2117.07 38.913 2114.76 35.7533 Q2112.45 32.5936 2107.71 32.5936 Q2101.92 32.5936 2098.55 36.4419 Q2095.19 40.2903 2095.19 46.9338 L2095.19 72.576 L2087.7 72.576 L2087.7 45.4349 Q2087.7 38.8725 2085.39 35.7533 Q2083.08 32.5936 2078.26 32.5936 Q2072.55 32.5936 2069.19 36.4824 Q2065.82 40.3308 2065.82 46.9338 L2065.82 72.576 L2058.33 72.576 L2058.33 27.2059 L2065.82 27.2059 L2065.82 34.2544 Q2068.38 30.082 2071.94 28.0971 Q2075.5 26.1121 2080.41 26.1121 Q2085.35 26.1121 2088.79 28.6237 Q2092.28 31.1352 2093.94 35.9153 Z" fill="#000000" fill-rule="nonzero" fill-opacity="1" /><path clip-path="url(#clip190)" d="M2138.66 54.671 L2138.66 27.2059 L2146.11 27.2059 L2146.11 54.3874 Q2146.11 60.8284 2148.62 64.0691 Q2151.14 67.2693 2156.16 67.2693 Q2162.19 67.2693 2165.68 63.421 Q2169.2 59.5726 2169.2 52.9291 L2169.2 27.2059 L2176.66 27.2059 L2176.66 72.576 L2169.2 72.576 L2169.2 65.6084 Q2166.49 69.7404 2162.88 71.7658 Q2159.32 73.7508 2154.58 73.7508 Q2146.76 73.7508 2142.71 68.8897 Q2138.66 64.0286 2138.66 54.671 M2157.41 26.1121 L2157.41 26.1121 Z" fill="#000000" fill-rule="nonzero" fill-opacity="1" /><path clip-path="url(#clip190)" d="M2227.33 35.9153 Q2230.13 30.8922 2234.02 28.5022 Q2237.91 26.1121 2243.17 26.1121 Q2250.26 26.1121 2254.11 31.0947 Q2257.96 36.0368 2257.96 45.1919 L2257.96 72.576 L2250.46 72.576 L2250.46 45.4349 Q2250.46 38.913 2248.15 35.7533 Q2245.85 32.5936 2241.11 32.5936 Q2235.31 32.5936 2231.95 36.4419 Q2228.59 40.2903 2228.59 46.9338 L2228.59 72.576 L2221.09 72.576 L2221.09 45.4349 Q2221.09 38.8725 2218.79 35.7533 Q2216.48 32.5936 2211.66 32.5936 Q2205.94 32.5936 2202.58 36.4824 Q2199.22 40.3308 2199.22 46.9338 L2199.22 72.576 L2191.73 72.576 L2191.73 27.2059 L2199.22 27.2059 L2199.22 34.2544 Q2201.77 30.082 2205.34 28.0971 Q2208.9 26.1121 2213.8 26.1121 Q2218.74 26.1121 2222.19 28.6237 Q2225.67 31.1352 2227.33 35.9153 Z" fill="#000000" fill-rule="nonzero" fill-opacity="1" /><polyline clip-path="url(#clip194)" style="stroke:#009af9; stroke-linecap:round; stroke-linejoin:round; stroke-width:4; stroke-opacity:1; fill:none" points="1809.7,1386.4 1823.22,1386.4 1836.73,1386.4 1850.25,1386.4 1863.77,1141.17 1877.29,1141.17 1890.81,1141.17 1904.33,1141.17 1917.85,895.94 1931.37,895.94 1944.89,895.94 1958.41,895.94 1971.92,650.712 1985.44,650.712 1998.96,650.712 2012.48,650.712 2026,405.484 2039.52,160.256 2053.04,160.256 2066.56,160.256 2080.08,160.256 2093.6,405.484 2107.11,405.484 2120.63,405.484 2134.15,405.484 2147.67,650.712 2161.19,650.712 2174.71,650.712 2188.23,650.712 2201.75,895.94 2215.27,895.94 2228.79,895.94 2242.31,895.94 2255.82,1141.17 2269.34,1141.17 2282.86,1141.17 2296.38,1141.17 2309.9,1386.4 2323.42,1386.4 2336.94,1386.4 "/>
</svg>
