<?xml version="1.0" encoding="utf-8"?>
<svg xmlns="http://www.w3.org/2000/svg" xmlns:xlink="http://www.w3.org/1999/xlink" width="600" height="400" viewBox="0 0 2400 1600">
<defs>
  <clipPath id="clip690">
    <rect x="0" y="0" width="2400" height="1600"/>
  </clipPath>
</defs>
<path clip-path="url(#clip690)" d="M0 1600 L2400 1600 L2400 0 L0 0  Z" fill="#ffffff" fill-rule="evenodd" fill-opacity="1"/>
<defs>
  <clipPath id="clip691">
    <rect x="480" y="0" width="1681" height="1600"/>
  </clipPath>
</defs>
<path clip-path="url(#clip690)" d="M202.227 1486.45 L761.105 1486.45 L761.105 47.2441 L202.227 47.2441  Z" fill="#ffffff" fill-rule="evenodd" fill-opacity="1"/>
<defs>
  <clipPath id="clip692">
    <rect x="202" y="47" width="560" height="1440"/>
  </clipPath>
</defs>
<polyline clip-path="url(#clip692)" style="stroke:#000000; stroke-linecap:round; stroke-linejoin:round; stroke-width:2; stroke-opacity:0.1; fill:none" points="204.526,1486.45 204.526,47.2441 "/>
<polyline clip-path="url(#clip692)" style="stroke:#000000; stroke-linecap:round; stroke-linejoin:round; stroke-width:2; stroke-opacity:0.1; fill:none" points="339.716,1486.45 339.716,47.2441 "/>
<polyline clip-path="url(#clip692)" style="stroke:#000000; stroke-linecap:round; stroke-linejoin:round; stroke-width:2; stroke-opacity:0.1; fill:none" points="474.907,1486.45 474.907,47.2441 "/>
<polyline clip-path="url(#clip692)" style="stroke:#000000; stroke-linecap:round; stroke-linejoin:round; stroke-width:2; stroke-opacity:0.1; fill:none" points="610.097,1486.45 610.097,47.2441 "/>
<polyline clip-path="url(#clip692)" style="stroke:#000000; stroke-linecap:round; stroke-linejoin:round; stroke-width:2; stroke-opacity:0.1; fill:none" points="745.287,1486.45 745.287,47.2441 "/>
<polyline clip-path="url(#clip692)" style="stroke:#000000; stroke-linecap:round; stroke-linejoin:round; stroke-width:2; stroke-opacity:0.1; fill:none" points="202.227,1445.72 761.105,1445.72 "/>
<polyline clip-path="url(#clip692)" style="stroke:#000000; stroke-linecap:round; stroke-linejoin:round; stroke-width:2; stroke-opacity:0.1; fill:none" points="202.227,1240.77 761.105,1240.77 "/>
<polyline clip-path="url(#clip692)" style="stroke:#000000; stroke-linecap:round; stroke-linejoin:round; stroke-width:2; stroke-opacity:0.1; fill:none" points="202.227,1035.83 761.105,1035.83 "/>
<polyline clip-path="url(#clip692)" style="stroke:#000000; stroke-linecap:round; stroke-linejoin:round; stroke-width:2; stroke-opacity:0.1; fill:none" points="202.227,830.89 761.105,830.89 "/>
<polyline clip-path="url(#clip692)" style="stroke:#000000; stroke-linecap:round; stroke-linejoin:round; stroke-width:2; stroke-opacity:0.1; fill:none" points="202.227,625.948 761.105,625.948 "/>
<polyline clip-path="url(#clip692)" style="stroke:#000000; stroke-linecap:round; stroke-linejoin:round; stroke-width:2; stroke-opacity:0.1; fill:none" points="202.227,421.007 761.105,421.007 "/>
<polyline clip-path="url(#clip692)" style="stroke:#000000; stroke-linecap:round; stroke-linejoin:round; stroke-width:2; stroke-opacity:0.1; fill:none" points="202.227,216.065 761.105,216.065 "/>
<polyline clip-path="url(#clip690)" style="stroke:#000000; stroke-linecap:round; stroke-linejoin:round; stroke-width:4; stroke-opacity:1; fill:none" points="202.227,1486.45 761.105,1486.45 "/>
<polyline clip-path="url(#clip690)" style="stroke:#000000; stroke-linecap:round; stroke-linejoin:round; stroke-width:4; stroke-opacity:1; fill:none" points="204.526,1486.45 204.526,1467.55 "/>
<polyline clip-path="url(#clip690)" style="stroke:#000000; stroke-linecap:round; stroke-linejoin:round; stroke-width:4; stroke-opacity:1; fill:none" points="339.716,1486.45 339.716,1467.55 "/>
<polyline clip-path="url(#clip690)" style="stroke:#000000; stroke-linecap:round; stroke-linejoin:round; stroke-width:4; stroke-opacity:1; fill:none" points="474.907,1486.45 474.907,1467.55 "/>
<polyline clip-path="url(#clip690)" style="stroke:#000000; stroke-linecap:round; stroke-linejoin:round; stroke-width:4; stroke-opacity:1; fill:none" points="610.097,1486.45 610.097,1467.55 "/>
<polyline clip-path="url(#clip690)" style="stroke:#000000; stroke-linecap:round; stroke-linejoin:round; stroke-width:4; stroke-opacity:1; fill:none" points="745.287,1486.45 745.287,1467.55 "/>
<path clip-path="url(#clip690)" d="M204.526 1517.37 Q200.915 1517.37 199.086 1520.93 Q197.28 1524.47 197.28 1531.6 Q197.28 1538.71 199.086 1542.27 Q200.915 1545.82 204.526 1545.82 Q208.16 1545.82 209.965 1542.27 Q211.794 1538.71 211.794 1531.6 Q211.794 1524.47 209.965 1520.93 Q208.16 1517.37 204.526 1517.37 M204.526 1513.66 Q210.336 1513.66 213.391 1518.27 Q216.47 1522.85 216.47 1531.6 Q216.47 1540.33 213.391 1544.94 Q210.336 1549.52 204.526 1549.52 Q198.716 1549.52 195.637 1544.94 Q192.581 1540.33 192.581 1531.6 Q192.581 1522.85 195.637 1518.27 Q198.716 1513.66 204.526 1513.66 Z" fill="#000000" fill-rule="nonzero" fill-opacity="1" /><path clip-path="url(#clip690)" d="M314.404 1544.91 L322.043 1544.91 L322.043 1518.55 L313.732 1520.21 L313.732 1515.95 L321.996 1514.29 L326.672 1514.29 L326.672 1544.91 L334.311 1544.91 L334.311 1548.85 L314.404 1548.85 L314.404 1544.91 Z" fill="#000000" fill-rule="nonzero" fill-opacity="1" /><path clip-path="url(#clip690)" d="M353.755 1517.37 Q350.144 1517.37 348.316 1520.93 Q346.51 1524.47 346.51 1531.6 Q346.51 1538.71 348.316 1542.27 Q350.144 1545.82 353.755 1545.82 Q357.39 1545.82 359.195 1542.27 Q361.024 1538.71 361.024 1531.6 Q361.024 1524.47 359.195 1520.93 Q357.39 1517.37 353.755 1517.37 M353.755 1513.66 Q359.566 1513.66 362.621 1518.27 Q365.7 1522.85 365.7 1531.6 Q365.7 1540.33 362.621 1544.94 Q359.566 1549.52 353.755 1549.52 Q347.945 1549.52 344.867 1544.94 Q341.811 1540.33 341.811 1531.6 Q341.811 1522.85 344.867 1518.27 Q347.945 1513.66 353.755 1513.66 Z" fill="#000000" fill-rule="nonzero" fill-opacity="1" /><path clip-path="url(#clip690)" d="M453.68 1544.91 L469.999 1544.91 L469.999 1548.85 L448.055 1548.85 L448.055 1544.91 Q450.717 1542.16 455.3 1537.53 Q459.907 1532.88 461.087 1531.53 Q463.333 1529.01 464.212 1527.27 Q465.115 1525.51 465.115 1523.82 Q465.115 1521.07 463.17 1519.33 Q461.249 1517.6 458.147 1517.6 Q455.948 1517.6 453.495 1518.36 Q451.064 1519.13 448.286 1520.68 L448.286 1515.95 Q451.11 1514.82 453.564 1514.24 Q456.018 1513.66 458.055 1513.66 Q463.425 1513.66 466.62 1516.35 Q469.814 1519.03 469.814 1523.52 Q469.814 1525.65 469.004 1527.57 Q468.217 1529.47 466.11 1532.07 Q465.532 1532.74 462.43 1535.95 Q459.328 1539.15 453.68 1544.91 Z" fill="#000000" fill-rule="nonzero" fill-opacity="1" /><path clip-path="url(#clip690)" d="M489.814 1517.37 Q486.203 1517.37 484.374 1520.93 Q482.569 1524.47 482.569 1531.6 Q482.569 1538.71 484.374 1542.27 Q486.203 1545.82 489.814 1545.82 Q493.448 1545.82 495.254 1542.27 Q497.082 1538.71 497.082 1531.6 Q497.082 1524.47 495.254 1520.93 Q493.448 1517.37 489.814 1517.37 M489.814 1513.66 Q495.624 1513.66 498.68 1518.27 Q501.758 1522.85 501.758 1531.6 Q501.758 1540.33 498.68 1544.94 Q495.624 1549.52 489.814 1549.52 Q484.004 1549.52 480.925 1544.94 Q477.869 1540.33 477.869 1531.6 Q477.869 1522.85 480.925 1518.27 Q484.004 1513.66 489.814 1513.66 Z" fill="#000000" fill-rule="nonzero" fill-opacity="1" /><path clip-path="url(#clip690)" d="M598.94 1530.21 Q602.296 1530.93 604.171 1533.2 Q606.069 1535.47 606.069 1538.8 Q606.069 1543.92 602.551 1546.72 Q599.032 1549.52 592.551 1549.52 Q590.375 1549.52 588.06 1549.08 Q585.768 1548.66 583.315 1547.81 L583.315 1543.29 Q585.259 1544.43 587.574 1545.01 Q589.889 1545.58 592.412 1545.58 Q596.81 1545.58 599.102 1543.85 Q601.416 1542.11 601.416 1538.8 Q601.416 1535.75 599.264 1534.03 Q597.134 1532.3 593.315 1532.3 L589.287 1532.3 L589.287 1528.45 L593.5 1528.45 Q596.949 1528.45 598.778 1527.09 Q600.606 1525.7 600.606 1523.11 Q600.606 1520.45 598.708 1519.03 Q596.833 1517.6 593.315 1517.6 Q591.393 1517.6 589.194 1518.01 Q586.995 1518.43 584.356 1519.31 L584.356 1515.14 Q587.018 1514.4 589.333 1514.03 Q591.671 1513.66 593.731 1513.66 Q599.055 1513.66 602.157 1516.09 Q605.259 1518.5 605.259 1522.62 Q605.259 1525.49 603.615 1527.48 Q601.972 1529.45 598.94 1530.21 Z" fill="#000000" fill-rule="nonzero" fill-opacity="1" /><path clip-path="url(#clip690)" d="M624.935 1517.37 Q621.324 1517.37 619.495 1520.93 Q617.689 1524.47 617.689 1531.6 Q617.689 1538.71 619.495 1542.27 Q621.324 1545.82 624.935 1545.82 Q628.569 1545.82 630.375 1542.27 Q632.203 1538.71 632.203 1531.6 Q632.203 1524.47 630.375 1520.93 Q628.569 1517.37 624.935 1517.37 M624.935 1513.66 Q630.745 1513.66 633.801 1518.27 Q636.879 1522.85 636.879 1531.6 Q636.879 1540.33 633.801 1544.94 Q630.745 1549.52 624.935 1549.52 Q619.125 1549.52 616.046 1544.94 Q612.99 1540.33 612.99 1531.6 Q612.99 1522.85 616.046 1518.27 Q619.125 1513.66 624.935 1513.66 Z" fill="#000000" fill-rule="nonzero" fill-opacity="1" /><path clip-path="url(#clip690)" d="M733.459 1518.36 L721.653 1536.81 L733.459 1536.81 L733.459 1518.36 M732.232 1514.29 L738.111 1514.29 L738.111 1536.81 L743.042 1536.81 L743.042 1540.7 L738.111 1540.7 L738.111 1548.85 L733.459 1548.85 L733.459 1540.7 L717.857 1540.7 L717.857 1536.19 L732.232 1514.29 Z" fill="#000000" fill-rule="nonzero" fill-opacity="1" /><path clip-path="url(#clip690)" d="M760.773 1517.37 Q757.162 1517.37 755.334 1520.93 Q753.528 1524.47 753.528 1531.6 Q753.528 1538.71 755.334 1542.27 Q757.162 1545.82 760.773 1545.82 Q764.408 1545.82 766.213 1542.27 Q768.042 1538.71 768.042 1531.6 Q768.042 1524.47 766.213 1520.93 Q764.408 1517.37 760.773 1517.37 M760.773 1513.66 Q766.584 1513.66 769.639 1518.27 Q772.718 1522.85 772.718 1531.6 Q772.718 1540.33 769.639 1544.94 Q766.584 1549.52 760.773 1549.52 Q754.963 1549.52 751.885 1544.94 Q748.829 1540.33 748.829 1531.6 Q748.829 1522.85 751.885 1518.27 Q754.963 1513.66 760.773 1513.66 Z" fill="#000000" fill-rule="nonzero" fill-opacity="1" /><polyline clip-path="url(#clip690)" style="stroke:#000000; stroke-linecap:round; stroke-linejoin:round; stroke-width:4; stroke-opacity:1; fill:none" points="202.227,1486.45 202.227,47.2441 "/>
<polyline clip-path="url(#clip690)" style="stroke:#000000; stroke-linecap:round; stroke-linejoin:round; stroke-width:4; stroke-opacity:1; fill:none" points="202.227,1445.72 221.125,1445.72 "/>
<polyline clip-path="url(#clip690)" style="stroke:#000000; stroke-linecap:round; stroke-linejoin:round; stroke-width:4; stroke-opacity:1; fill:none" points="202.227,1240.77 221.125,1240.77 "/>
<polyline clip-path="url(#clip690)" style="stroke:#000000; stroke-linecap:round; stroke-linejoin:round; stroke-width:4; stroke-opacity:1; fill:none" points="202.227,1035.83 221.125,1035.83 "/>
<polyline clip-path="url(#clip690)" style="stroke:#000000; stroke-linecap:round; stroke-linejoin:round; stroke-width:4; stroke-opacity:1; fill:none" points="202.227,830.89 221.125,830.89 "/>
<polyline clip-path="url(#clip690)" style="stroke:#000000; stroke-linecap:round; stroke-linejoin:round; stroke-width:4; stroke-opacity:1; fill:none" points="202.227,625.948 221.125,625.948 "/>
<polyline clip-path="url(#clip690)" style="stroke:#000000; stroke-linecap:round; stroke-linejoin:round; stroke-width:4; stroke-opacity:1; fill:none" points="202.227,421.007 221.125,421.007 "/>
<polyline clip-path="url(#clip690)" style="stroke:#000000; stroke-linecap:round; stroke-linejoin:round; stroke-width:4; stroke-opacity:1; fill:none" points="202.227,216.065 221.125,216.065 "/>
<path clip-path="url(#clip690)" d="M154.283 1431.51 Q150.672 1431.51 148.843 1435.08 Q147.038 1438.62 147.038 1445.75 Q147.038 1452.86 148.843 1456.42 Q150.672 1459.96 154.283 1459.96 Q157.917 1459.96 159.723 1456.42 Q161.552 1452.86 161.552 1445.75 Q161.552 1438.62 159.723 1435.08 Q157.917 1431.51 154.283 1431.51 M154.283 1427.81 Q160.093 1427.81 163.149 1432.42 Q166.227 1437 166.227 1445.75 Q166.227 1454.48 163.149 1459.08 Q160.093 1463.67 154.283 1463.67 Q148.473 1463.67 145.394 1459.08 Q142.339 1454.48 142.339 1445.75 Q142.339 1437 145.394 1432.42 Q148.473 1427.81 154.283 1427.81 Z" fill="#000000" fill-rule="nonzero" fill-opacity="1" /><path clip-path="url(#clip690)" d="M149.908 1254.12 L166.227 1254.12 L166.227 1258.05 L144.283 1258.05 L144.283 1254.12 Q146.945 1251.36 151.528 1246.73 Q156.135 1242.08 157.315 1240.74 Q159.561 1238.22 160.44 1236.48 Q161.343 1234.72 161.343 1233.03 Q161.343 1230.28 159.399 1228.54 Q157.478 1226.8 154.376 1226.8 Q152.177 1226.8 149.723 1227.57 Q147.292 1228.33 144.515 1229.88 L144.515 1225.16 Q147.339 1224.03 149.792 1223.45 Q152.246 1222.87 154.283 1222.87 Q159.653 1222.87 162.848 1225.55 Q166.042 1228.24 166.042 1232.73 Q166.042 1234.86 165.232 1236.78 Q164.445 1238.68 162.339 1241.27 Q161.76 1241.94 158.658 1245.16 Q155.556 1248.35 149.908 1254.12 Z" fill="#000000" fill-rule="nonzero" fill-opacity="1" /><path clip-path="url(#clip690)" d="M156.644 1022.63 L144.839 1041.08 L156.644 1041.08 L156.644 1022.63 M155.417 1018.55 L161.297 1018.55 L161.297 1041.08 L166.227 1041.08 L166.227 1044.96 L161.297 1044.96 L161.297 1053.11 L156.644 1053.11 L156.644 1044.96 L141.042 1044.96 L141.042 1040.45 L155.417 1018.55 Z" fill="#000000" fill-rule="nonzero" fill-opacity="1" /><path clip-path="url(#clip690)" d="M154.7 829.027 Q151.552 829.027 149.7 831.18 Q147.871 833.332 147.871 837.082 Q147.871 840.809 149.7 842.985 Q151.552 845.138 154.7 845.138 Q157.848 845.138 159.677 842.985 Q161.528 840.809 161.528 837.082 Q161.528 833.332 159.677 831.18 Q157.848 829.027 154.7 829.027 M163.982 814.374 L163.982 818.633 Q162.223 817.8 160.417 817.36 Q158.635 816.92 156.876 816.92 Q152.246 816.92 149.792 820.045 Q147.362 823.17 147.015 829.49 Q148.38 827.476 150.441 826.411 Q152.501 825.323 154.978 825.323 Q160.186 825.323 163.195 828.494 Q166.227 831.643 166.227 837.082 Q166.227 842.406 163.079 845.624 Q159.931 848.842 154.7 848.842 Q148.704 848.842 145.533 844.258 Q142.362 839.652 142.362 830.925 Q142.362 822.731 146.251 817.87 Q150.14 812.985 156.69 812.985 Q158.45 812.985 160.232 813.333 Q162.038 813.68 163.982 814.374 Z" fill="#000000" fill-rule="nonzero" fill-opacity="1" /><path clip-path="url(#clip690)" d="M154.376 626.817 Q151.042 626.817 149.121 628.599 Q147.223 630.381 147.223 633.506 Q147.223 636.631 149.121 638.414 Q151.042 640.196 154.376 640.196 Q157.709 640.196 159.63 638.414 Q161.552 636.608 161.552 633.506 Q161.552 630.381 159.63 628.599 Q157.732 626.817 154.376 626.817 M149.7 624.826 Q146.691 624.085 145.001 622.025 Q143.334 619.965 143.334 617.002 Q143.334 612.858 146.274 610.451 Q149.237 608.044 154.376 608.044 Q159.538 608.044 162.477 610.451 Q165.417 612.858 165.417 617.002 Q165.417 619.965 163.727 622.025 Q162.061 624.085 159.075 624.826 Q162.454 625.613 164.329 627.905 Q166.227 630.196 166.227 633.506 Q166.227 638.529 163.149 641.215 Q160.093 643.9 154.376 643.9 Q148.658 643.9 145.579 641.215 Q142.524 638.529 142.524 633.506 Q142.524 630.196 144.422 627.905 Q146.32 625.613 149.7 624.826 M147.987 617.442 Q147.987 620.127 149.653 621.631 Q151.343 623.136 154.376 623.136 Q157.385 623.136 159.075 621.631 Q160.788 620.127 160.788 617.442 Q160.788 614.756 159.075 613.252 Q157.385 611.747 154.376 611.747 Q151.343 611.747 149.653 613.252 Q147.987 614.756 147.987 617.442 Z" fill="#000000" fill-rule="nonzero" fill-opacity="1" /><path clip-path="url(#clip690)" d="M114.931 434.352 L122.57 434.352 L122.57 407.986 L114.26 409.653 L114.26 405.393 L122.524 403.727 L127.2 403.727 L127.2 434.352 L134.839 434.352 L134.839 438.287 L114.931 438.287 L114.931 434.352 Z" fill="#000000" fill-rule="nonzero" fill-opacity="1" /><path clip-path="url(#clip690)" d="M154.283 406.805 Q150.672 406.805 148.843 410.37 Q147.038 413.912 147.038 421.041 Q147.038 428.148 148.843 431.713 Q150.672 435.254 154.283 435.254 Q157.917 435.254 159.723 431.713 Q161.552 428.148 161.552 421.041 Q161.552 413.912 159.723 410.37 Q157.917 406.805 154.283 406.805 M154.283 403.102 Q160.093 403.102 163.149 407.708 Q166.227 412.291 166.227 421.041 Q166.227 429.768 163.149 434.375 Q160.093 438.958 154.283 438.958 Q148.473 438.958 145.394 434.375 Q142.339 429.768 142.339 421.041 Q142.339 412.291 145.394 407.708 Q148.473 403.102 154.283 403.102 Z" fill="#000000" fill-rule="nonzero" fill-opacity="1" /><path clip-path="url(#clip690)" d="M116.529 229.41 L124.168 229.41 L124.168 203.044 L115.857 204.711 L115.857 200.452 L124.121 198.785 L128.797 198.785 L128.797 229.41 L136.436 229.41 L136.436 233.345 L116.529 233.345 L116.529 229.41 Z" fill="#000000" fill-rule="nonzero" fill-opacity="1" /><path clip-path="url(#clip690)" d="M149.908 229.41 L166.227 229.41 L166.227 233.345 L144.283 233.345 L144.283 229.41 Q146.945 226.655 151.528 222.026 Q156.135 217.373 157.315 216.03 Q159.561 213.507 160.44 211.771 Q161.343 210.012 161.343 208.322 Q161.343 205.567 159.399 203.831 Q157.478 202.095 154.376 202.095 Q152.177 202.095 149.723 202.859 Q147.292 203.623 144.515 205.174 L144.515 200.452 Q147.339 199.317 149.792 198.739 Q152.246 198.16 154.283 198.16 Q159.653 198.16 162.848 200.845 Q166.042 203.53 166.042 208.021 Q166.042 210.151 165.232 212.072 Q164.445 213.97 162.339 216.563 Q161.76 217.234 158.658 220.451 Q155.556 223.646 149.908 229.41 Z" fill="#000000" fill-rule="nonzero" fill-opacity="1" /><path clip-path="url(#clip690)" d="M46.0847 878.15 Q46.0847 885.248 47.7079 887.985 Q49.3312 890.723 53.2461 890.723 Q56.3653 890.723 58.2114 888.686 Q60.0256 886.617 60.0256 883.084 Q60.0256 878.214 56.5881 875.286 Q53.1188 872.326 47.3897 872.326 L46.0847 872.326 L46.0847 878.15 M43.6657 866.469 L64.0042 866.469 L64.0042 872.326 L58.5933 872.326 Q61.8398 874.331 63.3994 877.323 Q64.9272 880.315 64.9272 884.643 Q64.9272 890.118 61.8716 893.364 Q58.7843 896.579 53.6281 896.579 Q47.6125 896.579 44.5569 892.569 Q41.5014 888.526 41.5014 880.538 L41.5014 872.326 L40.9285 872.326 Q36.8862 872.326 34.6901 874.999 Q32.4621 877.641 32.4621 882.447 Q32.4621 885.503 33.1941 888.399 Q33.9262 891.296 35.3903 893.969 L29.9795 893.969 Q28.7381 890.754 28.1334 887.731 Q27.4968 884.707 27.4968 881.842 Q27.4968 874.108 31.5072 870.289 Q35.5176 866.469 43.6657 866.469 Z" fill="#000000" fill-rule="nonzero" fill-opacity="1" /><path clip-path="url(#clip690)" d="M28.3562 858.608 L28.3562 852.401 L58.275 841.261 L28.3562 830.121 L28.3562 823.915 L64.0042 837.283 L64.0042 845.24 L28.3562 858.608 Z" fill="#000000" fill-rule="nonzero" fill-opacity="1" /><path clip-path="url(#clip690)" d="M44.7161 785.338 L47.5806 785.338 L47.5806 812.265 Q53.6281 811.883 56.8109 808.637 Q59.9619 805.359 59.9619 799.534 Q59.9619 796.16 59.1344 793.009 Q58.3069 789.826 56.6518 786.707 L62.1899 786.707 Q63.5267 789.858 64.227 793.168 Q64.9272 796.478 64.9272 799.884 Q64.9272 808.414 59.9619 813.411 Q54.9967 818.376 46.5303 818.376 Q37.7774 818.376 32.6531 813.666 Q27.4968 808.923 27.4968 800.903 Q27.4968 793.709 32.1438 789.54 Q36.7589 785.338 44.7161 785.338 M42.9973 791.195 Q38.1912 791.258 35.3266 793.9 Q32.4621 796.51 32.4621 800.839 Q32.4621 805.74 35.2312 808.701 Q38.0002 811.629 43.0292 812.074 L42.9973 791.195 Z" fill="#000000" fill-rule="nonzero" fill-opacity="1" /><path clip-path="url(#clip690)" d="M33.8307 755.069 Q33.2578 756.056 33.0032 757.234 Q32.7167 758.38 32.7167 759.78 Q32.7167 764.745 35.9632 767.419 Q39.1779 770.061 45.2253 770.061 L64.0042 770.061 L64.0042 775.949 L28.3562 775.949 L28.3562 770.061 L33.8944 770.061 Q30.6479 768.215 29.0883 765.255 Q27.4968 762.295 27.4968 758.061 Q27.4968 757.457 27.5923 756.725 Q27.656 755.992 27.8151 755.101 L33.8307 755.069 Z" fill="#000000" fill-rule="nonzero" fill-opacity="1" /><path clip-path="url(#clip690)" d="M46.0847 732.726 Q46.0847 739.824 47.7079 742.561 Q49.3312 745.298 53.2461 745.298 Q56.3653 745.298 58.2114 743.261 Q60.0256 741.192 60.0256 737.659 Q60.0256 732.789 56.5881 729.861 Q53.1188 726.901 47.3897 726.901 L46.0847 726.901 L46.0847 732.726 M43.6657 721.045 L64.0042 721.045 L64.0042 726.901 L58.5933 726.901 Q61.8398 728.906 63.3994 731.898 Q64.9272 734.89 64.9272 739.219 Q64.9272 744.693 61.8716 747.94 Q58.7843 751.155 53.6281 751.155 Q47.6125 751.155 44.5569 747.144 Q41.5014 743.102 41.5014 735.113 L41.5014 726.901 L40.9285 726.901 Q36.8862 726.901 34.6901 729.575 Q32.4621 732.217 32.4621 737.023 Q32.4621 740.078 33.1941 742.975 Q33.9262 745.871 35.3903 748.545 L29.9795 748.545 Q28.7381 745.33 28.1334 742.306 Q27.4968 739.282 27.4968 736.418 Q27.4968 728.684 31.5072 724.864 Q35.5176 721.045 43.6657 721.045 Z" fill="#000000" fill-rule="nonzero" fill-opacity="1" /><path clip-path="url(#clip690)" d="M45.7664 685.524 Q39.4007 685.524 35.8996 688.166 Q32.3984 690.776 32.3984 695.518 Q32.3984 700.229 35.8996 702.871 Q39.4007 705.481 45.7664 705.481 Q52.1003 705.481 55.6014 702.871 Q59.1026 700.229 59.1026 695.518 Q59.1026 690.776 55.6014 688.166 Q52.1003 685.524 45.7664 685.524 M59.58 679.668 Q68.683 679.668 73.1071 683.71 Q77.5631 687.752 77.5631 696.091 Q77.5631 699.179 77.0857 701.916 Q76.6401 704.653 75.6852 707.231 L69.9879 707.231 Q71.3884 704.653 72.0568 702.139 Q72.7252 699.624 72.7252 697.014 Q72.7252 691.253 69.7015 688.389 Q66.7096 685.524 60.6303 685.524 L57.7339 685.524 Q60.885 687.338 62.4446 690.171 Q64.0042 693.004 64.0042 696.951 Q64.0042 703.507 59.0071 707.518 Q54.01 711.528 45.7664 711.528 Q37.491 711.528 32.4939 707.518 Q27.4968 703.507 27.4968 696.951 Q27.4968 693.004 29.0564 690.171 Q30.616 687.338 33.7671 685.524 L28.3562 685.524 L28.3562 679.668 L59.58 679.668 Z" fill="#000000" fill-rule="nonzero" fill-opacity="1" /><path clip-path="url(#clip690)" d="M44.7161 637.113 L47.5806 637.113 L47.5806 664.04 Q53.6281 663.658 56.8109 660.411 Q59.9619 657.133 59.9619 651.308 Q59.9619 647.935 59.1344 644.784 Q58.3069 641.601 56.6518 638.482 L62.1899 638.482 Q63.5267 641.633 64.227 644.943 Q64.9272 648.253 64.9272 651.659 Q64.9272 660.189 59.9619 665.186 Q54.9967 670.151 46.5303 670.151 Q37.7774 670.151 32.6531 665.44 Q27.4968 660.698 27.4968 652.677 Q27.4968 645.484 32.1438 641.314 Q36.7589 637.113 44.7161 637.113 M42.9973 642.969 Q38.1912 643.033 35.3266 645.675 Q32.4621 648.285 32.4621 652.613 Q32.4621 657.515 35.2312 660.475 Q38.0002 663.403 43.0292 663.849 L42.9973 642.969 Z" fill="#000000" fill-rule="nonzero" fill-opacity="1" /><polyline clip-path="url(#clip692)" style="stroke:#009af9; stroke-linecap:round; stroke-linejoin:round; stroke-width:4; stroke-opacity:1; fill:none" points="218.045,1445.72 231.564,1399.6 245.083,1331.29 258.602,1266.39 272.121,1196.37 285.64,1122.93 299.159,1056.33 312.678,1047.79 326.197,909.451 339.716,880.418 353.235,836.014 366.754,841.137 380.273,590.084 393.792,653.274 407.311,588.376 420.83,472.242 434.349,463.703 447.868,356.108 461.387,260.469 474.907,180.2 488.426,87.9763 501.945,219.481 515.464,315.12 528.983,403.928 542.502,421.007 556.021,557.635 569.54,508.107 583.059,702.802 596.578,694.262 610.097,771.116 623.616,824.059 637.135,836.014 650.654,921.406 664.173,1076.82 677.692,1107.56 691.211,1080.24 704.73,1191.25 718.249,1292.01 731.768,1329.58 745.287,1387.65 "/>
<path clip-path="url(#clip690)" d="M1012.31 1486.45 L1571.19 1486.45 L1571.19 47.2441 L1012.31 47.2441  Z" fill="#ffffff" fill-rule="evenodd" fill-opacity="1"/>
<defs>
  <clipPath id="clip693">
    <rect x="1012" y="47" width="560" height="1440"/>
  </clipPath>
</defs>
<polyline clip-path="url(#clip693)" style="stroke:#000000; stroke-linecap:round; stroke-linejoin:round; stroke-width:2; stroke-opacity:0.1; fill:none" points="1014.61,1486.45 1014.61,47.2441 "/>
<polyline clip-path="url(#clip693)" style="stroke:#000000; stroke-linecap:round; stroke-linejoin:round; stroke-width:2; stroke-opacity:0.1; fill:none" points="1149.8,1486.45 1149.8,47.2441 "/>
<polyline clip-path="url(#clip693)" style="stroke:#000000; stroke-linecap:round; stroke-linejoin:round; stroke-width:2; stroke-opacity:0.1; fill:none" points="1284.99,1486.45 1284.99,47.2441 "/>
<polyline clip-path="url(#clip693)" style="stroke:#000000; stroke-linecap:round; stroke-linejoin:round; stroke-width:2; stroke-opacity:0.1; fill:none" points="1420.18,1486.45 1420.18,47.2441 "/>
<polyline clip-path="url(#clip693)" style="stroke:#000000; stroke-linecap:round; stroke-linejoin:round; stroke-width:2; stroke-opacity:0.1; fill:none" points="1555.37,1486.45 1555.37,47.2441 "/>
<polyline clip-path="url(#clip693)" style="stroke:#000000; stroke-linecap:round; stroke-linejoin:round; stroke-width:2; stroke-opacity:0.1; fill:none" points="1012.31,1445.72 1571.19,1445.72 "/>
<polyline clip-path="url(#clip693)" style="stroke:#000000; stroke-linecap:round; stroke-linejoin:round; stroke-width:2; stroke-opacity:0.1; fill:none" points="1012.31,1106.28 1571.19,1106.28 "/>
<polyline clip-path="url(#clip693)" style="stroke:#000000; stroke-linecap:round; stroke-linejoin:round; stroke-width:2; stroke-opacity:0.1; fill:none" points="1012.31,766.846 1571.19,766.846 "/>
<polyline clip-path="url(#clip693)" style="stroke:#000000; stroke-linecap:round; stroke-linejoin:round; stroke-width:2; stroke-opacity:0.1; fill:none" points="1012.31,427.411 1571.19,427.411 "/>
<polyline clip-path="url(#clip693)" style="stroke:#000000; stroke-linecap:round; stroke-linejoin:round; stroke-width:2; stroke-opacity:0.1; fill:none" points="1012.31,87.9763 1571.19,87.9763 "/>
<polyline clip-path="url(#clip690)" style="stroke:#000000; stroke-linecap:round; stroke-linejoin:round; stroke-width:4; stroke-opacity:1; fill:none" points="1012.31,1486.45 1571.19,1486.45 "/>
<polyline clip-path="url(#clip690)" style="stroke:#000000; stroke-linecap:round; stroke-linejoin:round; stroke-width:4; stroke-opacity:1; fill:none" points="1014.61,1486.45 1014.61,1467.55 "/>
<polyline clip-path="url(#clip690)" style="stroke:#000000; stroke-linecap:round; stroke-linejoin:round; stroke-width:4; stroke-opacity:1; fill:none" points="1149.8,1486.45 1149.8,1467.55 "/>
<polyline clip-path="url(#clip690)" style="stroke:#000000; stroke-linecap:round; stroke-linejoin:round; stroke-width:4; stroke-opacity:1; fill:none" points="1284.99,1486.45 1284.99,1467.55 "/>
<polyline clip-path="url(#clip690)" style="stroke:#000000; stroke-linecap:round; stroke-linejoin:round; stroke-width:4; stroke-opacity:1; fill:none" points="1420.18,1486.45 1420.18,1467.55 "/>
<polyline clip-path="url(#clip690)" style="stroke:#000000; stroke-linecap:round; stroke-linejoin:round; stroke-width:4; stroke-opacity:1; fill:none" points="1555.37,1486.45 1555.37,1467.55 "/>
<path clip-path="url(#clip690)" d="M1014.61 1517.37 Q1011 1517.37 1009.17 1520.93 Q1007.37 1524.47 1007.37 1531.6 Q1007.37 1538.71 1009.17 1542.27 Q1011 1545.82 1014.61 1545.82 Q1018.24 1545.82 1020.05 1542.27 Q1021.88 1538.71 1021.88 1531.6 Q1021.88 1524.47 1020.05 1520.93 Q1018.24 1517.37 1014.61 1517.37 M1014.61 1513.66 Q1020.42 1513.66 1023.48 1518.27 Q1026.55 1522.85 1026.55 1531.6 Q1026.55 1540.33 1023.48 1544.94 Q1020.42 1549.52 1014.61 1549.52 Q1008.8 1549.52 1005.72 1544.94 Q1002.67 1540.33 1002.67 1531.6 Q1002.67 1522.85 1005.72 1518.27 Q1008.8 1513.66 1014.61 1513.66 Z" fill="#000000" fill-rule="nonzero" fill-opacity="1" /><path clip-path="url(#clip690)" d="M1124.49 1544.91 L1132.13 1544.91 L1132.13 1518.55 L1123.82 1520.21 L1123.82 1515.95 L1132.08 1514.29 L1136.76 1514.29 L1136.76 1544.91 L1144.4 1544.91 L1144.4 1548.85 L1124.49 1548.85 L1124.49 1544.91 Z" fill="#000000" fill-rule="nonzero" fill-opacity="1" /><path clip-path="url(#clip690)" d="M1163.84 1517.37 Q1160.23 1517.37 1158.4 1520.93 Q1156.59 1524.47 1156.59 1531.6 Q1156.59 1538.71 1158.4 1542.27 Q1160.23 1545.82 1163.84 1545.82 Q1167.47 1545.82 1169.28 1542.27 Q1171.11 1538.71 1171.11 1531.6 Q1171.11 1524.47 1169.28 1520.93 Q1167.47 1517.37 1163.84 1517.37 M1163.84 1513.66 Q1169.65 1513.66 1172.71 1518.27 Q1175.78 1522.85 1175.78 1531.6 Q1175.78 1540.33 1172.71 1544.94 Q1169.65 1549.52 1163.84 1549.52 Q1158.03 1549.52 1154.95 1544.94 Q1151.9 1540.33 1151.9 1531.6 Q1151.9 1522.85 1154.95 1518.27 Q1158.03 1513.66 1163.84 1513.66 Z" fill="#000000" fill-rule="nonzero" fill-opacity="1" /><path clip-path="url(#clip690)" d="M1263.76 1544.91 L1280.08 1544.91 L1280.08 1548.85 L1258.14 1548.85 L1258.14 1544.91 Q1260.8 1542.16 1265.38 1537.53 Q1269.99 1532.88 1271.17 1531.53 Q1273.42 1529.01 1274.3 1527.27 Q1275.2 1525.51 1275.2 1523.82 Q1275.2 1521.07 1273.26 1519.33 Q1271.33 1517.6 1268.23 1517.6 Q1266.03 1517.6 1263.58 1518.36 Q1261.15 1519.13 1258.37 1520.68 L1258.37 1515.95 Q1261.2 1514.82 1263.65 1514.24 Q1266.1 1513.66 1268.14 1513.66 Q1273.51 1513.66 1276.7 1516.35 Q1279.9 1519.03 1279.9 1523.52 Q1279.9 1525.65 1279.09 1527.57 Q1278.3 1529.47 1276.2 1532.07 Q1275.62 1532.74 1272.51 1535.95 Q1269.41 1539.15 1263.76 1544.91 Z" fill="#000000" fill-rule="nonzero" fill-opacity="1" /><path clip-path="url(#clip690)" d="M1299.9 1517.37 Q1296.29 1517.37 1294.46 1520.93 Q1292.65 1524.47 1292.65 1531.6 Q1292.65 1538.71 1294.46 1542.27 Q1296.29 1545.82 1299.9 1545.82 Q1303.53 1545.82 1305.34 1542.27 Q1307.17 1538.71 1307.17 1531.6 Q1307.17 1524.47 1305.34 1520.93 Q1303.53 1517.37 1299.9 1517.37 M1299.9 1513.66 Q1305.71 1513.66 1308.76 1518.27 Q1311.84 1522.85 1311.84 1531.6 Q1311.84 1540.33 1308.76 1544.94 Q1305.71 1549.52 1299.9 1549.52 Q1294.09 1549.52 1291.01 1544.94 Q1287.95 1540.33 1287.95 1531.6 Q1287.95 1522.85 1291.01 1518.27 Q1294.09 1513.66 1299.9 1513.66 Z" fill="#000000" fill-rule="nonzero" fill-opacity="1" /><path clip-path="url(#clip690)" d="M1409.02 1530.21 Q1412.38 1530.93 1414.26 1533.2 Q1416.15 1535.47 1416.15 1538.8 Q1416.15 1543.92 1412.64 1546.72 Q1409.12 1549.52 1402.64 1549.52 Q1400.46 1549.52 1398.14 1549.08 Q1395.85 1548.66 1393.4 1547.81 L1393.4 1543.29 Q1395.34 1544.43 1397.66 1545.01 Q1399.97 1545.58 1402.5 1545.58 Q1406.89 1545.58 1409.19 1543.85 Q1411.5 1542.11 1411.5 1538.8 Q1411.5 1535.75 1409.35 1534.03 Q1407.22 1532.3 1403.4 1532.3 L1399.37 1532.3 L1399.37 1528.45 L1403.58 1528.45 Q1407.03 1528.45 1408.86 1527.09 Q1410.69 1525.7 1410.69 1523.11 Q1410.69 1520.45 1408.79 1519.03 Q1406.92 1517.6 1403.4 1517.6 Q1401.48 1517.6 1399.28 1518.01 Q1397.08 1518.43 1394.44 1519.31 L1394.44 1515.14 Q1397.1 1514.4 1399.42 1514.03 Q1401.76 1513.66 1403.82 1513.66 Q1409.14 1513.66 1412.24 1516.09 Q1415.34 1518.5 1415.34 1522.62 Q1415.34 1525.49 1413.7 1527.48 Q1412.06 1529.45 1409.02 1530.21 Z" fill="#000000" fill-rule="nonzero" fill-opacity="1" /><path clip-path="url(#clip690)" d="M1435.02 1517.37 Q1431.41 1517.37 1429.58 1520.93 Q1427.77 1524.47 1427.77 1531.6 Q1427.77 1538.71 1429.58 1542.27 Q1431.41 1545.82 1435.02 1545.82 Q1438.65 1545.82 1440.46 1542.27 Q1442.29 1538.71 1442.29 1531.6 Q1442.29 1524.47 1440.46 1520.93 Q1438.65 1517.37 1435.02 1517.37 M1435.02 1513.66 Q1440.83 1513.66 1443.89 1518.27 Q1446.96 1522.85 1446.96 1531.6 Q1446.96 1540.33 1443.89 1544.94 Q1440.83 1549.52 1435.02 1549.52 Q1429.21 1549.52 1426.13 1544.94 Q1423.08 1540.33 1423.08 1531.6 Q1423.08 1522.85 1426.13 1518.27 Q1429.21 1513.66 1435.02 1513.66 Z" fill="#000000" fill-rule="nonzero" fill-opacity="1" /><path clip-path="url(#clip690)" d="M1543.54 1518.36 L1531.74 1536.81 L1543.54 1536.81 L1543.54 1518.36 M1542.32 1514.29 L1548.2 1514.29 L1548.2 1536.81 L1553.13 1536.81 L1553.13 1540.7 L1548.2 1540.7 L1548.2 1548.85 L1543.54 1548.85 L1543.54 1540.7 L1527.94 1540.7 L1527.94 1536.19 L1542.32 1514.29 Z" fill="#000000" fill-rule="nonzero" fill-opacity="1" /><path clip-path="url(#clip690)" d="M1570.86 1517.37 Q1567.25 1517.37 1565.42 1520.93 Q1563.61 1524.47 1563.61 1531.6 Q1563.61 1538.71 1565.42 1542.27 Q1567.25 1545.82 1570.86 1545.82 Q1574.49 1545.82 1576.3 1542.27 Q1578.13 1538.71 1578.13 1531.6 Q1578.13 1524.47 1576.3 1520.93 Q1574.49 1517.37 1570.86 1517.37 M1570.86 1513.66 Q1576.67 1513.66 1579.72 1518.27 Q1582.8 1522.85 1582.8 1531.6 Q1582.8 1540.33 1579.72 1544.94 Q1576.67 1549.52 1570.86 1549.52 Q1565.05 1549.52 1561.97 1544.94 Q1558.91 1540.33 1558.91 1531.6 Q1558.91 1522.85 1561.97 1518.27 Q1565.05 1513.66 1570.86 1513.66 Z" fill="#000000" fill-rule="nonzero" fill-opacity="1" /><polyline clip-path="url(#clip690)" style="stroke:#000000; stroke-linecap:round; stroke-linejoin:round; stroke-width:4; stroke-opacity:1; fill:none" points="1012.31,1486.45 1012.31,47.2441 "/>
<polyline clip-path="url(#clip690)" style="stroke:#000000; stroke-linecap:round; stroke-linejoin:round; stroke-width:4; stroke-opacity:1; fill:none" points="1012.31,1445.72 1031.21,1445.72 "/>
<polyline clip-path="url(#clip690)" style="stroke:#000000; stroke-linecap:round; stroke-linejoin:round; stroke-width:4; stroke-opacity:1; fill:none" points="1012.31,1106.28 1031.21,1106.28 "/>
<polyline clip-path="url(#clip690)" style="stroke:#000000; stroke-linecap:round; stroke-linejoin:round; stroke-width:4; stroke-opacity:1; fill:none" points="1012.31,766.846 1031.21,766.846 "/>
<polyline clip-path="url(#clip690)" style="stroke:#000000; stroke-linecap:round; stroke-linejoin:round; stroke-width:4; stroke-opacity:1; fill:none" points="1012.31,427.411 1031.21,427.411 "/>
<polyline clip-path="url(#clip690)" style="stroke:#000000; stroke-linecap:round; stroke-linejoin:round; stroke-width:4; stroke-opacity:1; fill:none" points="1012.31,87.9763 1031.21,87.9763 "/>
<path clip-path="url(#clip690)" d="M964.368 1431.51 Q960.757 1431.51 958.928 1435.08 Q957.123 1438.62 957.123 1445.75 Q957.123 1452.86 958.928 1456.42 Q960.757 1459.96 964.368 1459.96 Q968.002 1459.96 969.808 1456.42 Q971.636 1452.86 971.636 1445.75 Q971.636 1438.62 969.808 1435.08 Q968.002 1431.51 964.368 1431.51 M964.368 1427.81 Q970.178 1427.81 973.234 1432.42 Q976.312 1437 976.312 1445.75 Q976.312 1454.48 973.234 1459.08 Q970.178 1463.67 964.368 1463.67 Q958.558 1463.67 955.479 1459.08 Q952.424 1454.48 952.424 1445.75 Q952.424 1437 955.479 1432.42 Q958.558 1427.81 964.368 1427.81 Z" fill="#000000" fill-rule="nonzero" fill-opacity="1" /><path clip-path="url(#clip690)" d="M955.41 1089 L973.766 1089 L973.766 1092.94 L959.692 1092.94 L959.692 1101.41 Q960.711 1101.06 961.729 1100.9 Q962.748 1100.71 963.766 1100.71 Q969.553 1100.71 972.933 1103.89 Q976.312 1107.06 976.312 1112.47 Q976.312 1118.05 972.84 1121.15 Q969.368 1124.23 963.048 1124.23 Q960.873 1124.23 958.604 1123.86 Q956.359 1123.49 953.951 1122.75 L953.951 1118.05 Q956.035 1119.19 958.257 1119.74 Q960.479 1120.3 962.956 1120.3 Q966.96 1120.3 969.298 1118.19 Q971.636 1116.08 971.636 1112.47 Q971.636 1108.86 969.298 1106.76 Q966.96 1104.65 962.956 1104.65 Q961.081 1104.65 959.206 1105.07 Q957.354 1105.48 955.41 1106.36 L955.41 1089 Z" fill="#000000" fill-rule="nonzero" fill-opacity="1" /><path clip-path="url(#clip690)" d="M925.016 780.191 L932.655 780.191 L932.655 753.825 L924.345 755.492 L924.345 751.233 L932.609 749.566 L937.285 749.566 L937.285 780.191 L944.924 780.191 L944.924 784.126 L925.016 784.126 L925.016 780.191 Z" fill="#000000" fill-rule="nonzero" fill-opacity="1" /><path clip-path="url(#clip690)" d="M964.368 752.645 Q960.757 752.645 958.928 756.209 Q957.123 759.751 957.123 766.881 Q957.123 773.987 958.928 777.552 Q960.757 781.094 964.368 781.094 Q968.002 781.094 969.808 777.552 Q971.636 773.987 971.636 766.881 Q971.636 759.751 969.808 756.209 Q968.002 752.645 964.368 752.645 M964.368 748.941 Q970.178 748.941 973.234 753.547 Q976.312 758.131 976.312 766.881 Q976.312 775.608 973.234 780.214 Q970.178 784.797 964.368 784.797 Q958.558 784.797 955.479 780.214 Q952.424 775.608 952.424 766.881 Q952.424 758.131 955.479 753.547 Q958.558 748.941 964.368 748.941 Z" fill="#000000" fill-rule="nonzero" fill-opacity="1" /><path clip-path="url(#clip690)" d="M926.012 440.756 L933.65 440.756 L933.65 414.39 L925.34 416.057 L925.34 411.798 L933.604 410.131 L938.28 410.131 L938.28 440.756 L945.919 440.756 L945.919 444.691 L926.012 444.691 L926.012 440.756 Z" fill="#000000" fill-rule="nonzero" fill-opacity="1" /><path clip-path="url(#clip690)" d="M955.41 410.131 L973.766 410.131 L973.766 414.066 L959.692 414.066 L959.692 422.538 Q960.711 422.191 961.729 422.029 Q962.748 421.844 963.766 421.844 Q969.553 421.844 972.933 425.015 Q976.312 428.187 976.312 433.603 Q976.312 439.182 972.84 442.284 Q969.368 445.362 963.048 445.362 Q960.873 445.362 958.604 444.992 Q956.359 444.622 953.951 443.881 L953.951 439.182 Q956.035 440.316 958.257 440.872 Q960.479 441.427 962.956 441.427 Q966.96 441.427 969.298 439.321 Q971.636 437.214 971.636 433.603 Q971.636 429.992 969.298 427.886 Q966.96 425.779 962.956 425.779 Q961.081 425.779 959.206 426.196 Q957.354 426.613 955.41 427.492 L955.41 410.131 Z" fill="#000000" fill-rule="nonzero" fill-opacity="1" /><path clip-path="url(#clip690)" d="M928.234 101.321 L944.553 101.321 L944.553 105.256 L922.609 105.256 L922.609 101.321 Q925.271 98.5665 929.854 93.9369 Q934.461 89.2841 935.641 87.9416 Q937.887 85.4184 938.766 83.6823 Q939.669 81.9231 939.669 80.2333 Q939.669 77.4786 937.725 75.7425 Q935.803 74.0064 932.701 74.0064 Q930.502 74.0064 928.049 74.7703 Q925.618 75.5342 922.84 77.0851 L922.84 72.3629 Q925.664 71.2287 928.118 70.65 Q930.572 70.0713 932.609 70.0713 Q937.979 70.0713 941.174 72.7565 Q944.368 75.4416 944.368 79.9323 Q944.368 82.062 943.558 83.9832 Q942.771 85.8814 940.664 88.474 Q940.086 89.1453 936.984 92.3628 Q933.882 95.5573 928.234 101.321 Z" fill="#000000" fill-rule="nonzero" fill-opacity="1" /><path clip-path="url(#clip690)" d="M964.368 73.775 Q960.757 73.775 958.928 77.3398 Q957.123 80.8814 957.123 88.011 Q957.123 95.1174 958.928 98.6822 Q960.757 102.224 964.368 102.224 Q968.002 102.224 969.808 98.6822 Q971.636 95.1174 971.636 88.011 Q971.636 80.8814 969.808 77.3398 Q968.002 73.775 964.368 73.775 M964.368 70.0713 Q970.178 70.0713 973.234 74.6777 Q976.312 79.261 976.312 88.011 Q976.312 96.7378 973.234 101.344 Q970.178 105.928 964.368 105.928 Q958.558 105.928 955.479 101.344 Q952.424 96.7378 952.424 88.011 Q952.424 79.261 955.479 74.6777 Q958.558 70.0713 964.368 70.0713 Z" fill="#000000" fill-rule="nonzero" fill-opacity="1" /><path clip-path="url(#clip690)" d="M843.548 805.852 Q839.601 803.656 837.723 800.6 Q835.846 797.545 835.846 793.407 Q835.846 787.837 839.76 784.813 Q843.644 781.789 850.837 781.789 L872.353 781.789 L872.353 787.678 L851.028 787.678 Q845.903 787.678 843.421 789.492 Q840.938 791.306 840.938 795.03 Q840.938 799.582 843.962 802.223 Q846.986 804.865 852.205 804.865 L872.353 804.865 L872.353 810.753 L851.028 810.753 Q845.872 810.753 843.421 812.568 Q840.938 814.382 840.938 818.169 Q840.938 822.657 843.994 825.299 Q847.017 827.941 852.205 827.941 L872.353 827.941 L872.353 833.829 L836.705 833.829 L836.705 827.941 L842.243 827.941 Q838.965 825.936 837.405 823.135 Q835.846 820.334 835.846 816.483 Q835.846 812.6 837.819 809.894 Q839.792 807.157 843.548 805.852 Z" fill="#000000" fill-rule="nonzero" fill-opacity="1" /><path clip-path="url(#clip690)" d="M854.433 753.908 Q854.433 761.005 856.057 763.743 Q857.68 766.48 861.595 766.48 Q864.714 766.48 866.56 764.443 Q868.374 762.374 868.374 758.841 Q868.374 753.971 864.937 751.043 Q861.468 748.083 855.738 748.083 L854.433 748.083 L854.433 753.908 M852.014 742.227 L872.353 742.227 L872.353 748.083 L866.942 748.083 Q870.189 750.088 871.748 753.08 Q873.276 756.072 873.276 760.401 Q873.276 765.875 870.22 769.122 Q867.133 772.336 861.977 772.336 Q855.961 772.336 852.906 768.326 Q849.85 764.284 849.85 756.295 L849.85 748.083 L849.277 748.083 Q845.235 748.083 843.039 750.757 Q840.811 753.398 840.811 758.205 Q840.811 761.26 841.543 764.156 Q842.275 767.053 843.739 769.726 L838.328 769.726 Q837.087 766.512 836.482 763.488 Q835.846 760.464 835.846 757.6 Q835.846 749.865 839.856 746.046 Q843.866 742.227 852.014 742.227 Z" fill="#000000" fill-rule="nonzero" fill-opacity="1" /><path clip-path="url(#clip690)" d="M836.705 700.531 L854.051 713.422 L872.353 699.863 L872.353 706.77 L858.348 717.146 L872.353 727.522 L872.353 734.429 L853.701 720.583 L836.705 733.251 L836.705 726.344 L849.405 716.891 L836.705 707.438 L836.705 700.531 Z" fill="#000000" fill-rule="nonzero" fill-opacity="1" /><polyline clip-path="url(#clip693)" style="stroke:#009af9; stroke-linecap:round; stroke-linejoin:round; stroke-width:4; stroke-opacity:1; fill:none" points="1028.13,1445.72 1041.65,1377.83 1055.17,1309.94 1068.69,1242.05 1082.21,1174.17 1095.72,1106.28 1109.24,1038.39 1122.76,970.507 1136.28,902.62 1149.8,834.733 1163.32,766.846 1176.84,698.959 1190.36,631.072 1203.88,563.185 1217.4,495.298 1230.92,427.411 1244.43,359.524 1257.95,291.637 1271.47,223.75 1284.99,155.863 1298.51,87.9763 1312.03,155.863 1325.55,223.75 1339.07,291.637 1352.59,359.524 1366.11,427.411 1379.62,495.298 1393.14,563.185 1406.66,631.072 1420.18,698.959 1433.7,766.846 1447.22,834.733 1460.74,902.62 1474.26,970.507 1487.78,1038.39 1501.3,1106.28 1514.82,1174.17 1528.33,1242.05 1541.85,1309.94 1555.37,1377.83 "/>
<path clip-path="url(#clip690)" d="M1793.88 1486.45 L2352.76 1486.45 L2352.76 47.2441 L1793.88 47.2441  Z" fill="#ffffff" fill-rule="evenodd" fill-opacity="1"/>
<defs>
  <clipPath id="clip694">
    <rect x="1793" y="47" width="560" height="1440"/>
  </clipPath>
</defs>
<polyline clip-path="url(#clip694)" style="stroke:#000000; stroke-linecap:round; stroke-linejoin:round; stroke-width:2; stroke-opacity:0.1; fill:none" points="1796.18,1486.45 1796.18,47.2441 "/>
<polyline clip-path="url(#clip694)" style="stroke:#000000; stroke-linecap:round; stroke-linejoin:round; stroke-width:2; stroke-opacity:0.1; fill:none" points="1931.37,1486.45 1931.37,47.2441 "/>
<polyline clip-path="url(#clip694)" style="stroke:#000000; stroke-linecap:round; stroke-linejoin:round; stroke-width:2; stroke-opacity:0.1; fill:none" points="2066.56,1486.45 2066.56,47.2441 "/>
<polyline clip-path="url(#clip694)" style="stroke:#000000; stroke-linecap:round; stroke-linejoin:round; stroke-width:2; stroke-opacity:0.1; fill:none" points="2201.75,1486.45 2201.75,47.2441 "/>
<polyline clip-path="url(#clip694)" style="stroke:#000000; stroke-linecap:round; stroke-linejoin:round; stroke-width:2; stroke-opacity:0.1; fill:none" points="2336.94,1486.45 2336.94,47.2441 "/>
<polyline clip-path="url(#clip694)" style="stroke:#000000; stroke-linecap:round; stroke-linejoin:round; stroke-width:2; stroke-opacity:0.1; fill:none" points="1793.88,1445.72 2352.76,1445.72 "/>
<polyline clip-path="url(#clip694)" style="stroke:#000000; stroke-linecap:round; stroke-linejoin:round; stroke-width:2; stroke-opacity:0.1; fill:none" points="1793.88,1174.17 2352.76,1174.17 "/>
<polyline clip-path="url(#clip694)" style="stroke:#000000; stroke-linecap:round; stroke-linejoin:round; stroke-width:2; stroke-opacity:0.1; fill:none" points="1793.88,902.62 2352.76,902.62 "/>
<polyline clip-path="url(#clip694)" style="stroke:#000000; stroke-linecap:round; stroke-linejoin:round; stroke-width:2; stroke-opacity:0.1; fill:none" points="1793.88,631.072 2352.76,631.072 "/>
<polyline clip-path="url(#clip694)" style="stroke:#000000; stroke-linecap:round; stroke-linejoin:round; stroke-width:2; stroke-opacity:0.1; fill:none" points="1793.88,359.524 2352.76,359.524 "/>
<polyline clip-path="url(#clip694)" style="stroke:#000000; stroke-linecap:round; stroke-linejoin:round; stroke-width:2; stroke-opacity:0.1; fill:none" points="1793.88,87.9763 2352.76,87.9763 "/>
<polyline clip-path="url(#clip690)" style="stroke:#000000; stroke-linecap:round; stroke-linejoin:round; stroke-width:4; stroke-opacity:1; fill:none" points="1793.88,1486.45 2352.76,1486.45 "/>
<polyline clip-path="url(#clip690)" style="stroke:#000000; stroke-linecap:round; stroke-linejoin:round; stroke-width:4; stroke-opacity:1; fill:none" points="1796.18,1486.45 1796.18,1467.55 "/>
<polyline clip-path="url(#clip690)" style="stroke:#000000; stroke-linecap:round; stroke-linejoin:round; stroke-width:4; stroke-opacity:1; fill:none" points="1931.37,1486.45 1931.37,1467.55 "/>
<polyline clip-path="url(#clip690)" style="stroke:#000000; stroke-linecap:round; stroke-linejoin:round; stroke-width:4; stroke-opacity:1; fill:none" points="2066.56,1486.45 2066.56,1467.55 "/>
<polyline clip-path="url(#clip690)" style="stroke:#000000; stroke-linecap:round; stroke-linejoin:round; stroke-width:4; stroke-opacity:1; fill:none" points="2201.75,1486.45 2201.75,1467.55 "/>
<polyline clip-path="url(#clip690)" style="stroke:#000000; stroke-linecap:round; stroke-linejoin:round; stroke-width:4; stroke-opacity:1; fill:none" points="2336.94,1486.45 2336.94,1467.55 "/>
<path clip-path="url(#clip690)" d="M1796.18 1517.37 Q1792.57 1517.37 1790.74 1520.93 Q1788.93 1524.47 1788.93 1531.6 Q1788.93 1538.71 1790.74 1542.27 Q1792.57 1545.82 1796.18 1545.82 Q1799.81 1545.82 1801.62 1542.27 Q1803.45 1538.71 1803.45 1531.6 Q1803.45 1524.47 1801.62 1520.93 Q1799.81 1517.37 1796.18 1517.37 M1796.18 1513.66 Q1801.99 1513.66 1805.04 1518.27 Q1808.12 1522.85 1808.12 1531.6 Q1808.12 1540.33 1805.04 1544.94 Q1801.99 1549.52 1796.18 1549.52 Q1790.37 1549.52 1787.29 1544.94 Q1784.23 1540.33 1784.23 1531.6 Q1784.23 1522.85 1787.29 1518.27 Q1790.37 1513.66 1796.18 1513.66 Z" fill="#000000" fill-rule="nonzero" fill-opacity="1" /><path clip-path="url(#clip690)" d="M1906.06 1544.91 L1913.69 1544.91 L1913.69 1518.55 L1905.38 1520.21 L1905.38 1515.95 L1913.65 1514.29 L1918.32 1514.29 L1918.32 1544.91 L1925.96 1544.91 L1925.96 1548.85 L1906.06 1548.85 L1906.06 1544.91 Z" fill="#000000" fill-rule="nonzero" fill-opacity="1" /><path clip-path="url(#clip690)" d="M1945.41 1517.37 Q1941.8 1517.37 1939.97 1520.93 Q1938.16 1524.47 1938.16 1531.6 Q1938.16 1538.71 1939.97 1542.27 Q1941.8 1545.82 1945.41 1545.82 Q1949.04 1545.82 1950.85 1542.27 Q1952.68 1538.71 1952.68 1531.6 Q1952.68 1524.47 1950.85 1520.93 Q1949.04 1517.37 1945.41 1517.37 M1945.41 1513.66 Q1951.22 1513.66 1954.27 1518.27 Q1957.35 1522.85 1957.35 1531.6 Q1957.35 1540.33 1954.27 1544.94 Q1951.22 1549.52 1945.41 1549.52 Q1939.6 1549.52 1936.52 1544.94 Q1933.46 1540.33 1933.46 1531.6 Q1933.46 1522.85 1936.52 1518.27 Q1939.6 1513.66 1945.41 1513.66 Z" fill="#000000" fill-rule="nonzero" fill-opacity="1" /><path clip-path="url(#clip690)" d="M2045.33 1544.91 L2061.65 1544.91 L2061.65 1548.85 L2039.71 1548.85 L2039.71 1544.91 Q2042.37 1542.16 2046.95 1537.53 Q2051.56 1532.88 2052.74 1531.53 Q2054.98 1529.01 2055.86 1527.27 Q2056.77 1525.51 2056.77 1523.82 Q2056.77 1521.07 2054.82 1519.33 Q2052.9 1517.6 2049.8 1517.6 Q2047.6 1517.6 2045.15 1518.36 Q2042.72 1519.13 2039.94 1520.68 L2039.94 1515.95 Q2042.76 1514.82 2045.22 1514.24 Q2047.67 1513.66 2049.71 1513.66 Q2055.08 1513.66 2058.27 1516.35 Q2061.47 1519.03 2061.47 1523.52 Q2061.47 1525.65 2060.66 1527.57 Q2059.87 1529.47 2057.76 1532.07 Q2057.18 1532.74 2054.08 1535.95 Q2050.98 1539.15 2045.33 1544.91 Z" fill="#000000" fill-rule="nonzero" fill-opacity="1" /><path clip-path="url(#clip690)" d="M2081.47 1517.37 Q2077.85 1517.37 2076.03 1520.93 Q2074.22 1524.47 2074.22 1531.6 Q2074.22 1538.71 2076.03 1542.27 Q2077.85 1545.82 2081.47 1545.82 Q2085.1 1545.82 2086.9 1542.27 Q2088.73 1538.71 2088.73 1531.6 Q2088.73 1524.47 2086.9 1520.93 Q2085.1 1517.37 2081.47 1517.37 M2081.47 1513.66 Q2087.28 1513.66 2090.33 1518.27 Q2093.41 1522.85 2093.41 1531.6 Q2093.41 1540.33 2090.33 1544.94 Q2087.28 1549.52 2081.47 1549.52 Q2075.65 1549.52 2072.58 1544.94 Q2069.52 1540.33 2069.52 1531.6 Q2069.52 1522.85 2072.58 1518.27 Q2075.65 1513.66 2081.47 1513.66 Z" fill="#000000" fill-rule="nonzero" fill-opacity="1" /><path clip-path="url(#clip690)" d="M2190.59 1530.21 Q2193.95 1530.93 2195.82 1533.2 Q2197.72 1535.47 2197.72 1538.8 Q2197.72 1543.92 2194.2 1546.72 Q2190.68 1549.52 2184.2 1549.52 Q2182.03 1549.52 2179.71 1549.08 Q2177.42 1548.66 2174.97 1547.81 L2174.97 1543.29 Q2176.91 1544.43 2179.23 1545.01 Q2181.54 1545.58 2184.06 1545.58 Q2188.46 1545.58 2190.75 1543.85 Q2193.07 1542.11 2193.07 1538.8 Q2193.07 1535.75 2190.91 1534.03 Q2188.79 1532.3 2184.97 1532.3 L2180.94 1532.3 L2180.94 1528.45 L2185.15 1528.45 Q2188.6 1528.45 2190.43 1527.09 Q2192.26 1525.7 2192.26 1523.11 Q2192.26 1520.45 2190.36 1519.03 Q2188.48 1517.6 2184.97 1517.6 Q2183.04 1517.6 2180.85 1518.01 Q2178.65 1518.43 2176.01 1519.31 L2176.01 1515.14 Q2178.67 1514.4 2180.98 1514.03 Q2183.32 1513.66 2185.38 1513.66 Q2190.71 1513.66 2193.81 1516.09 Q2196.91 1518.5 2196.91 1522.62 Q2196.91 1525.49 2195.27 1527.48 Q2193.62 1529.45 2190.59 1530.21 Z" fill="#000000" fill-rule="nonzero" fill-opacity="1" /><path clip-path="url(#clip690)" d="M2216.59 1517.37 Q2212.98 1517.37 2211.15 1520.93 Q2209.34 1524.47 2209.34 1531.6 Q2209.34 1538.71 2211.15 1542.27 Q2212.98 1545.82 2216.59 1545.82 Q2220.22 1545.82 2222.03 1542.27 Q2223.85 1538.71 2223.85 1531.6 Q2223.85 1524.47 2222.03 1520.93 Q2220.22 1517.37 2216.59 1517.37 M2216.59 1513.66 Q2222.4 1513.66 2225.45 1518.27 Q2228.53 1522.85 2228.53 1531.6 Q2228.53 1540.33 2225.45 1544.94 Q2222.4 1549.52 2216.59 1549.52 Q2210.78 1549.52 2207.7 1544.94 Q2204.64 1540.33 2204.64 1531.6 Q2204.64 1522.85 2207.7 1518.27 Q2210.78 1513.66 2216.59 1513.66 Z" fill="#000000" fill-rule="nonzero" fill-opacity="1" /><path clip-path="url(#clip690)" d="M2325.11 1518.36 L2313.3 1536.81 L2325.11 1536.81 L2325.11 1518.36 M2323.88 1514.29 L2329.76 1514.29 L2329.76 1536.81 L2334.69 1536.81 L2334.69 1540.7 L2329.76 1540.7 L2329.76 1548.85 L2325.11 1548.85 L2325.11 1540.7 L2309.51 1540.7 L2309.51 1536.19 L2323.88 1514.29 Z" fill="#000000" fill-rule="nonzero" fill-opacity="1" /><path clip-path="url(#clip690)" d="M2352.42 1517.37 Q2348.81 1517.37 2346.98 1520.93 Q2345.18 1524.47 2345.18 1531.6 Q2345.18 1538.71 2346.98 1542.27 Q2348.81 1545.82 2352.42 1545.82 Q2356.06 1545.82 2357.86 1542.27 Q2359.69 1538.71 2359.69 1531.6 Q2359.69 1524.47 2357.86 1520.93 Q2356.06 1517.37 2352.42 1517.37 M2352.42 1513.66 Q2358.23 1513.66 2361.29 1518.27 Q2364.37 1522.85 2364.37 1531.6 Q2364.37 1540.33 2361.29 1544.94 Q2358.23 1549.52 2352.42 1549.52 Q2346.61 1549.52 2343.54 1544.94 Q2340.48 1540.33 2340.48 1531.6 Q2340.48 1522.85 2343.54 1518.27 Q2346.61 1513.66 2352.42 1513.66 Z" fill="#000000" fill-rule="nonzero" fill-opacity="1" /><polyline clip-path="url(#clip690)" style="stroke:#000000; stroke-linecap:round; stroke-linejoin:round; stroke-width:4; stroke-opacity:1; fill:none" points="1793.88,1486.45 1793.88,47.2441 "/>
<polyline clip-path="url(#clip690)" style="stroke:#000000; stroke-linecap:round; stroke-linejoin:round; stroke-width:4; stroke-opacity:1; fill:none" points="1793.88,1445.72 1812.78,1445.72 "/>
<polyline clip-path="url(#clip690)" style="stroke:#000000; stroke-linecap:round; stroke-linejoin:round; stroke-width:4; stroke-opacity:1; fill:none" points="1793.88,1174.17 1812.78,1174.17 "/>
<polyline clip-path="url(#clip690)" style="stroke:#000000; stroke-linecap:round; stroke-linejoin:round; stroke-width:4; stroke-opacity:1; fill:none" points="1793.88,902.62 1812.78,902.62 "/>
<polyline clip-path="url(#clip690)" style="stroke:#000000; stroke-linecap:round; stroke-linejoin:round; stroke-width:4; stroke-opacity:1; fill:none" points="1793.88,631.072 1812.78,631.072 "/>
<polyline clip-path="url(#clip690)" style="stroke:#000000; stroke-linecap:round; stroke-linejoin:round; stroke-width:4; stroke-opacity:1; fill:none" points="1793.88,359.524 1812.78,359.524 "/>
<polyline clip-path="url(#clip690)" style="stroke:#000000; stroke-linecap:round; stroke-linejoin:round; stroke-width:4; stroke-opacity:1; fill:none" points="1793.88,87.9763 1812.78,87.9763 "/>
<path clip-path="url(#clip690)" d="M1745.93 1431.51 Q1742.32 1431.51 1740.49 1435.08 Q1738.69 1438.62 1738.69 1445.75 Q1738.69 1452.86 1740.49 1456.42 Q1742.32 1459.96 1745.93 1459.96 Q1749.57 1459.96 1751.37 1456.42 Q1753.2 1452.86 1753.2 1445.75 Q1753.2 1438.62 1751.37 1435.08 Q1749.57 1431.51 1745.93 1431.51 M1745.93 1427.81 Q1751.74 1427.81 1754.8 1432.42 Q1757.88 1437 1757.88 1445.75 Q1757.88 1454.48 1754.8 1459.08 Q1751.74 1463.67 1745.93 1463.67 Q1740.12 1463.67 1737.05 1459.08 Q1733.99 1454.48 1733.99 1445.75 Q1733.99 1437 1737.05 1432.42 Q1740.12 1427.81 1745.93 1427.81 Z" fill="#000000" fill-rule="nonzero" fill-opacity="1" /><path clip-path="url(#clip690)" d="M1737.97 1187.51 L1745.61 1187.51 L1745.61 1161.15 L1737.3 1162.81 L1737.3 1158.55 L1745.56 1156.89 L1750.24 1156.89 L1750.24 1187.51 L1757.88 1187.51 L1757.88 1191.45 L1737.97 1191.45 L1737.97 1187.51 Z" fill="#000000" fill-rule="nonzero" fill-opacity="1" /><path clip-path="url(#clip690)" d="M1741.56 915.965 L1757.88 915.965 L1757.88 919.9 L1735.93 919.9 L1735.93 915.965 Q1738.6 913.21 1743.18 908.581 Q1747.79 903.928 1748.97 902.585 Q1751.21 900.062 1752.09 898.326 Q1752.99 896.567 1752.99 894.877 Q1752.99 892.122 1751.05 890.386 Q1749.13 888.65 1746.03 888.65 Q1743.83 888.65 1741.37 889.414 Q1738.94 890.178 1736.17 891.729 L1736.17 887.007 Q1738.99 885.872 1741.44 885.294 Q1743.9 884.715 1745.93 884.715 Q1751.3 884.715 1754.5 887.4 Q1757.69 890.085 1757.69 894.576 Q1757.69 896.706 1756.88 898.627 Q1756.1 900.525 1753.99 903.118 Q1753.41 903.789 1750.31 907.006 Q1747.21 910.201 1741.56 915.965 Z" fill="#000000" fill-rule="nonzero" fill-opacity="1" /><path clip-path="url(#clip690)" d="M1750.75 629.718 Q1754.11 630.435 1755.98 632.704 Q1757.88 634.972 1757.88 638.306 Q1757.88 643.422 1754.36 646.222 Q1750.84 649.023 1744.36 649.023 Q1742.18 649.023 1739.87 648.584 Q1737.58 648.167 1735.12 647.31 L1735.12 642.797 Q1737.07 643.931 1739.38 644.509 Q1741.7 645.088 1744.22 645.088 Q1748.62 645.088 1750.91 643.352 Q1753.23 641.616 1753.23 638.306 Q1753.23 635.25 1751.07 633.537 Q1748.94 631.801 1745.12 631.801 L1741.1 631.801 L1741.1 627.959 L1745.31 627.959 Q1748.76 627.959 1750.59 626.593 Q1752.42 625.204 1752.42 622.611 Q1752.42 619.949 1750.52 618.537 Q1748.64 617.102 1745.12 617.102 Q1743.2 617.102 1741 617.519 Q1738.8 617.936 1736.17 618.815 L1736.17 614.649 Q1738.83 613.908 1741.14 613.537 Q1743.48 613.167 1745.54 613.167 Q1750.86 613.167 1753.97 615.598 Q1757.07 618.005 1757.07 622.125 Q1757.07 624.996 1755.43 626.986 Q1753.78 628.954 1750.75 629.718 Z" fill="#000000" fill-rule="nonzero" fill-opacity="1" /><path clip-path="url(#clip690)" d="M1748.3 346.318 L1736.49 364.767 L1748.3 364.767 L1748.3 346.318 M1747.07 342.244 L1752.95 342.244 L1752.95 364.767 L1757.88 364.767 L1757.88 368.656 L1752.95 368.656 L1752.95 376.804 L1748.3 376.804 L1748.3 368.656 L1732.69 368.656 L1732.69 364.142 L1747.07 342.244 Z" fill="#000000" fill-rule="nonzero" fill-opacity="1" /><path clip-path="url(#clip690)" d="M1736.98 70.6963 L1755.33 70.6963 L1755.33 74.6314 L1741.26 74.6314 L1741.26 83.1036 Q1742.28 82.7564 1743.3 82.5944 Q1744.31 82.4092 1745.33 82.4092 Q1751.12 82.4092 1754.5 85.5805 Q1757.88 88.7517 1757.88 94.1684 Q1757.88 99.747 1754.41 102.849 Q1750.93 105.928 1744.61 105.928 Q1742.44 105.928 1740.17 105.557 Q1737.93 105.187 1735.52 104.446 L1735.52 99.747 Q1737.6 100.881 1739.82 101.437 Q1742.05 101.992 1744.52 101.992 Q1748.53 101.992 1750.86 99.8859 Q1753.2 97.7795 1753.2 94.1684 Q1753.2 90.5573 1750.86 88.4508 Q1748.53 86.3443 1744.52 86.3443 Q1742.65 86.3443 1740.77 86.761 Q1738.92 87.1777 1736.98 88.0573 L1736.98 70.6963 Z" fill="#000000" fill-rule="nonzero" fill-opacity="1" /><path clip-path="url(#clip690)" d="M1653.63 794.6 Q1649.69 792.404 1647.81 789.349 Q1645.93 786.293 1645.93 782.156 Q1645.93 776.586 1649.85 773.562 Q1653.73 770.538 1660.92 770.538 L1682.44 770.538 L1682.44 776.426 L1661.11 776.426 Q1655.99 776.426 1653.51 778.241 Q1651.02 780.055 1651.02 783.779 Q1651.02 788.33 1654.05 790.972 Q1657.07 793.614 1662.29 793.614 L1682.44 793.614 L1682.44 799.502 L1661.11 799.502 Q1655.96 799.502 1653.51 801.316 Q1651.02 803.131 1651.02 806.918 Q1651.02 811.406 1654.08 814.048 Q1657.1 816.689 1662.29 816.689 L1682.44 816.689 L1682.44 822.578 L1646.79 822.578 L1646.79 816.689 L1652.33 816.689 Q1649.05 814.684 1647.49 811.883 Q1645.93 809.082 1645.93 805.231 Q1645.93 801.348 1647.9 798.643 Q1649.88 795.905 1653.63 794.6 Z" fill="#000000" fill-rule="nonzero" fill-opacity="1" /><path clip-path="url(#clip690)" d="M1646.79 758.857 L1646.79 753.001 L1682.44 753.001 L1682.44 758.857 L1646.79 758.857 M1632.91 758.857 L1632.91 753.001 L1640.33 753.001 L1640.33 758.857 L1632.91 758.857 Z" fill="#000000" fill-rule="nonzero" fill-opacity="1" /><path clip-path="url(#clip690)" d="M1660.92 711.114 L1682.44 711.114 L1682.44 716.971 L1661.11 716.971 Q1656.05 716.971 1653.54 718.944 Q1651.02 720.917 1651.02 724.864 Q1651.02 729.607 1654.05 732.344 Q1657.07 735.081 1662.29 735.081 L1682.44 735.081 L1682.44 740.969 L1646.79 740.969 L1646.79 735.081 L1652.33 735.081 Q1649.11 732.98 1647.52 730.148 Q1645.93 727.283 1645.93 723.559 Q1645.93 717.416 1649.75 714.265 Q1653.54 711.114 1660.92 711.114 Z" fill="#000000" fill-rule="nonzero" fill-opacity="1" /><polyline clip-path="url(#clip694)" style="stroke:#009af9; stroke-linecap:round; stroke-linejoin:round; stroke-width:4; stroke-opacity:1; fill:none" points="1809.7,1445.72 1823.22,1445.72 1836.73,1445.72 1850.25,1445.72 1863.77,1174.17 1877.29,1174.17 1890.81,1174.17 1904.33,1174.17 1917.85,902.62 1931.37,902.62 1944.89,902.62 1958.41,902.62 1971.92,631.072 1985.44,631.072 1998.96,631.072 2012.48,631.072 2026,359.524 2039.52,87.9763 2053.04,87.9763 2066.56,87.9763 2080.08,87.9763 2093.6,359.524 2107.11,359.524 2120.63,359.524 2134.15,359.524 2147.67,631.072 2161.19,631.072 2174.71,631.072 2188.23,631.072 2201.75,902.62 2215.27,902.62 2228.79,902.62 2242.31,902.62 2255.82,1174.17 2269.34,1174.17 2282.86,1174.17 2296.38,1174.17 2309.9,1445.72 2323.42,1445.72 2336.94,1445.72 "/>
</svg>
